<mxfile host="app.diagrams.net" modified="2021-05-21T14:29:00.681Z" agent="5.0 (Windows)" etag="P-MGNMmXpdsTFqEbcYqg" version="14.6.3" type="github">
  <diagram id="h00zTIccyRXldzvyFZXt" name="Page-1">
    <mxGraphModel dx="868" dy="489" grid="1" gridSize="10" guides="1" tooltips="1" connect="1" arrows="1" fold="1" page="1" pageScale="1" pageWidth="850" pageHeight="1100" math="0" shadow="0">
      <root>
        <mxCell id="0" />
        <mxCell id="1" parent="0" />
        <mxCell id="VCr7q-Y5Y-EF6py8yG3E-22" style="edgeStyle=orthogonalEdgeStyle;rounded=0;orthogonalLoop=1;jettySize=auto;html=1;exitX=0.5;exitY=0;exitDx=0;exitDy=0;" parent="1" source="VCr7q-Y5Y-EF6py8yG3E-1" edge="1">
          <mxGeometry relative="1" as="geometry">
            <mxPoint x="97" y="300" as="targetPoint" />
          </mxGeometry>
        </mxCell>
        <mxCell id="VCr7q-Y5Y-EF6py8yG3E-23" style="edgeStyle=orthogonalEdgeStyle;rounded=0;orthogonalLoop=1;jettySize=auto;html=1;exitX=1;exitY=0.5;exitDx=0;exitDy=0;" parent="1" source="VCr7q-Y5Y-EF6py8yG3E-1" edge="1">
          <mxGeometry relative="1" as="geometry">
            <mxPoint x="160" y="370" as="targetPoint" />
          </mxGeometry>
        </mxCell>
        <mxCell id="VCr7q-Y5Y-EF6py8yG3E-1" value="Battery" style="shape=image;verticalLabelPosition=bottom;labelBackgroundColor=#ffffff;verticalAlign=top;aspect=fixed;imageAspect=0;image=data:image/png,/9j/4AAQSkZJRgABAQEASABIAAD/2wCEAAgGBgcGBQgHBwcJCQgKDBQNDAsLDBkSEw8UHRofHh0aHBwgJC4nICIsIxwcKDcpLDAxNDQ0Hyc5PTgyPC4zNDIBCQkJDAsMGA0NGDIhHCEyMjIyMjIyMjIyMjIyMjIyMjIyMjIyMjIyMjIyMjIyMjIyMjIyMjIyMjIyMjIyMjIyMv/CABEIAMgAyAMBIgACEQEDEQH/xAAbAAEAAwEBAQEAAAAAAAAAAAAABgcIBQECBP/aAAgBAQAAAAC/wAAAAAAAAAAAAAAAAAAAAAAAAAAAABGOaAAfc19AylaQABXN9ScDNWlQACkrElIGatKg5UCtI84fdUlB/dSAzVpUIBlro7PglXfj0L11JWJSelQZq0qfFC0DJ4r1ebf19/RSViUnpUGatKuNRfRtST4t5upp+FJWJSelQZq0q53RFWzzrApKD+6kBmrSoABSViSkDKVpAAFc31JwIxzQAD7mvoAAAAAAAAAAAAAAAAAAAAAAAAAAAAAf/8QAFAEBAAAAAAAAAAAAAAAAAAAAAP/aAAgBAhAAAAAAAAAAAAAAAAAAAAAAAAAAAAAAAAB//8QAFAEBAAAAAAAAAAAAAAAAAAAAAP/aAAgBAxAAAAAAAAAAAAAAAAAAAAAAAAAAAAAAAAB//8QALBAAAQMDAgQFBAMAAAAAAAAABgACBQMHFwQYAQggOBASFjY3EzBAcBEUIf/aAAgBAQABCAD9ZTdwxMckOOglcwgKzCArMICswgKzCArMICswgKzCArMICswgKzCArMICswgKzCArMICqV3QOtVZSY1zXt4Ob16Ab0ZpfeZiZTbsHrbsHrbsHrbsHrbsHrbsHrbsHrbsHrbsHrbsHrbsHrbsHrbsHrbsHrbsHq7tsYMEh4/VxVuXuqW4HXP6wPuTlPwOZH21Cq23xsOfYA+5OU6yAjiheKqSMvbu7frsxk43oc5rW8XOpGEHqpbhF6Dw5kvbUMoAcvDqYDQV4aGI7gjl0IeEnuoD7k5TquFdaHBqLtM0nLJgvlXSExbSd9PXDhte6rWpUKTqtafvKFQPnZxn+Y2V1PmpQIyNHd3KzdZPDgxECkUyOh/DmR9tQqtt8ajiPO5OL6wPuTlOirVp0KT6tW5F9+DfqxIfWq1dTWfWrQlti4gpca+h/1rlME04QP4OlqNGrqazKNG29iGs+lLGFOmyjSZSpePMj7ahVbb41HEedycX1gfcnKeJIUxAnFukJgj1Vx7uVf68YP8t9JvlqkQ/bwUGfK6M/hXLgvTtw5jQNGBSYL5VsfD29tTDg1Fupd08yPtqFVtvjUcR53JxfWB9ycp48YGLfK8ZSr0XGtL67LoqR4Dw1Ei0VTjojq5kvbUMoAjvDpoDQUIaGHLgkd0IebnuoD7k5T8DmR9tQqtt8bDn2NASaMLvvMy0puJD1uJD1uJD1uJD1uJD1uJD1uJD1uJD1uJD1uJD1uJD1uJD1uJD1uJD1uJD1d250Gdw8fpIq3LHU7cDrX9c3bwTI5Djr5XDwCsPAKw8ArDwCsPAKw8ArDwCsPAKw8ArDwCsPAKw8ArDwCsPAKw8AqlaIDo1WVWNa1jeDW/rP/8QAPRAAAQIDBAUJBgUEAwAAAAAAAQIDAAQRBQYh0hIxVJOUEyBBUWFxgbLCECIwQlKhFTJAQ1UUI3DwcpKi/9oACAEBAAk/AP8AGVty8vNJAKmqKWpNdVdEGnjF42Ny7li8bG5dyxeNjcu5YvGxuXcsXjY3LuWLxsbl3LF42Ny7li8bG5dyxeNjcu5YvGxuXcsXjY3LuWLxsbl3LF42Ny7li8bG5dyxeNjcu5YvJLBSjQFaHEjxJSAPGFBSSKgg1BHwHZgS7s9OKUplYC/cKiMSD1DoictniG8kTls8Q3kictniG8kTls8Q3kictniG8kTls8Q3kictniG8kTls8Q3kictniG8kTls8Q3kictniG8kTls8Q3kictniG8kTls8Q3kictniG8kPzzjkxMFpYmXEqFAmuFEiFFSvw9nEmvyj4G2T/r/QbaryGP49ry/A2yf9fPnES0ujAVxUtX0pGtR7BEomVlEMB2TSo1cUEqooqOqp0kmg1UOJ18wgAYknoidRPzutbUn/d5IdJWoe6gd5HZX27YryGJy0E2athKpZKLSQhIbphRJVh3RbM8XVzbDb8s9NcshSHCBjQkaj4c/bJ/184idthSaolG1fk6i4flHZrP3ibU85iG2xghpP0oT0D7nprC9Fnlwy8ejQX7hJ7q18IcS22kVUtZAAHaTFqCffT+1IJ5X/1gn7xZLEmjUHplXKr7wkUSPGsWzOtWHpVU4s6KXOsNNiiT1aVKDt1RKIl2E4qIxU4r6lK1k/6PbtivIY2Bryxtkh6Oftk/6+YtKG0JKlLUaBIGsk9AhwE4pdtKmA6w0D5j4dBhxbjriipa1qJUonWSTrMWHM/04SVcs8nkkEUrgVU0vCsVBH2i1ZucpqS86SlPcnUPAQ2tx1aglCEJKlKJ1AAazDYUrBTVm1wHUXSNf/EePVCEobQAlKUigSBqAHQOZtivIY2Bryxtkh6Oftk/6/bNpYa1ITrW6r6UJ1qP+mkWNM2bd8qqhDx5FLg6FOKNNPuSCB2nGLaUs9LEimg/7qHpEWLLIeT++6nlHK9ekqpHhT2I0WS+XmerQX74A7q08IlFPOYFxZwQ0n6lq6B9z0VgJnbYUmi5tafydYbHyjt1n7c7bFeQxsDXljbJD0c/bJ/1+2SZdnqUTMOp01oHUkmuiOwU5s2iVlm2FNTiwKuKAVVASNVTpKFTqw16ok0S7CcTTFS1fUo61HtPP2xXkMSdoKs1DCUyykWahaS3TCiinHvixp4Oom2HH5l6V5FCUNkHGgA1Dx5+2T/r/QbaryGP49ry/AamDLtT04lSWUAr98qAwJHWOmJO2eHbzxJ2zw7eeJO2eHbzxJ2zw7eeJO2eHbzxJ2zw7eeJO2eHbzxJ2zw7eeJO2eHbzxJ2zw7eeJO2eHbzxJ2zw7eeJO2eHbzxJ2zw7eeJO2eHbzwxPNuS8wXVmZbSkUKaYUUYSUq/D2cCKfKPgWJLzE0oAKdqpClU1V0SK+MXcY3zuaLuMb53NF3GN87mi7jG+dzRdxjfO5ou4xvnc0XcY3zuaLuMb53NF3GN87mi7jG+dzRdxjfO5ou4xvnc0XcY3zuaLuMb53NF3GN87mi7csVJNQFrcUPEFRB8YSEpAoABQAf40//EABQRAQAAAAAAAAAAAAAAAAAAAHD/2gAIAQIBAT8AKf/EABQRAQAAAAAAAAAAAAAAAAAAAHD/2gAIAQMBAT8AKf/Z;rotation=0;" parent="1" vertex="1">
          <mxGeometry x="57" y="330" width="80" height="80" as="geometry" />
        </mxCell>
        <mxCell id="VCr7q-Y5Y-EF6py8yG3E-8" style="edgeStyle=orthogonalEdgeStyle;rounded=0;orthogonalLoop=1;jettySize=auto;html=1;exitX=1;exitY=0.5;exitDx=0;exitDy=0;entryX=0;entryY=0.5;entryDx=0;entryDy=0;" parent="1" source="VCr7q-Y5Y-EF6py8yG3E-2" target="VCr7q-Y5Y-EF6py8yG3E-6" edge="1">
          <mxGeometry relative="1" as="geometry" />
        </mxCell>
        <mxCell id="VCr7q-Y5Y-EF6py8yG3E-9" style="edgeStyle=orthogonalEdgeStyle;rounded=0;orthogonalLoop=1;jettySize=auto;html=1;exitX=1;exitY=0.25;exitDx=0;exitDy=0;entryX=0;entryY=0.5;entryDx=0;entryDy=0;" parent="1" source="VCr7q-Y5Y-EF6py8yG3E-2" target="VCr7q-Y5Y-EF6py8yG3E-5" edge="1">
          <mxGeometry relative="1" as="geometry" />
        </mxCell>
        <mxCell id="VCr7q-Y5Y-EF6py8yG3E-10" style="edgeStyle=orthogonalEdgeStyle;rounded=0;orthogonalLoop=1;jettySize=auto;html=1;exitX=1;exitY=0.75;exitDx=0;exitDy=0;entryX=0;entryY=0.5;entryDx=0;entryDy=0;" parent="1" source="VCr7q-Y5Y-EF6py8yG3E-2" target="VCr7q-Y5Y-EF6py8yG3E-7" edge="1">
          <mxGeometry relative="1" as="geometry" />
        </mxCell>
        <mxCell id="VCr7q-Y5Y-EF6py8yG3E-2" value="Microcontroller" style="shape=image;verticalLabelPosition=bottom;labelBackgroundColor=#ffffff;verticalAlign=top;aspect=fixed;imageAspect=0;image=data:image/png,iVBORw0KGgoAAAANSUhEUgAAAMgAAADICAYAAACtWK6eAAAABHNCSVQICAgIfAhkiAAAAAlwSFlzAAALEwAACxMBAJqcGAAADNJJREFUeJzt3XmQnEUZx/HvzGxCCDc5CBBIDARQ5JIQQRHkUKNQchZKAEHFAsoSFSgDJRaihWLk8g8RTDDKFbBkKRQPQCqBQJKCgJFaiEASiRRIQiBAwpJkj/GPZ6fczc70e0z3vO/s/D5VXRw7+3TPzjwz79H9NDSnrYCrgVeAHmAl8H1gWJ1xPwcsADYB7wK/B/auM+Y4YDawFugCngXOqiNeCbgUeAl77q8C1wIjU8bbE7gTWAdsBhYDJ9cxvr2Ae7G/3yZgIfCFOuJJQm3Ao0C5SnsQKKaMey7QWyXmOuAjKWOOA1bVGOtVKWPOrRFvEfbBkcQkYHWNeN9KMbb9gLdqxDs/RTxJ4QKqvwCVdnaKmDsC7zlizks51jmOmD3AvgnjneCIVwYuSxjvfkesjcCuCeM94oj3PjAqYTxJ4W+43yTtKWKeHhGzF9g5Rdx3IuJ+L2G82RHxFiaINQw7pHLF+1qCeNtR/Ru4f5ueIF4upD0cyVLUp9CYADELKeKWgB0iHpM0ps/nvj3R52xJ4u2M/Z18xcuFZkyQqBch6udpfydp3CxiJonne3whnm/mmjFBRBpGCSLioAQRcVCCiDgoQUQclCAiDkoQEQcliIiDEkTEQQki4qAEEXFQgog4KEFEHJQgIg5KEBEHJYiIgxJExKEt6wFsoQ2YChyMldvZEdiagSvRJkXE2Be4J2G/e8V4zPXA+gQx46yeOxEYnyDmlIif70L85z48xmPOxF6LOLaJ8ZizGfgcerBiDm8AL2Jr6l+N2V9LORq4A3dlEbXWaMuAH2Alk1re4cCTZP+iqOWvfQDchB1FtJytgF8QXSZGTW01GVZmLGXQ52jg78CpNGGVC2m4bbB6Wr3A443uvNEJMhZ7kgc1uF9pbgXgGKyW18ON7LiRCTISq6l7QAP7lKHlCOzc5MmsBxLCb8j+eFat+Vs3dtWzIRp1DjAN+GuD+pKhbyWwP1ZgO6hGHGIVgT9hJ+ciPuyEHWotCN1RI75BzsA2VBHx6S1gAnYnPphGzMW6qAF9SOsZhW1bEVToBBlHA0+opOV8OXQHoScrHoduBg5l64AlwHJsHl0J2ydkP+BQkm8Jl9RR2B4nXYH7CeZGsr8sqOa3bQR+DXwC9xHICOAU4C+BxxN3tnEu/ZnsX1A1f+0uYDeSOwx4KtCYvpRiPLGFPgfRpo1DQyd2vH8W8HqK338a+8aZ6XNQfYK+x0InSNq9uyU/3sPOJeu9VN8NzAC+WfeIBtrWc7wBQieIlvQ2ty7gJGCxx5g3YwuifAn6HtMbWFyuBOYHiHsNTTL1SAkitSzF1uGHUMZuIH8QKL43lXsUo4EfY5flRuHv3kUWC7LEjy9ic+hCugn4dp0xngae8zAWsMRdC7T3xQVsc/flZH8JUS0/7d/E+5AsAV/FFsGtxa5wtRN/9sReOXiutdoNlUHekoPBqOWr/YxoI4GHHDGujhED7E581s+3Vvs6wJocDEQtX20a0WbHiHNmjDgzc/B8a7V/gl3Ky3ogavlqUcXsJhKvIs3LRB+qfSUHz7dW6yoCL0Q8AWk9/434+fHEO0fZG0smlzR35hvlzSJ2JUGkohsrCeqSZHpH1ErSPF/qvbcIzOH/x4EibUTX7U1SPzfqsUGnitShA/hhZT3IDOBubFrBGPzdBzkTWx8gzWVP7NJ/LQ9h095HRMRZjBWmdpmQYFzVbAQ21RmjooxdtGoHfkKyYuWpdJD9iZZa8nZatRdzC1dExOgGPhkjzi/rHOvlMfpITVNNpJrPxHjMtdSevr4BW6cRp8BbnL4yk7f9QSQfTgcuBjY7HlPGDs3nAudidao2Y4dVtxF9JQxsr5DJdY00MCWIVDMKOAd7o0dZ2tfSuDTl7zWMDrGklquIt2tUWlOwmmm5pgSRWvYArgsUewT27ZT791/uByiZupC+CXseFbCqKAd6jhuEEkSi3IptvulDEbuse46neMEpQSRKCbgdu3FWz0WdUdgCrKYqRasEkTgK2I3BJcCxCX+3DTgf2702s70G09JlXkniIGyXsKeA32JVE1dVeVwBq3h4EnAe9U8nyYwSRNKY2tfAdqFdAbyDvZ9GAfsA22UzNL/6J8gU4GT8Fm1IU6ZSmssufS0rE4AjPcUqY2vrX9zyB9eT/QQ5NbW8tA7gcLBvivOBWYhIf53Ax0vYyVaWX5EieTQMGF/A5u2rwJvIYBuK2GaIIjJYqQjcl/UoRHJqQQFbM74Iu3YtIqYLOKqElV25C5uCvDu28WKPp1ZCm3hK83kd201rXug3bwe2FFMklLnAHz3F6sWWCi+mb+dcTTWRZvcccE+o4JrNK+KgBBFxUIKIOChBRByUICIOShARByWIiIMSRMRBCSLioAQRcdhyqslE/BZtiNqBSCTXKolwGFYv9eAMxyKSxmqsEokPZeBNbAu2W4GuAvBRbPZiyFL3Is1mPjCthH1zHJDtWERyZyLQXcB28szrVrwiWVpRwFYU6mRaZLBNRez8Q0QGW1nE9qLryXokIjk0q4SVr+8AjgNGZjsekdy4F5jR/4bg1sCngDH4u1H4U2C8p1gi1Syn+h4laZSBNcAfgPs9xXTqIPtK3WpDu11OQJqLJeKgBBFxUIKIOChBRByUICIOShARByWIiIMSRMRBCSLioAQRcagUbRgJXAKcit+5WNpeWkI7Hn/rmcrYmvQHgf+AJcK2wDxgiqdORJpdFzADuLEA/By4LNvxiOTSKQXgNWC3rEcikkOLCkA3thutiAzUWQRWZD0KkZx6r4RdyZqW9UhEcujuEvAUMAk4KOPBiOTJKmB6//sd0/B/H+RYYDtPsUQaYQNWm3cG8IavRKilA9g/cB/S2q4CbvAUqwx09v0TGLz9gUiz2Yx96gehuVgiDkoQEQcliIiDEkTEQQki4qAEEXFQgog4KEFEHPrfKCwCB+J3n3TtnCtNrZIIxwCzsUmLIs1kA/C+p1iVNentwEygs4CtRX8C2MpTJyJDwbPA0SXgNmC/jAcjkje7Am0F7OtJexOKDLaqiL8TcpGhZpcisCDrUYjk1EsFYCqWJMMzHoxI3lxQxNaknwC8ku1YRHLlFmBW//OPInAwftek3wJM8BRLpJrngGWeYpWxfdLvAx6HgXfSe7Frvz4FWwop0mcucG2o4JqLJeKgBBFxUIKIOChBRByUICIOShARByWIiIMSRMRBCSLi0LbFv0/B75p0bX0gTa2SCNOAWcD4DMciksZGYJOnWP3XpF8DrC8ARwCPAcM8dSIyFHQAR5aAOcDkjAcjkjdjgeEFbEedrTMejEgevVrEprmLyGBjitj5h4gMtqwAHAIsBEZkPBiRvDmvCPwD+CzwYsaDEcmT64Df9b8hWAA+jN816XOAiZ5iiVTzNLYu3YfKmvR24BkYeCe9DLzgqaMKX0WFRWppR2vSRbKhBBFxCJ0guscioQV9j4VOkM7A8UWC1l4LnSBrA8cXCfoeC50gLwWOLxL0PRY6QZYEji+t7X3g+ZAdhE6QR9GJuoTzGNAVsoPQCbIamB+4D2ld94TuoBH3QX7VgD6k9azFtikIqhEJ0o7/KSwi19OA2wiN2sDzeOCRBvUlQ99y4ACsYENQpdAd9FkJ7A4c2qD+ZOjqAU7F3lNDyghsP8Symlod7RKGsNHYdeus/8hqzdlm0gJ2Bp4g+z+2WvO0XuAKWsgw7NOgh+z/+Gr5bq9jS8Jb0seAeWT/Iqjlr3Vil3K3RzgCmA28TfYvjFq2rQM7nBpLDjTqPkhcRawM0SHA3sBOwEgGjvPz2HlMLWtIfs9lMjA14jEPkGztQQGYHvGY54GlCWJ+GrtcXssGbJxxjABOi3jMUuJPBtwGODniMc8A/+r33z3AeuCNvv+/CHgtZn9SwxLcn0DzU8S8MCJmGUvYJNpixExabODBiHjLE8QaF2N8lyeINzFGvO8kiJcLWpMu4qAEEXFQgog4KEFEHJQgIg5KEBEHJYiIgxJExEEJIuKgBBFxUIKIOChBRByUICIOShARByWIiIMSRMRBCSLi0IwJUq7z52l/J2ncLGImied7fCGeb+aaMUHejPj5mgAxyyTf6qsHWBfxmKRj9fnc3wG6PcZ7m+i9YNK8NpLQN3Cvez4jRcwdgHcdMR9OOdbZjphdwKSE8U50xCsD300Y7wFHrA+wdetJPOSItx53sQ3xpIS9Yau9CO2kr9QyneqF7NYC+6SMORZYUWOsM1LGvKNGvAXA8ISxPoRVFKkW76IUY5uMfcttGasXOC9FPElpOHAl8DJWAn8ZcBn1V6s/Bts2bgOWGHdi1TrqMRq4GasQ2AksJrrcjksRuBirH7URS8AfYWV80tgDuB14C9gELMS+qdKaCNyFHXJtxBK3aSsj/g/QtssDDP+i9gAAAABJRU5ErkJggg==;" parent="1" vertex="1">
          <mxGeometry x="200" y="200" width="160" height="160" as="geometry" />
        </mxCell>
        <mxCell id="VCr7q-Y5Y-EF6py8yG3E-11" style="edgeStyle=orthogonalEdgeStyle;rounded=0;orthogonalLoop=1;jettySize=auto;html=1;exitX=1;exitY=0.5;exitDx=0;exitDy=0;" parent="1" source="VCr7q-Y5Y-EF6py8yG3E-4" target="VCr7q-Y5Y-EF6py8yG3E-2" edge="1">
          <mxGeometry relative="1" as="geometry" />
        </mxCell>
        <mxCell id="VCr7q-Y5Y-EF6py8yG3E-4" value="Wireless Module" style="shape=image;verticalLabelPosition=bottom;labelBackgroundColor=#ffffff;verticalAlign=top;aspect=fixed;imageAspect=0;image=data:image/png,iVBORw0KGgoAAAANSUhEUgAAAsMAAALDCAIAAAB/7poVAAAgAElEQVR4nOy9WZBk2Vkm+J1zd9899sjIrMwsVZVKVVpBggYhBEIsTffQMAPdDPQ0w/QwzGIYzJiNYcMTmM2DTEhGI5nAxnhhMGQwY8BgIyTrRqVSaauFUlZlVVZWZlauERmbR/jufvezzMPx8IyM8IjwuNcjPXPk35PnDfeT/3/Pf875z78SKSUmmGCCCSaYYIIJEoGOm4AJJphgggkmmOARxkSTmGCCCSaYYIIJkmOiSUwwwQQTTDDBBMmhj5uAhxFCwA1g6KAEXgjbBCXwI2gUug7BETHYJiiFF8LSQSliBs5hGdA0uAFsE5YBQsbGgpTwQmgahEAUwzZANfghDA2ahpiBcdh9ag1QDUEEAKYOAEEE24BljpMFAIxDCMQMMYdlQqc71FKEMaSEaYAQ+CFsAxqFF0GjMHTwnTka7ywoRAxhBCFh6aAavKAnPEEISqHrkBwhuzdH5o5EqTka+ywAiBn8CAQwdEiJMO7NghfB0GBovTm6T6IoghiQMA0YOrRx31li1lsRhgbOETNYJrRBEnVv1VP4YW/VU8DQx70cGLoBLGNnwxG9zadPbRCCUBj6rlVP4Ue9Vc8FnHHLkmKhv+H0JAoIox1qQ+gaDH1Hou6fo5ghY49/OUywHxNNYgCaLl6+jOurMHRYJoIIMUPeAZdwA2RM6Dq8AACyNiIGP0AuAxB4AXQNjgnHwnvO4t1n4FjjYaHj4dVrePMWHBOGDi+EFMg5iDg8H7kMKIEbQKNwLIQxwhh5B1LCC2AZMHVoOp46jfeeRz4zHhaCEG/cxItvI2uDEngBKEXGRhTBj5DPQEq4IUwdloEgAuPIOeAcboCMDV0DpXjqNJ45i3J+PCwwjivL+OoF5DMgsqeeWhaCEBFDwQEXcAM4FgwNXggJ5BzEDG6AnANKICUeX8Sz57EwNR4WhMDVFfzjd3vyr9QgQ4cfggvkM4gZvAA5G5TCVXNkIYwR7MwRYzgzj/e/C4/NjYkFiVvreP4CdB0xhxcia0MjcEMQgqyNMIYfIp8BJLwQxo5ExQz5DLhAEOHUND7wLjx5ejwsSODuFl64CM571OYUtWrDsRBECJVESbjBvVUvBPJOT4uaK+ODT+DZc+NhAcBGDd9+C10PfogwRiEDLuGFsA2YOrz7JSprg1J4AShBRs1RhLkinj2PDz05NhYmOAgTTWIA6m18/SJevgwJWCZihpjBNkEIvACGDlNHEAEStgUhencCXYMbQNdgmSDAj38IMcOz55EZhzLhBvj2m/j6RXABU0cYQ0jYJqSAF8JSG00ASmCbYAJhdE/9N3RYOpjADz2LMMaH342cMwYW/AjfuYwvv4w4hqHDj0AIbANcwI/g7KbWQBSD8d6b9wIYBkwdUYwPPYWf+Qg++l4Uc2NggQtcvoPnX0PHu088BkqUslvYVm+O7B2F9cnT+OT34Wf/GWaKY2BBSNzexDffRL19n3gEfYlS2qdSLwKQQRJ1dh4/9kH8wsfGpg9tNfGtS1ivQqCnKxtqCfclat8S3jNHC2Xcei9+9ZNYmh0HAxJ+iFfexvXVnlpgWz0TnabBNhEzRPGOobQvUWqODEjACzBVwNUV/PufxbmFcbAAaBTfvYY3bsCP9m04BsIIfLdEGQNWfTGDZ84hY+Op0xPLxMOFiSYxAIUM1rfhRwB6Nn8AMet9YBx+2Psc7jx0g3t/VT/5T/8EIaBp+MDj0LQHQvcuWAa6Hro+gHvURnHvgxfc+2a481B9GbsY/NabkBKU4gffA8s4eaLvh0YhBdoupAT6L3xnOvZTCyDqz1HYe3jhGqSEBH7sA8iOQx8qZLHdAuc7hPEjJCraJ1Hv3IUUYBw//yOYKjwImndDSpSy2Kzterf82BJ1p4LnLiAI8cufxOIDVyakRM7BZgMtr/fECwdI1P4ljF1ztFHHN99A18d/M46TWAKWgUYH9U7vibtL/o9YFDvTUWvhpctodvE//TyefuxBkL0HlKLlotrq/fNwagfOUaOLC+/gf/9L/C+/OLFMPFzQfv/3f3/cNDx0uLGOt25jvZpqkJhjq4mYI+egkIX5YE/ijTpev4GVLYgU5UIYx3YTfgjHRDkH2xwdfUOg2cWr13B7A4wf/eWDwAVqbXQ96Bqmiw/aPhQzvHQZ11fvnUwJICTaLpoumMBc6UE7m7jAP13FjdV7+34CSImuj6aLIMJ8GaUHbB+SePMm3llFo3P0dw8cQ8IL0XLR9TE/hekHrtLdWseVZWzWkbgAkApHaPtodLFQxmxppPQNgbUqrtzB3W0IkXwQxuH62GpivozF6dERN0E6TDSJAbBN/M0376n/iRFEuLoCXUc5j4WpB2qOswx85RWsbiFl3bGI4dYGpEQ+gzPzD5QF08CLb+HycvKtU4FxrG73ggTftQT6AFnQNKxV8bULqfQ5AFyg2kLHhRB4+iyMB2jiogStLv7+22lZkBItF40O3BDPnH2gWikhiAX+r+fvGUuSQQJugFoL1TbeexYZBw9MlAiBZeCvnkfLTTtUGGG7hbvbePYsCtkHuqJLOfzlc9hqpB2HcVRbuLKCZ89hujBxczwUmGgSA3BtBW/ewmY97TGssNVAxJB3UMz2MiMeAFYqeHsZdzbTHgAK1Ta8EJaBch7WgzoDthq4uoJrq/dcA2nQ6KDjA8B04cFZJrwQb9/Gm7fSnmEKHQ+NDrwAc2UUHpRlImK4dBtv3rxnf04DL0Sjg6aLuTLKD8oywTjeuo23bo3gGAYQxGh2sN3CfOnBRa4IgWt3cfkONmojGC1maLnYqGGuhPkH6Gy6fhdXlrFcGcFQTKDrY2ULM8UxRa5McD8mcRIDMFOCkKAUYhRnWL2D//hPoARC4n3nH9BtbKqAkEGjqVwDfbRdfP11EAIp8ZGnkbFHMOaRKOXhR9ApRnGEwQ3w0mVAAhIf/+ADiiF1THAxMhNCGOPqXRACSvGvPvqAfASmAUODPiIWYoblCr75BijBf/kTD8hHoGvI2ADpCXBKcI5KAy9eBiH49/8Ccw/ER0Ap8hkwDk0bgWItBFpdfPcaJFDK4czcA7rWl/OI4l6GZ0pICT/EGzfBOYo5PLE0/jTj73FMNIkB4BxCjuYMVggjPHcBXIASvO/8g4iZCNQZPIqrsAIXePEtCAFC8JGnH0R2q0o4dIOjvzk8Lt7sffjY+1HIjnLkgQhiZB3U2qMc8+Y65HfBGf6zH8ZseZQjD0QcwzJQSW2R3o3VbXz9IiKGf/1jOH3yF0rGoVHU2yNQI/rYbuLbl+CH+Hc/jSeWRjbsQRASQiKIRnO3UWh18d0r+KMI/+2/eECpoSqXZIT7qh/i0m18+q/xP/wcPvzukQ07QQJMvBsDcHcbb97EZn00rgGFKMZmHUwgn0Exd+JujnoHr1/HWnWU6zZm2GogjGBbKOdP3Lji+vjuNaxs3csaSA/lYXV9mDpmSieuDzGBV6/hzuZ9qQ0pwQWaXbQ8CImFqRM3rnCJ167jziY63tFfHhJCouOi5SLiWJxG8YRVOglcWcGNVdRHp9JJCTdA24MXYmnmQRQsubuFt26j0hiZPiSBIEbbRcvF0syD8NQ0Orh4E6vpIi73gHF0PGw3cXoWcyevWE9wECaaxABkLPzV10Z8lQQQxri+Co2iXMCpE446ztj48ou4vTniYZV1WhWQeeyEAzBNAy9fxsUbIx6WcazXEISwDZxbPFmjKCWoNPAPL414WCFRa6PtgnE8efpkTVyEoOvj/35hxMNKoO2h3kHHw7sfO1mVjgARw18/P0qVVMELUW2h0sDTj518Tg3B334jVfrJQIQRtlq4vY6nT76Am6Hjb785mlCP3YgZtlt48xbe89gYElImUJhoEgPw9jKuLGMtXRboQEiJrSbiGFkHxcwJngG3N3DpNm5tjH5kKVFrww9hGSidpGViq4HXb+Cdu6M0SitIiUYHHQ+UYKpwgmEffoiX38Zbt0dpGeqj46HZRRhhtnSCAZgRwytX8PZyqkTWg+AFaHbQ9TFbOsFjjAtcvIGrK6OJuNyDIELTRaOLuRMOwLy6gqt3R2mT6COK0fax3cRcCfMnea2/tY5rd3E3XWr6QDAOL8R6FTMlLM2MePAJhsEkTmIAFqbghdAo+OiscH3U2/jSiwCBkPjAu07KzTFTRBjB1Ed/DwPQcvHVCwAggX/2zEkVrSpmIQQMHfwEzjA3wEtvAwQg+MT3wTkZfcg2kHN6taVHjjDG1ZVeIuIvfvyk6m4ZGqYLGE0W0z4oE9cLFyEkfu2nT8rNoVHMl+9VNxotuMBWA99+E5zjv/uXmC2diKGOECxOo+ufSN6plGh18crbiGL81i/g9NxJZUo/NodW90RGBuCHeP0GvBAFB0+cngRgPmhMbBIDsLaNFy+POMpsN6TEZh0xQzGLcv5EygNUGrh4EzfXTugIAIDtFvwQGQvTxRMxrtQ7uLqMS3dG6VXd/190PWgUsycTMxFEuLOJb186EZuEgkoN7QY4NYXcCVgmIoblTXzzzVFG7+6BG6DeRq2NUzMnkpDCBe5U8O1Lowz12IMgRq2NjTqWZk4kIUVI3N3CP13BZn30gytEDI0OVrZwavqkLBN3t3oxNycExtHs4uYGFqYmlokHjYlNYgAIga1DI2Andg43u/j669AohMSzZ0dvYDd1CAlDP8EDoOPh25cAQEh8/1Oj9xPbJoIYtoHuCZhVFLwA373Ws0x89L2jP8YMAy0XOedEbBIKKjVUAoaGn/nB0SclGjq6PvIZtE/sGFaWCQCmgV/42OhDiDSKKEbWGU0W6EBwjq0GXr0C28CvfBJnRt2rTBkJTB26dlJaqRBodnHxBkwDWQePL47+vzB0UHpShlLspIa+fQd/+VUUM3j3OCqCf89iYpPYCwkIiX94+QRtEgpRjDubgEQ5j4XyiI2iXOAbF3FzfZRj7gfjWKsiipHP4NTMiC2KjOO1d/D69VGOuR9CotLodQw6PQdjpKo156jU8eWXRznmQDS7aHYRM5xfHHHkChNodkcfcbkfXR/1DlouHj814oQUIeFH+KvnRlDG4HB4EWptbNTwrqURe2qkRMzxt98afcTlHoQxqi3cWMMTS6M3rgiJf3jxROLPdkPlZ128gSdOja1j3PcgJprEXhDg+ireXsZG7Rg3GCkBcs+dPKRawHZ6c2QdFEYagLlWxVu3cXfrGKEee5gdkgUuUGv1eleONjW03sGbN3Fn83gHwO6JGJIFIVBvo+tDp5geaQBmGOPVa7i5fjybRAJZ6vfmiPmIAzA5x3ev4dbG8fpuSLljACCAHIqFXm+OLvwIc6VR2oeEwBs3cHP9ePXv77EAqPCEI5no9+boeJgrj/IklsA7d3F15XiJD3tZGG4iwhhtF/UO5sojNnGtVPD2HaxsHW9f7bOgPgzDggrArDQwV5r05nhAmHg3BuD84vHq2EQMYYwo7jkUIMH4sAXhGx38/beUfR0ffGJk1/qlWXS8YxhCVVfiIIaUMHQICcYwUxyKhbaH5y6AEBDgh987snqI8+UeVUNCSoSs1yPR0ME4uMDMcLPghfcCMH/6IyNjIWOjlDveGawC6Ql6pQCFRDELQzuai4jh6goACIFf/omRxZCaBuanjncVjhjaLiiBriNmkBJZG4Z+9FtlHMsVfP01xAy//s9RyI4mwFDXsDSD6nGSumOGlgeN9jwjABwLpn60yUoIVBr45hsIQ/z3P4/Z4VbQkaAESzOod47hoGEcbQ+UgFKEMSiBbUDXj46PVh1SXr4M18f//Es4Mzsyc+nSzPFKenCBlgtKQAiiGBqFYUCnsK2jBcMPceE6ml38b7+CJ8880G4735uYaBIDsLqNfGaoVCVldWx1UWuD8d5PlOh7IRbKw5oZVPg6gPc8Npo78XoVWXsog4QEOEfHQ7WNMO5p/WrD6vg4NT2smeGVK7076AefGM2deLMOQ0M8nDIkJNwAW3V44T0WhESri1MzwzbaePMmpAQkfujZ0fTvdgN0/WPoc16ISh1d/z4Wmh0sTCNnD7Wh397A1y5AAj/zA6MJOAgj1FtHf62PIMJWA20PYuf6KCUsAzNFFLJDBRev1fCtN0EI/tVHR9O/m3FU6rD03YaewxDG2G6i1QUXIBSQkBKmiak8SsPVlKu18MpVaF/CL/4Y3n0mNQOAkNioIz+00yeKUW+j3kXMQPssGL0Qb8s8+iRue7h0C3/y9/iVT+L9j6ejfgdrVZRyw2qHMUOzi3qnpwZJ2QsGymcwVYBjHr0cghA31/H5/wf/7qfwA+9JTf0Eh2KiSQxAxoKURwc3SYmIodXFVgPhPgs846AE8+WhXO+NDv7x1d7J8d5zI8gjyNmIOSzziOQ3qe4uLjbrAwoGMAZKcGp6KH2o7eIbbwCAFPjw08im1ocyFiKGnHP0nV5IuD7Wq3DDvTe2FgMhOD07VKqqG+CVK72d7kc/MIIYUkODECjnUB3iMPZDrFXR8fayoJw7S7NwhriK9Xtz6BT/8ocxlbpIg65B01DKDZU1EMRYr6Ht7lVhlWVCo8g60LUjuOj15ngTGsW/+fER1BqiBBm713rjSFUiZqjU0XIRM0gAOztA7IMLaBT5zNEmIiZQaeClt0Epfv2fj8BbT4BiFpSC0qP7bjCBaguNDkIGKXexwME4KEURsIwjWFABmBfeASU7vTnSMoHZIoQAHSK7Xv3v9Q684L4bXcwQc1AC5GBbR1gaVADmm7fwf/4nFHN4cgl0khp6YpjESQyAG+A/voKt5mHfkbLXUm+rOUCNwI6xnTFkM0PZ1lTzay5QzmO2mNbN4QZ46a0jIi7ljgm00hhcd0gCUYyAIecMRY8Q2KwjjJF1MF9KG72oiupfvHGEOVdIeCHWawcqHGEMP0DOGdZnUW3BDWBoWJxOWyojYths4KuvHm3fCiKsVdE+oHRSxOAGyFjQh3BzAGi5aHYQhHhsLq2Ji3HUWvjyy0dbVqIY61W03MFZuzGDF8A2egH8R8L1Ue+g0cVj82lNXFyg3sGXXz66ZnnMsVFHvQPOB6gcjMMNYOjQdehDsOCHqLawto2zCyOou9Xs4rkL2D50U8JO6FWtjYgPWDhcwAuhaUM5mwBEMaptXF/HufkRqHTNLl64iJWtI77GRS8r2A8HLBwhEEQgFLo+lH2IcdTaeHsZj82feGXh72VMNIkBuLOJS7exUT/wDFNqRKOLWnvwGawuP1IijMEFbPO+M2DgYaB8gZUGuEAug0K6FuTbLVy4gbtbhxVj4BwtF9vNwfGAikYpEcVgvMfCbmr3fFCfY4atJsIITureHF0f/3QVdzYOc3CoML316hF2i5gjYrDN+4wrB7HQ680RwNDTtiDnAi9dxo2jIi7dAKvbR6RZMoaYwTKOZgGq2aOLtgshMVdOZVwREq9ew/XVXk/2g+CFWFNqxME6kxCIGXQdpjFAt97Di5Boe2i5iBjmp9KlQhC8dQfX7h4R7RHE2Kyh2YUQB1ouFAuaBlPv6da7+djDggrAbLvwAixMp7MPEdzZxOU72Dy0xmUYY7uBRgfxIDWix4JEzEAJDB2aBrJP/u9jAQiiXjXVU9Npi3huNfHmrSP6bsQM9Q4aHfjRgbKkorgIel1qlR/wHgv7eOECHR9bTSxNP9Au6t9TmHg3BuDsIurtQ8Wdo+1hq3FgYjSlmC3JtouMjZwDN8DClCxmEHOEsbQNoutwfQiJvAMvAuM9R7gb4KXL5Ny8zBnu0+eT7z0LU/CCw7IeGEc3wEbtwJBGQjCdl26IYhaWgZaLxWmZdxBGYByOBUIQRCCQtoUgBOMk50ghEUTkrVs4O4uc4X7/M8lZUC5V7+AzWEoEEVa3DzynCUEhK6MYs0VIoNbGY3My75CuL7gg+Uxvrzd1Ypmy60vGSClHwlhGTK5tkWvLKFjBj3wwkzjizNSxOIXaoa6NMMbd7V6g6EGDUCpV/GmthXMLyDuyG0jGSU+iImlbxNDQ9cElihl4Ye8CfW0FWSv6+Y+ZWlIbl67jsXmsH5oyEDNs1HqKy0BoFIYuF6fgBmh0cH5RlrLwQzCGQg5BhJjJjE00AjcAIcja6AaSc0KAd1bwNT3+1Z/SzaQV3CjB+QXcrRx2BqtYimb3MNOLbeLUjGy00eji8UVZzPZch1kHXiA5J7kdiTI0Yluy60vGiWOR66vy//02+82foxk74X5LgHPzWKse5trgHNUmGl1E7EBO8xlMF+R2E00X5xdlKQfGQCmxTekHMhYknyGcyzCSpkEMvSdI+QxureOLXxX/67+RhVxyM935RWzUDtuUhESji3q7F+00EOWcLOVRqaPt4l2nkHekBEwdloFu0FvCQSQjJrM2oQRuABDkbNzdkv/Hl+Qf/NdipnTCvQe/JzHRJAbg9jqm8qB0gDLRi41wUW0erEYQPHGK/9LH+QffRVoeCRlZmhblnHRDknOQtWSjS4QkpZxgHI0OLeWEY2G7SXSNFDLSC0EQl3JUCEmTxhyvbqOQOTBikfGeX+aQzIiFKf5LPxr/yPtIvUOFJAtlnrVlEGkZW9iGbLqUUmQtEcYkiGne4TqVDVczdZmxhBdQU+dzU1rMpaElZKHagmnAMeEPsvoICdfD5gF+GYXpPP+3P8l/9gfpWpVQSmZLkhIJkOmCtAxRaRDTIIWM7PgIIjJdkJTIrSbJOTJny1qbWLo4PStdP8plEm49foSmi1IOzQOKBLs+NuqHWd1ztvjVT/L/4kexvEVtQ04XJBcwdDJTEJRiq0lzNrKOaHSIkKScl5zLepsWc9Kx5HaLOIacLcbVBpubzpJEClEUYaOG2dKBdnU/RGUnxHIgLEP+8if4L/+4vLtN8w7KOelFyFqYLUkhUW2TYgYZS1ZbhBCUcjKI0PHJVF6aOioNknMwlYu3a9HiXJYmcnQzjuVNLE7j9gFtaIII2y0094V39EEpfvHj4r/6pFiv0am8LGRlyyXFrJwtyjBGyyVTeWmZqDSIqaOYkV0ffk+isNUihQwKdri5Lc6eymlaEn1ISNzawHwJa9uDv6DcEKqmyMAzmBD8zEf4v/4x0Q20maLIWLLl0umCLOWkH5IgJsWM0CjqHWKbyFiy4xEuUchKIdDqkkIWOTPYrIqMTXQ94alxbQWzJVxZHvzXmKPZQb0NPzqABeCj72X/+cd4xtYXp4Wpo9qmC1NyuiDbLmJGpvJCSlTbtJCRGVtWW4SAlPIyjND2yFReWlqwVRXFLDGMk+x69z2JiSYxAAtTvYDhPRuLBCKOtoutxmG1I4VEMSd/4WPi/U9YXIBxaZsGIVJwSSjRKOFcSEDTdCkkF1KjGu09JJpGBJdxjHa7IYRFacIJmivDD0HovXirPpRBpTIoxHI3TF1+8vv4J3/AASAEbEuXQjIuKdV1ncSxkBKmQbmQjElD1yklUSwIgaFTxgVjWhi4FBaQ8Co5VUAQDfYECQkvwHodbnDYRZMQ/ODT4qPvMwxdBX5TIaQENEoIwTNcgkCjRAgpJDSNQIILSQkoJZxLIUm71TH15JuOYx0WExBEWKv1MjUOhnzqNP/BZ6yPfwgADI1wISGlpumA5ByEQqM651ICmkaklIJLSsmORCGOuJRSSplMk7BMZO0DKYwYNupoHxAb0cdsUX74af0T3w8C6BphXBKiXrjkAv0XDkDTCBdSyt4ccS5BIIUdBMn7susaijlE8eAUSsZRaaLVBTukbIlEGJEPPKn91EdAKdE0wpikBJq2Izx9au9nAehJlJSZdjt5c2FKMJWHHw1uBsQ5tptouIdZIwB0fXzs/XRxmhi6puskjCSlPYniAoamEYKYS0Kga4QxKSUMnQgpOQel0Gi2Wq0CyV1lc2X4weDrDRdodNDoHGaNkMB2i3zs/eTZc8Q0DELBmKQUukZ25F+HlPw++SdqjqSAphFCjI2NjTQsTHAQJprEALgBKN1r51TWiLYKsTy0yAEl0DVM55mu2boGy1A7OKF6byvvm5oJJX2rQ/+hppE45kKIZNcXhbYLy9hrcpASjKPjY6sx+KLfByGwTSkFswx67wDSiLZjYDCNHrW6RvSdh5bZe2jolEAwjSa7RPZZsM0B3g0p4QeHhVj2kbWlHzDbsvuWHW2XgaT/mVKyMx/o86JpRDJpGIZMUWA5CGHqgw0SQYS17aM7QTgWWl2RsaDvCI+ukR1fMOlfDvu8EHKfmEkpOaVRFCWeCCXqtUGHYBhjo4ZW94h4UsuQHRc5B+YOYcbOBxDSD77ps6DRvXMUc8k5T8wC44jZgLwe7ITENjtHxJOqkgzFLOkHqfRZuCc8B7CgJCqKUq1oVaZTygGvWvXUrh9sjejRSaBrJGuLjN2jzTbvSVR/FvbPkUaI2pnCMCQkuUECQNuFpoHt04QY76kRR14Mcg40Ih2798pN495q7X9J37fNapRghwVN09KwMMFBmKTFDEAUwzLuCzCU6GVqVJpHt1eWQDknal078RlEKc1ms+ywW9JQ2BPwyARaHjZqRwexSwlDE4bpMJ6QB0qpYRj8yJS1Q0YgiOK9hZNVlYuVIc5g9XXHscIoIQuapql7fGJlglK03AGFAt0AK5WhmlxzgdmS0fUTEkAIEUIYhiGStkGjBG1vQNC7H2J1G82j1AgAMScLM/Qg/84wkFJalpVYlgiBHw4oEhXG2Kij2RkqKfHMLDkyb+JwWJaVeEUTgAtknb2RqnGM7SYa7SPUCABCYqogt1sksTATQkzTjOPkjXx0fW/gNnbUiPqh1ggFKWGbsu1raTYl0zSj6GTawn5vY6JJDMDiNGqt+64pyhpRaQzVm5gAN9b1mXyUOFJP1/VWq5XGmVfOww/vU3pijq43uG7EfhCC7bZBhH/v+nh8+L6fRv3P2NDofYYHVX5qbftoTUih6Wo8Dh0rIQtSSnUPS+YXAKBRLJaxfX/EpR9hrYqOP2SVJFpvR6V88nVKKQ2CIPGFnhCcmtlbTCKKeyGWw5Q+E+zfxqUAACAASURBVIKsbfGFqeSCpOt6t9tNfKEnwMI0KvdnPai6ESrE8sizlVC8vSzfdSrZ/w8Auq53Op00y2G6gEb3vhfOBbZavdpNR7NAcHWFPn1GJBZmXdfb7XaaTamQ6RXq6ENI1DuotuEFR7f8JQR3Ktr5+UhPGnpFKe10OqY5ibgcPSaaxADc2byX/63SIFtdbLUwpDougWcei2ttKoYpkzkIYRgWCoU06v9G7b7iM6r8VKUxbPFpKXF6OvIiI4oT3mWFEI7jpLFJNLvg4l5RCpXwuVE7wi+zGwslHgsjCFOxkMa7ETOs1e4zq7jB0Tmru1HIcMc22m5CFqSUQgjbTl5TQgjc3bqv4qcfYr2Ktjdsw3rbFLNlbbuZ4jXGcS6XSzwRElit3Ff6PVDWCBd8CDUCAAGeOdtrWJoMURQVi8XEliEAa1VM5e+VdYliVOpodHYqaA2B9z8ub64n3/CjKCqXy2lW9EYNU/l7KzrmqLZQbyM8OOFzD555jK9Uk6syjLFSqZRmX53gIEw0iQFYmkXH78XKxQxND1tN+OGwK1ZK3FjX8hmSuCycbdvdbjdNkMFcGUHc23dihraHzTq8Q92Qe7C6bRSyCcP0AOi6HgRB4p8DKOfvVVxWfuJ1dZUfnoWalrN54vwXXdd9/zg9M/bBMlDO37tHRjFWt9Fyj8FCta0RyRJbhpRBhXOe+BjW9V70rkLMsF5FwwUXw3LR9mjX42nKtipZSuNjOjWLltsrcBlzbPbP4KF7WNzZTFXTwjAM1x3Cm3UACMGZWTQ6vS2IcWy1UOsgjIc9g4XAjTVMF5Lrc6ZpttvtNCv6/CJqO9n1XKDR7iV8DtllUErcWqczeZH4hmYYRrPZTBN/NsFBmMSeDMBWHbYBIRAxtDxUm0M5NfqgBNMF+KGgSVddEAS2baeR+FoLGQtCgDF0/AOrWB4EQjBbFm1XJj7D4jg2TTPNvtPsImP2osy8ABs1uMeM318s825A+mFZx0Ucx5aVqm656oimNBn/0EKcB2E6zyOupXHQAEhzj4wZgrDn2w4ibNYPS/gciGJGmAbNOcklgTGWxsfEORodOCYkEMbYUpkax3klhobZEklTAD6O4zSuDSFRaSJnQwhEMWptNDvH65GrUSzNgNLkmkQURZZlpTHRrWwhnwEXiDmaXdS78I+KjdgNQnB6VgRR8utNFEXZbDYNCxMchIlNYgAyNjQNXKDZxWb9eC2hAUgJnYqI6TxpZJCmaZTSNFa4nAPGQciwIZZ7ICXiWJpGctcApVSZ1pP9HEDWhh/B0OH6WN0+osbiQPgRsUzN9RPSoGmaOoMTbz2WATeAY8ILe9aI4yKMSc6h9U7y1wggzQFg6ohiZCwEEdZrQ4VY7kHESMYmm/Xk27emaaZpJpYlXQOlsEzEDJUGGkOEWO6BEDA0uXpALYehaND1lHGvlg5KISW2W6i1j0j43A8hEXNUGlpiSTAMg1KaZkX3+hnRnboRg4phH45uQLxIT2yTUAshjWI9wUGYaBIDYBlodlFvY2vowILdIBSVpjZXDLWkkUGEENd101xiCOm1NDy8dtOBPwfcQKPwbCu5hMRxnMZBwwU0DVtNrFePSA87CBGjcRhknYQ09MswJL4DMY5yDivbWFOBBcdnQUpSbUalXPLXSAgJwzBNCmW5gDsVrNfQGi7Ech8BWNtms8XkNglCSBAEiU10XKCYwUoFmw3Uj+PU6INS3NnEqZlk/38PnuclXtFSwjZRa2Ojhsbx1QgAlKDSwNJ08ohLKaXv+2kiLg0NHQ8bjWFDLPej65NShiXeVxljQRCkNDROMBATTWIA7m6B8V5QdAJIiccX+VY7ubxyzkulUhrdudqEF6DRRXBMg0oPBHOlmGjJPcNSSsdx0txg/LDXiaqbtChRKcssO3kiKwDTNNPYQoXEyhbC6MDWXEfCMsTclOkHKWhIlwUqJW5vQAi0ukm2fgCUyLMLRqObnAXGmG3byZeDxM11SIla++hGmoMHkHjveTJMN9SDwBhLk9ctgbtb8IMjemocPsK7z8jVanJ9jnOez+fTGEorDYQxWt1jhFjuwelZvt3SEtt6hRD5fD4Mk+2JExyGiSYxAE+dwctvH9ul3YeUeHtZny8lX3Kmadbr9TRxEo+fwqtXk5jTFaTE8pZh60HiY1TTNNd107CwOI03bx7RkfVwrNd0jYSJIy41TfM8L41ZJWPBj3FnM/EAaHS1rhcljpMghCg3WWIuTAOmjnfuJtz6AXgh3ajF5XzyM8w0Tc/zEsuSpqGUx+XbCdUIAFzgjZtyKYVNwrbtdrudmAVKsDCDC9ePEWK5B0Lgwjvk8cXkmr1lWY1GI42h9NwCXnsHHT+JZQuAlLh0Wz+/wGhSm4RiYZIFehKYaBID8Np1LKRoGUcJnj7DOl5y/3oYhrlcLo1N4rV3MFtKcndRIMDZubjhEpF0CMZYSpvEpVvI2hg2YWYQlmZYx09+g4njOCULWw00O0M10T4I0wUuhB4kLa6lQlXS7P4tF2tVWCn23rwjspbe8VLF+qVJZPUj3FxHLkWJZF3DuYWjO3ofRoPv53K5NG6yq3cwV0LidDCN4pmzcr2WXJ8LgqBYTNUM9I2bmC8nX9GU4L1n+VotqR4BBEFQLpfTrOgJDsJEkxiA+TIYG9D4eEhIoNahTBqJD3LLslKK+8I0gmhvObnhIYFaR8s6BmOJswf1NMmHUFX6o1RnWK2tZR0aJ2XBMAyVNZCYi2wGUqZq6t3q0qyDxCyQHSQWJ8eEaSLrHP3Ng9D1ia7LYyUa7IG6yidmwdRRysFK0bOJCQQROVa6xx6oeq+J7wYaxeI0kFyRUPHjJM2Gr+t6FEVpCu8+uQQvTM6DkNhuUUMnie8GKhd3EnF5EphoEgPAGBqd5OZcAoQxMWmc2K4exzFjLM1V0gsRsoRWRAAEMDQSBHG/lcZxodSINN4NN4BOD2y4OgwcC67PMnbSYEPG1CUy8VUyDFHIHNYx/EhkHdnsimLSiEsVMZqy70bOQneo2uSDkbHR9uRsKfltWEqZhoWYQafJnZUAdA1eKM/MJR9BCJHGx8QFwhh+0vACAJSCC5yaTn6ICiE452lWdLUNxhNG2wAgBLouc3aqiMuUrUMmOAgTTWIAmi5Ozw3uQjkMJHBqird9nSdd91LKTCaTJrgpijFVuFcR79gEAFmbSWIEUXLTiK7raW4whMAyYaZY9YYmdN10UzStSBMkAcDQ0XJRSFHRSEKWcnojRRaoECJVFqiBegdT+aO/eSABErMlulFLbp1SyyGxTcLQ0ehiZl/3k+MQgDNzuLmefAQA2Ww2uU1CQ9fHbDG5oRQS82V5cyO5HkAIScMCgCjGTDH5pgSg4Mjtlpk4C1TX9ZT76gQHYaJJ7IWUePox3NpIHmQA4OqqfmqaaUnXvWmajUYjTcLVY3NY2z5e+Z3dIMBq1cyZoZ3UJqFpWsq+GzMFNDpJUlj72GzoBvGzSWsiUUpThnmbBvKZVP71tqc1O1E5ad8NQoimaVEUpWkdMlfC3RSlFMKIrFbY4nSqvhuu66bR6h6bw43VxL+GkLh0E+cXk4+gmlYkXw4STyzh8p3kNgkAl++Qdy0m1wN0XW82m2k2pSdP463byQ2lAG5takvTUWJbLyGk0WhMskBPAhNNYi8IwevXcSaFTYIAT59mlXpy9T8Mw6mpqTShEldWcHoWiS2REjg7F7tR8iAFlfaWhoXlCmZLqdzbj83GgiSP1OOcq74biS/0LRdBlOpCP53n5YKZxrjFOdd1PTELXoBqu+ekT4aMLR5b1P0wVd8N27YTy1LEcHsT5xYS///QCD74JBnYWn1YGqIoTQw1F7h8G0+dTk4AIfjQE3K9ljzoJwzDYrGYxsr4+g2851zyfRXAe86w9bqW2CahWodMeoGeBCaaxAA8ex4tN3lwk5BYrdKMgzT14bvdbppwxfecRTXFxgdgq6k5lozi5GU6gyBpIQgAwBOnUWulsgxttTRT54kTHxQLaSpTzRZBgDhFgFfbpYyx41ZZ7SMN8QqFLDL2scu87oYXklZHJKjw1kdKN5ljYraYpEZqH1zgzmaqEsumaaZZDrqG03Ood5Ifw0Li+hpsM3nQj23bruumEacnlrBeTb6vSonr61opha/Qtu1Op5PSZTnBQEze6QCsV2HqKYKbCEo5aWgsTcQlpTTNol2uIGslT6AnBMWs8P04cd8NFZyVhoU7G8g5qSIuyznRcbmR1KLMGDMMI40+V21Bo+ikCFfMOaLtJQ8WUcQLkbyyYdsFY8fueLIbGUuGMdJEuXHO08Ss+BG6/vFa5+yBpsHQUzn44zjWNC1xuCLjqLVASKoUymKWpNHLgyAwTTNNxOXdCjJW8rRuQjBflkEsE++r6fsZTXAQ/v+jSTDG+mmHjDFlC+1/kFIyxtRf4zhWD1Ve1p6HjDEpRD4DSkGIVDJ73wfSWwuESLU/9/+qPkvA0mWzayijtMrp7+/p6sNum/n+h4ZhqBTE3YQJIfaz0GdwD9cGFaYB0wDdoY3u42UvX7seQkJI6Ialuorvprb/eeDDPi9q39/DwrHmyDaEBDK27B+CB1F70ByFjNiWEYQHvvDdb37/Q03T1GdFWAKJMjThhZgrHU4tDpGoMKZTedr1j6Z2IIPqua7rSngUkceSKI2KIMLi1A61gwTp8OkIYlIuoO0eQ/73z5EySwxcrUdKlEYkF1iY2vVud7/wIVjgXJZzstE+moWD5giAYRhhGA5kYfcL3/NXNUcE0tAxWxi84eydDgxY9VJKx5StLhkoPBi0hPcwqGJufN/vPxxeohTXU3mUcpKSA6m9fwnvZRCQkNIPNcblQGoPXxRyJ5XM87whl3Dac+TgFyWl7P9kN5GPLh75fBjO+crKyltvvZXJZDjnQRBkMhkpZRAElFLbthljqgWcKrqu1OooioQQKhTZ87xMJgNAmbIdx6l3db/9+EwmH3Q3bCenGXm/WyNUZPJzYRiEfiObLYHaXnfLMHQrM+V7HR57+cIcF8TrVhzbDoOsFru1quP7vmmaqi0ygD49lmWpEoqqO1Ecx5xz27YJIZ7nEUKWl5dV0KWu6+qvfRbU18IwlFIqrsMwVLyoIEfTNOsd8O75glGI4pqTK1Jqe52qZlAnO+N5HR67ufwMl5rfrZiWZdol320KEeUK81HEQm/LyeRNmg3dRrORjePYMAxl6qeUWpalklRN06SUqlL8KtdcSqnKS6ucva2trbW1NV3XKaXqhasIfN/3VQiF7/uaptm2HcdxHMd9FtQcNToIW4/b0jHQzuanBQyvWzFNy8qUvG5L8DBfmo9iGXQ3bSerGzm3W6NUZvKzQRBEYTObLxdMq9vcbtScShQ5jkMp7Xa7hmHYth0EAWNMiYrnebZtG4bheR6ATCbDGPN937KsZrO5vLysch/64rHnhe+ZI/XQsixKaceNWWOauQt5EhaKczGD19107IxuFly3TiXPFuaCKAy9eiZXpNR2O9u6rjnZac/riNjLFWYdm7bqVa9tdxpcVWfyPM80TXUsCSEUPUEQOI7Tryuq5kiFFwRBcO3aNdM0FVNKSVUzuOeF9yVKTY16Oe1u2N6c7dani1RkC/NRGAdeNZMrUOq43aqm00xu2vdcFnVz+WkhDa+7uXuOcqV5nYj6Vp155nK3R63v+47j9OMolQBEUeQ4jpJ/wzBM01TnruM4URRdu3aNUqpWq1o7uyXK8zzV43H/quecd92gVi3WKnMlTc/kZvzAZ2Erm5uSxPQ6FcM0rUzZ67YFDwql+TiWfnfTdjKaUdhZ9bOcRetrrs7o8jIcx1HU2rZNKd1PrZIoy7JM01TnruM4QRDcvHlTnR/7NxwlUblcbvccRVHUlyjP81t+ZmN1oaxn7EzZ8zoiDvKl2ZgTv7Np245uFl23TiTPFubCKIq8mpMtUu3eqo8Ct1oJHGBtzTRNU1WGcBxHSZRlWYZhqNbtqjC52md0XVdlXi3LCoJgdXU1CAL11z0bzm6JOmiOAp5fuTk9ZRQNu+i5TYg4V5gPozjwqplMnmoZt1vTdGSyM37osbCdzU/L3qo3zUw5cFudRqRHpLLp7H7hSlyVscH3ffVKd8+R67qGYViW5Xne5uZmt9sduOEcfijsX/VqjvoBYWob6Ydp9wlT0xoEwZ4XpR46jjM/P3/u3LlCoTC+U3QEeLQ1Cc75a6+99sUvfvEb3/iG2okajQYAFVajdkNd1xuNhqZpxWLR87w4jvP5PIBWq2VZVjabbTabUkoVTOS6ruM4MZmqtyKOnGHNx3GbiUAzy1ISP64SzTb1chhVieSGNSN45LMW1XNEy3rhJgExrHmJ4NTpD9xd/biIc4pOZVuWUu7/MPCvnud95zvf+dKXvlSpVPL5PCGk1WoZhpHP59vtthCiUCgoam3btm27VqtRSsvlchAEStxjkal3hETZMGaiqEYk080ZKWKfNamepVrODysADGueMzcQLtWLhJh+tEmIbpizjLdP55+JOp9cX5/uszCQWnVZ2f/XKIpeeeWVv/mbv1lfXy8UCkKIbrerqK3X64SQcrkchqHS/HRdr9fruq6XSqVut8sYy+fzITOaXULJLNFKfrRFpDCsOc58j3epkafE9m5ugOiGORfHLSZC3ZySEn5cJdQ2jXIYVUtPnYmbP7W+/pimaUow+lAENxqN3YWn1OdaraY+CCGuXbv2xS9+8Z133lESpfYX0zRrtZqmaeVy2fM8FUyn5sg0zVwu12q1hBDFYjGKRcfXTHKKoODdXAc005qPWTsWgW6UJKgbbRNqmcZUFNUIuGHOSL4zRzTnRZvzZ09lop9ZW3tXP2a+/+Z3v3PFy34GpZR37tz58z//87fffntqaqpPLaW02Wzqul4oFNrtNue8P0eWZTmO058jP4i8yLDpmZA7XlQhxDLNmSiqExkb5rQU3I/rRM8aet6PtoiU9+ZILxBqeTc35mdnZ7//J5aXn1Fbs2Kh2byX0NLnSLGwn8Ht7e2/+Iu/uHDhQj6f73Q6qgGEEKLT6di2vWfVqzkyDEOt+lKp5LpeyA1bO+9Fph/XieYYWiGMtgFpWLOCBT5va3pBo7Z3cx3QDWs+Zm3GA80oSxA/3s4VZt797Meu33zfVCnfJ++g6dj9sI92u/3Xf/3XL7/8skrLAlAqlXZLVLVa1TRNzVEYhmrVN5tN0zR7qx4GNZ6Qvu6zFtXzVMt4tzYAaljzMesw7ulGWULzoi2iWYYxreaov+qd7PS7n/j+q9c+uDA/fRC1eyRqz2br+/7f/d3fffOb31RrZM+Go5aYYRiFQqHT6TDG9ksU1WxuP8VccO5pRhHE8MIKoYZpzkRxAzI2jGkpuR/XiZYxtEIQbRHAsGY5833eMeypd808def2hy3tzJHUDmQwjuMvf/nLzz//vO/7qvJ3sVjsbzhKotSh0Gg0pJR9icpms4ZhHLTq+zsz53z3OWJZ1jAv6n3ve9+v/dqvfeITn1CTjkcTj7Ymcfv27S984QvPPffc+vo6AHVrAaBpmjoJVLRB/6GyeinDuzoCVZ9cZfga8BPdloIJwahmEkI4CwmhVDOFiKXgVLcgpeARoTqlOmchIDXdAuTaUq2Q+dHdonzQh4EPHcfxPO/ChQuqi6OiZze1e1g4iGtCCNWsHrWaCRDBQ0Wt4KGUUtNtKbngMdUMQjTOAhCiaZYU7KZ1o/TrP64GOXwWBprm1DX91VdfVdfEYandzyDVKDUEj6QUmm5JKQWPKDUI1TgLDpgjjWqG4PEbVft//LWPD6R/mImglGYymStXrqysrCwvLx8uUYewQOkbhOr3qO298EESpVnALoniYWdd+81/+yOqRfseOgeysJ+XbDZ7586dO3fu7GfhGBKlvbVD7T2J0nQLAGfh4XPUWCHazz1rmh8c+KoP+Wf/YSaTqVQq6k5/LPnfPUeadgX3icfhEsWFuDdHDUK7P1DKZT68h7CB1A7kyLIs13WvXLkihDhkw1leXj5EojT9xg61Orm34exewnTPHO1e9VtPRIX8Dw3DwkCJMgyDEHLp0iXlrdjzwrFvRx08R/otKcXuDWeHWiYF03QTIIdI1J3M+2d+/UfVmEPK/+5/qvvka6+9puw9A/f/ow+F4Tau4X9y+/bt69ev/+mf/ukHPvCBR1eZeIQ1icuXL3/+859//vnnNzc3laD0k6z6H/oOyIEP5a5e9YN/wnqRZoJHOz8R9x6yXkS7FIwLtvOT0HGcfD7vum4ul0vGmuu67XZbZSsNpHZIFqSUA1i4j9r+X2MgVr/hLNB1fXZ2tt1uz8wkbFsUhmG1Wu17T4eldv9DwbnY+cnOCxcihoj3sdCfI84ZB3D27Nlms5k4Uk8Isbm5qXwKCSSq/1AIhgEvfJBE8b0Sde7cuTQsSCkrlYqSw2Ff+MA5ukftPYni9+T/sDlaWjrV1yaTYXt7exgWDp8jvk88BlKLQXNUKhUNPXnWAwBlr9I0rV8WKckedY/agRIV3/vJPhYyjpXNmGlSYFSdaeVWG4baI1jY2XDul6j+HjVAojQNM1PFbrdbLpeTsRCGYbvddhzH9/29hO18GF6ijlr1x/jJ5cuXf+d3fuf3fu/3fvInf/IRdXM8qhGXr7/++h/+4R9++ctf3tjYSFN27SSg3I27I26OC1WlP/GCSQ/GmHLD714Px4Ku67quj5EFAJ1OJ00CISEkk8lomjbGtLF2u6282sl+TghRRuYxxqt3u10VMZB4hGKxGARBmppIKaE0oW63m3iEfD4/XhbULVxFAiVDNpuNomiMjTQ558oTkXgEy7IIIWOchUPw2muvfeYzn7lw4UKn00m8644Rj54mwRi7dOnSF77wheeff359fT2NYJ0QVBPkqampxJcYzvnMzEy7na4iRAqoy1O5XE7eKYDzUqm02x0+FliWlbiwoJSyHww7WqqGh8qkTbz39a3WY6wQrG6xaZp5xnGcUhdJCV3Xu91uNpu8lIGKret0OiOk6lhQsZMpWcjlcvV6fYRUHQvKRaLCcpONEEWR8pSNlrBR4ZVXXvnN3/zNF154YYxykhiPmCYhpbx48eLnP//5f/zHf9zc3HxodbepqalqtZpmBBWoOCp6EqBUKm1vbyc2qxBCNjY2xmuTyOVyKkAv2c8JIbVaTZklRkvY8FAx82nMKiqIbIz3MOUSTlOXSSWVqESDsUAIoWQpzQhBEIxxRasQyDSXEyllq9VK7O5MDxUX3Gw2E2/7hJBqtXrq1KnREjYqSCmvX7/+6U9/+hvf+IaKrB83RcfAoxQnIaVcXl7+D//hP7zwwgtra2vjJudARFFUqVRmZ2cTj2Ca5uLi4hjVfyHE2tra/Px8YvVf1/WzZ89ubm6OlrBjYXV1dXp6Oo0ecO7cue3t7THaJCqVSrFYTKMHnDlzptFojNEmoUIE+okbCbCwsBAEwRhtEkEQKCtj4hFKpZJpmmO0MjLGGo3G/Px84hEymUy5XE55QUqJtbW106dPJzaUGoaxtLS0sbExWqpGi+985zuVSuXP/uzPPvShDz1CMROPjE1CSvnGG2986lOfeuGFF1SmxkMLy7Lm5+c7nU7iC30QBK1Wq1gsjpaw4aFp2pkzZ+r1emIWoija2NgY4w0GwPnz52u1WmI9QEq5srIyPZ2i50RqnDlzptlsJtYDlPI9RkECMDs763leGpvE6urqGN3zAAqFgmEYrVYr8QjVajUMwzEatzKZTLFYrNVqiUfodrvjbX+l6/qZM2fSXE7CMFxbW3vIj2dlmfjd3/3dr371q2kOkQeMR0aTePvttz//+c9/5Stf6WdqPLSI4zilo0uVURoVPQnAOa/Vammuwiote7wGurW1NVVeKdnPVSL4eA+A9fX1NL5tQsjU1JSqijNCqo6Fra2tNAYJAOVyOY7jMZ5hqu5ImiWZz+ellGNkwXXdOI7TiIEqkDBGFuI4brVatm2niWQvFouPRLXsV1555VOf+tQbb7zxqCgTj4AmwTm/fPny5z73OVU34mHL1NgPwzBUtHxi14Aqu5bmDpQSmqap9PHELCjf9hgdNABKpVKa3VP5tvvZ82PB9PR0GIZpIi5VHdXxsqAKJiYeQVVgG6ODplgsqnJYiUdQ0Y5j7EKp9NGUEZe2bY+RBVWnUu1LyUZgjFFKxyhIx8J3v/vd3/iN33j++ecfiQDMR0CTuHjx4mc/+9mvfOUrj4QaASCO41wu57puYl1S07Rmszne4CbV+i+xUYFS2m63FxcXR0vYsUAIiaIo8cahSpJnMpkx2odUIm4/gz/ZCGl6R6UHY0wVxk48gsokGm/+oarNmngEwzBU3cMRUnUsMMYsy0rDgrrbpNFFUkJJcqvVSryv6rrebrfTaIQPGFevXv3sZz/7ne985+FPDX2oNQnO+dWrVz/3uc999atfXV1dfQgTPgdCxfzPzs4m1p0ppadOnUrj1EwJQsjW1tbi4mLiQ5QQsrS0tLW1NVrCjoXt7e2ZmZk0F/q5ublutzvGNdxsNvP5fBqTsqrUO8a1oyIl0zg4MpkMISRlk/o0YIx1Op1SqZR4BF3Xx5sFqjIvUgb9lMvlMW5KABqNxszMTOJ9VUo5Pz//kIfZ7cGLL77427/92y+99NJDbpl4eDUJzvnrr7/+x3/8x1//+tcf8mjbPVAFItMEOcdxvLq6mtK7nAaU0tOnT6dJvOacLy8vp9l80+Ps2bN7ulEcF6urq4VCYYw2iYWFhZT5YJubm7lcboxxEsViUQiRxqRcr9eVZXuEVB0LlmXlcrk0lalUmELiorfpoVqQpFkOURS1Wq0x5nUTQubn56vVamKbBGNsY2NjYWFhtISdKIQQ169f/4M/+IOvfe1rD3PMxMObBXrjxo0/+ZM/ee6559bW1h5yw84eBEHQaDTS2NBs256amhoj14yxSqVSKpXkvl5EQ8IwjIWFhTFm7mFHD+j3rV95QwAAIABJREFUBTguKKVLS0vjvQpsbGwUi8U0VT2Wlpba7fYYN6BaraZqCyYeYWFhwfO8MXo2lR6Qxr0yPT0tpRxjkEEYht1uN40qk8/nM5nMGFc053xzczNNLq5t2+Ot+JcYL774YqfTmZube9/73lcoFB7C3hwPqU3iypUrf/RHf6RCLB8tNQKAbdspLx/KkDvGq7Cu61NTU2k2vjiOVe/dEVJ1XCwsLKRxzwsh6vW66ok8QqqOhYWFhTSqjJRya2tLtUIeIVXHwszMTJqYIQCVSsVxnDE6aHK5HOc8zTtUbSTHqEk4jrO7ZUYCqE5AY2RBbUrdbjfxOaqy6x+JYLv9uHTp0m/91m8py8S4aRmAh1GTeP311z/1qU89nD01hoFq9dbtdhPvnpZlqY7JoyVseChzdBrPtGEYqs/7CKk6LtRdPE3QqErAGWO4YqPR6PdRTABCiGVZQogxqnSqNXYa74bjOHEcj1GWVOuQNIeobdthGI6xkoHneZTSNCxYlsUYG6N3I45jxhhjLE0zIJUXPVrCHhguXrz4mc985o033ngI008eOk3C9/07d+5861vfWltbe1RCLPeAUtpqtdL0h43jeHp6erwRl8oWmibhampqarw1LjnnpmmmyQLN5XLtdnu8fTc0TUtsV1c1DMIwHOPWY5om5zxNzL9S6cYYcWnbtu/7aQ5RKWU+n08TaZESlmX5vp+m8K7qpDPG1HRd133fn5mZSdPdt1QqjTc1PSVee+21T3/602NcCwfhodMkVItVz/Me2tCSIyGlTOmNk1Jub2+PsbqilHJ2drbRaKQx7G9sbIw3C3RqaqrT6aTRRyuVyngr4uVyOd/301wl6/W6bdtj9JRZliWlTONmUkESYwwapZRmMpk0J5CqVjdGswohpFgspsmlklLWarXxplBOT09XKpU0YUMpIy3GDsbY7OzsQ5h+8tBpEo7jnDlzZrzZgykRx3GlUklTDSKTyczPz4+378bKysqpU6cSn0CmaaYsbZseN27cWFxcTHwCUUrTZ3+kxO3bt+fm5hLbJFTE5XiT0Tc3Nx3HSZOINDc3F8fxGM0q7XY7pU2iWCxalpWmqXdK+L6vUtMTj+A4zni7+zLG1tfXFxcX0zQDWlpaGu+mlBKc8+vXrz/11FPjJmQvHjpNotvtNpvNR1pttG27XC6nOYFc193e3h6je17X9dOnT29vbyceQZW4H2OoB4Ann3wyTS6uEGJ5eXm8kdJPPPFEGoVSSrm6ulosFsdok1haWgqCII2JcWNjI5vNjjHUo1wupyzvWK/XKaX/H3tvFiNJkibm/ea3x33knZWVWdVVPT2zmFkudrEksOJCEFeUAEIPBAQQEHXwQYL0wFcKehEgSA+SXlYiVqIAAStQA4JLabUiRUI71+5MD6kdTHdVd/U1fdSZ9xEZERmHh99upoe/0jsqIjIzwiwyI6ravoeCl2e4uZlf/2+//ccMX4dsNlsqlUSWVxzH8X1/hjYJXdfX1tZEigEFQVCv12dbSUcQy7Lu3Lmzu7s7644MMneaBEY9iH/4FEVBAdCfMD/dqSjKyJ0ih6TpsXFZmhCSJEkcx/jcR1GEG+gEjtvpX1M3IkppHMe6rmuaViwWr6m3/Vd4ZDuUUsdxNE2LoijtbTqEgd4ODxDTGuZyuVQMj7xQVw6hv7fpTtwzzqibzaZhGL7vo6MDY6z/guNG/xDSDbxH6JyVnuiGn6h0CDiXHe7tOE8UIQSLVqBWyvEwT9TbkaPudDqGYaQOyBf1Fu/RyAGWSqW0+slEp57WPUJbQjqEtLdXPlHpEHK53CVDuIEnyvf9MAw9zxvubdrJy58odN3F1kQ+j9xvfZIkrVZr+HM08jM78h6lLkfcD/NU7hEI4Pt+t9udw9Ihc5dPotfrZTIZkdmwqqqYiocQomkaPk/ps4j3HneqqorZiPEp79/JGEsPwddg5CG4Bq9pWv8hmNx3Z2en2WxiwmZFUTRNw4cbE+zgZwVFNaUU15KDIDAMQ1GUbrfruq6maQsLC3hqxhieJX2Z+zvGGMNn66Le9o8ar8lF7Wiahm+doiiPHz/G5e0gCDRNSxULLKLj+75hGKqqYmiZZVlJkgRBYFkWOmw2Gg1CyOLiIp46HcJF11ZRFAy1SHvbP+r0guMhaTt4yMAQ8JBSqfTs2TNcnA7D0DAMQggayQ3DoJSmO8MwRN9G/Ibi9Nf3/cPDQ1VVq9XqwIW68onCa4v6Fsc9SgdYqVSePHlSLpcxGwE+HmEYEkIMw4jjOIoinOniPVJVFXUIwzDwiWo0Ghg+d8mFuuRhHn7MBu7R8KgHDimVSru7u3t7e4yxgd6mT9TA84+z//Qe9Xo9QkipVKKUJkmiqurw45FecNzZ/zCLv/WZTObk5OTw8PDw8BDTTuMQUOMPw5Axll5wTJ6Bb72u6xhuEAQBOvBiUPHABR+4tiPv0chre9ErPPwQWpblOM7x8fHp6Wn/4zHQ2yRJwjAceY+wDI1lWfh2XP55HH6Fxd96Xdd1XT8+PsaPUvp44BDSL2r6mR1+ogghrVZL13VM7zHRwzwwhJG9HeetD8PQcRxu+xYOdrY1lkcyd5qEqqqnp6fr6+sHBwfcLeTz+Xw+r2kaFtPCJxIABr4a/a+uoijpE5A+FgDQv3P4kLTB9InEJ0nTtAcPHqBCg6ILe4KT9YFXNxVdKM80TQuCoFar3b59G1+Pi3qb7sTPKwCkqnc66osO6X9V4Fx+pBeKUprJZL744gsUpakyhJ/ydAipMoSvEwDg9BcPSYdw0YUaPvUlveW4R/l8fnd3F3Uy7AZ+2Smluq6jbMZvJb7YuBOLfimKEgRBq9XCHJf9ehjfE5XeI9x50agHLlQmk6nVau+//z5e0vSC9z9R6QXHr236ROHn1XVdwzDW1tbYeUDsRA8zxz0aOMQ0zXa7jUPo7236ROFLgRc8FQbpE4WVU6IoWltbwwYn6u1U3np8bN577z3U3i7v7ch7RClttVq3bt1KbUXDF2qcD87wW98vui65R9jnBw8emKY58hXGnuAMfuCJwiEAwPHx8e3bt8Mw5HuYxe+RruuPHj1CuzX2Ft/W4d4ODBDvkaqqe3t7m5ubvu/zPcx896j/y+w4Dj7PjGuNhlJaKBS2t7ffeecdjsOvj7nTJHRd39zcFPFNTc7dvNGahG8F/qnf1pT+fviv/YcM//XKnaqqYgHG/kQuqb9YGkqQJMnInTjFwce0X/0f59T9eyYdwsCFQtGb9v+S3g7vBIB0aoj3YuoXfJxD8JsYBEGakGf4dqAdZWAnjgWnIKhtXHKhuHs7zhDwm9V/Fy55okbuRDOMcm4tG6e34w9hzEMopanLZH9vRz48wwNEnQ+ndHwPs+AAUSejlGL03eW9HbkTVUl8r6f+wRlzCNgrfNovH8LIJ4oxhnoA98N8SW/HvEfYmf5/4fyDc9EQ+geI73KqKnH3luMepWCONT41As6dt+7evct3+PUxd34Svu9vb2+LhN5hGhyUfCJpTESwbbv/+Z6UVK2eYpcmxTRNbsUZANC0ONscl4JDAAC0jk6xS5OCNgaRZ9j3/dnehXSJgbuFmQ8BJ7siwSNog0mX4WeCYHItfA6HReNNIlhcPjVDTrFLkyL4MGua9tZbb3Eb7K+PubNJ2LYtGLiBy3twvjQFAISQm3yHUYiKnBH1XxERKA6+ctyjSG3X0+3VRKRPAh/oiyAiAsURvAtwnhiKEDKrxwktIiJDQIP8DIfQb9nmAzXCKXZpUnDZQmQIqqrO8BYguFrBeIsBoefcbD9Kgu8jFnecbZKbkcydJuF5nnrujMNH/0ubnDv6Cn6OJwLNsCKvHKr/M/z0iL9y9Jwp9mpS8Engvu+4Cjsn3x2+w3EIsxUAuHQtIsPS1ZlZobwasMABWtSn2KVJUc7hbgHdHqfYpUlByxC3GgHnzgqzRVCfMwyjWCzKbNlXY5rm2dmZiM7FzsHtJEnQffrGHiNcXxeRQOhFNUOLLjuPEOO+aCi9ZmuURgTv+2yHQM+jbfkOJ31MtV8TgJ5oImrxbNUIOH+jRT7fIjPpqTCVIQhqhIKgV6PgR2nmCzSCLyNau+ewiNfc2SSSJFlZWRHxuKTnsUPpntT75mYsE+jjJri+jl7i0+oSB5jWQuRyCS4ti5O6cHO3MPMh0PMQNe4W0hi8KfZqIlCtF/l8p/7wU+zVROAbLa5Tzta+FYahyBBQF5ntRykNV+E7HN3AZ1jOFADS2FG+wzVNq9fr9+/fn26vxJk7m0Qcx4L1GtIcEv2kDpg38z0SdG5CT4sZ6s7oIiDo3CTopiCOuDY2c6dRcT0Aw+RmOBvuj/3jA6X4zN0VRZ6lNAPBFLs0EYQQdEDmbgFNArN9ozEcV+R1wKQsU+zSpAhObxRF2draevz48XR7Jc7c2STy+fzKyopIGcyR3rm4zIH377plg3jYgqIos/X1QydnwSFgGeIp9mpSBO8CIUTQV1wcdDETacE0TYwrnlaXJgWfAREhatv2bIdAKRX0+cd3YbZDEAxEQvk3W79RHIKIGBacIIkj+D4GQfD8+fPNzc3p9kqcubNJdDqder0u8sqhDB7ZAvpMCEYGXglO6EVOIe4rLkgatiAS9zxzLzPxQFac0E+3VxOBYQvch89DLC56XIq8Dp7nzfYuYCyVYCDrbKOx0rRs3C1c92fzSsTNKmiZnq1xSzAK1LKszc1NkULT18TcaRKYDVQkEPQSH2MMhbqBZQ7MM8h9eJqldYpdmgi8UCItoHPTbF9awckHuuvPdgi4RibiYjZzXz90Vhd53TAjxcydRsWHMMO5gaCvIpw7jc5wbpDalblHga/zbKc36LjK/TBHUdRutzFf+Fwxd6sbURRVq1WR2rVpTreLfpDK+OtbPxbUVPCdn+3SAPaB+/qgc9nMo5UEQygZY5jWcFagjxu3BMK17dnOJtFdUeTznSaInGKvJoIQgg7I3C1g+NgMPS5xCCKqTHLOFHs1Key81Ajf4ahOzXYIcP5h4TsWE/+XSqXpdkmcubNJqKp6cHAgYpMg54V8LvkNfl6vyTKBbYoshmGG19kGv2F6Xe5v38ydRhGRbx87r1I23S5NRLoex90CZj2fYpcmBbUZbgfkNFX2dHs1aR8opVgRlA+chs7WysgY8zxPpIWZWxkBIAgCkfXKmT9Lw6GFExFF0eLi4vHx8XR7Jc7caRK6rm9sbBwdHXG3gK6Cl98qNJShMsF9okvwPE/wkXUcZ+YJIn3f5xZChBDXdWer/kdR5DiOiDbT6/VmGzNGKe12uyI2Cc/zZmtWwSGIvAue583WnMsY6/V6IrOOOI4FWxDH933BIKBerzfzQFZBR4eZf5QwCEjkRjx79mzeynfBHGoSruvW6/XFxUXuFsb3ykFl4jpsv4qi+L7PN5VMkmROHGpQmeA4EIXHbNe2kTiO+aaSjDHXdedhEpZeTI5jMUfnzDM7UUrPzs74hBCuC8z8LgBAp9Phm3gkSSKilE8LSmm73eb7KM18mQ9JkqTb7XL3ZOaaEJyn8Od+ng3DuHfv3vPnz6fbK3HmTpPI5/OWZQlGn4/vJn1NeSbiOO52u9zNYuXZKfaHA0opfjo5hsAYcxxHcA4kDnaD+y70ej3HcWaeYdfzPG5l13EcbhE+RbAcK183PM9rNpszH0IURZ7n8d0F3/ebzeY8vNG+7/N5nPi+32g0ZmufS3uCNcEnPTAMw0ajMXN9SDAay/f9er2ezWan2KWpMHeahOM4hJBms8ndwqSe3mnJ4+nKjCiK6vX6pO9ekiRnZ2fzoDtjZ2q12qTvHs6hZ746gzDGTk5OJjVLoDV7ToYAAI1Gw3GciQ7BIXQ6nZlrQki73eZwow7DcH7c1Hu9HscQoihyXXe2ySRSXNfl+LTiKuGcDCEMQw6TLUZ0z7yMDnZDJB7YsqxMJiM1iatRVbXVaq2vr3O3gJ5B49+qa6rNgV+QXq83vgaKFvV2uz3bqI0USqnneZ1OZ3x9CBfm2+22iGPUFMGEPBP1B92yut2u67rzMAT0XT07Oxu/P+kQHMeZuac6EoZhu90eXznD2CUU3vMwFQaAKIparVan0xlfGqEZoNlszskQ4jhuNBqNRmOipyIMw1arNfPZPJIkSaPRqNfrkw6hVquJ+MxOhXR+y726kSSJYRiyqvjVKIpy69YtEd/UJEk4FqKuIzS01+th+HI2m70ytQ5jrNPptNvtbrc7J19/AAiCoNlsapqWz+evjGJINaFWqzUnyhAAhGF4dnamaVqhULAs6/If43owpkebk68/AMRx3Ol0VFUtl8tXTkdw3tPtdufEHI3gShPaC/P5/JW/j+PYcRwOe9L1gWae09NTSuk4YXhxHPu+f3R0NKk96VqJoqjZbBJCqtXqlT9Ge+3x8fGceG4hjDEcwjjudBj5eXx83Gq15sHEiMUcRKYoR0dHc5jjcu40iSiKtre3i8Ui9wIHVl3iSKqKrw1MT5lgjKGvXKlUQjE2sllMB4lL2hPZMG4AVA5qtVoYhsViEYcwPAqM0vZ9v9VqzY9NBUHl4PT0NAiCSqVi2zaMSt6MX5x0CPMjgxGcF+I3KJPJwKghpJF+nU5nfiaRKagP4aOSy+VG1qHALywqc/g6zKKnF5IkCZpVkiQpFAqqqo4cAiHE9/1ut3t2djZvZRtTV2JU6TRNGw5uwruAwRr1en2u1Ag4N3zWarUkSYrFoq7rI+dpqFJ7nlev19vt9pzYFwXz3xNCtra29vf37927N8WOiTN3mkQmk1lZWRH5CI4TBToSdj21OdB98uzsbHl5GatRpGnOUOJ6nuc4juM4IvkbrhUMnWo2m4uLi4Zh4BAwSwzKNhwCxkzOlRqRgl5anU6nUqlYloVDAADMgpwkSRAEvV6v2+3O7RDQabHT6SwsLOAQMEuPpmm4AByGIS7lcMcNXTe4yN3pdBYXF03TtCwLY+txCLjIGARBq9UKgmDelDkElX7HcRYXF1VVLRQKqBJpmhbHcfos4V2YN2UOSZLEdd29vb1KpaLreqlUwukBptNGPSld4BNJQXF94Krl0dFRr9ezLKtcLgOAqqp4F3BpLEmSdrvtuu6cLFPCeRUCjEXijsZ68eLFysrK1PsmyNxpEr1eDy0K3FZNwdpXqelpissc+Fnc3d1FS4mmafjpxEcK39v51CFSgiAAgMPDQ1zjMAwj/fpjEsPZ1lgaB5RMJycnqCaaponfnTQd5/zfBdQP+oegqirqPf0+ZfN8I7C3Jycn+H5ZloX6KCaUw5dithktrwQfktPTU0VR6vW6bds4BJwhYM6DOR8Cmq8ajYaiKI1GAw11WOoT582p39jcjgL7hsvBzWYTzaWMMVw+CMMQFdN5G4JgvlfTNJeXl9vtdi6Xm2KvxJk7TSKTybiua9s2d8JsVCO4kxmgZQK3p6hMoJqMn1Fsc66e7zFJkgTnKDjZek2HgPcXdSN8Tl6vgbwBQ0izXgZBgJ1/HYfQnxI+/eC8RqPAbx1GwoMcwo0gkuASAHzfR7vdFLs0FeZOkwiCoFqtiuS4hPNKLSItoO8CXE9tjrl9ysfnTRrC6zuWN2AIcN7513cIb8BdkEO4SUSshoZhdLvdra2tqfZoCsxdFChj7Pj4eG1tjbsFtDSKd+OaklZJJBKJ5JsJroKJzE7X1taePHkyxS5NhbmzSeRyuVu3bh0eHnK3EEXRVPwl+5c5puiAKZFIJJJvJpZlibiUhWH49OnT+/fvT7dX4sydTaLT6RwcHKAHEB+GYUwxYSUuc8y2LrNEIpFI3gA8zxOZl1qWde/ePVkL9GowG6iIY2oURVMsloOeknKZQyKRSCSC6LouUhcwDMPT09M5lERzt7oRhmEulxPJSIMxNtN1k7yOaA6JRCKRfKNIQwv5Dtd1HZMSTbVTU2DubBKaph0fH4+TjPYiMDB96lobLnNIy4REIpFIuBEJLYyiKJ/P1+v16XZJnLmzSSiKsrGxIe5xeR2hm2mek+toXyKRSCRvNoJ1Nwghu7u777zzznR7Jc7c2SSCIDg+Pl5eXuZuAT0up9ilftKqoXOeDFEikUgk80YYhiJL5Jqm3bt37+nTp9PtlThzZ5PI5/PFYlEk2XsURVcW3hQhrc0xRb9OiUQikbzxmKYpUtYnCIKDg4Nx6rjeMHOnSXQ6HSyjx92CrutoPrq+BYjrqM0hkUgkkjeYtBYo9+qGZVkLCwtzOImduw7puu667urqKncLN+AUKTNgSiQSiWQiCCGoBHDPP7G+Xa1Wm2q/psDc2SQYY+vr64JXSrzuxjikyxzSMiGRSCSSK8FiDtzzT6zdKlJN4pqYO5sEpXRnZ6dSqXC3IOgcOxHSMiGRSCSScWCMoRsf98yTUrqxsXFwcDDdjokzdzaJTCazvr7ebDa5WwiCwDCMmzESyNocEolEIhkHQohpmiK1F+I4fvLkyZ07d6bbMXHmzibhOE6n0ykUCtwtCDrHciBrc0gkEonkSgSjQC3L2tzcPDo6mm6vxJk7m0Qul8PUT9wtoPvCtcZuDJAmrQLpMyGRSCSSC9B1XWTC6fu+SCmJ62PuNAnXdfP5/MnJCXcLKMhvXpzL2hwSiUQiuQTBuhumaVJKV1ZWptqpKTD91Y30Gg1vjLOTEFKr1dbX19P4C1VV00xQqYROd6YbAEAIwe2RCSj7fzaNgY5A1uaQSCQSST/9EocxhoLschGW7kz3wHlxynK5/Pz58/4GBzb6ufyvU2TKNgnGoOUwnfSiKLJtmzHm+76u64ZhuK4LALZtx3EchqFpmoqiuK6rqqpt20EQJEliWRZGgVYqlaWlpf79AOB5nqIolmV5nkcIsSyLUhoEga7rqqr2ej1N07B9AEiShFJKKcU0ILhBCEGVUFXVKIowScgUU2v3L3NIB0yJRCL5JpDOcrFWZypxcAP/ijWbbNtGyQgAtm1TSlFEaprmOI6maZlMJoqiKIpM0ySEuK6rKEomk/E8jzGWzWZN09zY2AjD0PM8VVVN0wzDMEkSLBDq+76maYZhYJ5oy7KSJAnD0DAMTdNQ4MbMKOWN6V4BMl1V5cUx2zkKtpbp2oKWymxKaZIkaPOP4xjVMRTzmNY6jmNFUTDQ1vO8Wq324sWLRqOBV63VahFCCoVCEAS9Xq9cLmuaVq/XDcPIZrOu6wZBUC6XCSHNZjOTyYRh+PHHH+/u7gIApTSKIgzlCMNQURRN09BsoKpqGIbdbrfb7fZ6PezPVC4CIQSVJ7nGIZFIJG8qaDDQdT2Xy1mWZVlWqk8AAEoZRVGiKCKEaJpGKbVt+zd/8ze3trYajYau6yjCwjAslUqpCLMsq9PpUEqLxWIcx51Op1gs6rrebDZ1Xd/Y2Nja2iqVSulZUukJAKi+JEmCp8Z5db8UbnaSr3aShYr1nS11mpdiiprEs0P40/dg9zj+T/5G8tYtQyETryPgJXjy5AkaMPhIkuQv/uIvnjx5kmaVwG6k2/0bYRjGcXx0dOS6bqvVmpYyoWla+lRJJBKJ5A1DURTTNAuFAgp1TdPSNNipxBneyOVyv/d7v7e4uMid8VpRlG9961u2bXPLlz/4487jo9zf/ZvKvXVQp+TgMJ1m4gSeHcIP3oO/+AzOuqglEY5xotFC3LsVS2/Aq4tM6Xb/hmmamUxma2trY2NjbW1Nyn6JRCKRXI6qqtlsdmFhYWlpKZfLmaaJTgwDEmdgQ1EUXH/nFjSMMcMwRCITT89iRrRPnin/4/8FH3zF18YIpqNJPD+CH7wH734Eu8egAI2ZSSmnKoDrHSISHa1JhjHuOhDanYrF4sbGxq1bt6bi35BaPiQSiUTyJkEIyeVy1Wq1UqmML2jg3JEOffi4Tw19JSQ5MA0SRkRVkl9twz/6CXy1B1MRVKKaBKWwW4MfPoB3P4LtY4gTOOupphqqCr8qIHKhAUBVVV3XwzCc6ChFUQzDWF1dFUnUnUIpleYNiUQiecNAZ/9isVgqlXDeOxFodEcDBh9hGIosnSsK0ZXI8RUvgEdP4b/5Pnz8jLsvfc2KHEwZPD2Ef/ELePdD2D4GAAACK+WkF6gJr00C05KLVE0NwzCKIo5bRQgxDKNYLGazWe6zw3nBN2mTkEgkkjcMNEgUCgU+bQBjArinyhj9EQQB3+EAEISUKVbGoIyBF8DOCfzDH8CHT7jbe4mQJrF7Aj96H/78A9g7fbmHUthvKMUMU3g1JrxMImIY9TW+FjRNW1pa0nVdxKKA0T7SJiGRSCRvGIZhlMvliRY1+mm325lMhls6YFwo99kBoJhTw8Dzo5ei3wvggyfw9/8EvtoD3uk/ALcmkVB4fgj/7y/h//sUDuqQSm2FwFKBOR5wi1HP80QuE7bQn+uDg4WFBQ6zVT9SjZBIJJI3DLRbc8sXQkixWPR9X8TjMpPJpPmUOWi0E9s2dfVrrcEP4Pkh/ME/hYcCDpicmsTzQ/jT9+Bnj2DnBJI+Ow1lEMRAVDVO+D0uMZUH3+FwXsGLuwVM6yGyjgXnZgmRFiQSiUQyb5imyT3PZIwFQZAmSOQjiiJKKbd8qRbVMKKa2p9jGrwAPnkG//sP4as94Ft4mVjcxgk8P4QfPYCff/zSxfKV5ggEkWJroaby61yEEBGPyyRJdF3nzlzJGMPc5twdgOtPTSqRSCSSGwazVQpazVVVFZmppkkz+Q7vulRTkq432AEvgE+ew3//R/DoKU+zk2kSlMKzQ/jB+/CzR7B7QY2tSp56kcnTFwDoS0vO3QIm8+K+2ehjkclkuDsAACI2FYlEIpHMIahGYOJIPnCWKzJTRaM792SVMZYwo5AZNIqgZeLpPnz/x/DJ85GHXsZkAu+gDj95CH/+4eCiRgplsN9QCjZ/JQsM4BSZ06MSMGkUaD+2bYscDjIKVCKRSN444jhOizzw4TiObdvcU01CiOM4IlGgpZxGE7fjjjaKuAF8+Bj+u38MX+5O1uwE43nw4lOtAAAgAElEQVRxDP/8F/AvP4b90wt/oyiwsZC0XUJ5VYEgCLByCd/hAOA4jogiwhhrt9vchyMyClQikUjeMFCHEPm2F4tFz/NEokBzuZxIFGi9FWtaxtAvHIIfwF4N/sH/Aw++nKDZcXWrpwfwg/fgp4/gsH6ZRwZj0Ogqug6MAXApA5ZlidiOAMA0TcaYiKuEoEcM9CVal0gkEsmbAdbVxOxSfC04jiOSRpkQ4vu+iJtFIaeEoacpeniBhGYAXgAfPYUggkIG7t0aqzbH1T/Bmho/fAD/6hPYPx29qJFCCBgqJHHCneMyCALBCT2myuZWR6Io6vV6Uyw1LpFIJJI3AMaY53ncwgUrPYkEJzLGsKo23+EA4LjUNkmcXNGCF8Dn2/D7fwwfPh6r2SvGwxg8P4QfvA/vPoLdGlwp3xkDy2Ax1bijQNHdUsRjUVGUMAy59T5CCFZ2F0HW3ZBIJJI3D0qp53l8RmsUCkmSiNi8sVY4t3zJWGqY6KZ+xfIKOmB+sQP/6Cdj+UxcJrApg/1T+NHDr2tqXAmj8PxYDaOEOwpUVVXxuhuapvG5TFJKT05OTk9PxaNA5eqGRCKRvGH4vt/pdEQOt22be3kCVzcMw+DPbQXQccKT1lgd8EJ49AT+6+/DJ1fV5rhQk0BrxD//Bbz7CHaOxugfg4RCswuM0rbL79oaRZFgsmpMts1hk4jjuNlsNptN7lOnSJuERCKRvHkwxrrdbr1e57ArEELy+bzv+yJnz2azIqGFtTPW8e0gom4w1iKDG8BeDf63H8AHly5zXKhJbB/DD9+HP/sA9k7HqjrKANoO7NfhyYGSsyj36oZhGJgFjO9wAMhmsxxWDUqp4zj1er3b7QoaJEDaJCQSieQNJYqiWq12dnY2qaRALQRjAvhOTQjp9XoiYah3VpX9WnzUIGcOeGMoEwDgBfDhY/if/xl8eXEGzBGaBLpY/ul78K8+uSJSIyWh0HLg6AziBJZKtOdREY9LwzBEJvSu6+ISyZi/xwymp6enh4eHZ2dn0/K1lDYJiUQiefNgjMVxXK/X0TIxvqzBOqIiFgXGmGVZInPdZwe0UlDDCJptaI6vTITwZB/+4E8urM0xQrV5cQQ/egDvfnR1pAbCGLQcOGpAEAEAhDFEVAsiZhkkjBkwomtACHgBM3SiKuCHTNeIqgBjEEQvt9O/KooRhi89Y7F8hqIoSZKkbphxHGMBlXSDMZYmEMVDMGF2GIZoGEChnq444AYSRVEQBLVardVqiYT5SiQSieQbAqXUPSeTyRQKBU3TUFqlUgb6jNO4wRjzfT+O4yRJNE27RIShFIPzEIT0l6i4UEoTyqIYBqRnFDPGQNOI0idwg5CpKlFVAAZBxPIZ8AJmG8zxSbPzstamZcLlc390wPz0OXz/x1DMwf1bg78fXM7v9OD/+Bn85AE8Px7rgjIGXR+2jyCKAQAIQLVI/8N/M3hrTW11kuWqqqrKUT3K2qSQ1dpO4vl0uaoxIAen4WJRtS319CxhjC5WND+AeitaLNKo+ySqv2tZFmYVxTuEl9U0Td/3KaW6rjPGUMNApYFSappmkiS+7+/v7x8dHVFKKaWqquJ9Ql0k3U6SxHVdDPjsdrvTrbmlaZpIGjKJRCKRzD8ogFRVLRaLmqapqoo2dSz7kIqVVJ+wLOvevXu5XA7dAVGuYfajJElQhMVxjE1hjIZpmmEYovKhqHqirTaVv7Zc1WxLPWkkhNClsu4FrN6KlquarilH9ThjsnLBaHVjx0tWqjohZP8krBaVbEbbq9F3P9J+9rGK4k5VYakEiyXQx3DBJAQsA96+Bf/V34GNpVf+NGiTaHTg6QHsXJzFcoCEQrf3tXmEAdTbyh/+wDB15gaarjJTZz3fBICslSRU8yNialRToO1amgo5KwliLU6IpVNCwPEt26DV8EXr83+SuM9LpRKK+Ww2a1lWrVbTNK1Sqbiu6/t+Pp9XVbVer5umWSwW2+12kiSlUgkAVFXFjKRoltB1nVKKt4cQgjvxPiVJMvVliFRlkZqERCKRvMEwxnC1Is2EhAW6MOcElrZOkgQtClEUeZ738OHDTqfjed5FIixJkk6nY9t2JpOp1+uKopTLZd/3Pc8rV2+Zt/79A/W3Em0la9Ig1uOEWEZCiOL6tqYyU6duYAKAbSaU6UFoGBrVVNZxbVWFrJkEke6FRCGAroxJAl4IUTyWJoGWCS+Ax/uwXAGjT30YtEn0fPjP/xd4/8uxvCyRvRrUWmP/egwq8FHz578FjDPiVlGU27dvC5ZrE0TaJCQSiUQyQJIkX331lUjKos3f/Hs7+f8WgD/N5QCmAW/fekUtuJJ/+F/Ar915JUfmoMflQR3yORg/2DWKQVVhipUvdZW5jQ+Jwq8HGIYRRdFsHR6lDiGRSCSSAXzfF8mWbdiVhqPqrDvFLln6WHEVKW9vQK0FA8aGQRVgoQB+MIFmoKqQUL4KG6NJGFHNMjEWuFuIomjmglwGbkgkEolkAFVVRSpFx6FTyKgEhEpTDZAwYIOKwWU02mCbg5kqB1UGLwBdhXDsQEhKQecPbR2BAlQxFljEnx4KV6Rmq0xM139TIpFIJG8AGB7ILR00IxuGHgVrql0CQiYwB2QsoHRw4WJQk4gSUFQwx7a+aCqYOlgmTEtwMyBh+3PFXBZphFI6W0EuUjdEIpFIJG8qGNjJd2wcOhE1VOBP1z2ArkEpN0Ylzz4SBl5wlU1iuQw992VmiDEpZWGxBJg0QhxKmb3wW0nvOXcLWPJ1tjYJEfuVRCKRSN5IdF0Xqb8FQAp2GJC1qXRGUaBSgHIOjEk8NzoOlPODHpqDmsReDWxzst4QAuUcrFXBNqfgeqmpxG9+qtob3C2YpjnzmuCChdElEolE8uaBdaq555makWv1DJOdiPdE12CxBNUhneBKVqvQ6LzMIJUyKPkXS+CHY4WWvtIKgWoBFktgaKLel1FCjPxtlvAHyURRJJKWfCrIZBISiUQiGcAwDEw1wUfoNQtZEkNGsBuaCtUiVAtgGRPP/7ePoZIfXIIYbKPlgG2NlSR7mHIOVipgGkLLHLrK4rBDwzp3C5gMhL8HEolEIpFMG0xjJWKxNuxqz0tGlrkYH12DagHKObB0HmG9sQQ9D7TLPS5NnT8cQ1WgWoDlClgCygRlwMKWmr3LeTxAHMcz97iUVcUlEolE0g+mPxYJLaSxp+mGBvy5IDUVqgWoFPjFtB8AkMEAzyFNwgBKJ/O4HKCSh5UyaOoVFUEugjFqlL+beLv8PRBzjp0KcnVDIpFIJAMoiiLkcUkUnfQiUuE7WlWgWoRKAWyDU0ADQBBB1oKB9FqDmkSzA6YxmSfnAAqBch5uLXCGhiqK4p3+UhWIAtU07TqqaUyEtElIJBKJpB+sPi3oxtf1DZ3x5FtKXSxNrkWNlGIOzhxILo8C3ViETm8wVHRSCIFKAZa4QkMTSjLV36Rhg/vsQRAYhjFzm4RMKSGRSCSSFEIIVvvkbiGOetUCC0l10gPR96CcB0vAGoEcNWCpOOinOSjt9uuQsyfLwn0RpRysVSfut6awoLdPtAL3eechChTOc5lJJBKJRIIEQYBZmPkON+1qq8smrbuha7BQfKlGiE+xNxah3hlUEgY1iZwNUTxBjstLQCVoqTRZNEdCCQFKVJv7vEmSyHQOEolEIpk3dF0XkU2BWzdNHWCCaaqivAz4FPGN6OeoCaYO9PIKXowBIRBOrz4IOmDq2rhBq4QkqrWSuDvcZyTncLcwFWbeAYlEIpHMFYJ1N3SrBNQf3+NSU2GxCJUpWSOQfAYIuSrHpRcAIaBOb4kf83GOv8xBQAnbX6nZt7jPSAiZrccl6jHSKCKRSCSSftCFjn+eyWiQZMbMcalrLyM1zCnVsnjZrAquf1UU6FIZ/FDU43IYdMBUxxhPTCGz9JeT3jPuc6Fz7AxNAowxWXdDIpFIJAOYphmGIfc8Mw57RcsNyMqVv8TE0y8XNabq/X9Yh+XKYIDn4BkO65DPDKavEocAlPNwq3r1Uo2ugVv7BdHy3OcyDCOKIlkLVCKRSCRzhed5us7vh6ibxWbP0NnZFT/TYLEM5YJowOdI7qzCaQsGBOxgYOtKFQgB2wQvgIwFYQSUgqEDY5AkwAiY+sudlgFRAgkFVQVNhSiChIJtfn0IAMQJUAa2AUEECYOtZbBM2DmBhIKmgh8AY2BbEIRA2UsLTJQQI78VaVkWT+aemjIndTdm2wGJRCKRzBu6rqPFmk9GxFFnOQdtS0miV6SnpQEjEEbAALIWlPNQzkEpB4xBnIBCQNchRBltQBgDY6CqoCkQJhDHr8p6gCQBBmDpEMRAk69lvaaCpkLHhWL25X9TBiVuksDvfg/evgVRDF4IlgGmDl0XCIG8BW4IUQwZCxQCXQ90FbI29FxIGGRtoBRcHwwdbBM6LhCArA1BBEEEGQM0FbouAIAfwpe7QAjoKsR9ukgQgqKAAsGzT52/+MgJeG+VpmkyxaREIpFI5grGGJbv4ve41M28dvBX/wotFiGKgTJQVVCVl9JT1yCMIWvCrSVYLILjg0IgZ4MbQBxD1gJyLrhzNnRdoOxltOaArM/Z4IUQRWBboCrQdUFTIW9D1wNKYbkMxcygM+WgJlHOw1/9HugaUAp+CKoKpg5BCAmFrA1RBGEMhgaK+jKjdtaEMIIwAtsCxl6Ox9QhiCGhkLUgjiGIQNdAw0MYZCxoOeB4UM4DALR7oKlQzkOnB34IxQz5/f/hxWelUu3Y4bvW7JwZKhOockptRiKRSCQI1t3AfBJ8ykQYuH/pnvKf/tvNv/TdKgNo90BXoZSDjgt+CEslCCLo+ZCzwTIgiIBRyNoQRhDGYOqgKOCHQAhkTAiil3aBkbIeBbehgaqAj7Le+lrW6xoMVP0esQqQtV5uWMbLjTTeQ1e/rmZqna/1aCpkhg/Rvz7ENl9up2kqFoqwUHy5Xcy+3LANAADfp/e2lmvH++Nd2BEkSTJbj0sAkB6XEolEIhlAsO6GqqqHBzu/+1fu43+/lp7m1xul3Mtts19Gw4idKSNl/deC2/j6kFTWDzB3joFRFB0fH6+sXO2behG6rs82xyUqntJVQiKRSCT9xHEsMtFVVfWtt9568uTJdHslztxpEvl8vlqtdruc7pYwBx6XM19bkUgkEskcYhgGukrwEQTB3t6eyEz7mpg7TaLT6XS7Xd/3uVvQdX3mtUAlEolEIhkgDENVVbnFk2VZy8vL81BYaoC50yQMwwjDcGlpibsFkUprU0SqMhKJRCLpBxe+uS3WURT5vn92dkU+iZtn7jSJJElWVlbq9bpII7LuhkQikUjmDUIIpVTE47LT6YjMtK+JudMkAGB3d7dSGbdCyTCKosx8dUPW3ZBIJBLJAEmSiFQVp5Sura0dHh5Ot1fizJ0mYdv2xsbGyclYFUpGEgSBaZoyClQikUgkc4VpmiLFHOI4fvz48be+9a3p9kqcudMkHMc5OzurVqvcLViWFYbhFLvEgYwClUgkEskAQRDous49z7Qs66233tre3p5qp6bA3GkSuVxOURSRClhxHM9ckMsoUIlEIpEMoOu6iGzyfb/T6YjUALsm5k6T6PV6lmWdnp5yt4CrUFKQSyQSiWSuEKy7YZqmoigiNvtrYu40CUVR6vX6+vq6SCPS41IikUgkc4jIRJdSms/n5erG1ei6vrm5KeKbKpiOdCrI1Q2JRCKRDIDFHLjnmYyxnZ2du3fvTrdX4sydJuH7/osXLwqFAncLuq6LlEiZFjPvgEQikUjmCvS45D4c624cHBxMsUtTYe40iUwms7CwICKGwzCcuU0CZGYqiUQikbyKYRhJknBLhzAM9/b2isXi1T+9WeZOk/A8D8Qm9HirptcjiUQikUimQBRFIpGJpmkWi8UgCKbYpakwd5qEaZrtdjufz3O3QCmFWS8uSI9LiUQikQwgkuASAHzfVxTFcZwpdmkqzJ0mEcfxysqKiMclpVRRFJnjUiKRSCRzBSFEJLRQ1/VGo3H//v3p9kqc6WsS6TUaebGu3EkpPTo6Wl1dTUNl+mNm+jfSv6bH4k5N02a7ukEImXlqLIlEIpHMG2lo4bBQg1cF3MidiqJsbm4+fvw4/evlgubGxJA29Ra7bqKRkFKq67qiKEEQKIqCtcIppaZpMsawRrthGJ7nEUIMw6CURlGk67plWaurq4Zh3LlzR1XVKIrwqDiOfd/PZDJwvtSEbQZBkMlk0sNRjchkMrjBGMNi8BiWicW9KKWapgVBgNYLXA2ZIunpptusRCKRSOaQdPaoqqqqqljtE/0hUJajoGGMlUolzL6o67qu60EQRFGUzWbDMIzj2LIsFJoAYFlWEARhGGazWRRwKDRd111ZWcHy4oQQFI5xHKPA9X1f0zSMNaWUGoaRClw8HQAompWxpiz6p7ycf9RgLw789YV4fcnGC6eqKpxnsFZVFTN8oXTHqmiKokRRRAjBG+C67v7+/hdffHFwcKBpWqFQcBwnCIJyuYxJq7LZbC6XazQalNJyuRzHcavVKhaLmUymVqvhKtRXX311eHiIaxxhGCqKomkaRvFiBE4QBIyxIAiwcdd1UfxP6zrouj7zKmISiUQiuVZQctm2bVmWaZqYDFvTNJRrKPXS6Sv+/s6dO3fv3m02m4yxYrEYx3G73S4UCijCNE0rFouu67quWyqVNE07PT21bTufz7daLQD49re//Ru/8RvFYhEFHK6kp5oKqi/pTjTP9+9sO/TFEa2Ws29vTHNFYpqKyW4NfvaIvDgg/+7vagCKYXzdOF5EAEDFAknDavt3qqpaKBTefvvtO3fu4HVBmwFK5dQHAneiGpjuxNUjtF4kSYI2CTQPDByS6om9Xi8Mw3q93u12HceZln1CmiUkEonkDQYnqNlstlgs2raNFvH0r6nT/cBGoVD47d/+7dXVVQBITeZJkqQ6BwzJNYwaxZ1JkliWhWrHRWeBc0PI8F8BwDDgn//CPfmY/Ud/HTaWYFoyajqaRELhsAHvPoKffQhhpNCkq2k2X1OUUry46UpSf8xMqnOkO1El7N8Zx3EaCNq/HNV/SLozm81mMpl8Pt9sNs/Ozo6Ojvi6PYB0kpBIJJI3FUVRMplMoVAol8uGYYwM7Bzp3qdpmqZp/ZNn1BJwO93fvzNVUMg5/QEgY/pbpBvtXhJG7OeP1GYH/uO/Ab+2xXkFBpiCfYMx2KvBTz+EHz+EJweQt+KE5Lgl6bD2MHl/GK4PjX9GTdOq1er6+vrq6mq/XsmNtEZIJBLJGwkhJJPJVKvVhYUF9GwY/9jU+Y/77IZhiOTbJgBholGWfPoc/uin8NUed0deQVSTYAxOW/Dzj+FHD+DLXQhjOGkZlupxS1L0lhAJvrAsi1IahuGk581ms6urq6VSifvUKTIKVCKRSN5ILMsqFovlcpkj77XrupMqH/0QQhzHsW2bW77kMgqjQddV2w788lfwP/1TeD4NQ7yoJrF/Cj94D37yEJ4eAAAQgNVK6PgqpZwaUxzH6IbJ3aVer8dXbI0QYtt2qVSybc6lmRRcoBFsRCKRSCTzhmmapVKpf4VifPL5vOd53DYJxlg+n/d9n+9wADjrJqpqmzplAO0efL4Df/in8Olz7vZeIqRJ7J/CTx/BDx/A0wPAK8MYNDqabarcYlTXdcFsEGiT4LvNuq4vLi4KpiEDWQtUIpFI3kRs215YWDBNk+/wbrc7/sr7MIQQ3/dFZqrFnBJGAUonxqDtwPufw/d/DLs14J3+A3BrEgmFg1P46Yfw0w/h+SHE56KfKGBZzA8jVeWUoxg5I1jBS9d1bqVPVdXV1VU+RUQikUgkbyro7chdIRIdLDBSg68DGGLKZ3RHOg7NmAplXx/eduHRE/iD/xt+9YKvSQDu2I39U/j5R/CTh/DsCJI+kc0YaAoFYkQx1TWei4XxKiITek3TcImET5lAx1osTc7dB/FRSCQSiWTeyGaz3GXBMRoAHQFFJqtxHHPLl3xWjRLV1GkQvewApdBy4NFTMHTI2nB3ladLEwt7yuCoAe9+BD9+CF/sQhi98lcC0HZ0W3P51Ah4NRyWDwzMjaLo6p+OgjGWyWRE1AiQqxsSiUTyxoF5iUSWJ8IwNE2TW43AXIuGYXDLlyRhBMKOO9iBtgO//Bx+/4/h8T5Ps5PJe8pg7wR+8hB+9D48Hhk9QmCxFPlJhqcveApKRUw3AIAJQbnVRgDAfNvch4OsBSqRSCRvHJivmtuTjxCSzWZFaoIzxjC1NncLbkBBsfL24BAYg04PvtiB7/8IPpt8mWMyTeKkCe9+BD94H54ejPbOoBRqbS1jxNyxG5qmYdZPvsMBIJfLxXEscrNt28a0Ytx9kDYJyRtJmm3FNE2cWuG3FXeKhFxJJPMPmrpFvBy63a5lWfzZIAgR9NlcLGlh6PnhiCGgA+YvP4c//FPYrcFEfRzXT4IxOGrATz6Anz6CF0cXOnkqClTzsesn3GIU65SIiGHHcbidJACAMdbr9cTLcEhlQvIGQAjRdR3j1w3DyGaz6EWkaZphGFgTKAxDrGITBIHv+91uF9P6zrYkr0QydXCiy/1hJ4Tk83lBm0Qmk4miiDt4pNaMTcO8RLZ1evDpM/gH/wz+vb8G33tr3GbH1ST2TuHdR/Cj9+HF8deRGsMwBkFEVN1KKNO4wjfwVnEcmIKBG1gMja8FLLgi0gfJrFAUpVgsoiRDzT0IApR8QRCgOEySBNcaseweOmOjHQsPCcMQk9qiFRGfKDxEVVXf97EUbRzH+EoTQvrbwcevv5301P2HpFX7sJSf67rzI3p1XU/1hvX19Xw+j3l48BJZlhXHcToivDJJknS73SRJer1eq9VyHOfw8DBJkiAI5mdcw+i6nsvlNE0buK34eOA9GvPxwKAzrLvIGMPChPgo4rnkiufrDqU0feA5DmeMYSoI7jwFhBBBH76MrYRRYhu0643uAGXQ6sEHX4FCoJSHjSUYR5BfrUkkFI4a8LNH8OcfXO2LQQCCSGOJo6nWGGcfAYpwEUGOZVG4L3eSJJ7niaiNiDRI3DyEkEKh8J3vfKdSqfQLb5QBqbzXdR2n0aZpogzAgJ0wDNNDsHoLHqIoSlqlF6cCaTv4nKAcTQv7pu1EUTRw6rQmLZ4aLXCKorRarcePH9dqtdleQBSlpVKpVCotLi4uLi6ioMXYs/5fpv/F4si4galcCCFY8vi73/3uzs6O4zhHR0e+72MB3hmM6mIMw9jc3NzY2MhkMv2PB95W0zSTJImi6PLHA29rGIZBENi2HYYh5jGklNbrdQCI47jZbKqq6nme67qoWcq5yutIarHmOxyFAq4JcncgnajwEcXM1KgXXLFA0+7Be1+C48N/9u/Ad7aubvYKTYIy2KvBzz+GHz+E54dXN8cAitkwTMw4phpX+AYuCqQlQDlAsyq3MoF2Wr5TI+gxKlc3bh7GWC6XW1hYWFpaGqiMd1GJvEt29rvNXt8huG1Z1t7e3gwddbEP1Wr19u3bS0tL2WwW3SAmfYZxCdkwDJy0odNSo9E4Pj4+PDw8OzsTKRkwdcIwzGQya2trmNZ20sfjkr/iD7a2tlDncF0XJZDrup1Op9FoNJvNKIqiKBKcYkpuEryzvV4P5wwchxuGEYYh1vnk64NlWRgAwnc4AYiZaZnUucAmgVAGbQc+34Y/+in87d+Dd25f0ewVmkS9Bf/yI/jRwwsiNYZgDJ4dmrrCXwsUTYUiCjt+FLjfT/zqCRpFZN2NWYEOTQPhP5PWzUu3R/5s6ocAQDabdV13JiIWtfb19fWlpaU7d+4Ui8WpFLFDUKXIZDJLS0ubm5tPnz5tNpu1Wm1OxGe/FwhM/nhc+Vf0SwWAYrFYKBTgPEdhEASO49Tr9bOzs2fPnum6LpL/WHKTeJ7nOA53eaZ2u53L5QTrbnCrEQCQy6rNdq/eLlhjrM+0HPjFZ3DmwN/7W7C5fNkvL/tkHNThzz6AP/sQnh2M20vHg3I2rrWFwm2xKDt3C71eD81Hk67O4kLv2dmZiEUEkU7ssyKfz4uESM0K13VLpVK9Xr9hZcIwjGKxuL6+fvv27WKxiErYdZzINM2lpaVisdhsNnd3d3d3d3u93szvFC5aiczwxie9sJZlYQmoxcXFMAzv3bu3u7tbq9VqtZqMHn8tQKvSwsICx8tSLpdd161Wq3ynRrMr5nHme1V3jhIvsoOQAiimDle20XXhyx34X/8F/K1/A75398KfXahJ7NXgp4/gh+/Di1ezWF5Cx4X9U6BUMTQWRszQecaJYRcinzPMKzVpC5RS13VxliA+YZKfg1mBzgqv3dKSaZqtVuuGT6rr+srKyp07d+7evStYNm9MTNNcWVlZWFgol8sHBwfb29vcbtFTIQzD61OergQNNtlstlgsuq778ccft9vtTqczzw6qEgAIw7DRaOi6XigUJn1r0FGGe3UDbVoik+27a+phIzpta/kMFLNwpTJBGbQceP9LiBL4u38Tbi2CMur3IzSJ1MXypx/CswvyRgyfrOvCUQOCEHQNwigwdH6PS8EvWhAE6Gs9/iFojWg2m/V6febzJAk36NiMPvOz7ssEoGtONptFB72bwbbtra2tzc3NtbW1cZYzcIUYvRww0gHFMHqYappm2zYqcJdffFxQuHPnTqlUKhaLn3322Qw9MQ3DcBxntk8LISSXy2Wz2d/5nd/Z2dk5PDzc2dmRysQ8gyEYp6enURRVq9XxUymix67IPAfjCfiORXZOaMZU2j3iBcAYlHIwzjJHuwcfPoa//yfwd/4t+O4oy8SIL8j+Kbz7EfzkITw/HLc4GKoRXgCUgaVTUOzUJhElTCVEUSCMmKoSVYGEAjBQFCDk653pz/pXFtJ8l6kHEyGkfyec2wzTnZjVKkkS9M8fdo9KbyG2ic4vjUaj1Wp1Op1pzZCkx+VMwGDr9GkZ+QM4vzuXP1GXO99d/hByHJZOgjYAACAASURBVGKa5k1K01wud//+/a2trXK5fLkawRiL49hxHM/zut1ut9uN47jX62GlPdT7MTi2UqlggGi1WsVwhks+ebquV6vVcrlsWdYXX3xxdnY2k1iGOI6z2ezIU6ePEMfjMem7j+1ns9m33npraWkpl8s9f/5cJEZAct0kSeI4juu6vu8XCgXbtvsLa10kcXADo8DSep4TfXAAgBAlimLGWBTDS+kZM1UhOAFPt1PZSilQBooCCoEwYroKDEjOpo6n1NtAACA3hmWCQsuBj5/BP/kZ2CbcWx/8weBHJIjgl5/Djx/AV+O5WAKAF8B+HYIQGANCYPtE+/MHnXYvv3sULVdILqMf1GMCdKWquz6rncVrC4plattHUdaChZLe7CRdN1lfUFVVeXEYVvOQU32//nF/tJWmaa7rKopimiaGp6dB/BiE5nleGlnned7h4SEuOWOqSvzkpdoclmLDieDZ2VkYht1uF/ePO+arkB6XMwHdkUauIEZRtL+/j/68+FDBuVNOmgSiP1uAoiioVuJaCSYY6D8EQ4TSneiag1P2dCdupO0MnBoPwVNTSpvN5s1IDsuyfv3Xf31ra8u27UvsfziWWq3W6XS2t7d930cXIkII2u3wJcLXSlGUOI5t285kMoqibGxs5PP5paUl27YvqhGAw3/nnXcsy3rw4IHneTdvDkwNKgP7cdJ5dHTUf4/SG4cP2MBttW0bNzBnFwCgdEFlZUz1wjRNdFAtFosPHz4Mw1AaJ+YWfG1PT09d11VVtVAo4KOO7xSKgH7Rg574YRgeHh46joNzHt/3TdPUdR1tYxhFHEVRJpPRdb3dbmuahlIvjuNMJgNAOkH2h5/dLdpBpaQ3O7TnJWsLKlGUncNooUwKWe24niSMrlY1P4TjZrxaUSxL3TuOLQOWytrJGX2yTxxPAYAggqMzIASqRRgn/VPbgfc+h64L/+V/AIuvupwOvkJHDfj42QQ1POIEzhyI45eZNRmDM0f9wx8W/8+fJ45vMCA5i0ZUi2NiaFRViRsYBMA2qB/rNCGWQQlR/EhTFWporOdbmsLW1afxzj/u1L9EN/J6va5pWqVSabfbQRBUKhVKabvdtiwrn8/X6/UkSRYXF9EdOpfLYRw/TonwZuOXArWK9LugKAoGi+PXcNwBjwd+ZKUyccOgTWKkQHIcZ3d3F2VDmi1gIN0QTq9932eMYT6A9EFC13rMyIQWL8xqhYdgegC0K2CKCNRu8ZD+VBO+76MFAucl6akJITcjM3K53Le//e3Nzc1L1AjGWKfTqdfrOzs7GGeB14T1JVmCvqQvaTpL13Vd1wWAdrttmmapVFpeXl5ZWalWqxc5iCmKcufOHcMwPv/88+Pj4xsOYcC1MLxl/fuTJDk8PPzVr36FA4ExHg9FUSzLwtuay+XQ4zubzaJqVSgUKpVKNpvF9aBLFDhCSCaTefvtt1VV/eyzz1qt1pzEuUhGwhhDJcBxnFQlxccJpUz6auMj0ev1PvnkEwA4OzuzbTufz9dqNUrp8vIymv0KhYJlWScnJ4qiLC4udjod3/crlQohpNFo5Eormdt/+xC+57FV26QAShCpqsJ0jfV8gzHIWTSmaphohso0laUCN4i1hBJLZwlVup7ycnEAIEmg60E+A/YYPseMQbsHbQc+ewH/2ndB71MfBjWJcg66PVCVyxJZ9qOpQBOgrxYWb7lKy1VQOrccBaU0IQowON9Wz2W3QgAY/hVeqiNhnOt++iAJm/0WnhcvXuDG3t4eDMVz7+/vpzsxKx8aLS4xH10rUo2YFUEQoEQfuP6aph0cHDiOk+5Bmde/0Q/qAePs5Djk8lNfH7qu3759e2trC2fJI3/j+36n0/nVr37VbDa5Fx0whXan06nVajs7O2+//Xa1Wl1cXBwpQQkht27dwvlZvV6/YcFZKBSGbRKapjHGms1mGIbj39Zer9e/wRhLLV6qqi4vL6uqurKykslkFhYWMIzworugqurbb79NKUVlQqaxmnPYBenh+0UPQil98uSJ53mp3Rr/uru7C0NybXt7G7d3dnbO/7qzrv7rJ4VixAh01XPpiX0AeEXgfr2TECXtAh7STxDB+K6JjMHjPSjmBg8ZfIXqHbCtcd0jACCKR3SiX1KzkTuHfpDu0VUWdk6SqAWv3oB0e3hjYCdankf+dWBb8oaBeuSwxyVKqVKp1K9JfNMwTXNtbW1zc7NQKIwUYHEcdzqdvb29Fy9eYASTyMuCx/q+j6rJ8vLy1tbW3bt3FUUZ6T+xurpKKf3www+bzeaNmfRN03QcJ0mSAWUCDRUitXtwA63ZuHFwcEAI2d/fz2azhUJhYWFha2urWCxeEoCKMTWPHj1qt9vyw/U6MnDX0DMv9QW8XMCN3GlYFcelUDj/wcu/9p3i62P7zzviBymaOmLnJdxegU4P1Ms1iawFSQK6CsF4L5GqQsKAKABTevcpA0Y9NbOV9J7ztSD4BZwW0ixx86AeiUuS/RefEIKJ4WbYt9miaVq1Wr1z5w7OjId/kCTJ6enpzs7O06dPp24p8X3/4OCgVqs5jnP79u2Rbp6apm1ubgZB8OGHH2INsOn2YSRBEIwszIiXyLKsKaqe6Spqp9PpdDonJyf1ev3WrVu3bt0qFosjb4phGPfv3w+C4OOPP04NHpLXF/Sc6HfgnZQ4cg3D8Gk3Itnp9QrYJDpzzwNFgTAG45LVDVQ0grEjGBgDTZ2s/OhVLVIj/47vje2pMQrBaqJTYeYd+AZCCEGP92GbxDc8LbFhGBsbG5ubmyMz9sdxfHR09OzZs4ODg2tacEHv6U8++aTX621tba2vr4+UnXfv3iWE/PznP78ZTQJ9XIavCbpvX76YJUgURQcHB5jx8+7du3fvXpj0B5WJDz744Po6I7kx0G2C+/Emqq5CL1FLML31rjAGMkniBUrB0kF/9fUdbKDdA10HY+z6IAoBQwNTH6tc2DgQonj19xXz0syclzK8unHz3Iw3hmQAxlihUBi++/j2ZjKZWXVsthBCVldXNzY2RqoRlNLj4+PHjx/v7e1d98Q3iqLnz58/fvx4d3d3pJzWNG15efnXfu3XMOf9dXNJ0WDXda/7gWGMua67t7f36NGjx48fX1TWS9f1jY2N+/fv89WflMwP6E6B8aKcLdC4F5gaO5tWl3QVytnRyaYuImdDuwfxq4/qoCaxsQQdB6KxJ2+EQLUAC4XJlJpLSCjJLv3lxD/ibgEnGbM1CYjn15LwkdbdGNifyWTOzqb2+r1eFAqFtbW1iyoF1Gq1Z8+e7e/vX+sUPCUMw1SZGKltFwqFzc3NhYWFG+hMWht9YL+qqvl8/ma8aqIoajab77777pMnT0bWDkQf/q2trVwudwP9kVwf5LxEMPc8M4m8Si6JCP9Mux+FQCkHxdyggeFyDhuwVIGBAp2D0m73BPKZiVcrqkW4tQCGdnUS7yvRNOZ3nikG/3cEQ+xE+yGGeOUOCR+WZQ1HEjLGer0ed6771xpFUUql0tLS0rBqi9HUh4eHh4eHgvVvJ+Xo6Oj58+fPnj0bed5yuby2tnYDNiRMVDP8uYiiyHXdm7GLwLk/3aeffvrs2bORa3CEkMXFxY2NDWmWeN3B/CXcE10jUzlziMaa4j3RVKgUoFIA25hMcN9ehtrZYA2NwY9LMQthNMHqBqIqsFiCpfJkqs1I4oSoik4U/vrrcRxjOgfRrggglzZmSJo8LgVTOHQ6nVl1aYbk8/nvfOc7Iw0SlNLDw8PHjx/ffEhLGIb7+/svXrwYWRfUtu3pliS9iCRJisXi8Gdd13XBnMQcdLvdhw8fbm9vj1Qmcrnc22+/XS6XpbHztQYz3XEfHroN29LExYuiQDkP1QJkrAlCQJGDOmTMQXPD4LsaxaApE6xu9LNQBAJw2ADK+H0wVULBKCXe2Ck2h8A3beYOjzPvwDcQQghG7gx7XMZxfAP1HucNwzDW1tYqlcqwXMQk8V9++eWsFCzG2MHBAZawKpfLaRh9FEWnp6eff/75DZhJDMPodrvDryrORm6+0ncYhg8ePACAe/fuDf81k8l861vf6vV63+Rg5tcd9OLiViYMuxwnQaIURTwuVQXKeajkIWNO5iGBlHPA2CtpqWDYJhEmwBTQuNRxVYGlMqzhMgdPAwAAQEjcfaZm3+JuAAAwQalICyKIBPlIRMDkg8P7Mc/ESH/DN55SqTRy4J7n7ezszDa2MAzD7e3tvb09VBow7ceLFy/ee++9w8PDG4jaxTxmIxMKYU216+7AMJ7nbW9vn56eDn9AMG1osViUZonXF8yczT3PpEmcMFujp9wdUNWX1gjbnNgagSgEghDCV5cEB1taKEAYctokkMUiLJdBUTiViSRh9sJvcyeTAABB51hxML+6tEncPISQTqcz0iquqmq73b75Ls0QQgj6Wg4vrqMPOZYMmEnfUjCBBHpfdrvd3d3dhw8f1uv1m5kM4ELY8PVRFCWbzc5k6o8RuQcHByOdvZaWlm7fvi1nKa8vhmGEYch9B2kS5Aw3Vjg9LgmBSh4WCpCxBlNLjc9JCzRt0AVisLGjBmTtQcPFRBAClQKsLYB+VXmxkWgq6dV+QfTRfubjoOv6zJNTzdxR45sJYyyfz4/8BHueVy6Xb75LM4QxlsvlRmq0rut++umnR0f8EVJThDH25MmTzz777Kuvvvroo49u0kyCpXmGHxis9HhjHpcDeJ63t7c3ssQ8xjkvLS3Jicpriu/7IsZRTc+2eobK5XGpqbBQgGoeLK5FjZSVCnS9QY/LQZVhtQI94VgwVYGlEjAGJ2cTmzcSSrLFe7GiccthrLI42zdNJricFViBc/j6ZzKZdrv9jVp1MgxjdXU1n88P/ykIgpOTkzm5FHEc1+v1Xq83MoziWgnD0DTN4cUCVVWx9NpNdqafo6Oj7e3thYWFAXsJVu7oLyokeb0wDANrSfLdvijsLuVIjU3s8qUqUM5BpQAZSzTEst4G24SEvmLVGHyFGl2wTaHVjZRqAVYqoKmT9VtVGKOUUf4PCtb55T5c8lqDme2HPS5d183lct+oj69lWaZpDq/1xHHcbDY9z5ufqxEEQavVErH68oEel8MnxXLBM5wMKIrSbrcxYevAnyilF9VCk8w/WM6N+3DdLPa8AMhkr4mmQjk/HTUCACp5cP1Bq8bg46ipQCmY03BN01RYKsFqZTIHzIRC7B4qRoX7vPjuyRyX30wwQGM4ClTTtJlnGblJCCHFYrFUKg0/h0mSjIy9/AYSRVGhUBi+RJgnd4YuupTSWq12eno6MkQ2n89/YxO2vu4IqqeR31QUU2ETuDdh+qlKgTNSY5iuCyoZNDcMahJZC6JkgrobV7IwsQMmNUvfEfG4pJTOfHVDelzOBEKI67rDdx/rO3+jZCcGEFUqlYHJK9ps2u32Daeimk8wM9XIEFnLsrrd7kx6haBL7PB+xli1WsUFjpvvlUQQVVVFijmoetbSgkhZHfP3igKVAlSLkJ08b8RFMAaKCvarCyyDbdfbE69HXI6iQLUA6wvj1uZQFMU/+1TNbHGfceazTyz4Jm0SNw9jLJPJjNQY4jj+RiUbVlW1XC4PqwuMsePjY5mQAMG8xcMPDC6HjXQxuTGwyPtwindCSC6XW19f/2ZGNb/uRFEkElpIVL0b2jody1daU6FagGoBbGM61gikkIUgBP/VGO1BTWK1Al4wTU0CABQFFkuwWAZljOWhOCF25Xs0OOE+XRiGs33HMPGInDHMhF6vZ5rm8OqGZVmNRmNWvbp5oijCifXAfixmJktUp9i2Pfy50DQtk8nMPES20Wj4vj/s9YXpvGboECrhBos5cM8zI++sZEcRuTrxv6JAOQfVHGQFAj5Hsn8KxexVmamOmpC3p1bYs59qHtaroF9Vm0NXWdB+DIz/JUHn2Jn7Sczw7N9kLMsa9rgEAM/zKhV+55vXjkwmMzKIERPjSH89BEuHD9skoijyPO/mE2YPEIbhzs7OsIUVdcSZJM6SCBIEgUgaeCNTbblEhSuWJjUVKnmo5MEyp2wXAIDbS+B4g9rJ4AelnANCXqobpv5yZUVTwdRfmkes852G/rVakP4y3VCVwUNUFdYWYGMRDO3l4fhX/fwQRQFDAwZEUXXFGncdaJh5WA4XyYcqEQGdK4cvvmVZN1Prck7AKurD09kkSeYn/nPmBEEwUt9CZWvmywf4KRv+oKmqiqYUOWN57cCFb+4bF4dO1tJtzUulsNonPV8KXOPlokYxB/a5JtEvuDUVCAAhYBqDgnukrNdflfWOD4YO3qurG4PKka7Bb9yHagkIQNcFTYV8BjouUAr5DEQJeD5YBlgGtHsABP5/9t50R5IsOxM71/bF9yX23LMyq7qWZvVUd7PFHjZHFMQhKWoocobgSKBmKMz8GD2AAD6AnkECBAgCBG0QBJIabjOApsnuqq6FZFfnUplZmZGZkbGHh+9u+3b142RYe7pZRHiYeYR7RNgHVJWXhZvZdVvuOfec73ynqIBhg+O9JnQMDGAIFHMw0MEPIKeAH4BhgcCBIkFfB98Hy4VHr4BjgWPB98H3gWWBIWC5IHDAEmf3eeHTB8mzG+QAiY+QHtlMPRUQQkzTxHLt4e2UUtu2L9W0KwgCz/PR1Y/v+5IkZXRLhCAIsbGHIAhQi3AqowqBtaDRLAaqwmfLlXOKNPqtHMsWmGff/lASFXB9CHxgWGAPrCfHguuDLMBCBa7UQTMhoFBQwPbAskGSQGShbwAhUFRBM8HzQFUAADQTOAbyKvR18AMooK23QeJBEqCvAwAU1Ne2fq4ESzWQ3nSzRyeaYg5+7TsAFDgWLBcohZwMjgumA6oEQMC0gSEgi2C74HpQUMAPQLeAZ0HgwXIgCKCgguOCab/W0rIcIAQUERwXbA9UCXQLWn2QBcjL0DfA9mCpAqYD7T6IrP8//g/3H5Wq7f2tZNcaO3pPl6mQRY+nAlR1jN59/HypOjIjHwLrmIa3Y28LnucvVU3sYQiCQBRFz/NGXC6GYUzTlCRpulcJQ0qmaRYKheHteHMVRel0Opkzcb4Q9t1IduM81/7F9/N/8Ft7b71VUGXo6eAcWM9WH0o54DkYGCAJUM793OBSCoYNHAOSALYLng95BTwfDPu1/2GHtt4D0wZFAoa8ZkzKIjguOEO2XhJGCzcg6kkAQPEg+6YehP0kAQoHG3MHFC5l6FiqNPpB5CF/UPCcOzhOeHpVgrkDOexq8fWHggrzZfB94b27i4ndCDhgXGZVoJcTg8EgtkBOkqRL1VXctu1CoRBdbYuiOHUDOTtAZyvqYhJCVFWdbhUoot/vx/awLRQKWYHYeUTKZg6UBs9Xn/zq99/C/60eeJhoPRH1A5M6bO9DK6xIMRtzw7b+wHCrR9r6Eczc0lnX9WazWavVEh8BybETHFICZC/5tKAoSmzpo2EYl6rvhqIo3W43Ghj3PA+rlKcyqlkDtg6P7bthGMYsUBpFUWy1WtHJxLIsRVGy+3ju4DhOmipQQRBu3br18uXLyY4qPWbuQczlcjzPpzHDrutii78JjuqkyKpApwXf96N3H6tAu93utEZ19uh2u7GEQZ7nRVGMXeZeQvi+XyqVovaY4ziO42ZBdN8wDFmWo7MZejmZJ3HukLKZg23b7XZ7Wr3ljsDMPYi6rvM8n6b0H6n7mSG/hMDsYzS1hMKOl0qZSlXVWC4hpbRcLk+9KmFGIIpiv9+P7bsBAFPnpaIHHFvV7LquLMuzUKeWYXygDFqaXgqYnZyuZlosZs6TYFm20+ksLy8nPkIQBGnIsRNB1ndjKqCUCoIQXagRQi4V3RIAHMdxXdeyrJHtDMMwDCPLcuZqA4Bt25IkRdeIhBDXdaee3UAPGOJqwYIgwEXXNMaVISHwpUtTWohSIpubmxMd1wQwi57ElStXdnbGUgONRRAEaRJRE0EWFJkKCCGDwSDqSWC93KWSiMauDbGWplqtFovFzNOFA2X96FVCxuXUlUAJIbIsR5unAADHcbEMjwwzDo7j0jEu6dbW1vXr1yc6qAlg5jwJx3HW1tZKpdLxXz0ESI6d4JASIItJTAWU0kKhEJ1eCSGO4xSLxdi9LiSwaVmv14v+iRAyPz9/qa7GYUDyaayIpKZpU89Go25ErGh3t9udBRpHhhMBg0xpNC4Zhrlx40YWkzgesizPzc2lyVCmvFUTQRaTmBYMw0DRnpHtsix3u93Lc1OCINjc3DRNM2pveJ5fXFyETNMdAAMS0ekCRSSnrkwFAEEQxC6rZFk2TTO7g+cLmGaNSueND9d119bW6vX6ZAeWHjPnSRiGERWKORHwVk1wSMmQxSSmApZlozMsVoFetpA+wzCNRiP2XZAk6d13371UFNRY8DyvaVrU2fI8L+UsNBGIolgul6MPLaUUtS8v1fN8MYClhYl3F0Vxbm5uBhO1M+dJyLKs67qiKMd/9RDg1Dl1xuUUz36ZwfN8bBUoz/NR+uHFhmEY7XY7ttuIJEmLi4vXrl2LNgu9VPA8L9a/xPqvqXfwIoTU6/VYhyaLep5TpHyoLMvyPG8GWwjNnCfhOE69Xk/DuAQAhmEyxuUlBCHEsqzo3b+cHQoIIe12u9PpxCbUS6XS1atXS6XS1O3lFIExicP6bkx35UcIyeVyxWIxSgh1HKfX610qzdaLhDTTkSAI/X7/5s2bkx1SesycJ0Ep3dnZWVpaSnwEhmGmm93AIp9LaLqmDkqpoiiH3f00ga7zCEppt9tdX1+PrUFgWXZhYeHmzZv5fP7SChw5jsOybCxB2zCM6VbtE0JqtVps0AgJoZfZBTy/8H0/5UJ3ZWXl6dOnExzSRDBzM0gul1tZWUkTk4gt6zpLxIojZTgb9Hq9qIAjIUQUxWazOZUhTRGU0qdPn7bb7di/chz33nvv3blzJ7ZTySUBin6ObGRZNpfLTb3vxsLCQmyJja7rGxsbs0AIzXBSoNRY4nWm4zirq6tvvfXWZEeVHjPnSfT7/a2trTQ6QoIguK473ZDApV3kTR25XC628McwjDTNXM4vBEFYX1+P7d2AePvtt7/5zW/mcrlLuMYVBMG27ahJ9jxP1/UpaoojQ+KwKNrUhS4yJIZpmmkWuqIo3rx5c29vb4JDmghmzuBJkiRJ0kgX3RPBdd2pG/IstTEtUEpj+7bIsqxp2iVceZum+fLly/39/cNEViRJ+uCDD77xjW/EdqC42HAcR5Kk6FPBMAxSd6cyKgBgWfbatWuxxX6WZb148SJzJs4psO9GmirQZrM5dcGkKGZu4kAFoTRcJ3z/p864zJyJswcqULmuG2VcmqYpCMLlvCmWZd27d297e/uI77z99tsffPDB1atXLxWbRBAEXdejc0UQBLGKVWcDnudXVlaWlpZiF6+O4/i+n6lbnlOkLC3keR4FWCc6qAlg5jwJjuN2dnbSNIAmhEy978ZlW9vNCCil+I5Fq0DTaN1fAOi6/uTJk/39/cO+IIrirVu33n///Tt37hSLxUtyrXzfV1U1WtvCsiyGK6YyKlmWl5aWCoVCdBrxPG9nZ+dSaaxdPKRhXLquWyqVjniRp4WZM3jYd+Po9dPRQMbldN+0jHE5FWDfjejdx85esarDlwSe5+3u7v70pz89Yg5iGGZhYeHu3bvf+973arXaDK57TgOu60YFG7AIaCqMS4ZhisXiW2+9FevHEEJ0Xe/1epczunYBwPN8GkkxQsja2trdu3cnO6r0mDlPwrKsvb29ubk5OCRDEW487K/IuDzVQR4LhmGyV/3sgQYgSqAjhNi2naaZywWAbdvNZvPRo0dH0LUIIYVCYWVl5fvf//7du3fr9frFjuX4vm/bdmzfDV3Xp6IBurS09OGHHx5GOd/b29ve3s7mlvML27bTNJjkOO727dvPnz+f7KjSY/JysI4bAPVCTQXUaMKMw8hG/D62Ggr/KklSLpfD7hvYqc9xHFVVXdf1PA97RruuGwSBLMuu67quK4oi9n1HnhSlVBRFdP3gQK4u/Iz+IMuyQRCg/vlpvJaZMtW0YNs2PgMj11+SpMOKIS8PsHpQ1/WPPvqoVqvF5uDwNazX65Ik3bx58/79+41GAzuBXUgDViwWozEJjuNEUTz7Bcni4uK3vvWtWq0WO3v4vr+7u9tqtbLeXTOIcPWIVgYOctzDpgcAcrkcat5go1fTND3Py+VyjuN4nsfzPKrxuq6bz+cty/J9HzvJYe0ohsoKhULYUBStJxwsrYcNbjiqcD7EXQjDceyEzdMkPQlKod2n63tuLW9JnIOd1H3fDwnStm1jZT+6BVhkhT4aOg2+7/u+//bbb//RH/3R/v6+7/vVatX3/Varlc/nc7lco9FgGKZWq2mapmlauVzmeb7RaEiSVKlUms2m67qyLG9sbLx48YJhGI7j8KToWPi+jyQmy7KwLRu2+TBN80LOkpcNhBAUGopmNyzLKhQKU1cImDpM09zb2/viiy/efffdK1eusCx7mMubz+cppR999NHOzk6j0djc3DQMY+rRvslCFMXYvhs4QZ0lQ55hmHq9jhU0h/X76Pf7rVYrTXfDDBMHtpMVBEGSJEEQsDSDZVmO4xzHwRkJF7osy+Lnb3/727dv3x4MBrquownb29uTZblare7v77uuW61WKaXNZjOfzxeLxd3dXUJItVo1TdMwjHfeeccwDFmW8bAcx+HqGnO4QRDgRkIIehvYiCq0fd2Bs9dhK+X8jcVJZiQm6UnstuHzR2SzwfzyB/zdayrHEowTsCzr+34QBPl8HiMBiqIwDIO/s1Ao4EaMJRqGMTc3l8/nw+BBKPQUxg/Qz4puRKKl53mff/55EATI4UePDN3DcBc8OCEE702r1dI0zbKsSTn7eN4sLHHGwBLQaPEe+q8zWDp19qCUuq7baDRs27Zte2FhIZ/PH1buiILNN27cuHbt2sLCwvb2NvYXvTC9o2zbliQp+tbjZHKWVIl6vf7ewCMqagAAIABJREFUe+8tLi4eJmKh6/rDhw/TEMgyTBboQ6iqmsvlVFXleV4QhHDmH44QQBgMIKRUKn3nO9+5cuUKHJQIoT0ihGDcIgiCMI6Ojgi+bhzHoaFUVbVcLuNzEu6CcYuRXZBNPHwWAKgJ8g/v2f2vg3/yfWZlci1FJ+NJBBRaPfjsEfzVF9Dps7/+XU8UOBjqVhLGUTFOgJ/DXODwRoxeoFuHW/CGjZwxdiPu4vu+KIooSgpv0inCY4any+fziqKUy+Vms9lutyclg5gxLqcCQkhs/TD6neinYwbN8zzXdZHUZpomRrPRlZRlOQgC27YFQWBZFvt+ybLseZ7jOCgHaZomy7IoV+d5Hq4PLMsKg5OU0uguDMOMnNqyLAzInXFLHs/z2u32Z5999vbbby8tLV29ehWnm9gv48ty48aNWq1269YtFM1sNpsXQBKe53lMh0X/pCjK2VB0WZatVqvvv//+3NzcYSW4juNsbm5mAYnZAeYmcrlcvV4/QnpkhNWHr4yqqiNhp6hhgkOsJ+blMX0f3SX8ZrgRAyHDf7WMoDfw/urvlb0O/De/AdcXEv3+CCbgSVAKe234yVfwl5/D43X48JavWck1vHzfRzJE4iN4noeRnDEjsXitUeKeENJut9O37cCoSeZMnDEopfl8Php7wJjEu+++e/PmzTAkCEMuPDr7uHE4kIZLATjoBRz69bhoGOc42AUm1MvCIGe4CsGz7O/vb29vn7HWEGb3nj17trW1tbe3d+XKlWKxiCubWGBNQaFQyOVy3W53c3Nza2trMBic60gP3t/YRs+apqGa2emdnWVZlI5AcuthLEvf9zudztbWVrfbPb3BZBgfuBoplUrlcvmkpcKSJNm2ncY6qKqK65Nku9tu4IFoOv7fP2VVGX73l+H2crIjvYEJeBLdAXz2GP7iM3jwAgIK2y2mKLuUcskulCAIpmkesUI6Foqi4JR90vNiGb3ned1uN+ViK834M6QBGoDodqzRx8nacRwMg4XJRTSrPM8zDIPZTSTWIMmXEBLu4nkeNorENAG6oeizYorUdd1wFzxOuEvsqYMg2N3d3draOuMLhTBN07KsVquFVKT33ntPUZQj1HyxuCOXyy0tLT1//rzZbK6trdm2fU79iZCmPbKdZVlVVU8vJoGTw9zc3Nzc3LvvvovZ3sO+HATBq1evXrx4kREtZwQ8z+fz+Wq1etKuDpRSTdPS6JQQQvr9/vXr1xMfoVbkXFvXzEJPhx/dA9OG//afQL0MKVe9aT2J/S78+AH81Rfw1RoEFBgGFiqBZgEAhURjsyxLkiQMKScDitYlcAVw+qhUKji9Jh4AHKhjZc7E2UMUxcO6OIavffghNCEYtBj563BgMNwYhg2x3njkOAzDRI8zHH6MPfV0e87hm7K5ucnzfKfTuXXr1sLCQrlcPmLZhLGWW7duLS8vX7ly5fnz53t7e+exyTXP88i5HolJuK5r27YoihPPOuGTVi6X6/X68vJypVI5WrfDsqwnT548fvw4cyNmB5IkJXAjAIAQghUZiU+NyRHHcRK3ptpre7woMgR8gGYf/vYJ/E8c/NMfwN0riQcFkNKT2O3Apw/hz38CjzfA8wEAKAXdJIRwQQDJROsxkZwmL4BLQ0EQEvTKEwShWq3u7u4mPnuG6SIkS5+j1BLLskiJmiLtAKkhOzs7mqa9fPny5s2b8/PzhULhiN4THMch1yyfz7fb7efPn7fb7dhSiJmF53mxgp4objbBlQDmy0qlEsbGarVapVI5tgWr67pPnz599OhR1vZzdiBJ0tzcXLK4AqXUMIw0ExQuPCCF0EBeYRzHF/nA9Vnfh70OfPoQCIF/9Rswl1xZOqknEQTQ7MFPHsC/+1t4sAbh1EEAvIAQ4rJswiPjZUqzoA+CYHySRBSCICwtLb148SIlW+IcWbILg/A1O18XH33fWWAvUkr7/f5gMGi1WleuXFlcXFxZWRFF8bC6RAAghJTL5UKhUKvVdnZ2tra2dnZ2bNtOTzY6A/A8H9vXDaMUmN2IkvCHtXDCjSE9HgM2WDKGqSKe53O5XD6fv3LlClK8x3FTbNteXV29d+8eptUn/tszJADeOEyDJtsdX6XE1g2fhDQizpZDZSGw3Z8PYL8HHz8Ay4Z/8Y/h1lKyoyb1JPY68OlX8JdfwONXMLwCoQAlNbBdzvcpm0j7Ais/06wGgiBwHAdT0Ql2x7MjXSPZAMLa1PNlzy4AsGJi2qM4MXRdx6lhRgwGNjx78eLF7u7uzs7O8vLy4uKiqqpHPM8syxaLRUVRFhcXt7e3kcVpGMaM/KLDgBMFKgKN/EmSpKtXr2KZ6HBRj2mayJzXNI1hGEVRUHlCURScNLCoB/8tSZKqqsViEc3PmFxy13Uty3r69OmTJ0/OuKgnw9HAuugjHOujgdYNiVOJbRyKOCdmXPIs8akoC4Frvg43+gE0OvB3T0GV4Z/9CtxcTHLYE18RCtAbwOeP4c8/h3urMV/YbLLlnJ04JiEIgm3baS40LqESxyTwWUnDIAu1LhIfIUNi9Hq9wzKI0dru2I0jf43dePTy9KS7FIvFGdRG8zyv3+/rur6/v7+xsXH79u16vX60o8bzfLFYzOfzc3NznU7n2bNnu7u7syxmhfGD6KTMcdz8/HylUsGum8NsWaTQovIgyu6FikOYw0Y/TBRFnPFPui5yHGd/f//FixdPnjyZtUciA87taVhNg8FAVdXE1o0Qout6YpIEAEgiCXyjb462Dtjvwo/ugW7Cv/ltWKyc+LAntvd7bfjk4etKjSgIgZWa39WT0y+QcZnGE8d9camR7Ai4wkCF4GTIqkCnhUKhEFtz7/s+cutQ9pRSipJESKxjWRb1HrBkA/UeGIbBJSbP847zWrMVdSNQagJPhPUXKOQ6vAvqJKLpRamJ8NSiKOKpsfB4e3t7iozLo4EliP1+v91uLy0tLS0t1et1jM8ftgvDMNVqtVQqlUql7e3tnZ2d/f39GXSV4GCWiG37iVmJkY1He4QhQsLviW4rppa2t7fX19d3dnZm8HJl4DgO3/cj+ENHo1QqGYZRrVaT7Y6F7iiCksy+dPo+z8s5ydesN34CpdDswd89hf/lr+B3/uGJCZgnM/mNLnz6CP78M3j8CoK45zwIoDNgJMH3A8oySX6nKIro+yfYF6EoSkrOF070aaLNmRsxLSCrOXr9Hcf56U9/OhgMcBbAcl9ckiLDd1gNAvkWw6oSuEu4xEQSAK5Efd8PDxh7nMN2wVMDgOu6p6pbkB6+77fb7V6vt76+fv369Zs3bxaLRSx2PWwX1GgplUo3btx4/vz5y5cve70e1r6e5ciPBtblj28VRoSGop8TAJ9VTdNM07x3716n0+n1eueItXqpkLIaAAAMw0BeVGKmBXI2Ew9grsKZtukHMT4upjk+vg+BD//6t6BehPF/67ieBDosHz+Af/+38PgVuIes9hkCsghAfZZJGH7BaGEaS2xZFuaiku1OKcX6+Jma8jKMCVzrjzw8WMataRou9ZDIEttS7ogMSOwuRx+HHPTROfo4Z36REsL3/cFg8OTJk0ajsbKysrCwgAJ/R+yC9R3vvPMOim1vb29jZ4EzG/PREARhij4c+pSDwaDX621sbLRaLez5fo4eicsGXFokNuRYA5wm940ad5DCf93veCLPWu6hfkyrDz/5CvwA/vmvwlsr4x52XE/iNcXyM3i8fqgbAQAUgGcD1+eDgDKJYhKoPJrG78OlXrIqUASuVhMPALK+G9ODLMvRi4+M69A7DO33sCGPfhjZGLvL0cc5YuP58iFCUEodx9nd3UWZSywWLZVKR4tZiaKIGhWLi4svX75sNBr9fn8WShI8z8NmQGd5UqzTwVwbpn52d3d1Xb8w3UwuMLCNRWI5B6RZ4AOQuAo0lM1NdgSBJ65P8rLfN+L9Ic+HvQ588RhEHv75fwJX58Y67PGeRECh3YfPHsFffg5fxlEsh0EAmn1G4l2GSU6VwKbhiW05x3GY2E62O/ZSS0mZzhiXUwHSkTCtMLwd0xNZUf4EYVnW3t5eq9VaXl5eWFi4evUqFi8csQv6E7VabX9/f2dn58WLF5qmTTc+wTAMhjBP7xThVIBMEeSxmqa5urrqum6v10NezukNIMMEgdHNxcVE5Q0AABBq6SY+AlIJE9sXjiMc42rmMTVujR78+AHoNvzr34QrYzgTx9j7sKfGX3wOX62NMUwCi9VAs9gggGTXCpnSaS60bdvItEi21PA8zzCMxLvDgduYxSTOHpRSRVFi52XP8wqFQqfTOftRXVRQSl3X3dzcbDQaWCy6sLBwRFNsACCE8Dy/uLhYqVSq1erm5iaGN6ZFC8AqjLB/yjCQ14KLyLCTMAy1CRxuL4zvOzYfBoBQKN00zX6/HwSBYRjIhBgMBo7jmKY5mxTUDEcDQ4n9fr9cLieb3hVFwaLiZDaOUprL5ZDBnWB3ALDsABhJFgPdOmoAQQCNLvz916CK8Du/fHya4xhPoj2Azx7Bn38GX70Ef4yXPQjg+Q7Ds8lFaWRZTtl3Ayn0iQcwGAx2d3dTVoFmbsS0YJpmlHFJCJEkaVKNXjMMA9UUXr161W63X716dfv27UqlUqvVjnj+8XZcv369Wq1eu3btwYMHvV5P07SpWNZoY0ZEv99/8eKFJEnI0sXOcIZhoEpEt9vlOE5VVdu2LctCBapWq4X0F8dxsBOhruu2bff7faR2ouMyO8IhGRIAeykknuF7vd7RpU9HI30VaCHHDjRDN/PHdrMIAtjrwI8egOXAv/ntYwiYR3kSzR786B78u7+Fx2tjuREAYNjge9DowHu3xvp+zBEMA1snJNz/oFNzgluFyct+v5/eCcjciGkByy+j1980zUqlcsb9Ni8VBoOBpmntdntxcXFhYWFpaSmXyx095eXz+VwuVygUwpakZzZaBE410YiI67q7u7sPHz7EEh5yIF4JB0EIfMBwwUMOOruii4BHw2T2MHs3LE7O3IhzDUJIr9eTZblcPrG4NCGkWCxGKeHjg1KqqmoaAdn1XdrR5b4JkgDCGByEVhe+eAwsC//sV44qDT30SLtt+PQr+LNP4ckGuOMNWzNhuwUCB5SwjksFPiHjMg05Fg4kwJBkO/5eQRBgU8RGo5E+oZ6FJaYFlmVjl5gp28JlGAeUUtM019fXt7a2dnd35+fnl5eX8/n8EZ49zq13795dXFy8f//+zs7OWbYVRUmPqCeBpG+e51ElDzfGpmAOy8uEyZGJjjfD9IHFfa1Wi2GYfD5/ovh3mAJLY+OQR5hsXwBYniOtAe0MaE4meQV49phSTy+AvS589ghYBv7lP4bFQ4QwYubcIIBm/7UY9oOXMM67QCnoFuy0wLBBMwnPugKfUMsTr1H6vhsn8gaCIBgMBp1OZ29vbyL2JptBpgIsto6+ZvjyZzflbID5jrW1tf39/fX19Zs3b9ZqtaPzHdiNQlGU+/fvP3/+/MycCUEQYlPOOIdkrmeGWPi+j+1afN+vVCrjLxqxAny4yXCys6fZvdOnQGmzx/R0WKxCQQVxjMjEfhc+fgCmDf/y1+PltEePQSnsdeDTR/CXn8OjtXHdCM2EvS7oNgQBzJcCL+ACClgEGgQUCGEIBAEQ8tr9GdpIAQjDAAWgFAiBUAUIjlMjjt2IJdqYpDzamcBdUAK90+m02+1+vz+puSPrJz4VIB0pWiKFD0ZipfoMCYDeOYol1Ov1u3fvovjEYXxMbJX54YcfAsCrV69QVPQMBimKIoYwh7djTYcsy4PB4LTHkOE8AoVAUHlIVVVBEMakQKL0YrhUjlWyibV64UZRlFzXlWU5NKNopkdtK6XkIM0eBKhkA0FAHY9KApuTA81k9rsAAEUVeO4Y1oQfQKP7ujfHP/1BTKOv0bc6oPDlc/jzT+He83EuCwCA48F2GwzrdSuv1R328YuBJKidnq1IRBT5ge7TwC/lOMdnBrpdVBmG5XuaxzJBXuUNGyzLqRbZAPhu3xY4qrV1s/MMOwYhxQn75QCALMue59m2LcuyKIq9Xo/jOFEUbdt2XVdRFJZlNU3rdruapuHKJlQVxBBrKFLmuq7rut1u13XddruNxZ/j/ubjkFWBTguDwSC2RCql/HmGxNA0zbKs7e3td999t1qt3rhx47A1HCGkUCj84Ac/+MlPfrK6unoGIQGUGImSORiGyeVymRuR4Qj4vm9Z1sbGRqFQ4DiuUqlgsIHjuFAYF4ZCCOgZ7+/vDwaDtbW1XC7H83y32xVFEfk6nuflcjlCyGAwyOVyLMsiaQ+7xJmmibu8WO9s9RdFoSeJkmHTwLOKec71Rd0wJIFwvKSbHqFOXhVsj7NMI6ewlJF03eZYT5Yk0yarW6CZHACYNuy0gGWgpAI5bvFLKTQ68Df3QLfgv/t9yL1ZRjrqSWw34adfw8OX415Nz4eOBrbz846gzR757/8P9Urd6+mC5ZJq3qeU6RmcxAeqFHQ1yfWgVvRtj9UtPicFAkc7mkSBVvO+Zgm+D4tsy1v/v1u7jyVJKhaLzWbTtu3FxUXbtrvdbqlUkiSp0WhQShcWFvr9vqZp9XqdENJqtXieL5fLlmX5vo8ZUNd1OY5DOQFcmGIBN3oVyLKeeNw7qwKdFrD2p1AoDG+klOq6XqlUZlyU+qIC8x2PHj0qlUq9Xu/27duyLB8RoX3//fd933/8+PFpDwz7rUT7briuq+u6oihpqN8ZLjzQcKC97/V6uIZBGUrUDmEYBttJBkGANWX9fv/LL7/M5XLIL15cXOz1eoPBoF6vMwzTbDYFQahWq81m0zCMpaUl13U7nU4+n1dVtdFoMELxynv/VZN/p23OFxRP4KA1UAkEtYLbMyTDZuoFjwLT1VSRD/KK1x4ojkfmy67tcgNDysueT2G9wbMM9QMCAK4H7T7IIsjjlYO0+rDdhC+fwffeBW7oDR71JCQBml1gmXGLNTgWPO+NxuJBALttdrfDonVeb7BAgQIQwgK8jsO8arAAb2wkAC93Xyc4dnVdf/CFb24NB3meP38OkWjP06dP8fPq6mq4keO4xcVFSZLQbByRFjm9xHnmRkwLlFKO46LZDYxgTXFgGSzL2t/fbzabmqbdunVrbm7uMGcin8//4i/+om3b6+vrp8qZ8H2/VCpFh4FZmIxYk2FMYNg7LA0jcS2F0St1HGdtbc0wDCztefz4MdLz0ZaN6Og/e/YMhlT28Tj79AftomIDTwgPB9bz6fZr2/pyjz8wuDgyoAAvd3kgaF45OLDCIdDWUzi2LBQAwPfh6SZw3OhBRj0JywGeA2/sogfPhzBPE4K+/geGBz38nfDjz/96sJUlQcBIvrkFh+sWj3wY2RhyFI795rg/MsM5AXKgom4cUqazBMfUgRUNz5490zTt5s2bi4uLYdvMEXAc961vfSsIgrW1tdMbjyiKsSkMdF9im8pmyHAsjrAy+GiFpT3hF0JW0PDG4Q/4WZArjuP4TA6CGOsJRxhcOrpxaLRAyFhuBKJWBNcD/k3fYTQ3EgRA4Y2oxdEgBAKaUM4yFpQQT3/Fqkn1KA7cw+k6Cpn4zFSA2atoNAgr+jIa7IzAdd319fVHjx49f/78sHwTIURV1Rs3btRqtdO7cbZtC4IQLRdHdSlVVU/pvBkuM0I9kgQIfAcYiQsmKbLHcUBPQm6mAXgeOG8qCY/GJIp5cD1wxg4o4vUYMxUyDgKfStXvWOMzNSIIyZUTG9PJkWU3pgIkK0UND3p1GYFuprC/v+95nuu63/jGN2JttiAIS0tL7XYbSfKnMQZUnYmy7tGPyXTMMkwcPM+naTQdBJ7MGT2mDpOzuZYN7El89Y4G5TwIb740owdotEGRRgMXR4AQEPkTfP9YsCxjNj5hhEP0L8YAqhxOPSQw9QFcQlBKC4VC9EUlhNi2XSwWpzWwDFFQSrvd7suXL7/66qvYfihozq9du1ar1U5pDOh0Rhu1BEGg67osH9PlKEOGk8K27SMa0xwLlpV6hsAFE+sfxDFQVE/mlixWodUfDR+MehJLNdCMsWQkEIRApQCVPCRqIR4DPwCp9A4NktOssNna1EMCUx/A5QT23YhuR5JEdlNmCkEQoDOxurp6WNRhYWHh2rVrifsVHQ3XdXmejzIuWZaVZTlr0Zlh4hAEIVQiSADPHZTzxIfJ5N0YAoUcFFQQTqJ0tduCamF0YyQm0QVFOgHjEgAYBuolmKscI7o5JliGuq4xHo00Hqi3PYGhpEMWk5gKMPwQZVwahlEoFLKbMoPQNG1jY+MwAQnf92u12uLi4ml4gdhkK/pUoLpdRqzJMHFEZdBOBEEqDXSHIRPwcVkWijmo5CEnnYzpOF+BXiTvN3oAkQM/APEkCwACwLOwWIb58gmomochCAh1WoxQSnGEADJDflkhiiKKeQxvxNrgjIo/m/B9v9lsbm9v93q96BqAZdn5+flyuZym/+FhcF031r9E/kSaKHSGDLEIFZyTwTZaHC8Qmla0jRAoqFApQk6Gkzo27T5QgJE3NeJJCOD5YJ/Q4yEEGAbmyjCX3AE4OBT4fP4tX3+R+AhYCJoxLi8hUBQ1So3G23EG6ssZEmNzcxOr56OglF69evU0xM45jtN1PbpGRBXtTMcsw8SBE1HihS4n5nliu8xCmjEwDJRyUMtDXjoZ1xLBMiDzxzEuOwPg2CRHBwCOgXoJFiupIhMMw9jdh6xyM/ERUKw0+QhSgxCCEt1THMPlBKVUUZTYu48tOc5+SBnGhOd529vbse27GIbhef40CLPYNDx6RkyHHaZ1kSFDYnielyYswRBWdxU+2Ek8AJaBogrVAqiJ3AgAyCvQN0YLPGMYl6YFQSIjSAhwLCxUoF5MTnNwfaJU/4FvbiQ9ADiOM92wJKU067sxLWiaFl28osZlsznJIuwMkwWltNfr7e/vx2aRy+VyvV5Pk2A+DKIoRvMmHMflcrmsCjTDxIEdvBKvMx2rW1Rsl5lLtjshUMxBrQj5kyc1QrzYgcUa8G/uPupJbDehoAKbwggSBmpFWKgklKviWWp27hMmuSuA5NipK1NN8eyXGYqixPaAxb4bZz+eDOODUoqEidi/lsvliUtFiaJoWVa0RsPzPMMwTqlgJMNlRmwX+/EhyNWuxrI0Sd6NY6Gcg0oelBNSLEdwZwWa3dGiiNHjVfJgucCkcP0JAM/DfAXmikm8Hp8Sli8wQj3xALA7V+LdJ4JhxdMMZ4mw78bIdlmWsyXm7KPT6bTb7Sg3lmXZYrGYkq0WhW3bI727ENh4KWNcZpg4ol2BTgTPGeQUlqEnrt1gGCioUClAXgYuXU1SawCSAN7R2Q3bBZ4dFcI8KQgAy0A9EQGTgYCR5gIneSAap5upMy6nePZLCywBxdY4w9sppbZtZ0vM2YfneRsbG1FuLPZoVhRlsm+WIAiGYUSrPYMgwO7BEzxXhgxwsMhMzrjkVc8xfHIyzTTkRlTykJMn0NpCEYDS0TBBjCfBMCerAj0MPAtzZVionoyASQlxug8ZKTk3NSU5diKYelDkcoJSqqpq9O7j7TiNLHuGySIIAt/3o43WsHNKLpebrDvo+76iKFHHhWEY27YzjcsMEwf6xCmUqXTHFzl6gk6EDIGCCtUC5JJSLEdAAQz7uCrQhSpo5omrQGNBCHAMLJShfpLIROBTufbdNFWgqFs3XVueMS6nAuy7EdvEKyvqOy/odrux744sywzDTFZ3klLqeV40i0EIURSl3+9P8FwZMkD6Zg6UFhTHYZbG/DohUMpBrZBEN+IwtAdQLRzXC3RjD5SJlm2zBwTMMX8GxxKrc5+VVxKfURCEqcvcZlWgUwHGJKJSiZRSy7LK5fJURpXhROB5vtPpROMElmVNnLtAKTVNMzpd+L5vGEZWNpxh4sA0a+J1JicWuobA072xvowUywIoE4pGIJZrsN8D9+iYRK0EljPJjlwAIHCwUIFacawMjesTQV2mQfIMJRbsJt59IsiUqaYF13UFQYhmN0RRbLfb0xpVhvGh6zrP81FHHIt7J/taUUrL5XLUO+E4DkvAJniuDBkAQBTFNHJHjtnKycSH4/NuDAMFBapIsZyoPXy1B+X8qNDDqG3vaSAJJ+u7MQ4YBuZKYxEwOZb6rhnYjcTnyuIBlxZoZqINciiljuNkQkPnApIkxfZ/R6s/WU9CFMV+vx+Nf3ie5/v+1EObGS4YcCIihCS2UIJctSwP4Bi20GuKZQGUSVAsR7BcA8Ma9U5GT8JzrxuF42jCQXDs6wZd4QdCgGVGNzIMMMxrb2V4F4YAz8JiBZZrrwMe4b6EAENe74IRmMBpsuqtxL8zJTl2IkjzrGRIDEqpIAhRKj4hRBCETC37XIAQUq1WY29irLJ1GmAVaPTBIIQgGXOC58qQgRCCnRwSO8SBb7GcKJBuaD3DI4UmlWWgmINqHnIyiNxYhvtEtt71gNLRAs/RsF5RhVvL4HoQUHBcYFngWTAd4FngefB88HzgGGAZMG3gOOB5cD2gAfAcAAXbBY4FjgPbAYYBgQMvANcDjgGOBcMGINDsweM1yMvAsNDXgRAoKGDaYLpQVgHA18tvPXj4KtmFBgBs4jf1KtAsu3H2IIRomha98qg6mnXwmn3gJBv7/gZBEASBaZoTPB3S32LrQWRZNgxjgufKkAEOmsOlYVzmud2bdypoPVkGVBlMGywHyjmgAJoBlTws1GChDLYLPA8iB64PvgccBwwB0wGOBYED2wMCwHNAKdgusAwIHJg2sOxrw+15wLLAMq8JD/yBD4EqmSN9N0Y9ibwCv/1LYHwEeRlMB0wHqgWgFNoDkASQBdAs8Hyo5sH1oatBXgaeg74BAFBUwXZAt6CcB0KgMwCBA0UCwwLHg1oR/ABaPRA4oAB7HaAUlmugW9DownINOBa2mkCo+3/9r5++yFe13likkig4jkONyynacoxJZM7EGYNSms/no+ltQoitewLsAAAgAElEQVTrurlcrtPpTGVgGcYEpRSte/RPjuM4jnPYXxODZdloo2dKqa7rsixn9T4ZJgjMbqRhDRPi/+Bbwu/+/k61fn2xCpoFzR6s1IBlYLMJsgDVAmgmUIArdQgotHogiyAJoJngB1DOg+tCz4CCChwDPR1YBvIyWA4YDlTzQAE6AxB5kEXQLXA9qBTA96GrQe7A1ksCVPIQUGCG7FvMT5qLY7hXC68/1Iba6IS8h1pcb51wFyjGbLyx+PON71x7/eH6Avi+8OhO2bNPUC87Apxuph6TiIZnM5wBDMMQRTHqximKkrkR5wKyLM/NxbQVUFXVMIzJNudDHyIak2BZVlXVycY/MmTANGsaV9hznbXnj//Rt+eimbfrcRpMlQNu2LCNnq/EbAwRa+vrR9p6iPIkpg5d1y3LipWwHRMpybGTQpaVnwo4jrNtO8q41HU9qwI9F0Ch0uj2TqczcTI1z/O6rkeDWL7v27Yd7eyVIUNKYEwi8UJXFMXFxcUZLEObOU9CVdXDxPDHBIolZ4THywmWZRmGiVaBos2Y1qjOHhNvUXE24DiuXC7HEheCIOj3+5P9UZ7nFYvF6DFxrp96MXmGi4fYrkDjw7Isx3FmsKpo5lrUmKZZLpd3d3fTHGTqfTcgE8yeBgghWGQVjUlgZ69pDezMgGH5fD4vy3Kr1Tp3CR2O4yRJihZN+L5vWZZpmpMN9fE8r2laNBGJwpcZSSLDaSBNaSF2irly5cpkh5QeMxeTIITs7e0tLY2rBhoFwzCpyLGpgZYsC4qcPSilsizHGhsUpzr7IZ0ZsMHV9evXf+EXfuGXfumX3n///Vqtdr7i84SQSqVSr8f0AaaU9nq9iXvnGGqOVaAyTTMTIMkwcfi+nzJeuLCwsLq6OsEhTQQzt0qTZfnKlSvb29uJj+C6bppEVHpgzWEWk5gKut1u1HxidmMGk4sTAfoQy8vLlUrl6tWrsixjduDtt99+9uzZtEd3MnAct7CwECsm0ev1YhWr0gBTGNEHhmXZXC6XxSQyTByiKDqOk3id6bru6urqW2+9NdlRpcfMxSQ0TdvY2EijCYMyt9MNCWSFG9NCsViMTSKaplmtVs9+PKcNhmGKxeKHH3743e9+9+7du4VCISQZSJJ09+7dc9RLPZfLLS8vx765/X4/SqRND57nsbh0ZLvv+7quX+wgVoapwLKsNK+kIAi3b9/e2dmZ4JAmgpkzeLIs53K5NJ6E67pTN+RZamNa8DwvtmuDJEkXsrVjEASe52EiY2SGKpfL1Wr1HLFDOI6bn5+P5Tn2er3t7e2J10M5jiNJUnS6wEBFFlbMMHFwHIc1Acl2d1230WjMIBd45jwJy7IURUmjLofk2GwWuIQghHieh6TL4e3YC1SWj297cx7hOM6zZ89iKyevX79+/fr1Mx9REsiyfP369VKpFLXrpml2Op3T4KsLgqDrenSuwLk+K+TOMFlg4jtaXDY+eJ6feEfciWDmPAlBEBqNRqk0RrOvQ5D13bi0QMYlRGJCKMB8Ue+IbdvIIYj+QFmWl5eX5+bmph6lOxosy9br9aWlpeg4UQtkb2/vNERiPM/L5XJRj4FlWcdxzhdfNcPsgwwh2REcx1FVdQYpX7M4vywvL6dhXPq+P3WNy4xxORVg343o3ccSUMuypjWwUwWldHt7e2trK/rIsSy7uLg4Nzc3g+HQYXAcNzc3Nzc3F11s+b7faDR2dnZOw5NgGMa27ehJ0SWdOMEzQ4aUfTdYlt3c3Lx79+5kR5UeM+dJOI6zu7s7Pz+f+AgTV+Y/KS72CniWQSlVVTVKoAMAx3GKxUOEXs8/KKX7+/v7+/uxYYmbN2/G6k/PDpaXl2/cuBHLRPM8LzYBMRF4nue6bnS68H3fMIxcLncaJ81wmZFS45Jl2du3b89gFejMeRL5fL5cLqeRI8Qq0AkO6aTA3EoWk5gKTNOMMi4JIZIktVqtaY3qtOH7/s7OjmEYsf7rwsLC7du30+jGnirq9fo777xzmJ/36tWrr776KtY7nAjy+Xx0uuB5XpKkrHlsholDFMVY/ZIxYdv25ubmDC4MZs6T6Pf7hmGkYVzyPD9dZaoM0wLqRnieF8u4TEO+mX3Ytv3gwYNmsxn9UxAECwsL77333qxJLTEMk8vl5ufnc7lclCERBEGj0dja2jo95qMoirquR/MmruumKfrPkOEwOI6Tpn2MJEn1en0WGkuNYOY8CUEQLMtKk91I4/FNENk0dPaglLIsG31RMSZxsZeYlNJut/vq1auoF46aE8vLy4uLizOlkSBJ0vLy8p07d2JdHN/39/f3G43G6c2b2OIn+qqiCuHMRnEynF+gx5w4Yo21aTMYXp05TyIIgsXFxdil1ZhAmsLUkwtTH8AlBCEEI/zRmITjODPoyE8WlmVtbW01m83YX1qtVm/cuFEqlWakhIzn+Xq9/vbbb9dqtdiARK/XW11d7ff7p+eU47olys+glIqimHUVzzBxEELShMwZhun1emlW2qeEmfMkKKXr6+uVSuX4rx4ChmGmrnGZVYFOBZTSXC4XfVFRGyCN3Nm5AKYDnj9/Hlt0wHHcysrKO++8U6lUpu5MMAxTr9c/+OCDw+bEfr//8OHD0652C4JAEIRYgrau6xf+gclw9vB9Pw3jMgiCpaWlNLWNp4SZ8ySw78b+/n7iI9i2LYri1KtAZ7yC/6JC0zRJkqJ3X1GUbrc7lSGdMVZXVw+baFiWvXPnzttvv62q6hSfT0EQyuXyRx99tLi4GPsFx3E2NjYajcZpF2FhJjTru5HhzCAIQhoKjud5z549y/puHA9N07rdbhpynCRJp8f0HhMMw2QCeVOBJEnRoDSqG6UJdJ0jcBz38uXL1dXVw8zwzZs3P/zww3q9fvacCYZhVFW9cuXKd77zncP456Zprq2tra2t9Xq90x4Px3GGYUSnC9d1TdO8qKKoGaYIx3HSyB1JknTjxo2NjY3Jjio9Jh/kDIIgCALMVYdBfvxAKcWVEAo3xf5VlmVsAM3zvCiKtm37vq8oCn4QBIFlWdu2MViNH0RRpJTivClJEoaPQtodngiHFMo84BlPz9hnVaDTAopQjVx/QoggCBey70YUruvu7e1JkiQIwtLSUjSRIQjCnTt3GIZ59uzZzs7OWTKUC4XCysrKnTt3KpVKbFDEtu29vb3V1dVYbYyJw/O8WH1unudnXMsrw6wBbUooJhRaQLQyoekRRVGSJMuyPM87zIThRkmSXNdFc8ZxHDK98AMA+L4/bEYPOx1OgyPfPI1e2ZP0JCgF3aQ7TScv2arM4M8GANd1kVGPPx7L/T3PQ4I0ZrV5nsdeRJ7nfeMb3/iDP/iDbrdrmmapVGJZttVq8Txfq9WazabrupVKxff9Xq+nqmoul0N6ZrVa1XUdg9u9Xq/T6QAAx3Gu6+K1AwDP8xiGwY14rsFgEAQBfmeClyLDVIB9N2IZl57nXR4qvud5m5ubLMtizVjsrHHt2jVRFPP5/Pb2dq/XO+3nn+O4arX61ltvLSwsHBYcchxnb2/v+fPnu7u7Z+PfiKKoaVr0+uBEcVFFUTNMFgzD4LvGcVyYKcNOXbh8RTOHG4MguHv37tLSku/7nU5HVdV8Po8mrFaroQkrFouCIDSbTZZl5+bmWq2WbduVSoVSqmnae++9h7E0Qgg6H4Ig+L6PzQvhoIclDgANLtpWjuMYhtENd79HqtXCYmWSGYlJehI9Hb5aI2tb/nvXmbtFSeVZvHyKolBKfd/HqRydJkVRME6AwQN0mlC89tq1a7/3e79n2zbKgTEM47ouBirQA8C7hRuRMOX7vizLvu87jmNZ1pdffvny5Uu8dkEQ+L6PKww8NcuyeGUZhtE0TdO0drut6/qkeJqh95eFJc4YYd+NERBCZrPtzekBFWwKhYIgCPl8PrrC5nl+ZWWlVCrNzc19/fXXrVbrlPxpjuNEUVxZWbl69er8/PxhKQPHcTqdzurq6sbGxpmFSWzbRvmZkfINQohlWaqqZoLZGQ4DTu+KoqA3wPM8hrLwJUIrg4S5MFTAsmylUnn//fevXbsW2rVhExYEAcq3syyLXgIqWbmui1bPcZxCoaCqKlYvh7ZVFEWGYdDgqqqKVg/fNWxHF46HEunJV575IvhH32JW6hO7GpOZWymAbsLjV/DHH8Pquvjhrb4k5uGgdhYRzmXhh9i/iqKoqqqmaaIohnnc8MOwMQg3hrMAzlmYGUGRIjxy7KnxUJVKJZ/P12q1nZ2dfr8/kdRspnE5LRBCer1ebBsFrJ6ayqimBcMwvvzySwC4c+dOrPAzISSfz0uSVKvV7t271+/39/b2Jlh2hBPrzZs3S6XS9evX8cWM/SZGBx89enTGMsA470cZl4SQjHGZ4WgIgiBJ0tLSEvoQ0S8Mm57Q2FmWVa/X0cZHTRgM8X+HwxthPFUURUx8DO8SPUto4KJ/pYRuNfQfPZL2e/Bf/xrUJtRCYDKeRE+De8/hTz+GL57Au1cd3U4eRg4jQolJDKZpsizLcdyYKxt8DpaXl1VVZVm20+mkn0mzmMRUQCktFApRpiEhBMODaBvwvoQ3aDihePTG8PP4uwzzco7+62nEA3zff/r0aRAEN27cKBaLsVEZnucrlcq3v/3tVqu1s7Ozs7Oj67ppmsnGgwE5FK+s1+tXr15FrsZhPgQAWJbV6XS+/vrrtbW1BGdMA/QkHMcZyXwFQaBpmizLacR2M1xUYIC8VCpVKpXYSrEjUCwW0+iUYKG74ziJ6xP7ms+wUl/zP3nICjz85vfgxkLi4fwcE/AkNAO+egl/8mP4/DE4HrQHnCy6vk9ZNsnvxHc7zayqqmqCPAWuzFCLIrZB84mQuRHTgm3bgiBEr7+qqtVqleM40zRVVUUNK8xu2rbtui6GBC3LEgSB53k0pYqi+L6PNH6WZXVdZ1lWlmXbtm3bVlUVAAzDEARBEATTNIMgUFUVd8G8KaYzZVl2XRcD5oQQXdeRUGxZluu6uVzOtu3d3d3TUOHs9/v379+nlC4vL8/Pzx9GJMzlcrIsX7t2bWNjo9/vb25u9vt913WxA87Rr0Po90uSJMtyvV5XFGVhYSGXy8XyGYdhGMbOzs7z5883NjbOXjoMifTRa4IPxoWXMsuQDBiyqlarCcy5ruuCICSWCTis3fH4qJc52zJNh+9o8Nc/g4DCv/g1KKrJDvZzpPUkNBP+/hn8xWfwxRNwPGAYyMmB4zgMk3Bovu+nrHQ3DAPJJifdkeO4UqlkWRaSLdKMIcMUYdt29DUTBOGdd94BAHww0GFFAg26j5hKRI4SbkTiEsuyGNxCezPMFMbFN2Yfh48TJiwxRYqMnOHjjJwaAPr9PnbBPY3IhOd5jx8/Rt9ofn7+ML4I/sCVlRXP865fv97tdrvdrqZpe3t7QRBgfwpstItLorDFST6fFwQBs8XlcrlWq4Xx3qPnu36///Tp052dnVOVxD4CgiDouh695p7nIXPr7IeUYfYhyzJGI066I0qw49SR7NRIBUvzsjQ6niBwjksAYKsJf/Mz8AP4ne/DtXSRiVSeRFeDx2vwpx/D330NtgsAQCkAoYRTgiBVTCKcixMAWZbJeosLglCpVPb391N6Ell2Y1rAVUL04s844xJdjdM7vmVZa2trlmUNBoMrV64oinLYw4kEI57nFUWZm5tjWbbf72NWyHVdrE/DpTzHcRiqIYSoqorkL6RIHz0YLKVptVr37t1rNpuWZU1r9e+6bqFQiHoS4RySrSgyjIDn+fn5eYxHnhT45GMGP5l1QPJmqLOQ4AiSQBwPcnLQN1jXg1d7QB6AwMHv/jIspBDcSTi3UgqaCQ9fwp9+Aj++D+GLSAAGJs9QjWUTit7gBUozs+BEllgdT5bl+fl5XdfTqE1kC5qpAHMWp1EtfarA+eW0S5Ety1pfX+/3+81m85vf/CY2zj7i+yFnuVQqYcvvsGYbFTvCMu8ThWqDIOh2u61W66uvvmq1Wjgnpv5xCYHpp6iLiSX+WeFGhhFg5JJhmMS5CQzsJY67I60njYgzIUTgXN36+bu/sQ8//BJsF/7LX03uTCTxJCiFrg73n8O//QS+eAJvTAMEannH8gTPp1yimMRwoWaC3QEAhTswUp1gd1wdpunfE4qTnC97dgGAzIbTllieOHB+wTjBqZrVIAg6nU632+33+9evX19eXi4UCuM8peF3wsAJFtbi5zGnRSzh3tnZWV9fbzQaZyBiMc6Q4EDwZng7iqLm8/nMmcgwDEJIoVBILH5KKQ2FpxI7E6qqYkeIZLu7XhAQSRYDzXz9zPs+bOzDJw9A5OA/+17CNEcST8Kw4ckr+JOP4ZOHMGLugwB2OnxBNlgm4bVGGY008QBkySU+ArJp0gRFsirQKQLrh6c9ihNDluWzkeDEh3Nzc9M0zd3d3ffff18QhDH9icTwPM+yrJcvX2Lfc9d1Z8fbk2U5WlfCcZyiKFnhRoYRDIfikqHf7x+RWzwWyLiM1i2Pj6LKeo5u2oXhjb4Pr/bgh1+C68Mf/noSAuaJr0jfgC+fwZ99Cp89GnUjAIAhUC/4AzN5U2/HcVJOakiMT8y0CPUQ0zTvyNyIaUGW5al3XTkpKKWmaRaLxdNufTmMdrvd7/fb7fbS0tLi4uL8/DzDMJOVAUXdPdu2G43G1tbW1taWaZozVRAhiqJhGMiiHd6Ork/iuGaGiwqWZbE0LNnuhJBisWhZVhrGZVicmOwgrZ4vSaLAB6Y9SszaasGP7wND4Ld+6cSloSfzJHo6PHwBf/Ix/N3X4MaJNQQUTIfwHOd5Acclid6gu5fGEsuyjJTyZLtjejjUqUx2kCwsMS1gOMqyrFCkNiymwHsKBywWLKYI6y+Q5ztcfxGSXcLjhLuQoU4xI7vAgaZC9NRH7EIpPeO2IJRS13Xb7bZhGE+fPl1eXq5Wqzdu3BBFEbvbQKLXEC+abduYyOj1eq1Wq9fraZp2lg0+xgRqXCJDJbxHod4uz/PnzivNcKrAKq3EuyPLAd/6xNmNlM9ktcTajsPGnRwJmD+6DwwDv/8fn0y0alxPglIYGHD/OfzZp/D5I3AOmRMYAgElDBgclzC7ga9xmgSq67rjy1JFgVOJbdtpxjD1BPDlBCGk1+vdv3+/WCwOBgPsYoUyD6jOruu6oigcx+m6ju3iHMdBZYgwbIgyD0hcQIUiRVF4nsdYN/IwUJSCYRhd17GEAYuHc7kcauMPnxoVJnRdR+mzkVPjLtgmZiqPDZYnvHr1am9v78WLF0tLS4qiKIpSq9U4jsvlcugVoQM0oq8V8qOxu55pmt1udzAYtNttTdNarRZelrP/UWOC47j19fVut1ssFj3PG75HlmVl2Y0MI8Ci7sTOBL44yNlMMwxcJiXbt68FPOuHJIkoNvfhr38Gjge/9yswvpz2uJ5ET4cHL+D//eS1bsQRKMheQHKUQpoFeZoqUJzgklWBIjCwmWxfRMoHJUMyUEoty3r16hXWSpE3+/LBgZ8aRgIO++uxG2lc572Uu0zX+wyCwDAMwzC63S5mYbFko1qtYv06z/P5fB5rN3K5nOu6KOCGHphpmo7jGIah6zpqY6RkO50NsBi13W7H3qMMGUaA76zjOImZCtjMM01MQhCENNkNAOpRoaD4fSPexnk+rO8BpSDy8J//R3BlbqyDjuVJGBY8WYc/+Rj+5t5xYwTY6QgiqxGSkPUW6vYk2x0OGJeJ3Qic0FMuR7Iq0CkiNAM0rnH88Maj/3r0xtgzptllRoC5IQDY3d1ttVqrq6soF4F/xb5BaGuRUYSBHKR6wJDe5XkB2oZpjyLD+QDGNY+Qfj8aWBMky3JiNwId95NKdA+joHLg633jqNRFQGG9Af/hp2A78Ie/DuX88Yc93pPoanDvOfzJx/DpV8cfjgAslR3NYoOAMkySnzqSP06AwWCAwZ9kE4TrupqmhYqEyZBVgWa4AAjd8V6vhy9U+AG34+fhN+V8uREZMpwUWEpdLpeTTe/5fN4wjMQxCYwIYk+ABLsDQLvvMZws8oHtHjUASmG7BZ88hDF7cxzzYwYGPHwJf/xj+OIxeGOECSiFRo/jOTZI6uWjulzCnQEAQJKkNLwYlAdOyQ7L3IgMFwyh9zDsoGer+QyXDYZhuK6b2EilrOFEOnPYuzwBCipjmjaMsTcSMP/6Z/BnP4GefsyXD/UkkGL55TP4t5/C3z55LYZ9NCgF04GORtp9P5ksFQBgk4I0M5TjOMn6bmCENmslnCFDhgwZYkEI6XQ6ycwEIQRZR2k0LlHDN/FKdacFO12xOSDjhAYAYKsJf/0z+J//Atb3jvraodmNng6PXsGf/mRcNwIADBsaHVCEwPEF2wlEIcnFSp8XwCrwk6YnkEfT6XQm0pKRZH03MmTIkOHCAS1Fu91mWVZRlBP5BEjKQTJyGqqE67qJqRLVIrEcpqdRTyZ5GVgWjj4KRiYAQODhv/iHsFSN/1rMj6EUBiY8XoM//hH8zc/AGKOFDaVg2rDXBs2E7TYnMnYyNwIO6mTSJDiwpdBJ3QjTNDudDornJD718AEzNyJDhgwZLh5c18X+Nbp+XNA/Atu2JUlK40agCEpi++IHYFreXofZ2oeBCWPG7jf34Ydfwv/5H6DRif/CaEyCUujpcO85/Okn8MXjsc5BKRgW7PdAM8ELYKXqOoFIKQABAhBQSiIKN+HG4WJRTGiE7ZgTOxOoSjSmpAQKGem63mq1Op3OpCrIs5hEhgwZMlxUeJ7X7/ex8R5qkIwjoY2tGNLEvCmliqI6jivLcmhk4cB6EnK8we0MaCHH5aRAs5i9NgRlKKpwrIqkH8DmPnzyEEQefvMX4XqEgDn6410fHr96XakxZh7F8WCvC5oJrg8AsNXiXm52flYpmabDMoGiiKZFXdcu5TkfBE0zBY6IoqiZHg28Yp53XNY0LUlieF4c6DahvsS6rf2mKAosy6K+EMdxKBaE9TMoFsQwjGEYDMOIooiivLjRtu1er4eiQBhEQklBLOgI1Qyxu2un07EsS9M0y7Im2AsgcyMyZMiQ4QIDJVUGg0GxWJQkSVEUbNGJ8QY0AVGJ22azCQCNRmNYp04URd/3LctSFIVlWWRlchyHWrHYGgYbdjAMs90wmuYixw2KOd5yWcu2FZFhOUHTbYahqiyYDnUcp5hjKYiabvIciKKom34QuKU877js41eB5XIAoFvgt0FgQZXh2FJLz4dXu/DDn4Lnw7/6TVDfFNYfLZXcacH//v/B//MjcMazqp4PrT40uuC6r9mgIg9LVe/GvOt4pGdwRckTBdrROT+gtYKnW2zfZOt5lzDQ0Tme8Utq0Dc50yb1gusFjGEzS9LPitr/1mutAUC5XDZNczAYYNVNv99HhRwUw6lUKr7v9/t9VVWxC7DneblcrtPp9Ho9DAGhfyAIAopMCIJACHEcB6MReKsmXrrGcZwoipk+VYYMGTJcbJCDVuNo/rFyEBerqJEYBAH2/SKEmKbJcdzKygqasGq16vt+r9dTVVWSpF6v5/t+pVKxbRt9FJZle70ewzClUknXdcNmS1d/s839pw29xnNBUQ16Bms5pF70XI/0dC4ne7JAOxrnB7Re9Ayb7RlsNe+yLHQ0joWA5+jqttAeMGF9ZUGFq3MgjqeRwXPwzVvwh78BH92BYcntmIDMdvMYCsYwOBY8D4Lg50Ultgtre9yrBkcpUAoM4YBAEAAhQIjweiPDAeBGnhAAChSAwOuf8qT7jL7693Z/FQB4ng81xRiGQfVJnucxooC+gm3bHMdxHIf6+aqqlstl/D4ciEQNdz2ASWhyZ8iQIUOGDKGkCrafHJG1Db+Dny3L2tra+vzzz0MTBgf1hqEJC60etqLEsk8sSPQ8r/7B3X75103KEwI/t56EBwrBgcE9SHZEDS4QEtN60w/QBB8P14PVLbBt8IMjPQmWARqMW6wBAJ4PQEZZGzh6REABvYw3NgYx38T/ssRnlOv99pPXxz/gOqDuHgAEQRCmIcJST8dxQnl/wzCKxSK8qXUYOg3DG8f9kYmQZTcyZMiQ4VIBzcoR4iuUUtd1Q0JerAkLrV7IqAitHi8WITAsWoMR6xkxuG9sjDO4CALgecAyJwgfiDxwLAhv+g6j4fe+AQwL3AlVndI1qXgDhGHs3iNWvZn4CGl6dkwEYQhkimPIkCFDhgyzBlQoSL7OJGB6ikB3JzUeCsDz4J8kvS9LoFmj/IdRT2KpBqY1LtcSADgWKD3B94+F5xOl/l1ff5H4CK7rJtZFnwjoQWPiKY4hQ4YMGTLMGiRJchwn8TrTtXpl2bLJ4gSHZNknix2s7cBSDYQ3beyoJ7G5D4XcCY7rB8BzJ45hHAGepUbzC8KpiY8gCAJmmyY2ppMj41pmyJAhQ4YRmKaZZqEryJWWxvG0O6nxsAzk5JPFJO6sQKM9miUZNXj1Ipj28QUhw+Oo5KGcf4N8kQY+JYI8x/ClxEdwXXfqhjxLbWTIkCFDhhFgKUfiiLVnawWFhXHaZowBhkBOhqIKwkliAfs9UKXRRMSoxdVNEDhwTtK+imNhrgTVwgl2OQIMUGCLgdtLfATs3TXd5ELWqjhDhgwZMowAOXyJrQMn5hzHoDCB9D3DQE6GSh7yysmYjgUFPH80djDqSfgBEDJuaSkCvz9XhnppAtRLCuD0v2bEucRHCOWn0g4lBaYeFMmQIUOGDDMI1EhMtq9rD9xA5GCQcgyEQE6GahEK6onJCa4HpgPemwmRUYNXK4Jhn6AKNByWyMN8Gar5k+0YRRAEcu0fpGdcTjcmkTEuM2TIkCHDCFAWIvFClzBsUXIsspRmDIRAXoFqAYondyMAYGBCOXdcFehW82QBiWEIHNRLUC+l4kxwLGu1H7Dy1cRHQMZl8hFMAikbo2fIkCFDhosHFKFKvM7keKVjiGKKKlCGgYIC1QLk5YSWeqECzT64b1IgRo80VwLLTQvHROAAACAASURBVFiLgZGJxQpU8ifgbI7A9UEo3KR+ku7vr4/guuM0UzlVZH03MmTIkCHDCLBLVOLdHbNdUMGDXLLdCfn/2XvTHkfSJE3MXr+d901GMIKMOyOzK6tyqmpmuksSFrohAQMIWn2QNIK+CBD0O/QD9CcESCth1b272JUE9HZ19/SBUXd1ZlVW3nGTwfu+/D70wTJZUUFnZISTQTIy+QCJDLjTna873V+z1+yxx8AvQjQAQQ+wbo3kaRliIaCu5kk0e+DlHNQ0rwlCgKEhHoJo0OUZWNo2lLqljeldep0zsOwk4aMlllhiiSWWmDpQA5umadfmiROjfckcNdzXAU2BHymW4kSMxkwSetL7GJcCD4YFkyzpCQGBg5UIJILv71U6CssG2+jR3k3XA8C+Ka4PnwqWGpdLLLHEEktcxLBTqOuItWlILMcz0L35V4NPgKgfAt6J7DsASDIQeJ/GJdIortkIdBwwMpEIQ+TmpaG2bXHBn1hyfpIBTEKOnQqWjMslllhiiSUuAZs5uGdcEoaFvk5uprdEEQh4IBKE4E1kJ8dBN0HkLydHLnsS7R5wzGVapgsQAizrhoBJUZRc/xPFp1x/9YTk2KlgybhcYokllljiIrB9Fz2RWILVU3nWvkH2n6Yg4IFIYNKkxhABL3QGl2UxLxv59QR0B6BPo48GNSRgBm7QZ8y0iDf216Zacf29qqpyHDf3mMRSUmKJJZZYYokhCCETMi4NXYoGTI3Er3+IX4RIAIJe9xTLSyjWITkSILhs7XJV8HkuS2q7xts0RxDiIbimZWcoW+mdUGzY9ZdO+FNNBaiONd8xLLHEEksssVBQVXWSKlBejLR6cM2+GzQFQe+7aMT0FraZJNQ6YF7ddyPgBc1wLykxCkKA4yAVgVjgWhdjWISiaELxrr9xQjnSJZZYYokllrgNsCw7iW1SpYbAc9f5JEWB3wORaVAsL6HUAIED++rshmkCTW7Wd+O9oN4RMK/Tm4MmJsVFTDnn+uvIO7g+w1Qw9wEsscQSSyyxUMBYtfsqUCFsm4rxPsYlRYFfhLAfAt5pRiMQQS/Y9vsYl6oONAXsO14GIW+zEjT19o/hlosbKeqHjZTTIRQFPAuJECTDb09+8TzDvykChFBa74D2bk9yqfNlXKIfswyKLLHEEksscRG2bU9SWmjZhm6LPFSHxxPyloZ40YwGRIgGIOABnr1oW98eMmqj4Sa2nqFB0S6HGy5HPRJhSMfh021gWehLQBHwCqCZoOkgckBRMJCBUOAVQNHANEHkAQAkFRgaeA4GMhAAjwCmBaoGHAs0DQMZqHeHDGRodOGkDAAg8qBqoGng8wAhIKnA0sCxNkQ//fbZkbsbDQCGYcy374Zt28sq0CWWWGKJJS4Bmzm4XmeauhzkKuxK0iPCQAbNgJAPTAskFQQOWAYGMvg8kElAJgGmBboBAvfWvFIEPALIClg2eASwbJBVYBngGOijjeZBN0HTgeeApmCgACHgFUBRwbR+sPUiB5nE5QLPy54Ez8I//Sfw73fBL4IN0JNB4IBjYCCDDW+7kksq+ERgaOgOgKZB4EDTQTfALwIQ6ErAM8CxIKtg2eAVwbRgIINXAJaGVh8k5e2ABjLEgkDTUGmBRwCvAO0ByJL6//z8D8+FoK64bCzOcZxhGPMt38Aq0I/QmRjGYwghSCzCv23bRsUw/PujDdgMbwhN01hZTlEUz/OmaWqaBu/60X+098cdhoI/yJFaYlrAesXlXZ0iFEWZpJkDy3JffcL9V/99FbiVeBhoCsoN8IngE6HZA9OEWBBoBmwLYkFgGei/W9vrJigq+D1AUdAZAEuDwIGigW6CXwQA6EkgcMCx0FcAALw8mBZICvhEoNHWUyDyoBrA0JAKg23/qIri8iUxNKxEIBUBmgLbBst+GwnBQgRqdCMBioBlA9g/7CW40emQdQssG2gaLAtMCxgaCIBhAiFA02CaoOls6Znwc5FqKS7vNcqRujx4Svio3AgUf/X5fAzDiKLo9XoxJBOJRNBk4i/S7XYlSeI4TpblwWBgGEa/30eT+WEbTpqmTdNkGEYQBK/Xy7IsAPh8vmAwqKqqKIqiKFqWVa1WMZo1GAx0Xacoqt/vG4ahquqyDuhqeL3eWCxmGEapVFqavWmBpum1tTVVVdvttqqqH/ZLOjOwLIvTo7v7aehKu37805/QsfgP1pN6Zz0tGxgabAD7ncE1LSAXrTAFBMC0frDRNri09Zfg4BwNP0QI0ORaGykCQK57CG6mqR+YIEPuBkODLMk8z+H6zB2QHPvxGPJ5gaZplmUZhonFYn6/f2VlRRRFmqZ5nmcYhqIo9DAwPIMCG6qqmqZJCBkMBp1Op9PpFItF0zR7vZ6maR8YuQTDMyzLRiIRr9cbjUY9Ho/P5/N6vQDAsiyGJTBpaprm1taWYRiGYRBCZFk2DMOyrFqt1mw2m82mJEmWZWma9iHdoqmAoqhAIPCTn/zEsqxgMPjq1SvLspZ3aUKwLLu6urq3tyeK4vHxcalUajQa8x7Uh4AJSwtZlvV4PAz9Q3JhaD1pGnABTd7+A4AfjOxFKzzcOImtv4Q598wcBc/zjUYjGAwOBgN3ZxjGh+foTAyD2PMawK0Cn+aVlZVwOByLxXieF0VREIT3Xu8wrOf3+2OxGEVR7Xa70+k0m816vd5ut/v9/gewpqQoCh2IYDCYSCT8fn8oFOJ5Hp0Gx7uEd2Z4f7xeLz4/8XgcfYhqtdrtdiuVSr/flyRp7oopi4NoNPr555+nUinLstBdOzw87Ha7H8CDNC8QQvx+fzabXV1d5XleEIRoNPr999+3Wq2lizYhMBPnetWkaRrHce12O5FITH1sk2DhPAnLslZXV4vFouszmKZJ0/TcNS4/PDeCEILsk93d3UQikUqlMPzgzmdCqxmJREKh0Pr6uqIo+Xy+2Wyenp5qmqbrk7V+mRMYhqFpemVlJRQK7ezs8Dzv9XrxgbzpqfCWsiwbDAYBIBQKSZK0v79fqVTK5XKxWMTcx/Sv4e6AEOLxePb29hKJBEZ3GIZ5+PChz+d7+fJlu91WFLcp0o8bNE0nk8mtrS2O4wAgGAwKghCLxf70pz+VSqWP/KmbEBRFTRIzYximUqns7e1Nd1STY+E8CV3XS6XSyspKqVRydwaWZQ3D4Hn32lYTAr3ODykmgSvpcDicTCY3Nzfj8TjO2sO9k5wcbYDP59vd3dV1fXV19fT0tFwu93q9aYx9RiCEBAKBaDS6traWTCY9Hs/wCZwKa4cQgmkRURRTqdTq6mqhUCiXy51O56NlUfA8n8lk0I0YbmQYZmtrSxTFN2/eFAoFWZbnOMK7CIqiMpnM/v4+EnoAgBAiCALP819++eXr169zudxgMFgGJ9wB+264jklQFLW5uXlwcLC7uzv1sU2ChfMk/H5/PB5vt6+lBuoIXdcnIcdOjrnnVqYLtGGRSOT+/fvBYDAYDN7SpTEMwzDMxsZGIBDY2tp68eJFq9W6E3OW3+8XRfGzzz7z+/3RaBRuU5eMYRifz+fz+WKxWCaTOTg4wPTQ4t+l6QIj8Gtra9Fo9FKPG5qm0+m0LMuVSuUDI9/MAIlEYn9/H+nSF7djrs2yrHq97jr1vIQgCJNUgaqqenZ2lk6npzuqybFwnkS322232xMyLudeBfrBuBGY789ms5lMJhgMzqBdOyEkGo2Gw+FgMHh8fHx6etputxc2oMqybDQaXV9fX1tbi0Qis2xnHwgE0O0uFot4oz4qq+n3+/f29jKZjGOrPEmSGo3GsDhoiesA1wzJZDIYDDoG0jRN6/V6kxjCJbDvhuvDBUFAL9nj8UxxVJNj4TwJjuNM04zH4+Vy2d0ZkP0+3VHdFB9GWIJhmLW1tUwms7Gxcc1sEd580zRN01RVFdNMWLiBwVJkErz3zlAUFQqFHjx4wHHc6elprVZbNOYETdMcx21ubmYymXg8fh3CKdaw4B+orqGqKlbJ2rY9rJ7F5PR17hISBbLZbCKRoGm6XC7LsvwxJDsYhtne3t7a2nI0eKZpHh0dnZ6eznxcdxsURcXj8Z2dHcyjXYJt2+Vy+fHjx5MEjJfAijbXTr+u6/1+v9PpYOxzcbBwnoRpmolEotlsuj7DIvTd+AB8do7jstnszs5OIpG42o1Au2hZliRJzWaz3++3221CiKqq/X4fFzqowhQOhwVBEARhbW3Ntm1BEK7uvS4Iwt7eHtaGnJycLI6NZBgmkUik0+l79+699yrw/lAU1Wq1er1eu92WZZlhGFmWu90uHqvrOsuygUDAsiyGYeLxOM/zgUAgEAjYtn31IoZlWZZlv/rqq+fPn+dyuUaj8QE8fleAYZj19fWtrS3Hx9IwjGKxeHZ2tgxI3AiEkFAo9MknnziaKMuyms3m8+fPOx2XgoFLDDEJ45Km6cFgsGhuBCygJ0EIyefzkUjEdUwCjdZ8QwJXm5bFB8uy9+7d293dDQaDQ+LVKHCRXa/X6/U6yh7IsoyVFxe1GofCl+fn56j2EY/Ho9EoZjG8Xu8VqSiO4zKZTDgc9vl8h4eHi5CgxQjw5uZmOp0WBOGKTxqGoet6s9lst9u1Wq3b7cqyLMvysKb8opwlIaRUKuF9ODk5Qc5mNBoNhULJZNLr9dI0fQV5UxTF+/fve73ek5OTarU6SX5wkYHJr83NTZ/PN/qW2bbd7/cLhUK73V4cv/NOIBgMPnz4MBaLOe7t9XqHh4etVmvGo/rwMCwtdOdMWJaVSqVKpRKWdC0OFs6TEAQhk8m4diMAQFXV+ZIk4I5XgRJCHj58+ODBg6tX26qq9nq9YrH45s0bjLmNezeG9hKVlwAgn8/XajUASCQSsVhse3vb5/ONc1l4nud5HvXqX7x4MYUrnACCIOzs7GxsbGABy7iPYfLi+Pi40WiUSiVMMF89fVz0KiRJkmXZtu1CoRAKhWzb3t/f9/l82WwWS10cz+D1eu/fv89xnMfjefPmzYRXupjgOA6pppgDugTTNOv1+sHBwbL+80ZgWXZ9fT2ZTDq+g5ZlNRoNLDye/dg+MGAzB/d9N0zz4OBgf39/uqOaHAvnSfT7/UajEYvF6vW6uzOIooiMy+kO7Ea4u1WggiBsb2/v7OyIojhu/KZpdrvdXC53fn7eaDTczdp4VD6fr1ar9Xo9k8mkUqlwODzuS0VRxMKno6MjVVVdfOPkwFLV7e3tQCAwzpzjsrhWq+Xz+fPzc13XUb4TbpjzGn4YU0Xffvutz+erVCqbm5uBQMDj8Yy7Uevr6xgpQWWOm13hYoOiqFQqtbe3N+7tLpVK33333dKNuBEYhkkmk2tra36/f3SvbdvNZvPk5GSpcTkVIOPSdUyC5/mdnZ2Tk5PNzc2pj20SLJwnge0bJjmDrutzl5i8o24EKu1jhGDc+Hu9XqPReP36daPRQPnFSb7Rtm1FUXK5XKvVOj8//+KLL3w+n2NIiWXZWCymKMpgMCgUCrOv5uA4bn9/f3NzE2tYRj+ATJFWq3VwcNButy+WnEyYsEdupqZpjUaj1Wr5/f5PP/3U6/XilDQ6zlQqhQ075nKjbg+JROKLL76IRCKOeyuVypMnT5YR+JsCFThSqZTjU63rOvJvlqSTqYDjuEnmTEVRWq3WHNWSxmHhPInBYMBxnOuABLwjvd9FQz5fsCybSqU2NjbC4bCjM4ehiHw+f3JyMvVK/X6/PxgM2u32o0ePUqlUIBAY/QxN06lUSlVVRVGw39W0vv29EEXx3r17GI1wfLRM02y327lc7ujoCNWipj48PGGxWKRpulqtfv755/F43HEdefFG1Wq1D4AxgOoRmUzG7/c70iN6vV4+nx8MBh/Axc4SgiDgg+2Y11BV9fDwMJ/PL1rl1B0Fkq8nmTl5nmdZNhQKTXdgk2PhiIE0TTcajUmUNyzLQsblFEd1U9zFyv5QKLSxsbGysuLo8Nq2XavVXr9+/erVK6Q4TPcCkbzZbre///77k5OTcYw5nufX19fT6bTX652ZsygIwsbGxsbGxrhQjWVZ5XL59evXL1++bDabt/r44WTUbDa/++67996obDYbDofn3hp3coiimMlk0um0o4+LtN/z8/NFIOTeIRBCMAY5rpi2XC6fnZ0t3YhpAWePSVRnLMvyer35fH6q45oCFi4mwTBMNpt1LZUNAFhHN/cq0LsVFGFZNh6Pb29vO2agMVf68uXLYrF425M1Fpvpup7NZuPx+OgHUE2y0+kcHR3d6kgQqGyxvr4ejUbHTbi5XO7NmzeVSmWWGfp6vS7LsqIo6+vrKysrox8QRfGTTz4xDGMwGNzpdlbYUhV1O0b3YoLs8PCwWq3Ofmx3FxRFJZNJLIxyDPNgE5xKpbL0JKYIlmUnkfaybTufz29sbEx1UFPAwsUkVFU9PT2dpMRlwp9qWpj7AG6ERCIxzo0AgGaz+erVq1KpJEnSbY8EGYuHh4fHx8fjRKApitre3k4mk7c9GHiX9EHpp9G9mqYdHh4+e/asUqnMmAeKN+rg4ODVq1eFQsHxRjEMs7u7u7a2NsuBTR1+v//Ro0erq6uOe3u93p///Oezs7MZj+quw+fzra2tpVIpxwcbO9oXi8WlGzFdTKhxSVHU1tbW+fn5FIc0FSxcTEIUxWg0Osnjq2na3GMScKcEszF0PE7tpN1uHx4enp2dzbIFRrfbPT4+xiaEo1UkNE0nEolEItFut2/bfm9ubj569Gicj3V2dvbs2bN2uz2vRf9gMMjlcvjMOxamBoPBzz//vNvt1mq1u+XdIlDaBMtfR/fqup7P5ycJYX60CIVCu7u7jnKWAHB+fv748eMZrBw+NvA8PwlVQtf1XC63gMpUCxeTwN59kyg7TUiOnRbuyqyNTSwjkcgo5QpXvefn58hlm/EV9Xq977//vlgsOlYfiKK4tbUVDodvbwCopbi7u+u4hkAtxVwu1+v15ps7UFW1VqsdHh6Oq9NjWRalnGY8sMmB3T5TqZQjH1DTtEKhkMvlJEm6K6/bIgCLabH8Z3TBY1lWqVR6/vz5vGqtP2xomjYJb4nn+UgksoAe3q14EkPi+kWxHceNw7+He3mel2UZGemCIOBN5zhuGGbgeR43Dv/ADgjofAw1By+WbwwZLsONy+KOIViW3dnZicfjozfENM1qtXp4eNjpdOYyU7darZcvXzq2FyeEJJPJbDZ7e51sOI5Lp9OhUGj0zti23Wq1Tk5OCoXCImg2SJJ0fn6O3c5G3Wiv17uysuIoCrnIIIRg9zhHhopt24PB4OzsrFKp3GkWyOwRCoX29/ej0ajjHNhqtXK53FIk9KYY3syLxmXU4tA0zfM8vomOJmy4EVXwL1k9ZOCh6zw0mi4M7tQxzeyGbYOi2fW2LrIqQ5mDwUAURY7jsLmAz+fDsjSc0drtNs/zHo9HkiTDMPx+v2VZvV6Poqj9/f2/+7u/0zSt1Wr5fL5gMFguly3LSqfTnU6n2+1Go1GO4yqVCk3Tq6urtVpNluVEIoG5PVEUKYrK5/O2bbMsa5qmZVlYGoqrW5ZlNU0zDEPTNFmWh9unizvhqeCye5xioKqqx8fH8yWy1ev1Z8+e/fVf/7Uoipd2WZaVTCbz+TzKQU73e/GJXVlZGf1etGGFQuHs7GxxRJC63e7h4aHX6xVFcbT6JhqNfvrpp7/5zW/u0EJTEISVlZVsNusYkDAMo1wun5ycLIInd1dACBFFMZ1Ox2IxxxItTdPq9Xo+n1/KWV4fw0Us/Q7wrlOXaZooSjs0PZZloUIuwzD1eh07+KC+XzweN02z2Wx6PJ5gMFir1UzTTKVSg8Gg2+1iqrfVam1ubnIc12g0BEGQZdkwDJ/PZ1lWv99Hg4u/nc/n0zRNURRse9TtdlmW9Xq9g4HcHkA8Fg37p2mhpulJDBQ4LJBizV6P2tkVFu+LaZqo5a5pmsfj8fv9SIdMpVKWZWmaFgwGCSG6rlMUlUgkBoNBKpX6+7//e0IIzhHYHdQ0TUEQkKdNURTDMKg5iq0mNU1D980wDEmSnj175vF4hnEk0zQJITRNY3kewzCWZSmKYtu2LMu9Xq/b7UqSNK3iPULIXdG4tG17XGcNWZZfv35dqVRmP6qLwIrH8/PzTCZzae6jKCoYDEYikdvoFCoIwu7urmPdtm3bpVLp6OhooWoOUVPh6OgoHA6PlnJQFOX1ejOZzNnZ2Z0wvRRFra+v7+zsOD6ctm2fnZ1hjc/sx3Z3gQSjjY2NcQ92o9E4ODiYpIHixwYkcnk8HkEQWJZFVT3sfgzv2iZQFIUBHpqmY7HY/fv30+k0ymZbliWKInZOxmPRPvI8b5om9lIGAFVVsYIJV92BQEAURU3TUN5G13X8ZQ3DME0Tpds0TRNFEQ2uZVmJRMK2bU3TKMbzpkA9PTO/esisTo9uMTVPQtUhX4X/6x/g2THzv/xPVsB/eSU3XPVeXP4ObcPFveVyGXsnOrZHcnSlLy4c8UelKGr4yWGeexgjpWkaW0kFAoFQKIRqgIPBYCqeOMadFt+NAABs5TCuDVWtVpu7sbRtu1qt+ny+TCYzulcQhGQy+fr166l/r2VZ43wsVVVzudy4upL5olQqHRwcxGKxSyMnhMRisVQqdXJyMq+x3QiJROKTTz4ZV8NVrVZfvnzZbrcX8CdYZCB91bFmGABUVUVm0oxHdUfBMAzGdDmOEwRh6D04Ymh6+v1+KpUa9eSuztJeiox6vV6WZUet58W3ftxG0YJXJ62nuXBXgv/2PwJhSl0lppM3HSjw7AT+t1/B148hFbbakvvTyrJ8RfPJa57h6q6JQwxTUIFAYHNzc2VlZVraYXfCjaAoylFKEt5p26EC1SKgXC6/evVqNHGL0dpx8smuwXHc9va242mR5Tcv4sh7QVEUygA4LtaRWTL7Ud0ISI/Y3t527C2C3aSOj4/7/f4ykX8j+Hy+Tz/9dFwx7WAwePnyZb1evxNz13xBCOE4DqX8/H4/WvRrkpDC4TBWFbiDbds+n2+SUFyjbQgesdSyvn4C/+xXUHSvJv0jTCEmIalwcA6/+Af4h6eg6tCXCUsTw7QZ2s0TicyGSahhgiBg642bHoVZGFTymbxRwiSHzwYURcViMa/XO5qIkSTp+Ph4cUgAsiy32+3BYDCqMhkIBLADxRTJLjRNx+NxR4/WNE1UlpzWd00XlmVVq9VIJLKysjJaC+33+zmOQ8GVeY3wvRAEIZFIrK6ujjJU4J3OwTKRf1Ngtmh9fd1xiWUYRqlUuiXK0YcHQojX600kEoIg3NTQKIpC0/TVAYyrv3pCqlMsRCuKouvsqxwQAELgv/h3IThxXdekMQlZg1c5+Fd/hN98B5IKFAEghKU1d24EAGCt7SSrDeRMuJgreZ6PxWLjuk7cCLdHkZ0ieJ5Hgt6llwFJJJjDm9fYLsG27XK53O12R99bnuenq7yEopaOHZY1TTs9PS2VSgveFiufz5+dnY3eK5qmt7a2FrD9zxBIdN3d3XXsCmvbdrfbPTo6WuY1bgT0jFdXV0Oh0KgBw1bsuVwOKX5zGeEdAiEEnd0ruiVfAbz/rgM/uOqbZKXd6pksA32FBoCjEvzbv8A//y1UJ257N5En0ZfhIA//8vfw6yegaAAANoBPNFVDcP2aI9N1wgib667iPM+Hw+FxvIHr405ECIPBoKMeg6Zpx8fHjrWXc4Su691ud5QtyDCMIAiOtZrugAIbjrtQuWFxHKxxUFV1MBiMclwoimJZdpE7caCO1jj10na7/ec//3mpQ3UjYAYwk8msrKyM62Gbz+cLhcLSjbgOsNrCdfE5RVGTSDAj73KSmCJFEcNmAh4TADQd3hTg19/C//snKE/Gsp2A0KDBSRl+/jv4N/8IvQs6GeUm4+V117M6wzDINXU9MCy9dU1Q9/v94yqtr4/FL9zA+uZEIjE6TkKILMuLxvCXZfns7GzUQSSEIINsWotUQkg4HB51JrCmq1wuL9qdGYVhGG/evHEMnEQikVgstpg2QxCEvb29ZDLpaPA0TTs7O2s2m4vvyS0UCCGpVOr+/fuOxs+yrFwu9/Lly0mS9x8VsHLQdVRAlmUsCHA9gMFgMMla1ytQxFJ68tu1hGnCm3P45Tfwf/8j9Cd4BFxeT1+G5yfwf34NXz/+0XYCsBYzuhJlWS6ndSyGmeRGY4mta0OOZR3uQhpDYBXoJGe4bbAsG4lERpkQ2CGm0WgsmieEBcC5XG50l6IosVhsWutsTGqMmivTNCuVyl0xYwzDFAoFx7UL1ivNfkhXA+UsV1ZWxslZlkql2XR++ZBACEmn0w8ePHCc0EzTPD8/f/369YJn6xYHGLCcRA3P7/fLsux6GkHG5SRUiU7fpBhRYH8YgGXBcQm+fgL//LdQcEvAdGOwFQ2OS/Avfg9fPwHpx1dk21DtUB4BXFtRLJN1ezTAuzJR13YFK+8nZ1wumiW+BJT3cJxfhjXNsx/V1eh2uygfcmk7SpJM64Z7PJ5MJjPqy9I0Xa/X74ol63a7jUZj9EdkGCaVSk2eQJwuCCHIdxknZylJ0tHRUbFYXMxoysIiFovt7u5Go1HHtdlgMMjn8/V6felJXB8Tzu29Xm+SiAIhBDmbrs8Q9NGapl6aF1QdXuXgV3+BX34Dkiue/Y09CVmFF6fwL34Hv/kW1JEFDyHg5UFRbZpyea9lWUblKHeHwzvG5SROH/y4BveDhCiKjhUuuq6jAOhcRnU1GIap1WqjY5Zl2ePxTEtVjGEYTdNGv6XdbqN82eTfMgOgjKxjjQmGuxdHOZsQ4vF4dnd3NzY2HKdIRVGOj49PT0/vys1fEIiimEwmx1UhaZpWrVbL5fLilGgtPlBfwPW7g486qiW5O4Nt2yhg5e5wAOj0TY/A2LbDGY5L8G//Av/sV1BybuBzFW52PQMZDgvw89/B1+8olpdg20BTlgW0Ybqc1nEqmaR6AkkSrs+AzNih4Lnrkyzgmv4i2S3AswAAIABJREFUTNN05BVSFNXv9xeTkYeipaNeDrqeEyakhkgmk47Ry06n02q1FvxnHcKyrMFgoGnaqEuNXtfieBLYKHl/f9/xnbUs6+Tk5PDwcOlG3AiEkFAotLm5iT2MLgEF354+fbqUs7wRsAPDJMtUy7Isy5rkYbZtG/Wd3R0e8NKaQXjG4RJUHV7n4etv4ZffQO2Gde7XNbe2DbIGhwX4xe/hl3+BcfeBEGgPaB+vMLTLNT2WgBqGMUl6AjtruDvctm2apiesq1787AbDMCzLjt5kfMoXk36FRYCjJpCiqGg0OhUiJP70o0oGhmEYhrGYt2UcsHPNaImsZVmoxTuXUV0Cts7Z3t52VI9AiuvJyUmv17srPtwigBDi9/sfPXrkKGdp23an03n+/Hm9PiVZoo8JlmVNskzVdX3YjsvdGYatIdydQTdsGrSu7PC6AYBtw2EBCIBuwn/570HYwQt1xnXXJQMFXp7Bz38Hv/1urBuBSIZMSXO/OjRNc5LwEQDgOmySFaokSRNmNxY/JsFxnKO7I8uyqqqTK2rcBvCWOrKNFEWZSlNQ7OUxGvZAQZi7lfNC3f5RBwtJCY6We8agKCocDmezWb/fP/rKD5vat9vtBfF77gq8Xu+DBw/i8bjj3m63++rVqwVkVS8+sIBrkkWLx+PBlk+uB4AtpVwPQNEsmxL84tgXyjDhqAi/fgL/6o83UMC8lsFQNchV4Be/g19+A+aVcR3LhlKT9guabbPunlKO4zRNm2RN7/V6AcB1ph+dgAmJdQsVPXaEpmmRSGT0PgeDQYy/zWtgV8AwDIZhRoWVaJoOBAJT4UJi1c+ox0DTtKqqdysmoeu6qqqjzyHLsoFAYBGagmI3kI2NjXEBiUajsWid0hYfDMOk0+lkMukoQYZy49hmaMFXOwsIy7IkSXIdUcA2e5OseQghvV5vY2PD9RliIUbX+rLm3NEGoRnwKgcAYFnw3/yH1+rN8X5rJynw7BT+j1/Drx6/x40AAIqCRNjsKza4rd5QVZXn+Umc5cFgMIlKpqqqkiRN7gcspjEegud5x0VJv9/HnqtzGdXVQC9zdHlqGEa/358KT0IURceQmKZpHMctJn1kHBiGwQjTpe2maWIHwrmM6iKwsmDcxFqr1Z4+fbpUxb4RUDcpm83GYjFHkdB2u53L5e4Q42fRYNu2aycMs06TUFxt2/Z6vZMoU1WaBsddq3jkpAy/egz/+/V6c7zHXkoKHBTg5/8Av/kW9Gss8m0b+hIFwL3X5xgHLPObxJPAzh2u7YokSR+DaizqdoxeJrpx02IvThe2bTuKhjEMM60gEJrYiy8qThk0TTsWVS4ykJY1Omasc557AisWi33xxRfjIvD1ev3x48eNxs1J5B83aJre2NhYWVkZVwXz8uXL09PTBV/nLDIkSXJdJI/R7kly38i0cHcswidSqm4I3PsfAFWDVzn4+jH88htovU/xeOxsYgMoKrzKw7/+I/z2O+dKjdFDNB3OapSkqAztcp7C24RsCXdnQJKEi9uN7dv7/b5pmpPbjAXPQRJC+v2+o8BlPB5//vz5XEZ1NdD1cWyHMXlCCoHuiK7rkiTxPE9RFLaWxY47i1kcOw4URUmS5GgzWJado1eEDZAymUwkEhl1aHDNl8vlut3uB+/QTxccx21tbW1vbzvmNTRNOzk5OTo6WnyR1kWGbdu1Wo3jOMeimKtBCKFpepLGGbg2mISw1RlArsrWOxTHwnW0Go6KAARME/7u34H4eEG7sfZ+IMNhEf7lH+B313MjAEBRod6BiM/sSKym2xzr0pRSFDVJGBkdAlTdvtFRpmm22+1KpTJhgTWqJC14+QYuWEfbrtI0jezFReu7AQAURQmCMNpGD6l5PM9PXhlvGMaLFy/y+TzWEqMyrmmauq7fuXo527aDQYdsKC5rPB7PvHqjC4KAfSkdDR42lCoUCndFBGxBgHKWe3t7jgFFwzAqlcrZ2dnd8oYXELZt67rearVomr5pEy90ArA5omtnApO8rsPGDE1Mm271bL+HeAV47/A1Aw7OwbaAYeA/+RJS0TGnddyqaHBWgV/8A/ybf7zu+DQDqm3oSvAqxwS9Kse6jElgOGGSmAQuJW8ak9B1HRXfJs/LYtHwIrsRAKBpWqPR2N/fv7Qd56Nnz57NZVRXg+M4x2aGDMO0Wq2pCOyoqlqpVKrVKrYpt20bUyfoct2t7Aa8W/2Pbvd4POVyeV6XQ9N0Npsd16bLMIzDw8Nlm64bAXvoID3Ccebsdrunp6eVSmXpSUwOTdPa7TY26PH5btaQu9vter3eSbStBoPBJO18Qz7SaOnFhugZwGYKePb9zoRhwutzIAR0E/7r/wC8TiwLB3vfl+F1Dn7xe/j1t9cdnKxCvQNdCXQDNlfN9oAGANu+aog2wOhO2wZFUSZUhZJlGZUKr/POYJ2CLMutVqvRaEyLJb7ghRsAgLH6Xq83umw1TTMSiXQ6nbkMbBywYtCxVrDVamFPnWllf3HZgX8Pn6I7l1rGl0jX9UumxTTNarUaCAQcFTBvGz6f79NPPx3XCL7f7z99+vT09HS2g7rz8Hq96XR6HD0Cq2CKxeIyrzEtYFhC13XDMPx+//UTFqFQSJKkaHTM0v59sG07EAigpMTILgeDO7Szwz/Oa1Yiynp4S1KoXBVWouC7RmTCtuG4BDYATcF//CWkY5c/cNmT0Aw4LsIvfg+/+RbU6z11qg61DnT7oBtgA9TbxDCM8ypNEZtjbZahejLwjMUyIGs0ISZDAwFKVoFnLY4lA4XiGJOmQDdp3bBoihpIcrfbRaq8oigYYQYARVF4nkdGOsuyaAuxgTjDMJIkYesvjC4MpcTw1cI1JdZ0oPaUaZqmafb7/V6v1+12JUnCdPu1rvl9WPzFq2mazWYTGSGX/LZAIBCJRIrF4iIUCg6BtW2jK2x00kul0p2z9LcNmqYjkYhjAxHLsuaikcwwzPb29tbWluNSwTCMfD5/fn5+8fUZOog4CVAUhRMCvt0YMcI8FGr/wTt1u1ld0/xBCAkGgzs7O+PWx6VS6S9/+ctovnJIAEKzhD8KbsSZE7V58Cf4qG7pdaDrerfb7fV6qEfu8XjwNjIMQwgZWhzTNIddgSzL6vV6hJB2u40dQdGEoVbVkJuFEy+uqIe9Q9Hq0TRdrfdoEQKawbOkr1AcbdI00U3KMCyOsXmO6krA0SbDEEWnCFgsbROKlhTgGYtjQeTofNmyLBoAehKADdkU8NfgXWBvDgJAAP7pPwHfj2u/LnsS3QH8/vvrUiwBwDCh3YeeBJr51uspNan/+X/lPtu2KQryNcrL28mwXWuTrgQbKVM3IFclyZAV8EKxSQwDsgmzJ5PzBmwkTJYl1SYVJBZb/9dSrzYYDKLRKC46fT6fIAjdbtcwDBQ0bDab4XCYZdl2u03TdDAYlCSp3+/jH9VqlaZpZEuYpon5dXTlKIrCYkKMRqiq+nFG/EzT7Ha7kUjk0naKouLxOM/zi+NJYPWUY8UBOkOLHwSaPXieR5X+S9uxr8rsnV2WZVdXV9PptGPjAF3XS6VSLpfr9/v4g2JkMRgMchwnCALDMKIohsNhDBehTylJEk7crVbLMAxVVbvdLjqXKIeKK4cZX+ksgZocjx49wj52l/ZallWv1589e4aFi3hLMTYuCILf7xdF0efzIUs9EAjouq7rOqb/O50OuhHtdltRFLSaLMvihLn44nszADKCy+Uy2nie55HLjFQ/NDHoXmBokKKoQqFwcHCQzWZ1Xe90OsFgkGGYTqeDojiyLA8Gg3A4DADtdlsURVEUUfY+HA4bhtGTILb5n5HQTq4hGBZkk2ZXIsUGySYtloZ8jRI4eyVi1ztUuw8bScu0IFejYn4r5IdSk6g6+EXjL0eUor99VHoynFVgawWY67EJjkvw59fw2Q58uv0jwubleVlS4LQC1/c+aRpMCwwT8KGyASSV/Pk1eXwAhIBpASFvv8+2gYANQEwbKAKEgG2DDW/3mtZwIyXU/z+69Eu9f6zrOhp+RVEYhsGExfC3Qc1BdJzhnWgjUskikQgeOHzchy7hkA4J73iw173Um2DxGZcAoGlar9dTFOVSbzqapsPhcCwWGwwGi0OeTyQSjo1CVFU9Pj5ediG6BEKIKIrBYHCUcoSrnxn7XphUxkT+FfUa1WqVEBKJRAKBQDAYDIVCgiCEQiGU92YYBl9zePdGD/82DAN1iGVZ7vV6uq5jb6rBYNBsNlVVnUpB1gIiGAzu7+87VkcDQKfTwSoYhmH8fj/LsslkMhgMRiIR9OdwJT0sdYYLSv/pdNqyLNRkw/6TzWaz1+v1er1Go4H3djGbBs8YGBUDAEVRhsYFg2TDmzncKElSoVD47W9/CwCyLHMcx7IsHshxHC53MbiOzSw5jhuG3gFAVfXQg6Qc+5lsB4fW07KAkHcGFwDfbDRxhJALthVsAELoS/adpkAzgKYd+AajUHU4KUOjC4YJ3IX3+PIrHfKDojo0+Rx7Ey2wLDAumBt8roZ6ErYNF4b9dqgX23sN9+JGCiwm+Fedp2+rEIfRAtM0h0vkYQ77op0bbuz3++jTOYbjZvPcLz7jEgAURTk9Pd3b2xvdhYu/4+Pj2Y9qFBi8TSaTo2VXGNBe2OalcwSuPsPh8Gji3DCMwWAwY9+L47hUKrW1teXIObdtW5blarW6srLi9/tTqVQwGMSu96Oe0MU3a/g3y7K4wPD5fF6v17bt9fV1XMwNBoOTkxNFUc7Pzycvx18ocBwXiUQSiYRjo2rTNDudTrVa9Xq9m5ubq6urPM+jO46/guNqZ7gF+14CAK6MAQCDFmjtKpWKLMtv3rzBb1n6E/DjpenQNl28M7gRn0ncIsvyUDl31MAZhjF8T9FZoVkPT/Vr5lu28g8Wzv7hf+sHq+hgcEeh6EBT13Ij3n5eg4DnR24EjHoS5QZwNylVNW0gBGjq/fKX1wRNU0r9Ke3JmtKZuzOwLKvr+hy1lZB9s/gxCVR+PT093dnZuTRZMwyztrZWqVTOz8/nNbwhMNviqNmHJfJL/aJRcBznWByBwhuYu53Z7E8IWV1d3d3dHfdWYgryyy+/xCDERc61ixquYVoaeQPhcBjzoZubm6VSqVartdvtDyDrgTyYnZ2dUMi5zB/D7FtbW5FIxO/3C4Jw6Q1yMUGhu8bzPHaUXVtbq9Vq1Wq1Uqn0+/0pUs0+VKDkv+u3j2b4jizygbJKUtMaEs/ezHzHg9DsgW4Ae0VMIhkBVQOafk+briFYGiwbrOk9PLpJQqH9jtZyfwZdn69+38Wg1oKj0+mM63oaiUSy2Wyr1ZIkab6zg8fj2dzcHCeN0G63F4fPsTgwDCOdTo9KYhNCut1uoVCYJYEuFot99tlnGCl0BM/ziURiwqKtccAYviiKoVAoHo9rmvb9999LklSpVO40i5Bl2fv372cymXGJKoZh1tfXbynTih5eOBz2+/2bm5vFYrHRaBwfH6M/Md3v+pCA2QrXh2tyK+kxC3BV14ybQtWAvkmq86QEyTBceuguW9xaGzzCDZpmGCawNBDXbTZGwNK22s3bpvtqTFTLviu2fL6gKCqXy8VisdGqPIZhkslkIpHI5XJzZEvwPJ9OpwOBgGMD9HK5XKvVlqmNS6BpOp1OIw/80i6kJc7s1cDM1Pb29ntr6G87iIiXHAqFbNv+6quvqtXq+fn5wcHBxYrfOwSPx7O3t5dOp6++q3jVt/pz47Itk8mkUqlEInF+fl6pVGq12p320m4PmqbRNO16bcZ5oh0JiH9q95aiQORvZr43V6DVv+x8XH4K/R4wzOvSOAGApiDog5DvZk7NFbBsAMugxYzrMywCSfCuEJsty+p2u41GY1RPEDnhOzs7jtJGswFFUaIoZrNZx4BEv98vFotLJURHxONxxx9OkqTj4+OZRXE4jotGoysrK9NtGDbMTbh4y5CLura29tVXX/30pz9dW1ubROdnLqAoKp1Ob25uTmvkFxP87jwAbFW/trb22WefffnllxsbG47e/xITJr5NfSDwLAPTaWtHEfAKEPACcxPz3ZOAoUD78fLtckyCIkDgBoxLQkBgIREGQqDRvcFoxsNi/buKUpzkFFi1MZXRuMMdiojIsnxwcLC2tubYknF9fd0wjD/+8Y9zySDwPP/w4cNsNju6C2lfyM+f/cAWGRRFRSIRrOO9tAvFOhVFmY23jWmF3d3dcW26rgPTNJG4rigKFnNhcxzbtkVRxBctEAigBALW5V/n7UMjt7OzEwwGUdS13+/fieAW/r5ra2uRSMSdqR6mX1VVtSyLYRhFUTAlgfUC6MFjtAP9UeS9XmdOE0VxdXU1Eom8fv26Wq0uRcYuYahp5O5wiuIoe6CTKWQ3KAIeAcJ+CHpvEDtAcAywPz7ksifRGQDLAM/ezJkQOYiHwLahM5iUekmAUhrfUELSlHLuzoByH/O15XeiChSBtPmjoyPHnjQ0Tcfj8QcPHhwcHMy4v7Pf73/48OHm5qbj3n6//91339Xr1+h3+5EBe7AFAgHH1EahUJiZ7xUMBr/44otxcpZXw7IswzAkSWo0Gr1eT9M0ZGX2+31VVVGAzjRNURSH6giCIPA8HwqFPB4Pys8MqZfjgCm8WCzm9XrfvHmDjumCRxNpml5ZWUmlUi7cCKxX7HQ6g8FAlmVJklRVRR0/AOj1eoZhYPTItm1Um2AYxuPx8DyPlAiGYd7rUmDUZ39/f3V1VRCEk5OTJRNzCCxmdh20tix9oPKc3VLIyiTDIAQ8AkT8EPRe9gneC5GHrgSGeSXjMpOEdv8GbgQCcy3Y26M5WeMn0yK+xE/bL/Kuz6CqKrbGnmgck2GSBi2zhyzL5+fnqVTK5/ONsrtDodDW1pZpmk+fPp3ZkBiGuXfv3v7+/jj130Kh0Gg0lrnYUfA8v7e355gPsiwLDfMMhsGy7NbW1urq6vVfBHxrJElSFKVcLne73Xa73W63dV2XZRnVfpDTMKzRRx0qfAx4nsfV3srKCsuye3t7DMMkEgnUwRw3IaBoZiaT8fl8L168KJfLrZZ7uvcMkEwmP/vsM8cI4jiYpomVh3hLc7kcOhAoZ6nrOrpceBtxwWDbdr1exwgQalEAwM7ODqarIpGIZVmOpadDCILAcdxXX30lCMLR0RGGkSa79A8B2H/L9a0wdSUaME4ncyMAwCdAxA8h/42jEQBQbEAqAuzVVaBnZQjc4BH9ARQBnnnbdbTVB9fPDEPbauM1JaQsxWULH0EQHGXJZwkU17tDzkS32z07OwuFQqghf2lvIBDIZrOGYZydnU2rNckV8Pl8Ozs7GxsbjmtKNIflcnkGI7lzEARhe3t7nJmp1WqNRmMGEzrHcevr6+l0+vpVVKii2Gg0arUaGjyMvV/M3w8dx+HGiwn+YQIOdSNKpVI4HA4Gg7FYLJFI+P3+K0idhJBoNPrZZ58Fg8Hj4+Nqteriqm8bhJBkMvnw4cOrTfgQ2Eqw3+/j716tVrvdrq7rmqbhmniYzbl4Gy/+gSkPwzBarRYh5PHjxxgECoVCiUQiHo8nEgkY32YIvbSHDx/6fL7Dw8NWq7Uss0JBRdehL16MNLsU56lpxGXGkKLAy0PYD4GbJzUQGymotOD+j/mUI8pUXlAN4FjQbk5npijwYGSCQLt/A6HMizAswrMeIO6pOoZhzF3O4a6kNobQNO3ly5c+n+/Bgwej+XWWZbE5EM/zL1++vL3wOEVRPM9/8sknGxsbPp/PcYaybTufz+dyubtIub9toHKDI71xMBi8evVqNl27OI5bW1tzlLMchaqquq4fHR1VKhUsT51Q7AHtoizLGNs4PDzE7lbr6+s+n++K4HwgENja2vJ4PC9evKjVaovA3b6IUCiUzWbHyVlegq7rkiSVy+XT09N2uy3L8kU9She3F0k2/X6/3++3Wq1KpcKy7P7+fiwWi8fjV/zQoig+ePCA47jj4+NCofCRv7ZDkVZ3UOVGWGTkkVKJa4Ii4ENuhO/GSY0hCjXwipeDBZd/fkUHhgbdLfGIooBnIR4CAi4JmDSxgPZYsntBJKRb3i1DvggghLx+/RoTnI4fiEajHMd5PJ6nT5+iutF0v51l2XA4vLu7u729jWLnox/Tdf309PTZs2fLxc0oeJ7f3t5OJpOjKSEUpJpNixmO47LZ7NbW1nvjgoZhdLvdUqlUKBRqtdrUqaDoUliWlcvlarVaLpfb3t5OpVLjpJwAwOfzra+v0zT9+vXrXM4lVes2gJIb6+vr781rIBn57OwMb6wsy1NPAmKoA6MUyWQyGo0+ePCAZdkroj7ZbBZf6mKx+DGzpPEFdF8FKkZ0XTOJQ9+A9wIpliFX3IiLiAbAMN6X3UC+5ETOxJCACdDp35iAaRNi9M9o77Y5OHI3AGy/NseowLC1x93yZnAZd3h4iBIOo5MCtknzer3IoiqXy+NUrW4EvFcYhd7Z2cEkt+MnTdM8Ozt7/vz5neDYzxjIjV1fX3dcHaqqenR0NAMxUIqiNjY2fvKTn1ztRmAz0kKhgPID/X7/VikvlmUNBgNJknq9XiqVWl9fx8JUxzeU5/mVlRXU1V4Q9SqkK21vb1/hAyH6/X6n08HXE/uP3N6obNtWVbVQKJRKpU6nk06nMerj+GGWZdfW1pDscn5+PpSI/ghxsffTTWFZmgkCZ9cUsnrDLwWPAJEAhCaIRiBsAM0ATf+RHPblSSfiB91w70YgaAo8PCTDbiITlmkL0b9Wnrnv+DCUI3V9hglxhzQuL0HX9Wq1iq19NjY2Rj+AkYPNzc1wOFytVk9OTkql0iR2nRDi9Xq9Xu+jR4+8Xm8sNtL3/h0syzo/P3/27Fmr1Vq0sPMigKbpZDKZTCZHPQnLsprNJnZdutUxoAbJ1taWY6+1IZDNVygUXr58iamNWx3Vxe/Fhpblcnl9ff2zzz7D5o2jnxQEYWXlLamtVHJJ2JoiRFF8+PDh1VUwtm33er3Xr18Xi8VKpTIzSRvTNE3TPDk5abVa+Xz+0aNH8XjccfZDwTQAUBSlWCx+nG8xNnNw/dNYhu7jpA5J3OgoQsArQMQPYZ9LbsRFNLoQDVzuqjHSd6MJXgFYZlJnAnUmYkGwbWj3byCnTdNELv2B4qKW5rLAj2VZLEBfSkq4gGEYOA1RFLW6uuq4wMWK9kAgEIlEcrlcuVzu9/uyLF8/cIc6NihgnEqlVlZWwuHwFQRV0zTz+fyLFy/a7fYyIOGI1dXVjY0Nx/CyaZr1er3ZbN7qALCH59bWVjgcvuLJVxSlVqudnp7mcrm5cGbRn3jz5o2iKPfu3YvFYo4ERswm3Lt3z7KsSqUy+3EO4fV679+/n0wmr5hSbNuu1WoHBwf5fB5rc2ZcKGHbdqvVwoLSBw8eoPjm6Ggpikomk1i8UK1WP0JdbWRcug7J0KzYkjg20NSu7UxQ79wI1xTLS0jHoN4By/qRYPZlO7EShZ7svvLiIpCAuRIFgBs4E6ZFPKH7+gTq21i2NHcrPvcBuIYsy4VCASvEMGfs+DGGYeLxeDgcvnfvXrFY7Pf7hUJBVdVer4dyN+h64+GobMMwjGma4XCYYZhsNhsIBMLhMFaLXX278vn8999/32g0PsKp5zpIJBKPHj0a19gin89/++23tx2QoCgqGo1ubm6O1hIPoev6ycnJ8fFxpVKZr0eIHE/Lsra2ttbX1x09MI/Hk06nTdPUdb3Vas2liBEptMiidbyr6F7UarXHjx+jWO0ciy01TSsWi51O56uvvopGo45j5jhue3sbVds/wkJubG/rOmJkaL2UjxThugWWhIBXnJRieQnlJoT9YNk/on1e9iTqHfDyP+oSPgkoCjgW4jdRwGQo2zSUH7UivyGw74brw5cAAE3T8vm8qqqapjm2HUdgsoNl2d3dXV3Xd3Z2sAsGtsrFKRh1CVmWRU0bn88Xj8dZlsVGDFer69i2rShKLpd7/vw5yhPdwrXebaDCYzab9Xg8o0Edy7Iw5jyDNwIT+aPiZkPIsnxycnJ4eNhoNBYksHR+fq4oiiRJmUzGUYHD6/Wura0h4WA2OhyXEAgEUqlUPB53jNgNG3w/ffoUi03mrtlgGEan0/nDH/6A3cVCoZCjA5TNZmVZvu042QJC1/VJ1AE4IdSXNMp3LRONBZ8YjZiWGwEAiTD0Zbj0q172JFgGTOtmGpdXgyLg4SERvq4CpmkRU6lSbNh02w50KMi/1LicBKqqlsvlTqejadr6+rrf77/iBcDqTZ7n0ZAgFQtTJFg57fP5sLoP+dvXuTOGYfT7/ePj41evXg0Gg7lPkYsJjuNisVg6nXak9FuWVa/XZ9DkLBAIPHz40LGPOcIwjBcvXhwfH3e73cVx9HVdL5VKmqYpinL//n1HtqDf79/Y2Gg0GsP83cxA03Qmk8lkMuMcbqzRePLkSbc7nVYF00K3233x4oWmaRsbGxiDvPQBQRA++eSTwWBwcHDwUa0QJuzkoMpNH81RIAO8h3tLCPgECPkhNA1uxEW0e2DZYFo/arZ1+QcWedDNqbkRCIqAwEEiAoSCRue9Hzf5wL4ycM+4REmouWtc3mk3AqHrumEYjx8/bjab2Ww2kUi8tw/T0NsYGjae52/qVGHlei6XKxaLx8fHH3PN2NVAWeK9vT0UCLoE27b7/f7h4eFtr/xYlo3H45FIZFy9hqZpz549e/ny5VSKfaYO5PBalvXw4UNHhywWi33xxRdff/31LA02TdOrq6s7Ozvjyj51XS+Xy99+++2iuRGIXq/3/Plz0zT39/cdS05omn7w4EG/3z87O5v98OYFiqImCR0xrI9n1Mb7NC7RjQj7pu9GIDwccD/2HS6vMptdYOgfmBTD+f+iIXDcePVemgKRg1gQogGHrqEXT0NRlNJ+Snucuy1cB5iMd3345MC1+ALOmC6A+YXDw8MnT548e/asXq+76754/Q8jPfDPf/7zkyepXYJOAAAgAElEQVRPjo6Olm7EFQiFQn/zN3+zvr7uuLfT6WDQ+7aHgZUOgUDA8YeWZfnly5eHh4cL29LCsqxOp4Nuq2NzGYqiEonE559/7pgBuQ0QQsLh8ObmpqPmLABYllUsFr/77rvFdCMQGDJBau3oT08IEQQhm82Oq/X4IDFhaSFF0T1V5O0f6olGT0QR8IkQDoylWP5gox03vs/WB73QHryvF+hKFHgWskmQVDBM8PJgA6j627iCrIFmgF8EwwTdAI4Blnn7Sb8Iig6mCSIPhICiAQEQeZA10A3wiWBZoGiQjkGzAwdFMExIhqHVBcOCsB8AoNMHmoawn1D8w9MXhbH38n1AxqXrwyfH3a0CHQfDMOr1uqIowWAwGAzeqhK5aZqVSuXFixcTCh1+8OA4bnd3d1xlIEqbFwqFGYSOd3d37927N65DSqlUOj09RR7ubY/ENbD2gaZpURQFQXCcQFKpVCqVms2FUBQVDoez2ew4Yex2u/3NN980m80Ff0c6nc6TJ0+CwWAmkxndK4rixsZGuVxuNpuLk/O6VfA8P0nfDU1pJ0W9zsezYWh0wbQg4n/LHGAZCPreMh130hD2g2kBQwPPgqyCZoDfA7oBhgk8CzQNsgqWBV4RFBUMCzw8wDtbL3IgqaAZEPCAboJuAMsA987Wmxasxd/XC1Tg4H/4z+FNASI+EHkoN4FlIOyDngyS+jaiUGm9bWre6IJpQjQApgX1DoR84Beh1AKagrAPJAV6MkQDwDFQboHIQdAL9Q40uiDyYNuQr0E0ABE/nFWBEEhFYCBDvaX+6ddPTicww0iOnTtPYl5ffRvgeT4Wi2UymWQyeduXRghJp9M/+9nPMCz/UeVQrw9RFLPZ7MrKyjgl0EqlMoPWJCzLopzlFcM4OTlpt9t3wk7U6/XDw0NBEBKJxKi7jP2yq9Vqu92+bfsdiUR2d3fHJRMbjcaTJ086nc6CuxEIVVX/8pe/AEA2mx3dKwjC/fv3+/1+sVic+dDmAEVRJqkC5cXAzx6o/93/KOWbgVgQIn44LQNNQTIMPRlaXUhFIeSDdh/Cfgj5oDMARYeYHwiBShv8IgQ8UG+DBRANgGZAswcRH3h4KLWApX+w9ZEAMO9sfdALjS4Y72y9ZcFa7H2MS4aGjRXIpoAQIAQebAABoCiwLLABKAIAYNlACFDk3UYKwAbLBooAIXA/CzByyE/sH86DjpJtg2EBRYCmwLDAtoGlwbJBkoh0JCdiIdc13IZhzN2QfxhhCeSNJhKJTCaTTqfD4TDLsrd9UaiZjcGPfD5fKBTuih2aGRiGWV1d3draikajoyYchbGPj49LpdJtr54ZhnFsIYvodDpnZ2fn5+d3RdocAzmCIGD77EsXhTVKzWYTdcdvbxg+n+/+/fvxuHOLpk6n8+zZs3K5fIdeinq9/vjxY6/X69g0BIuH2+22JElzGd4swTAMsujceYG62tf6Zw/Wmv/pzwIUAZoGJAEzNJg2WCZQFFAU2PaPDfc7G33JcNs22O82PrAArm/rRxYOTrpD5If8yZDTcPFImoxsJA4bxx2C2wkB7t0HhnESmgABLRaLTNJnCJ/UuctSzfHbpwKKorxebzKZ/PTTT71e73u5lkOgC4W5CeSLIAd2yB25zk+DuljhcDiVSh0eHuZyuUWocFsEoIxHJpPBnmqjH9A0DTUbbjucQ9N0NBpdW1tzFGOQZblYLB4dHd0VN2KI09NTQRD+9m//dnSXbdvb29sY77mlbyeEcBwXDAYd7ypWVKFuxC0N4JbQbre//fbbL774YlT1hKKoeDwei8XOz88XOQU2FQxLC90djn3eI6HgkPA47H/BkAu8x+vZaEIcPnl9W38R8+QTOIKm6UKhEIlEXIvUYkfvZXZjEqCKZTab3d7eDgaD17kcLLjAynuGYVD1En8Iy7IEQfB4PChU5fP5BEG4oiUjghDi8XjW1tYCgYDH4zk/P+/3+wuiQzAvUBTl9/s3NzfX1tYc3QjLso6Ojl69ejWDrJDX681ms44Gz7btUql0cHBwFwmzKKYSjUax6dTFXUgSjEQit9cgeyjaNo6+ilG62/jqWwWqe5VKJWSiXNyFhNZMJtNqteYi2jFLDEsLXcYkdD0ej1er1XEydPPCwnkSLMtmMplJtO41TZtBEP5q3OkqUEJINptdW1vb2Nh4byjCNE1FUVRV7XQ6qqqenp5iw0ksqxsMBjj5YsopEAigV7GxsYGdynHvFUoVDMOEw+Gf/vSnz549Oz8/Pz933yT2AwCamf39fUdKoG3bJycnz549m8F0jKJkiUTCkRKIemKtlktJmPkChZ9LpVIymRxlS/h8vk8//fSWUjZYsrG+vu71ekf3mqb5+vXro6OjOxqca7fbx8fHW1tbjnu3traGUt8fMDiOMwxjkl/w+Pj43r17UxzSVLBwnoQkSdVqNR6Pu65e43le1/Ur+tvOADRN31GeBNZl7ezsRKPRcbxxhK7rnU6n0Wg0Gg1s52jbNtKSh1kM/GNYWSfLMt6TWq3Gsqzf78eOG7FYzOPxjKu4wdZ5u7u7fr+f5/k7lHefLrBY4/79+443akhvnI1mgyiKm5ubjp26sEHXXeEDOsK27WKxmEqlHCU7aZre3t5++fLl1CMutm2PyyTquo6912fWmmvqwAKZJ0+e/NVf/dXo3GLbdjQaRaGwuQxvNhgudN39iBzH7ezsXOGQzQsL50n4/X5BECYhE+m6PndDfkfdCIZhNjc39/b2otHoFZW0hmEMBoNisYi0fE3THLvbOb4quFFRFEVRer1eq9ViWTaZTK6srGxsbFzhu4iimMlkMHpxdnb2EaY5dnZ2vvzyS57nR3ehCNXZ2dnMJmLssuH4kJim+ebNG3fSI4uDTqfz5s2beDw+mt3zer3xePzg4GDqRj0UCt27d88xIEEIqVQqtVrtTjMJdF1vt9vdbpfjuEuRSCxHOjs7W/zS1kmApYWuD1cUpVqtjmvdPkcsnCfR7/cJIZOo8jEMc0cN+XzB83w2m93b24tEIuOC5wAgy3IulyuVSvl8Xtf1CQnk2KFjMBhUKpVKpbKxsREMBh0V8QCApulhr+ePypnAlN/Dhw8dlTzQjcjn88Vi0XV12U3Hk06nk8nkKFdDVdWTk5N6vX6HKgscQQjp9/vn5+cej2c0wBmJRNbW1l6/fj3db0Q60ejbZ5pmsVg8OzubWQf220Oj0SgUCqOVKbZti6K4vr7+AXfYsW0b+264dpUEQfB6veNkT+eIhfMkaJrudDrpdLpQcClOhRS/uTMu75Y3Q1HU1dEIzFw0Go2XL182m81+vz/FSc00zW632+12S6VSOp3+5JNPxjX+4TgO2RWWZc1GdmnuwOYLDx48wJ5nox/QNO38/PzFixczkzsUBGF9fd3xOZEkqVQqzcahuVXYto3Cl+l0etSTEEWRoigk0k/rG3me39racsynqKpaLBY/jKSeJEknJyfJZDKVSl18ngkhPp8vEomIovihvtfDOc19L1DD4DiuWCxe0VhxLnDflOyWQFHU+vr6JEVWpmnOvav43XIjaJpeW1vb29uLx+Pj3AhJkiqVCipYt9vtW1ob9Xq94+Pj3/3ud9VqddxswnFcOp3e2tqKRCK3MYaFAkVRqVRqb28vFos5/jSGYZTL5VmqJmOZYiAQGB2PZVnYXP6DsQTFYrFarY5uZxjm/v37jmkI16BpOhQKjWav0ImvVCofgH+G6PV6tVrNMR8ai8WuaCf7AQCbObiOSRBCisXiOIH8OWLhPAld109PT8fFt68DlmUd0/azxB1iRdE0nUgkkD3nWFho2zaSrh8/fow6dLd3aThpVqvVP/3pT7lcTpIkx+/CNMf6+nogEJikRe+CY+hGRKNRx7yGaZrn5+fffvvtLBnvFEXFYjHH8aDawZ1O5I9CVdXRTA321onFYuO6dLpAJBJx5IkbhlEoFD4YNwIAVFVtNBqjD+1QS2OKd3WhgPPbhFe3ubnpOmB/e1i4Wdjj8SSTyUl0VxahCvQOxSSGxdzjcm/NZvPg4ODFixeOy4ipA5NTpVLpyZMnZ2dn3W7X8Us9Hs+jR4/GdZ34MBCPx3d2dtbX16/4ab755ptqtTpLt9WyLJ/P57gcpyiqUql8GEF4hKZpmDYavcPhcHi6xDeO4xzDbISQdrvt2Frs7qLdbjsWQ4qimEgk5ts46faArtIkBC/DME5OToZ0scXBwnkSg8FA07T/n703aZIjuxL1zvXZPeYpI+dEIhNzoYqsLnbTWmwtJJPJtJO0k8n0ttq06S+o1zLTXjLTQpvXemqqOXSzm/VeD2SziqyJNRAFECgAOU+RGfPg83C1OEBUIMIjEekeyPTM8m8BS7iHu9/wcL/n3DP6BqhPSMjg2GlxKWwSDMOUy+W1tTXfxDPP8+r1+vPnz7e3t8dJ9DdHs9l88OABNhL0/QAh5O7du77F/C87LMuWSqW1tbXFxcVx+SzVavXTTz9tNpvn/LskEglfTd113UqlYprmpXjyJ4cQgrmXQ9tt206lUtPqZqcoiq8agZmT9Xr9ill6dF3f39/3bRCaTCYjmJswLbBwX+B1piiK5XI5gqXJIqdJKIpiGMbktZlHQTXiik1nb4h8Pv/uu++OCzjodrs7OzunGAbeNJiJV6lUxjWkTqVSKysruVzusliAJgFLeK2srKysrIzzxFer1Y8++uj4+Pj8f5dkMjk/Pz/qVGIYplqtvumeYedPu91utVqjzgUsrZbP56fiX8OsWt/HWNO0q+TaQDBjy/dpkSRJFMWr6rXECgWBDzcMw7btCJr9IvdrmaYZplQ2guVIpzWkYFz4AF4LWlN9S0xSSnVdPzk52d3dbbVaF7geajQaX3zxxfHxsa+dCTtIlUqlKzPvYD1sDClNpVKjTxEaih4+fNhut88/Dxb7p8iyPDQwSilm31yZWMs+LMvW63XfXRzHpVKp8G8HwzDoMBr1oGP9gKtX+dHzvL29Pd/SXrIsz87OXjEbzCD92n0BEARBVdVr165NdURTIIrzb6VSmZ+fD3w4wzAhy5GGBGsyRtwoQgjJZDLXrl3zjZTGjIBHjx75Bq6fJxjv+fXXX9dqtdG9uHzH3hznP7apg61GlpaWbt++7Rt0jIWcHz9+fFE5gSzLzs7Ojuo3WH2h2+1ePQGAKcq+jVV5npckaSrldMeFGdq23a8Me8VAnXg0CwyN/6cX2L28uK772pZDpzM/P//s2bMpDmkqRE6TwJk0TK96y7IEQbjYApfR77uBzTZXVlZ85y/DMB4+fHjhakSfw8PDhw8fjpOds7Ozi4uLEb/hkyAIQqlUun///jh/k67rW1tbBwcHqqpeiMxGHd03AhTNEuc/pHOg1+uxLDtq98KK7+EtQ9j9zveuuq67t7cXhcCvqaOqarvdHg004Tgun89fya8MAJIkYUuBYIfbtv38+fMbN25Md1ThiZwm0e129/b2wsRJYN+NizUJRNzYTgjJ5/PFYtF3Euz1elh+6vwHNg5CSLPZHNdbUhTFfD7v6wu4RKDf/f79++Py6TudztOnTzFs5ZzH1ieVSimKMvrYuK6radpVTd6TJMm3horneSzLhpmsENRIfO+eqqpXw942Cs/zDMOMagyUUo7jwhQCiDK6roeJ0hVFcW1tLaT3/00QOYGH9WLDlHzBcqRTHFIAIu7awGY5c3Nzo880riwrlUqk6vL22zP6qvNYTDqTyVz47x4YlmXz+fw777wzMzPjqw+pqrq7u7uxsXH+yRqD9Ho9X7MzwzCapl3V+uWqqmJv26HtLMsqihL+qfM8TxRF31W4aZpXL4gVcRzHsqxRQyMhJJvNYvfgCxnYG4XjuDAWa9u2o2MqHiRyM69pmqlUKkw9CcxFvpJP4bRQFCWVSvn6dw3DqFQq0WwUdHR09PTp03G/bKlUuqQ/Osas/OAHPyiXy+OiXw8PD7e3txuNxsX+LpieN5ruj913r6omIQiCYRi+1SclSQpvk+A4DqvgDG3H3nhX1c5PKfV9nimlpmkqihLx9VgA0PENIZaaHMexLBvBIJI3okkMxqYO/oF/D+0d2igIQq1WQz9x3zdJCOlHqXAchxsHPZf9v/FjQ303Rv+AN6xqRDziMpVKzc7O+lpTj46ONjc3I6hGwMsSigcHB6NzqyzLhULhktbZLZVKf/EXfzEuyhij958/f37OFah8wTdx9P67rnt0dHThw3tDYHlj35qMU1Ge0Jg/elcxUP/yWtpOBwNuRq2MhBCe5wVBuLzOsnESB/8riiJ+tUER1pdr/T8GP4CeIABwHCedTmP4+aD07F9lQoE7daZcSsx2oNW1WNBFgWu324IgKIqCZs9kMolNCyVJkiSp0+lgERLLsnRdVxSF5/lms4nlhu7du3fv3r1utysIQiKR6HQ6nudlMhn8sCzLgiBgkYNsNquqqm3b2N+o2+2iyoanwuRdz/MwLxTfVZZlPc9zXdd1XUzUnrrgjHLEJeYZ+tZgsCyr2WxeVPWI10IpPTk5aTQaCwsLo7sKhYIsy61WK5qD96VvjSgWi74fsG270Wg8fvx4b2/vnMfmi+M4vh59lmUjUhHuTeB5XrVaHV0IUkoTiUT45822bUKIr6UHF+ghzx9NMPipL18HwVi3y/I44bqR53mO4wRBQGmCDT8HRQ9WWMdVnKIoiqI0Gg3Xdcvlcq/X6/V62WyW47hms4nFRZrNpmVZhULB87xWqyWKYjqdbrVayWQyl8vVarVEIoHuIVmWOY7D8FUsyOQ4Dhp1VFUVRVEURfSRKYriOK6qO/lcTpxCytG3TFOTMCzYOYaTBiml2bm8VygUAMCyLMyTtiwLA/2wsyp6tU3TxC/vOI7rusVi0TCMYrH4l3/5l6Io6rqOKpjned1uV5ZlnufxjiQSCcyPws4LnU4HQ59M02y1WhsbG9vb21jhHJNC4WW3ccdxMMsIT67rerfbVVVV1/Up6hP4GEVTmRBFcVw0U6fTqdfrEX+B6/V6s9nM5XKDGzF/cmFhoV6vX6KZt1AovPXWW8Vi0Xfd6ThOrVZ79OjR/v7++Y9tFEIIeh7z+fzQs93pdAzDYBgmmtaskFBKk8lkt9sd0r8JIbiGqVarYc6fSqUw9nBIRbNtG6fNMCePLJRSlmXxrg7twvqhvtavqCEIAnq4UJxjqRWM1cPxe57H8zyKHpZly+XyjRs3yuVyIpFwXRf9OIQQTdMYhkEXIT5UAKCqKs/zPM9j8xdFUbBWPRYywSzFvvREQ75lWZIksSyLUi+Xy6HAxYB027ZNhzw7kq1993vrbDEztfswNU3CduC4AT/7AB5uMf/rvxNSKZ5hXlhy8AODXvm+dt/f2P9DFMVMJiMIwpCmj3oJAPgmyA2KxmKxuL+/P5jn7Vt7WxRFVBh1Xdc07eDgQNO0adX6jawaAQCO4xSLxdEgCUqppmmRStkYxXGcarWKuYhDd5jjOEmSLpEkSyaTd+/eXVxc9E1axvXEo0eP9vb2IvKlcH1cLBZHR4ua/YWM6nxotVq+zSAEQej1eiG9md1uV5Kk0buKC6dLZGM7K5jIgPPw4HZJkqL/xVmW5Xm+XC6LoogW9759pR/yMhj7glOurutzc3MzMzNDX9k3Q8d3I8dxWLH+lKvAqwJ3UAoLAv34YeekI5oW/FfvgTCdau9TipMwbdg4hB//G/ziY5AEqluAakQAdF0fVSPOhKZpE9aKwd9SluV8Pr++vj4zMzPdNsERBOOisVLh0C7TNGu1Wq/Xi/gLbBjG9vb26GLF87xEInFZKvan0+m33nprYWFhtF4k0uv1Hj16tLu7G51lGdYL8nV+2badTCYjovFMHUIIejFGK3vqui5JUshXJpFImKY5+kp6nlcqlcKcOcqgdxtt/oPbMSRlKvW+3hwMwyiKsri4mM/n+9/itatHtOpZlhU49gWDfIMdizS7jiLxX2/S9z+Ff/o9NKaUUT4Fm4RpwV4VfvIB/PPnoJsAFChlXJeybBBlAn0QYXR8zKc6k6EVbeOzs7NoYxzX5WFycPwRNEtgrrZvDRzTNH07FUUNwzB0Xdd1fSi+kmGYRCKBFfsjLtLS6fTt27exrYbvDbdt++uvv3727FmksiHQTOJrEBJFEV3FV9Uy4ftLEUIMwwjfpRPjIdDxOrgdIy4xsyPkJSIIpVSW5VG5iA0zNU2L7JIGNcv5+flx7+840NGAYRPB4knxWEyVCjZXZ9OcZTu2Qz99gmeEH92HTOgVdFibhGXDXhX+7rfwy0+gowJDoKMzKckJpkbAy3JvYZ4hnOYCTMHY0BaX7IGvPjiGkCd5E6CDbdT0gre92WxGZwV8CtVq1XduVRQl4itjnINWV1eXlpbQOz76GdM0v/zyyydPnkQw4AMf7NFhE0JyudxVVSPQ6zyaGeR5niRJ4V8ZdI2Pek9c18XlTcjzRxOGYQzDGM199TxP07TIGkfRMjc/P4+miLMe7nkeZnIGHoBt277NeCfEMD2WsTs663rwxTN4/xP48AH0fAr+nY1Qz6hhwe4x/OxD+OWnoL+c9GaybtcM7nvB+JQwYhhtRwE63KNlAlMAAl+9f6povga4DvCtK9dsNiNuUUQopRjdMror/Fv6pkE1YnV1dVwdLU3T/vjHP25tbUVTpWNZVtf10bHh6vxSPD8BwJD70UeOEHJ4eBhef8InYVQDRgNt+OkomhBCfH03WOUsss8Sx3EYyRfgWNRCwpRgxuchjI3KdiglYlp2AcC04asNeP8z+LevoB7OzRHcu2E7UG3CTz6A/+/fwHt5WzwKezU2o9gUAholRFEMGfaYTqctywo8EafT6XQ6HTLeZzSGKDrIsjwagsowDM/zEQ+37NPr9XyjaDGCOrI2CayHff369ZmZGd8PuK77/Pnzb775JrILMkyyHX22OY7DKPELGdWbBhPQfCU6z/PhXQ/oIvFdPimKEt57Ek08z3Mcx/eu2rbdbrfPf0iTgOEdwTQJrCDsG107+dW73e7q6mqwwwGgkOFsq9szXuTL6CZ89AiAAlD4b/4MAkutgMeZFjw/gL/+F/j7j75VIwCAYWCx4PV0AkHnFKwlF8YmgWm1gSc1bJoccl0bWVc9Zqz4VpLAR/xCRnVWeJ73rcKJdr8A5qhzQBTFpaUlDOz1/YBhGM+ePdvc3NQ0LZoPDwAkEglfJZsQIoqib/zNFSCdTvtaGQ3DwNzXkOfHJMBRjQQfg3G1Ri47giDgdDS0HSt7RtMmgdapMM95Op02DCPwC44JyWHMYCcNRxAUln3lYX6wCe9/Cr/8BOpB9bcg7wDGRvzsQ3h/wKmBUAptlTCE8YIuTkRRDBllhmcILE5YlsUcmzBjiOzirF+fY2g7x3HdbjdS8X2ngMZP3y7P2FTpQkZ1Ctjkc319fW5ublzpiP39/c3NzUajEeVfwTRNbJcwugvV02iGB4UE04JGX2qWZbHCXsjzO47jed6o0ZthmEwmgzF6IS8RQbDXzOh2juN6vV403wJfg9yZCNnojhAS0gaWVBjTskTulclTNeCjP8L7n8HHj6Hn4zd+PWcWt7YD2xX4xcfw/qegjoRpEEBjhMsyAQU5vjZhJLHrujzPh3EzY+mqwIcj0Xz5eZ7XNG1UzcIem9F8e0fhed63H6brulg19fyHdAocxxUKhZs3by4uLvoquLZtoxpxfHwc8Z+AUlqr1XyrX6RSqXw+H1mjdGBwGZpMJkcFAIZkTSVOotVqWZblm8NcLpcbjUZkFyfBwIgBrOY0tAsLLkXTLIepnmFUAbSXh8kCxWrigQegm54sgGn7iKevnr9wc/zo7TNnc5zt+xgWHNTgZ7+Ff/zYR40AAAqQSVDDZl03+HM/SWLu6YRZmKIeE8bDgvVJovnmE0J8q51gAfJoWhRHMU2zX/t8EKyaGikbO8uy6XT65s2bS0tLvmqE4ziVSmVzczNq/Vd9wQCg0TAOFAyZTObqhQdiYKBvJbdGo9FqtcKvGTBiwDdVR5blcSEal51SqeRbv6fX6+3v70fzXcAM1TBaDhYaCLPQxZKXgQ8XecYBQRZ9xJNuwhfP4P1P4cMH0BhuMvMazqBJ2A5UGvDjf4O/+RW0xscAHTaYfDJ4FihGMIURw5jaHmZtFzKbGcutR9MmgfV3R7dj5Vq0TEQfLInhGzeKzVkuZFSj4Orh9u3bt27d8g0RpZTW6/Xt7e29vb1LcfMppUdHR5qm+fZKWFpaupBRvVGwmJuvtcB13Wq1OpU1Q7fb7Xa7vgEoy8vLl0XFnxyO49LpdCYzXK75lMysKIDVr8NEYvV6PUVRwix0sZVG4AEIAqGu3tH8B2Da8OkTeP8z+OgRmGfR5SbVJAwLnh/A//sr+OUnp32MEFgouq0xo5wE0zRDRlyi9T7wj41txkLGSWDfjTBneENwHOebGoM14S9LiU+siu3bkbJer0fHLppMJr///e/fvHnTd6/ruo1GY3t7e3d3Nzraz2thGKbRaPguGTmOm5+fj2CcShjm5+f7pfoH6fV6R0dH0/qyWAZ+VJtEA6dvPMGlJpvN+t5V0zSfPXvm67uMAlipKIy9JJvNhtGTMOIyzHTR6rocLyelsUYR14MHG/DLT+Cff3+GAMyJNAnbgaM6/Oy38IuPoKOe9knPg3qbyDy4QUMuBUEIOatiC4DAgpwQ4nleyKJAka1MZVlWKpUalbWCIKRSqWjWMBjFtu3RJlIAgF1zIpJ/y/P8vXv3bt++7bugxELL29vbjx8/xqZ0lwVN0+r1+qjNjxBSKBSwJe+FDOxNgDVmxnWrr1Qq04prcV0XeyaPTlypVKpYLF6WvKpJYBgmmUxiN8ehXZTSKIfaYGBsmDOoqhrGP4K9J8PorzM5zjANxztNPKkGfPxH+I+fwcd/BGMyafz6d96yYeMQfvIb+MePhjM1fE5HICERj3pMUDlqWVbILD7sChNYKNq2Pa0+XhGE5/l6vRi9T5UAACAASURBVO5b4T9kJNG5QV42ox/VJBzHQTfkhQxsEFmW7927d/PmTV/jFqoRW1tbT548uUTWCATtq77aDzYkjGYWbjBSqdTMzMyoMdmyrMPDQ13XpzhRNJtN32hWhmGKxeJlsRdOAq5bRus9u657cnLSarWi8Ar7gu00w7yzkiQ5jhN4nUkpDdmXqtp0RJ4z7deL/j9swPufwb98Ds0JYiZeczrDgr0q/PQD+MdPQJ/g7lEAQqjlcF7QrxqywCW8DGkJ7J5QVbXZbIa0kEc24hKVJF8jqizL4wovRgqs8uZbqtZxnHq9fuH6EMdxt2/fvnPnzjh3puM429vbjx49ulzWCATLofoWLOd5Pp1OY//iCxnb1BFFMZ1O+y6da7XadBNtdF1vt9ujpm+GYbLZrG/U52UEg3NLpZJvBlC1Wo1gkfg+OHmGsXljpEUYmwSeJNjhACAKxHKYlPz6M6gGfPYE3v8UfvfwtMhI5DSxYTpwUIWffQi/+Ajak814tg2Pd1nPc9mgvUCxx0kYMYw5nMFsUI7jYJPxkJpEZCMuAaDZbI7KWmxSl0gkohNkMA4MgvGdVbGS/8Wu8jmOu3Hjxu3bt8d193Fdd39//4svvoisM/i1OI5zcnLi+xNks9nr169HKn0mMJIkra6ujna+QJNSo9GYrsyzbXt7e9v3BRRFsVwuX7iKPBUYhsnn80tLS6OLPcuyms1mZMMtEdd1Meg42OGO4/A8H+anNE0zjKvL9ZitI2h0JhqA48LnT+H9z+C3D/2zNfuM1SQMC3aO4CcfwPufThrDaVhw0oaE6J60GTuosu44TuAuZwguuwOsrT3P63Q6x8fHIScIbHEUTZsEpRSb9o7uwrIH0e/KLUkSdtEc2k4pHVfL+dwQRXF9ff3mzZuyLPsOg1K6s7PzxRdfBJ6JooDjOO12++DgYHSXJEkzMzOFQuGyiz2GYWZmZmZmZnxf5Hq9PvWlMwYRVyqV0RUnx3EzMzOzs7PTveL5Qwgpl8u3b98edYFRSg8PD1ut1oUMbHIwMbDVagV7ALBrRpgal4qihMnz6mkUiFBtU22y4VsO/GED3v8Efv3lab05/Odc24WTFvz0A/jb30zkIwEAx4VaB1o9eLjNZBOUDTqZy7IcMkxBUZQAxh/btlVV3d7eDh/vg9I6mjYJz/OOjo6wM9DQLp7nC4VCNBWgQTBOwjdfjuO44+PjizKrYMLe7du3C4XCuFiB/f39zz//vNlsnvPYpk6j0Wi3277m/dnZ2fX19fMf0nShlBYKBV9LgGVZT58+fRM/Yr1eHydKsSpJLpeL5sQyIbIsz83NlUolXz1b1/VLYaizLKvdbrfb7QASvd1uy7IcpliRpmlhskDLeeakYZ20yH4V3MlmSq1fAfMROGNEq19TYxs29uH/+Wf4u9+NPWz0kJMWtHtgWLBYos0eCbws1HU9pDsQg2Mn/6lc11VV9eTkZGNjwzelOwBRfttZlt3Z2fFVthKJxMLCQpQHz/P8ysqKr5NV1/Xd3d2L0oRwYOvr69ls1leNcF334ODg4cOHvV4v+i6k12JZ1tbWlu+8TynN5/Nra2uXN/SS47jr16/fuHFjVOCZprm5udlut9/Ek8YwzOHhYaVSGd3Fsmwul5ufnw+ZoH6xpFKpubm50RnecZytra1vvvnmsrwauq6fnJzUajUUGZM/DJlMxjCMMBGXwZbKffZO3JkCx7G0q8HGAWgT60IPNuD9z+A/fgYNP2VvpFKpDXsn8JMP4Z9+P6lTw7Sh1oZ2D0wbKAXNII4LjQ6lQDgWeA4ME1gWOAZcDxwPOAZ4DjQTOBY4FmwbgADLAMuAbgF1Odv2bNvGdD5Mi8LQB0zrwPK0mGiA8RD4yf5eLAGGv24/XgF/aUzOxo24V9f1brfbbDZ7vd4UUzaibJbo9XqNRsMwjFFHBqbwcRwXzQJzAMCyLGar+lpHq9XqhUR9syw7Pz+/trZWLpfH6cGVSuXhw4cnJycRr4c9Oe12+/DwMJFIDK2QsJTTzMzM4eHhJe1jmUwmZ2dnfXs2Oo5zdHT0hnz5nue12+1Go1EoFEZ94el0enV1dX9//9Ll+yCyLK+trfnmb/d6vUqlEqYe4Pljmmaj0VBVNZvNYo1gVPL6PeL7Pu6+yxUlTj+TEyWXaZooufoiDP1c+Hd/L84bLMuqmlVtuakk8BzYDhACDAGGAcMClgWBBcN+IU89D2wXOBYEDjSUwiykEmyt7WEcY1eHowYslkCcQDvF1FAsp/2fvwOpV0Ohhqdj3YLf/AHe/3RSVcV1oaNCWwXDftH+c6/K/B9/5/3LFzSVgKMauB5dLBHVgKMaXZwBUWB2jz1JgNk8aXSg1fOWygyhsFWhhQzkkqTWIrzDlL3feo5hmiaWiUVDBcuytm17noeFiQzDwL1YO1mSJNd1DcNgWXZ3dxeduBzHYSVaTAmxLAt/P9d10VmlaRqmcU9XF47y+0AIqVarqqqOahIsy968ebNer1er1QsZ2+kwDIPLslHjnuu6tVrtQvLHOI4rl8vXr19fXFz0VSM8z2s0Go8fPw4fghMpDMM4OjpaXl72LTZ67dq1Wq325MmTCxlbGHiez2azCwsLo7Lctu3Dw8PDw8M3p2prmvbkyZP5+XnfqLpCoXD37t2vvvoq4mGJo+BrUiwWR58Wx3GwzNelKPM6iG3bjuNomoYhxthJBEUJqhGu6+KK13VdXP3i7Hrt2jXsMI7dIlVV9TwP10jdbhebvPR6PZZlMa7CMAxMieqpdmr2h0xxtdalHdVbmmEoha0jWspCLkmOGuA4dGGGGCYcVOlCCSSR2T/xeA5m86SlQqPjpWTy5TOimS+UubYKrgdr8zBJQAKl8OVzEAW4Pg+3l2FQIRzWJGpteLoPk8/GDAOuC47zbRdxVYd//JRhf095FjyPeAAsAwTAdhmGUIahjssAUI4BAsTxWIZQQsB2GMJQngWGMMzR+0rrrxm70m638bdBC1IqlcKfDRXARqPB83wqlcJwfQyVb7VaqVSq703sa4IYBdlX69AgcSar1JmIci4lZsf0er1RbyXDMOjg0DQtggmK6XT69u3bvn1DPM+r1Wrnb0phGKZQKKyurvrqN/CyHvbz589PTk4u3UR5Oo7jHB8f7+/vr6+vj6pQkiTduHFDVdXDw8PIlgfwpVgs3r9/P5vNDm3HRhs7Oztv2qqEDhQsujC0i+f5Uqm0uLh4WcqrI9gFbWlpyTfOo9frPX78+JIGD6EQQdubqqo4ow4aIVD0oLhBG8PBwQF2q+52u1j437Isx3GwuDNWWJZlGauVSJJEKcXYCEEQNN2SV1l3/k91mnBdlmEoIWDZDMNQngWPEs8DloG+SOUY6rgMBcqxAChwgboeNzB+YBkwLVAmSwcxLNiuwGEN1heAH1AfhjWJxRJ01bMU3CbgeGAPTBSOBwDgeeRl+gZ55dMv/7BHN748JJf7zyp/+EvcNijP+k7ZwdSDfoBkf6+u66hqwJi823NwxUU5CxQANE3b3Nz0XXWlUqnV1dXnz59fyMBOAXuPFYtFXz8x1rQ5/4SIbDa7tLR0/fr1cXlZnU5na2trZ2fnktr5T8cwjM3NTYxMHNqFOtadO3csyzo+Pr6Q4QUgmUy+/fbbMzMzo7uwFvs5OBc0Tdvf35+bmxstmsIwTLlcNgyj1+tdYHDxWeE4bm1t7fbt26Ozoud59Xq90+lclu9yCmiEwL8Hv87gRs/zVFUdnKn6M0P/D8Mw+jKuvxGtUIQwBd7YMeZeHv3ifrq+AtclL59UMpBNOfwTGBacKaKp0oBC9hU1AkYjLncqkDhL2znHAYZMZBiZEJ4FvfmQkRYCn0EUxQt380c2CxRBt06tVvPdWywWf/CDH0Stpl46nb5+/froShEAPM87Pj4+Z3svy7LZbPbatWtra2vj1Ih2u72xsbG7u+ubdnsFwMTpg4MDXwuWIAilUmltba1YLJ7/2AKQzWbv379fLBZ9bYq1Wm1ra+t8YhSazebW1pbvXSWEzM3N3bx5M5/PX4pUW0mS7ty546tGAEC73d7f349+8ue0sCwrTPVFXs41VE6g0/Q+C/ykqRXIchlOmq+YD2BUk8hnwLJBmFhD4blJM0kmxHEJJ+UBgp8Um1FdrCCPbLhln+Pj4729PV+3PXYMWlhYiE6UOMdxy8vLi4uLvnfV87zt7e3ztI4SQkRRXF5evnPnjq+3BQBUVT06OtrY2MAqF+c2tnOm1+s9f/58XN3oRCKxvLy8srKSTqcj/kYkEonr168vLS35JumhbWmc8j11HMd5+vTpuObaoijeunVrbW0t+lUvGYa5cePGvXv3fBujO46zu7u7vb19ufxfYQjTyQEALK2elBg64kwIg+sCITD5DLV7AumRZeawJqHqwHPD6sYpOC4IHARt1+UDy3pAGc84CnEGNvqC/MJhGKZSqezv7/s+1qlUanl5uVQqRWHRIwjC0tLSuHhGy7K2t7fPM2sDw3uXlpbu3LnjW8gS/ZqHh4dYdeAKmG1Pp9PpfPLJJ41Gw3dvOp2+cePGwsKCryyJCLIsX7t2bWlpKZ1O+1a0PDo6qlQq55k0wTDMzs7OycnJODX05s2bd+7cObfxBIDn+evXr4+r92rb9s7Ozubm5ndHjcCqVmF6KQhy3rRtl0ythiwhwLHAjPo8xjObA8sG/lXJMKxJEABKhz90CiwDCQXSCZhWiCEF4hgHbGIt8BnQF3Wxq8DI9t3ogwkF42ILBEFYXFxcXl7O5XIXWxWAZdmZmZnV1dWZmRnfzE+M6VNV9dxuOMMwCwsL77zzTiaT8f2AZVmVSuXx48fRTIGZOpi7eEozaFQm5ubmFEWJYDByIpGYm5u7du1aoVAYHR622NjY2Gg2m+f5Utu2fXJycnBw0Gw2fWWtLMvf+9733nnnHUVRIrhwYll2aWnp5s2bvi1yKKUnJydbW1vj6ptdSfA+YDGCYGfwXAuILFB/rf3s4wGJh5RyNvHtuOC4YL1qLBs+QToBjgfWxL8sISALUM5BekpKEvWomP8TV9sOfAbP87D+xHQGFIhLYRRxXfebb77Z29vz3SsIwt27d69fv36BPg4s0X/t2rWVlRXfzAjP86rV6ubm5rllV2LI25/+6Z/6RmwAgOM4zWbzj3/8o2/Z46uKqqp7e3unhBGUy+X33nvv2rVr45xBFwK2m7l169adO3cWFhZ8lWbDMLa2tvb3989f4Om6/ujRo4ODg3EPEsdx77zzzr179xKJRBTMhwimO66trd2/f79cLo9OINgEbmdnZ29v75LWxggMx3G+veMnhHquzPUsMoXAIwIg8pBJQi45HD55Oh0VsgkQXv1V2b/6q78a/P/uCTzcgr0TmNwiixGXGDBhhY505Fhwjn9KO59RN2AWoiiKkiRdrAcRq1ZEX5nAESYSCV/zI8MwyWTStm2s6HfOVhYMaVxbW1tdXfU1jGOh/ocPH55bhV1CyNLS0nvvvZfL5Xw/gDmfX331lW9PiqsN9nmXZVlRFN8WcZIk4fIU8+MvZJBDQyoUCrdv315dXS0Wi75va6fT+eKLL54+fXpRJkYMjk4mk+MeOY7jcrmcKIrYo/LClVcsgXDjxo27d+/mcjlfNQL7Emxubl7q7jMBwFaimqYFXvlwQsJJ/BBS77gQqkESISCJkEtBIQ3iGUXl0gzcXoFrszDYpnNYFVkoQk+Ds741HAtJGTgWgEBHPfPhgzgeSefudbzgEw1WCgs+gmlwKWwSAOA4TqVSQS+G76I/mUz++Z//OcMw29vb0yolPgno1Jidnb19+/a4zIher3dwcFCr1c5tVLOzs++9914+nx/3AV3XP/vss6Ojo4j7tt4Enuft7e3xPK8oyri0gnw+j3Wfvvnmm8PDw4uNIMlkMt///vdLpdK4rq22bX/zzTdbW1sXO85Go/Hhhx9KklQul319Q5Ik3b17F6vg7+7uXuBoOY5DG8+9e/ewjsLoZwghaLS7knnRp0MIEQQhTKiEY/ZmU3BAU2eIa/BD5CGTgEJ6ouqWQxzVoThiWByWuJUGKNLZckIQlgFJgFIGCLy+l/kpcAy1zTYhXOCZWBCEC1fM4fIoE4ZhPHz4EKMaxzky7t+/ryjK5uZmq9U6B2sk9lBGp4avGoELtf39/TdabXAQ7Az5ve99L5fLjfP0t9vtr776qlKpXPkQy1PY29tjGObtt98e138klUpJL9nc3MTyf+c5QpZlBUEoFAr379+fm5sbZzs0TXNnZ+fw8DAKXnzDMD766KP33ntveXl53GdWV1cTiUQymdzf339DbUFOB1/b1dXV69evj3O1UEqPj4+/+uqrXq/3HdS2AcC27TALXV7Odno2mzA9CBhPQAiIPGSTkA+kRgDAfAFaIw6D4a8ki+B4IPJnKU71EpaBhAwMA5RCVz+Df2QQxyOc0yF8Gqx6kONflgG5LII8CjQajQcPHmSz2XGr7UQicffuXUVRdnZ29vf332hQAsdxq6urKysrvp1+EKyu+OTJk3o94ENyVkql0jvvvDNuUQgAqqo+ePBgZ2fnu6xGAIBt28+fP+c47t69e+O0Lp7ny+VyNpvNZrOVSuXk5OR8nOWEEJ7nZ2dnscrFaJpGH8dx9vf3t7a2xkU7njOU0lar9eDBA0mSxpW7wCjpTCZTKBQeP37c6XTCdK8+E6IoyrK8vLy8sLDgGxjR5+jo6PPPP69Wq99NNQIAQtrLLa2eFgQGAr4vhIAkQDYJhfRwoMPkVNvAEHC9V+pIDcdJGBb85g+wGTQHkyHAs8Dz4HpgBPqyLHElVjM2/veAIwBgWTadTl9sLQRsJHaJVBlVVff390ul0mgzDoRhmHQ6rSiKoiitVgsboU1xAFihIZPJ3Lx589atW6VSadwviCGNX3311fHx8TnMRxj1+fbbb5fLZd+WTgBgGMaDBw+2t7cvXTeEN0S73TZNs1AoYMDQ6AcYhsG6VYqiZDKZZrPJsuwbXf2zLFsqlVZWVu7fv7+wsIBdDHw/adv21tbW8+fPz83iNQnY/KlarabT6VOiVgVByGQyc3NzOAW96Zwm7FC6vLx8//79tbW1TCYz7rX1PO/k5OTzzz+v1WpRMPNcFI7j4NsR7HBeTCeL77SV/+4saZsvIAREAXLJF06NwMIpnYD/4vtwbfaVjcOaxFEdvngGeyfBYx0wP5XnwHXBds5Q7+LFgFji1d8H9Y/UDlhoSBCEi424xNDlSxFxOYht25qmpdPpcdUtGYZRFKVYLGazWexcN60ZASsrr6ys3L17d3V1FRvY+H4Sk8d+//vfHx0FrzgyOYSQYrF4+/bthYWFcbl2vV7v0aNHGD72nV1pDeF5XrPZ1DQNvRjj1mEY0ouNnXietyxr6sYJtEOgtLtx4waaIk5ZZhiGsb29jX1SoqNGIJ7nmaaJbZ9Q4x99IHHykWW5UCgUCgVBELCx5BQtK3hRnuclSVpeXr5169b6+nqxWMSWleNGfnh4+PXXX0fwrp4zpmmqqhr4OWd5CdI/Iok7DhnuyfJaJAFyKcinQAonG8s5eGsVlmZgcJIe1iQkAf7hE9gPlwbPEOBYkESwnTN7STxKMglWe/a/wZmVkJdn8LwLryOL89fl0iSwnlK3252dnfWNvgQA7Dmey+WwHw9G4BuGEaw6OHZqLZVKuVzuhz/84fz8PBaNGHffsFPOhx9+WKlUznqtYKRSqZs3b6JyM6685pMnT7a3t7GjLADwPI8Ne1iW7dezQ72WUspxHMuyaM7BWX7wEFxHDh0ydB5MouF5Hs+DMVy4d9yl8ZD+pTEU7hyUnmaz6TgONuE7RZlAc1c6nV5eXtZ1PZvN6rrOMEyYoiz4FGEzv8XFxbfeeuvGjRto6DrlrXQc59mzZxsbG8fHx9FcN/cTHwqFAs/zp6yXsDUU1nMrFArw8nULrFLgfWNZNplMptPpa9euLS8vY+TQ6TXHsPv2J598Uq1Wv+NqBACwLBtGnfIcc3blz+rif3tWmwQ6NWayAWMjBmn24N/91zBXeGXj8Ou9X4OMAhwbJOhyEJYBWYBSDoBA+ywBmDxLtZMvCCNRN2CCkCAItm1frCCPYPmdSXAcp1qtfvLJJ3fu3DldqBcKBUqpoij1er3ZbGLbi1arhaLxFAGAYozjuGQyiZ5y1CRSqdQpR1FKTdM8OTl58uTJuZV7ymQy6+vrS0tL44w0qHspijI7O4s9nzA6B10//X6AgyE7uBFb0Q4+JCg1cS/ew/55AGCwl2D/k4OH4K3DQwY3Do6nfx7HcVqtVr1ePwcnOkbVdDqdhYWFU3JeACCdTlNKf/SjH2matr6+fnx83Ov1Go1Gt9vFLr79r+x7OH5NvKWSJM3MzOTz+VKpJL/k9FcSWzw/ffoUbUtRiI0YB/by/fjjj2/evIllyMdpafjUXbt2zXXd69ev46uKXa1d19U0DdXK099WPIkgCJgrns/nM5lMNpvNZDIcx53u9XccxzCMg4ODR48eNRqN2GIHALqu8zwf2A0qyIV6j+WTHZv417MZhSEgCpBNQD51troR47i5CMcNuLtyalfxYhoM65U80cCwDCQlYHMAAF110oraLiWClCdCnuoBNQnbti9ckF/SdwbTnff29nq93ttvv10sFpPJ5LibSQjJZDLJZHJ1dbXVavV6vcPDQ2zNqqqqaZrYGQ+XyKIoovjM5/OJRAInI1mWM5lMXwCcovk1m81arfbo0aPzkX8AkEqlrl27dv36dRyh72ewfML6+vrKyoplWYIg9OcISZJs23YcRxAEhmHQbCNJkmmajuMoiuK6rmmauKzEphWyLNu2bdu2IAgcx6G9R5Ik9CLhss8wDLyZhmF4nifLsuM4eOnBQ/DSaFgyTRMvbRiG67p46c8++6zdbp9DnKPjOEdHR7quNxqNd999F2tcnn4/JUkqFApzc3No5sGSUJ1OR1VVjuNs21ZVlRBi23bfks9xHKVUFMVsNovhF2j/n3A5Ydt2t9v96quvdnd3L0uhpHa7/ejRI1VVl5eX5+fnT5HoaPXB7NzZ2VlCyNHRkaqq9XodG1jruo51HSzLcl2X47j+25rJZNDiVS6XU6kUvrwAMInr1nGcWq22t7f3zTffjGvL8h0ELUPBs0CtblFhazCppksAROFFwmfgEMshah2QJXDcU7uK6yYI3BlqXJ4Oy4AiwsxZUkMZ8Bg+HzhIAgDQr3HhNS4vb/KIbdvVavWjjz66ffv24uLiaMPoQfBu53K5TCazsLCgaRrOxZ1Ox7ZtWZZ7vZ7neTjF27atKIooiihfh9blvmAr542NjYODg3GdHaYLyrP5+flr166NKwfUB7++IAh9O7OivMjOEkWx7yTqWzX6Sa04uZ9ySH/jYB5s/zx9e/JrL92XMf1DbNtOJBLnmWPSbrd1XW82m9hpc1yVcQTfGkmSRFHEOBXTND3PsyzLtm2WZXVd73Q6qIRZlpVIJBRFwWcJ7wYqFpO8fZ7n9Xq9o6MjzNS4XHk3mqY9f/682+22Wq27d++iz+uUz6MjDACWlpYcx7lx44ZpmqiQ6bquqirP86huplIpnuc9z5Mkied5juPwzBO6jCmllmXt7e3t7OxUKpXvWvmp03mt1fZ0OCFpWZoH/t7nITDh80XdiOnFDSZl8LzhBuDDmoTtApCAWaC+MAwoEpQIUApd7fWWCQrEaj9mxLLrbAa+KJqCY+9GYNAdi50UDMOYnZ0VBOH0+4lfOZlM4p1HGdy3q/uWmn+twdl13Z2dna2tLVzXhv1WkyHL8tzc3I0bN9C7fPVgGAbdf+cWCoDOqWq1+uWXX5bL5ZWVlXK5/NonCvcyDIM6UF+LopTOzc3hrr77xvfY04eEucRbW1uVSqXb7V4uNQKxLOvw8LBSqTSbTbyr49KLBsEoLhjQMjOZDMq2vpsMgi7GDMPo9XobGxt7e3vdbjcOjBgFLTqBbRK2J3LQcV5X4/JFwmcCCpkpxEYM4rqgm+B4IAzM38OaxEwWVGNqasSLa7CQkGGWACGvt0x4HpWL77UeBVcjHMe58GhHtF9d4ACmQqfT0XW9Xq9jyWpMqZhknoKBaSiAUtWf5bvd7tdff62q6rnNRzzP5/P5O3fuzM/Pn88Vzx+GYViWPbdOJX0opRj3cHh4eOvWrZWVlWQyGaBFDjo1+n+fdRioMVQqlVar9fDhw74V7ZKCeRmo9O/t7d25cwerkp/1PGG0B8Q0TV3XNzY26vX69vZ2P+InZhCe523bDuHrYdKytUdePzu9cGpMW40AgLYKuRQIr+oOIxGXVZBfNZwQ4pMR2t9I/FIsRg9hCcgiFDNAKXROrcbNscQ4+ZqVl1zdv7PUaxFFEf3TwQ6fCv3V0gWOYSrYtt1sNh89enRycjI3N1cul7Hg8Zu7omEY7Xb74ODg4OCg1WoZhnFuHlae52dmZt566y1c8l5VMHJFEIQLaX5h23an03n48OH+/v7s7Oz8/Hw+nx9XEH26YH/wTqdzeHh4eHjYarWujOHd87zj4+NqtVqv1+fn55eWlrCv6Tn0DcB8kG63W6lU9vb2+nXGYjXCF8uycKEbbFrjhERLE8XUsUnGOp3RGpFLQi45LO+/FdynivXTN84VoNYB2zk1TqKUA4GDxRKYDnguMAQ47kULUUUE1wPHBY4DlgHHAccDWQDHBdt5Ec3huEAICHiIA5IArgeuBxwDHAuGDbkUtLpw1ADbgVQCHAcsG1gOZB5UAxwX0kkiswsHT4O/4ehMDXz4VLgaagSCGQro8iyVStjuKJvNTlGfwPAuAGg0Gnt7e5VKpVqtWpZ1nlFaWNvg/v37i4uLV+a38wVjMy8wPQGfKE3TqtVqpVLJZrPXr19PJBKpVAregGfQdV2WZdFPt7Gx0Wq1Dg8P+4/clcHzPKz+1O12NzY21tbWksnk4uIiz/OiKL4Jf6vneYZh1Ov1er1+cHCAUbFXwIwTNQAAIABJREFU7K5OHey7EfhwS2+UFGjwSjEJtgO2DRwH0rfSEzQdOBYWZ2ChAIQBxwFZBNcF2wWBe7HFoyDx3wpuSsGlQAjwHLgOmA7IArgeOB7wLLDMizbifVmvGTCTgaE5cliTkAT4H/5LeLoHogDZJDS74HiQTYLnQbMHCRGSCtTawBDIJkE3oadDOgECD/U2CDxkk9DugelALgkA0OiAIkFagXoHKIVsElQDtivgUVBEqNSB56GQgVYXdAuKaSAMHNetJ58d//V/Cl4FmWXZKCdxXV5M08SOWaVSqVAoZLPZcrnMcdxrU+zG0c9ub7VanU6nWq1i7p+u6+c8HxFCFEVZWVkpFoue56mqyjCMKIqYNyGKIsuymqZhWDvmTUiShKkuGOKn6zq2uxxMpsBDMG8CKytgdBtGC+KCWJIkrDjUPwSzM/DSkiQxDNO/NMbADx2C1RdEUcTUDxytruuDWR646MdL9yNXzvMO+2Lb9tHR0cnJyeHhYT6fTyaTy8vLmILBsmwYdRwVBbxLzWYTrVyapmGi8tWeHzCi6OHDh4qibGxsLC4uYkIs+5IwPz1GUxqGYRhGtVpttVqou5yz3n9JwbsXppqLKGduL3T/x/+ZPWyCIEAxA402mDYU0gAEqi1ISDBXBMeBpAS5FNgutFVIySCLUG8Dw0AuCaoBmgnpBPAs1Dsv2nA0e+C4L2V9FxIypGSotYEAZJOgWy9kvciD68FCCbhXV+sjmgQPd1fg5hIAAM+C64IHwLFAKbgeEACWAdcDCsCx4HngecAwwBBwvJeHeOB5wLFAYeAQCpQCx4JHwbCAZYBjwHKAUpBFsBxwHBB4IATaHff/3Nufn58/PDwMdq+j0HcDjVdRmKynC8rO/f394+NjAMDcsEKhkMlkEomELMsY/jbkxu5HjaAMw6ncsqx6vd7pdGq1Gq5Qe73eRU3x+GO1Wq3f/e53/axUx3Fw2sU/GIZxXbdf1KG/EVcY+JVHD0F51j8EYxTwPIOH4Hn6l8ZlNOY69g+Bl+v1Uw7BvXiI76VxtK1WKyLSFGNiUJWklO7t7WG2Ibo8+kULBp+ovmV46A+sOYH/ttvtdrutqiqW2my1Wuic/u5IO8dxut1ut9ttt9uiKGIpiEQiUSqVUAHFBcBgBTB8SYfuLepktm2j9oCRs6qqVioV0zQxSuO7c1dDgm/r4DN8VlxbLSj1P1s7WF65AfCt9MTUDNMGhgGJB+q9ENweBc8DAsAw4L4qoxkGCHkhozncSCeV9dyI0X9YkyAECPk2JvNbLxv5Nuujv/5kWICXZ/z2kIGN3x7y8jQMgeRLl2jfyyILAC+jGpIyXFtZREEVGN9w7vPkSqoRfVCzBoD9/X2e5589e5bNZjFzDFeTAJBIJFDCybKM+XvolcewO1y4t9ttwzBwNQ8XXYSjbwvpS1/XdVErGhT8uBG1Ctw74SEoxfEPTEsZOsT3PINqSuBLDx7Sv3TUrNA4HrQf7O3tCYKA3UT7JRTxAQMAzA6Fl9k9/WrQlmVhSiQAqKqqaRo6cSL4Zc8HfKE0TcMU3MPDQ0VRKKW5XA4Le8zOzrIsi7oaBlWgqQzvJz5LvV5PVVUAaDQaWCcGX9ho1gCNPv0ya4EPbzZq15YXlJdlRQel57dREX3JS779mz1VRn+rHEws6wd54/E4Z8V13e3t7Xw+H7iUIcdxOJnGNok3TV+lwFAvAMBZCRfNoijiPI55/6Zp4m2xbbufpjuYe3ax4HIW/+4LnsGN/UU8CrCzHoIbX3vIm7j0KYdEEBwbljQFgKOjI6wPgX4iVIlkWUbPBRpa0D2PipfjOEPfLspf9nzA9wuLZwCApmmo5W9vb+O7iTVn0WyDddbRZYZuMpxO+1zwl7nM4DsYJsKMUrq0tLS/v3/z5s0pDiw8kdMksCgQlkoMBvqPL9wmcdlLSpwVnK8HmzD1K0CMM+XFs1LMKfS1THyibNvuP1GdTgcGLH/xg3Qm+sql67r9/J1+19D4lr45sDhYmJx2x3E2NzdXVlamOKqpEDlpp6qqqqrjOh1MAoaeTXFIwYhXQn3iWSlmuvQXx/EqeVr0b2N8S98opmkGqKHSRxTFhYUFNNdFishpEolEAlsPBD4DWtTjlyEmJiYmJlLwPB9GNmFgWUTCpQeJnCaBbYXDRFySl0xxVMGGcbEDiImJiYmJFCH7bmB++MLCwlQHNQUip0kQQo6Pj8PcKYwrvkCbRJgkn5iYmJiYq0o/2SrY4ZTSUqm0sbEx3VGFJ3KahCRJS0tLBwcHgc+A3Yku0CSAGdixTSImJiYmZhBJksJU8cKIy/X19emOKjyR0yRUVd3d3Q0TcYnlSC/WJBAHasTExMTEDIF1ZgMfzvP8+vr60dHRFIc0FSKnSciynEqlRHGi/uu+xH03YmJiYmIiCJarDywdsMD8xfan9CVymoRhGLIsh2l5jHVsYkEeExMTExMp+mXigh0uCAK275nqoKZA5DQJURSr1Womkwl8hijUYosjLmNiYmJihsCi9YFVAdM0JUlqNpvTHVV4IqdJeJ63sLAQuH0XALiuG6b0x1SIIy5jYmJiYoYI2XeDZdnDw8Nbt25Nd1ThiZwmYdt2pVKZnZ0NfAae5y+2xiX2TIptEjExMTExgziOE2ahy7Ls2tras2fPpjuq8EROk8Au1VhXPxi2bXPcRfYTQd9KbJOIiYmJiRkEUwsDH26a5u7u7tzc3BSHNBUip0l0Op1OpxMm4hJ72cUmgZiYmJiYSGFZFsuygcWTJEmzs7P9LonRIXKaBKpsMzMzgc8QRuObIrEqExMTExMzCDq+w2SB6roeR1y+Htd1y+VyvV4PfIYo9N2I1YiYmJiYmCEIIZ7nhYm47PV6YVbab4g3rkkMNqudcOPBwUGhUICXOsGLgTIMwzCDfwx+oL8Rc2zQu9E/dlCrOB8Noz/CmJiYmJjvFL5SBje6rsvz/OkizFfq4UbP82ZnZzG30VcdmVzgTpcpRya6Hqia5Tm6LEvdbpdhGEVRLMuyLEuSJI7jut0ux3GKoui67jiOoigAoKoqz/OyLPd6PUrpO++8s76+/tZbb6ENp1AoqKqq63omk2EYptlsCoKQTqdbrZZt24VCwXGcTqejKIqiKI1Gw3XdYrFYr9cppeiR6jdNcV0XEyv6fiZd16d7B5A4CzQmJibmuwBWDyKEiKLYT9zDf1EQMAyDLUBRIKZSKUJIMplstVqe52WzWcdxVFWVZVkUxVarRSnN5XLYQDyVSjEM0263eZ5PpVIYRFgqler1uqIonudpmoblqrrdLiEkkUjYtm0YhiRJPM93u12WZROJhGEYtm2/ELiaUyqmp3wTpqik2A4c1elhzcglzNk8IwoCymxCCM/zjuOgOkYIwagTjuNs26aUYst27Lxl2/bjx493d3f7tymRSPA83263WZaVZRn1kkQiwbJsp9MRBEEURU3TPM9LJBKU0lqttrm5+fz5c9u2+yYKz/M4jmMYBjfiGCzLUlW11+tZlmUYxhRvBc/zgiDElomYmJiYKwzHcaIoiqKoKApO+yzLOo6DosfzvH59I8dxGIaZm5tbX19PJpOZTIZl2VarJYqiJEmqqnqel0wmPc/rdrvJZFIQhHa7jcoBSijUKiRJevvtt1OpFMoyrOmM0tNX4OJGhmFQ4KoG3TnmbVe4d51kgre3GrkP0zqR60G9Az/7LXm0yf0v/z2TTAgsSwCgXyF8sFR4v63G4EZJknBLLpcbbZyB/o4hisXi6MZcLtdoNLLZLBoe+uUm0UjQ/7tvq0Bl4uDgwDCMabX+irNAY2JiYq4wKJvz+TyaGdDs3ZcyQ+KmfxSWXiyXy7jOPD3ioVQqjW5Eoz4uofsbUXrCGIE7uJHlvF+/rxoOZ7nsn90BOXiHq1dHNZWzOC4c1uH9T+GnH8JigTiOw7IBB2jbNsMwrusG7sLlOI4gCOjIwC2+cRKoMwJAMplUFCWRSBweHrZarTfk74iJiYmJuRoQQiRJKpfLyWQSrd1De4f+6P9XFEX0fQS7Lrrsw9Tb7umeJJL/9CXpmcAw8Cc3ISEFO9MrTEGTsF2oteHnv4Vf/A56GijzruPxjks5NshXxRuEFptg40HPBcdxkyfdMgyTSqXm5+cZhqnVamGqWfTHEJslYmJiYq4kiqLMz88nk8kz6QQo1NDvEHipzLKsZVmB22UrEuN6vOvSjx4CA+B58O4NSId2c4TVJFwX6h34u9/Cf/hXMC0gBE5aXFrWODZg21OMkXQcJ/CN5jjuTGpEn2QyOTc3ZxiGZVkhfRyxGhETExNzJeF5fn5+Pp0OErSo67qiKIGlGyFE1/XAagQAMAwBz+hoGQD49R+AAjAM/Pk94AKO6AWhNAnbhUoD/v538He/BdMCACAAc3mnawTvno7ejTCximhRCNB9A+Npy+WyruuapgUeABIrEzExMTFXDI7jcrncYBTCmUilUrquB5YOlNJUKmVZFuYuBDhDR3UJJyVlt6eztgOfPgYCQD343jpkkgHO94LgmoTrQUeFn38I/+FfwXi5/vcoVNuMIjquR1kmyPfEWteBRwUAiqJgskaww9PpdDKZNAwj8BmQWI2IiYmJuWLggjOwVUBV1TAWBUKIqqpheoDN5DjL1GznhSbU0eCfPsdTw5/fAz6oRhDwOAyx/IeP4G9+9a0aAQAMA9kE2LbLhKgGGtjyg+i6znFcYHWEZdlkMlmr1cKMAWKbRExMTMzVghCiKEoymQw2txNCZFkO06qaUiqKYphV7knTEQTefrWlxCePgQIQgO/fgJQS5LRBNAnHhZMW/PQD+MVHoL0am0gpeB71iOh5lA0UcYm1JcJ05WZZ1rZtQRCCtTnBHBtZllVVDTaAmJiYmJgriSAIgWUTFn4I0yy6X78g8BlkkbEcSMpeR/t2xd7R4IMHAAQohT+5BUn5zKc9sybhunDchH/4GH76AfRG8iUJQMdgWGKyLH/msQAAAGpbYSIusS5HGL1PluWQHpbYIBETExNzxcBZnecDSjcAwKyNMFmgmLgRWL5QCiJrq8Zw6qdpw4cPADwgBP7sLohn/Ipn0yRsF+pt+Pvfwc8/9FEjkJmMa9qc6wa0SWB50TAODsdx0EUSrCkoJpFKkmSaZjDds18wNVYmYmJiYq4MDMOgcyGwhJIkybIsLIoY7AyKopimGVibcV3qgSSLXk8f/gqGBZ88eWGZ+N4NOFMFzDNoEq4HbRV+8gH83+/DODeNR2G/ymUUg2ECBpWIoug4TpgbLUkS1rYKdjgAyLIcWI0AgDDGq5iYmJiYaIJiJUxqYbvdTiQSgc+AEZdhYjbTSca2u5qZ9d3b1eCfPwdCgBD40dswedbEpJqE7cJhDf7+d/C3vxmrRgAAw8Bs3u1ogQMuwTAMjguVm6rrOlYBC2aToJSqqhoy6jNWI2JiYmKuGNjDAltpBDtDNpsNU0YZs0Adxwlsk6i1XEmSJN7TzLHazCePgVKgAN9bn9QyMdHtcD2otuDnv4WffwjdU+sseB5oBnAcE7jGJaZdhFH6RFHEohTBDseWoWHCLCA2S8TExMRcOVzXDVNiAABM08TOXsEkFCEkZLPJUpY1TZMhp52ho8K/fgkAQAH+9DYoE1hAXq9JuB4c1uGXn8BPfwPd1+lSDAMUCM8YXNC+G6hGhPFuYN+NYIkbeLhlWeE1iTCHx8TExMREDRTkYVznzEuCHY4L1DBr1FbX4znaM15jdPc8+OgRAAAD8N4tUF7Xm+M1moTtQKMLP/8t/P3vXq9GAABQSMme6cqUQrAvix3VwtgkMNMmsDKhqmqj0Qh8dSS2RsTExMRcMVC4WJYly2dPlASAl0UKwtgksGN4sKsDAGHAoVxacQezQH1RDfjoEQABD+Dd9df05jhNk3BcaPbgpx/Cv/8nsCcbue3Cwx1e4nVCAnpxML4hTIMTURSxx0mAYz3PM00TW8UHu3r/PLEyERMTE3PFsG37+PhYkqRgYY+apmFOQOABqKoaWI8BAEViv9k1W+pENahVA371BQAFBuBH9+GUUY/dYztwWIMf/xp+8ptJ1QjLgWYXEqKzfcw5bkDzPlYUDxPwqOv6YEvxycFYy5OTk8CekT7YhyzkSWJiYmJiIgWaJVqtVjAxgX03Aq9UKaXYzCHY4QBwUPV4TqjUqT7Z8F0PPn0C//gJfPA1tMcXa/S3SbgutHrw89/Bj38N2mRjdl1oq9DowtMDVhHdwGIUs0DDhCuiqnjW3A3P8xzH2draarVa4ZWA2CYRExMTcyUxDKPZbPI8n0qlztoCo9vtBu7+BS97geJKNZiImc2TatNp91jLhsWZiVqAdtQXqaFA4Yf3/ItW+WgSjgtHdfiHj+FvfgW6ObrfB9uFVheaPdB0SJVB1T2eCyhHLcvC0NbAZgm0akyu9HmeZ9t2r9erVCrhIySQWI2IiYmJuapomnZ8fGzbdiKRSCQSE0742LbDcZwwEZeCIIQJujxu0GyKcSi0VPCOYaEI4mSKzcd/BEqBMPDuDZ9y2sOahONAtQ0//QB+8fGkaoTlQKsHzR5oBngUGEIJw5o2pZRwLHAsGBbwHLAMUAqWAxwLLAOGBbjXccCjwHHAENAtAEpQ2+rHpOB9Zxim/wcWHsfYzP7Gfs0QlmUNw0B1BK0LeNP7f/dNDhgV0el0VFVtNpvhO4n3wavE+kRMTEzM1YNSqmma4ziSJBWLRUEQeJ7HIhMo5gfn/77o8TwPpZLjOJhY4CvCBjdi4wg8ISY2Ukq7qs3xIscS2wEKwLHAkG9FqmkBxwHLAMC3wre/N58mrkcEjvZs0lKBZWE2P1Ft7K4GH379ogX5uzeHG30NaxKWC7/6Cv72N6BO5tTwPOiqL6wRHgUA2DrmfvxvzqdPvIUiU2nSZpeuLRCWkIeb7kKJlLLM1hF1XG91ntENslVxr82StMw82fVkEZbLTL3DdOoka3zIMLTX6ymKwrKsqqqEkEQi4TiOruuJRAIAVFUVBEEQBNM0HcdJJBKU0l6vJwjC8fHx7u4upRR/Wtu2OY5jGMa2bUIIlqwwTdN1XU3Ter2e4zhhomFHidWImJiYmKsN1gvo9XrJZJLneUmSsGBUv3QV6gGoEAAAx3HYGHJ+ft7zPF3XBUHAbA7XdRVFwY2SJGG6ab84t2EYiUTC8zzdsLnU3czi9Z4JOxVndZ5JyuTJrpcQYanMnDRprU3X5wnPka833bkimckyO8fUtOj1eWLa5PmBW0jDl8+8ns4DAKXQ6ILrwrW5icpZGhb85gEwDMwVX6dJ7J/A1xuThlgCAAWwHDDMF2oEAGgm/ff/zBFCeY4SII5LCKEsA6bFAaEiTyklrscyDGUYsB0OgPIsdVyGAnAsFTni7f0Df/J/iWyv3W4DQCaTsSwLE29Ylm232yzLplIpVAn7WgXP87IsdzodURQLhQIqgKjNoQLYt1KgWocFRt5QXGRsk4iJiYm58mARwm63i6YIjGDom8zRzDC40XXdX//615ZlpdNpVVUdx0kmk/01sKIoGKiXyWQcx9E0TVEUnuebzSbDMNls1rTBm/mfvNn3DJCsEen5isC1OQAq8pQCcV3CMJQhYDkcAerRb+U+9QAADGui8lMAYNrwdB+2juD63CsxFsOaxNIMdDRwJw4sZRlw3Fc+bzsoPolh9eXot3+Yts9GfeDvHoF08t3mgx3qvogTRX1iiH5AQ7PZHNpFCBFFEeMuBy0NIYtNnQnUV87tcjExMTExFwXqE/CyMcfgH0MbLctqtVqaptVqNdxYr9dHT9iXa4Ohe41GgxBmuWwcaBmHvpCzg9Jz9A9fgfvKyAEM+4UrZEIqdRC44XpRwyc4qEFSPoMmYTvAsmfo8/FaOIba6jFhldd/dAyiKIbsCT4VQlakiImJiYm5YqCrPbC5mpfzLdVloTfFIXHsGSQ+AMzkoKsNt98a1iQSEjjuGXqT8xxMV2q7HgFqEe4sDU2HzuC6ENerjomJiYmJGCFLDVlaTRR4Qqe/VJ58TPUOCDw4p2sSmDNqTewHcFzguG+DJMJDiMvKC662HeYk6KOa0ogCcuEDiImJiYmJGn1XSAB4KUuoZTPFaQ0GJT7LwOTiShbBpSC/mjs6rEmoBhAGJi/lwDCgiJCUA3bZGIUQxu48ZhNrgc+AgbIXaJPoZwFd1ABiYmJiYiIINoIIvs6knunKvFeZymAIgMBBSjmb+EZHxFCRiGFNYi4PhgnOxLYThkBSgnLOp1RFMBwX5NIPXXUj8Bksy8LaHdMZ0NnBMN3YJhETExMTM4goipZlBV5n2lYvI+o2MzuVwaAakU+B8Pqm4N9SaUBKAfnVXI9hTWK/CillogqafVgWEhIU08MJpsHgWdCqHxMuGfgMkiTZtn2xJoE4cSMmJiYmZgjDMLDmRDAEKdvQeI62Qg6DEBB5yCShlAHhjMNZmgFVHw5pGBZ4pRzo5plzMTgW0gmYyUIqtJvDpURQFgiXDnwGy7IuXJDHro2YmJiYmCE4jgtjsXasblphgYY1eAscpBNQzIIsnllkNzsgCcNFp4aNGl0NRAGss9d75FhIykApkDZ0QlSdZgilbII63cBnCNPdJCYmJiYm5k3Qd3wHXmpyQso0NUq4M+RavAohIHCQVqCYGY6anJCUAoY97LgYWbtTADhDFuggHAtJBYrZUAGYngdO9xkjlgIeDwDhgmOnQhxxGRMTExMzCBkg2Blss+2CyNKAK21CQOAhk4SZ3KRFLUcxbSAwnOA5rEnk06CbYAatBsmzkJKhnIdU0ABMSj2p8K6rbgY8HsB1XZ7nL9YmEUdcxsTExMQMwbKs67qB15nM/8/eu8dKlpwFnl+cE+ed73sz76vureqq6q6226/GwKxlGLCR3Yy1IK00QLPWshL/jBdbYmW8MwKJP/gLVvyx0gq0KxbmwTCLvLOSZ2EwGBsMZjBuDHYDA27crq6qrte9de/Nd+Z5RsT+8dU9nZ33lRmRVSe7HD/Zpexz85z84pw4EV988T0Mu+QkibEpcS5GalR8aNbAlS9s/rAq2Dkel/cO5nPjPA41IXBgpSoZzUFNIzz8W8O7KC2AZVmPMzH2cbDIm7ZJaDQajWaSJElUclyaltcLXYvvzXsiWiNqJVitgivv8QkAsFKBMIIoedPBaU1irf6w/KgKFoWyD+sNKM0ZqAoAKSNu7WmRnVBrY9YrpCnWYSsK3FvRNgmNRqPRTOI4jspCNwnbFZ9npDzviVbuGyG7qZFzZx/KwXl+Egd9CDxQX05bJgQutKpzb3NYpkjH90XWl/9py1IxH2k0Go1Gs3CEEHEcqyTMdvyV4Zgb8/hbEgKODdUAVmvg2nPksjyNrVUYR+dpEr4LKZsjx+UZYDTHag1K/hxhpVyA4JHpXZL+3cn6nwWiVRmNRqPR5GDZcRWPyywZO7Zt8Fk9LjFSo+pDqyYZqXGcUQyUTue4nN4FoMYJbpnS4DYHEfAAYDBjaKjgVvlaFN1R+V1dd0Oj0Wg0ywYhRMVkTkzLECNm1mCG6p2EgEWhGkCzquRiOY0AAdMXnLZJ9EZg07mTXp0BNSDwoVmFsjeTXYUQIzr8K8ORzwZqmmaxdTdAR4FqNBqN5s0IIRhjKh6XgmejxKGiM8uXLQq1EqxUwVX2jZjEdYCx6aRT05rEdgt6o+n0VYpYJpR9WGtAMIPPBOMkaP4TFt2V/rk4jh3HKTwKtPA8mxqNRqNZHgghtm2r1N1gadgoZQlZO/ebtgVVH9Zq8nkjTmO/C4E7HeM5Pdu9vgdlfwEel1NQEwIXmrXza3NQKqK+UmYq13WTJDn/e48SwzA4n8H8pNFoNJpvG5IkUUl3ZPuNzpBYon3Gd7CmRi2A1doitxdyNlegP4L0zWU+p/0kqiXgHOpliBPgHJgAx4YsA8bBsSBlIAQYBlADMgaMgWNDxoBzoCYQAhkHzsBxHp5iU+ACGAeDADXBscGm0HGgMwDGwTYBCKQZcAGeA0kKnINlEtu2EyJ/A7Isw3QOxZYD1X4SGo1Go5mEUqqy8Z2MDxsujQEcC8ix2dOxgTGgJtTKcKEJ1AAuwLEgY8AFmAaY+cQ9MUcLcTTXW5Cx0+d6B9IMBIf+GHwXplbK05qE78A/+29gqwkEoOzDOIY0A98Fw4DBGKgJFR/6Y2AcSh5wDqMIHAs8B/ojAICKD1ECUQa+A5YBvTGYBlR8GIaQcii7kGRwaw96Q+ACogQMAo4FcQpCgEUBCMRxsvst649eui19r9HdUk/kGo1Go1kq0N1SWpmw3Uoz6P7QP6uOEzANsC2IUiDioe0hSsE0oFGGtTo4FgQuAIFhCBaFkgf9EQgBJQ8yBuMYXBtcC/ojIATKAYxjSFPwXTAN6I/BNKDqQz8ExqHkAucwih/O9QTgQnPa43Jak/Bs+Kfvgu+6BhmDwIMsgygFm4JpQpKCAAgcSDKI04chJVECpvGw6FfGIHCBMYgSoBQs86GKELiQZhCnD9Wo/ggYh2oAwxDGMaxWIWPQHYJrQ+DC7kH6b379717Z2rp7V95VAp9WUcoE6jHaLKHRaDSaKXCtK6dMCBY+vRn+iw9d39p5NoyhWYUUZ08HfAcGY2AMmjUAgCgFxwLDgDgBQh7aLZIMfAeEgCgB03y4jGc41zOIkom5Pp+4E3AcIARiXPnbkGTgHEv9OH0AM0nk3gw2Bd99+DmPRrUoBPnBI2+ON4p+TWTkdidO8Y+dMumAWT/K2eXZ9nPXdu7duzfDXT0ZRedYdXSOS41Go9Ecx7btNE2lbRKc88MHN9713BVrYv8/nz2rwRsHj0/ckz6Sxydum77hm+mdOHHb06dMsnTxBWEY3rp1q1yeOxtojmVZOgpUo9FoNMtGFEWWJe8FSCm9evWqisH+EbF0moTv+41GQyWEMkkSzCO2QKnmRdskNBqNRjOFbduMMfmq4ml6586dUqm0WKnUWTpNYjweG4bBGDujgLxWAAAgAElEQVT/q6dgWZaOwNRoNBrNspFlmalQjcK27UqlojI/PiKWTpNwXbfb7arsbuC2gt7d0Gg0Gs1SoWirxgJgvZ58rexHxNJpEoyx9fV1FY9Lznnhuxucc727odFoNJpJ0OIuvc6klO7v7z/zzDOLlUqdpdMksiy7f//+xsaG9BUopSoF4NUhhGBqrAJl0Gg0Gs2ykWWZSmihYRiXLl365je/uVip1Fk6TaJcLrdarXb7rGygZ4PpSBco0rzoKFCNRqPRHMdxHJUo0DiOb968ubOzs1ip1Fk6TaLf77fbbRWPEnSOLdxPosBf12g0Gs0SEscxpcfyOs2M67rb29vD4XCBIi2EpdMkHMcBgNXVVekrZFlW+ESukg9Vo9FoNE8kijWh0jTt9/uDwWCxUqmzdJpElmXNZlNldwMfUuH5JAr8dY1Go9EsJ5xz6QnCNM0wDBuNxmJFUmfpNAlCyJ07d1ZWVqSvgBW9i53LVTJraTQajeaJRAihElqYZVmr1bp///5ipVJn6SY8x3G2t7dV7pRiAfiFoKNANRqNRjOFejGH69evP/vsswsUaSEsnSYxGo0ODg6azab0FdA5doEiSaCjQDUajUYzBXpcSq8zbdu+evXqjRs3FiuVOkunSZRKJcdxVNJdp2lqmmaxE7mOAtVoNBrNFBhaKH16FEUHBwee553/1cfL0mkSo9HINM3Dw0PpK1BK9USu0Wg0mqVCCJFlmYrF2nVdz/NUqkk8IpZOkzBNs9PpbG1tSV+Bc164x6Wuu6HRaDSaSfK4QumFLmPMdd07d+4sVK4FsIyahKLHJedcZSNqIWijiEaj0WimoJQqelzevXv34sWLCxRpITxyTWLeW5Ykya1bt+r1Ov5nPh8bhnF8bs6Vu0ktz7IslXSkC0HbJDQajUYziRBiqpjD5BQ2eXDqr5N/euqpp+a1STyGyUg+beeJCAGEPHRPTZJECGFZlhACvSAty4rjGI68ThhjlFLDMJIkIYTYto0awNvf/vYrV65cvnx5NBoxxsrlcpZlYRh6nmdZVrfbpZQGQZAkSRzHQRAQQgaDgW3bruuGYZgkycrKyng8BgBCCG52UEpxywM1Es457lc9oigPbZPQaDSabx8Mw0BbOE7bmNYIC1PnlZgMwzBNE7MvTk58nPM4jh3HIYRg3XCcDbMsc10XAEajkWVZGEHa7XZrtdpoNKKUmqaJF8nXzzjhJkmCF8EJ17IsnPLwlNE4rZTdxc5Qi1w6cwGdAdzZiz063l73DIOgJQcA8G4yxvBWpmlKCDFNM7/XhBDGGCEkTdNXXnnl5ZdfrlQqlmV1Oh3btkulUr/fz7KsUqkAQK/X833f87xutwsA5XI5SZLRaFQul23bvn///q1bt27evJkkCefccRwhRBzHlmVRSvM7i6fEcYz/KlqcpqCUOo6j81NpNBrNE4xhGJZlOY7jeZ5t25RSy7IYY5xzTGuUJAkqGbhq3dzcfPrpp9M0rVQqQRDs7+8bhlGv18MwHAwGtVrNtu39/X3HcWq1Wq/Xi+O4Xq8TQg4ODkqlUrlc9n3//e9/f7lcxtkT18Y4e5qmiTWnMOwgP4gVJHDCHY7ZnQODCfvaDvGdhd2HhdkkuID+CH7nz+HvXxP/w4d9y7apSQDANM38O7lVZ/LgG6JQiv/W6/Xnn38ekzttb2+f+HOo4l24cOH4wVarlWsJ8OaNhvwzfkAlbjAYDIfDg4ODMAxV4nM0Go1G8+2DZVnlI9AYgPN6PsvAhH0aP1iWdeHChY2NDfzmlStX4Ngk9fTTT8Ox2eratWv42bZtXBVPSYIfJo+feNDO+Jf+JmLAU2a+8ynwFqRMLEaTEAJ6A/jcX8Fv/xHUyybwMTUlBcwtE2cXTDvRMpMf9DwPzR7Hvzx50LZtALBtu1ar1Wq1O3fuDAYD1D/U0bsbGo1G86Ri2/b6+joawqfMz2c4PaBtIF9LnztJTX1ASwPOXHJkXHDO/r+/MHojME1412WwTljXz80CNAnOYRzDf/4KfPqL0BnC5fUsYXbGODVlbPuohaF+JysPD8MwtyadCyGEUlqr1Qgh9+/fb7fbSZLI/XR+QdQitTKh0Wg0Tx6e521tbVUqlbkGeSEEpmDGXQm5n3ZdN45jeWVCABeO4PxLf2OaBggOz+5ASTnTlaomIQTEKfzOn8Ov/ifIGADA3QOr5o+oKSkaup9kWXbiDsgsOI4zuxoxSbVaJYQMh0PF0A8hhK67odFoNE8klNLNzc1qtSpxbqfTKZfL0moEzlDohilHJTCzdDAIawDwmT/Da8J7n5G+3kOUXAI5h4Me/Mc/gd/6/EM1wjBgYyXrjeUVlDiOFR0VwzBEM4PEuZVK5eLFiyrPCdG+lhqNRvPkYZpmrVZzXVdutdloNEajkfSvCyHK5bJKyOFBN3NcN3Af1qP407+Bz74Ef/0qjCLpSwKo2CS4gHEMv/cV+K3PQ3d4dJDDcEwsi0jvbmC4prRBAgBc18UgEbnTfd8vlUpJkqh4X+pkEhqNRvPkYRhGqVSybVvO6hyGIcZQyM1QhJAoUprzV+s0jiOAh5sj7T589itACHAO77oMjnX22aciqUlwAZ0+/OFfwb/7HAzGbxw3CJgmITympi93ZcYYhrJIKxOY+kPa18G27XK5rFL4AwDyAGKVi2g0Go1meSCEOI4TBIH0ShWN5dJTQx4eInc6ALT7mWWRUfSG/GkGf/w1EBwMA95xSVKZkNEkGIfhGH7ny/D//umb1AgAEACezTjxOReGIdNaTOihYpMAgDRNHceRi8KglGKSK8xtJYfe3dBoNJonD9/3VSZywzAwd5HcRXDjHrM0yUFNkjGz4rP++I1Jtj+CL34diAGcw9svQjD/9v7cmoQQMA7hsy/Bv/scDMMTvnDQtxxzaBiSUaA4B2M2LrkrYLitdDAnIQSzasqdjmiPS41Go3nywGyH0qePx2PXdVWWmngF6dM92yAQDcLpK/TH8Ht/AUKAYcB7n577svPN1lxAdwif/Qv49BdPViMIwFotHUYW48KUskmkaYoZwSTORaIowrRinHO5K8RxjBkppN0dsG6sViY0Go3miYFS6rquSgxnuVwOw1D6CuhxiSmb5QToj5lh+q7Nw3hagDSDP/tbMAiAgGvb84WGzjFhY8Dnf/4y/PpnYXyKz4cQsN+3Ak8+H4PjOJjvU3oaxjTVKpqE67qKNgmtRmg0Gs0TBtaKUrlCv99XMWkQQjBbkvQVaiUzicecl078a7v/MDRUALz7yhxJq2YViHNo9+H3/xL+7edOVSMAgBhQ9tg4YnIGCTiKAlV5YOhxKW1OEEKgc6yOv9BoNBpNDiFkNBrlpaolTi+VSlg8Uu4KmNtK7lykM2C+R89e537xZWACCIG378yaTnum2VoI6B+5WPbPDIXlHAAEIVaacYvK3Cys9aWiCmCZLkqpXBgn5uqWtmfkF9FmCY1Go3mSwF0J6SwDmOsaUxdKKxOMMQwpkJtfqiUzSYlNRXT6zkF3AH/0V2AAcAbPPQWzFPo6X5MQArpD+NxX4T98AXrnZdQwCAxC6tKBReVdQgghKjkuAUA6cAMAGGNZlinG7GqPS41Go3nyGI1GWZbJuSng1KZYJjpNU6wyKnd6nAiTpP3xOU4Qowj+8KsgBJgmvPsynDsbn6NJcA5RCr//l/B/z6BGIKuVNOaSySQAAI0BKmpElmVpmtq2LZdSIgzDbrc7WZxNAu1xqdFoNE8YWEE6iiLPkywH4XleFEUqs4Pv+2maSodvJCnnxCl7bBCeM8mOY/jS3z4MDT23NsdZmoQQEKXwmS/B//4ZmHGjIGXwym0rsMZCOHI3yrKsvOy6zPkAnucZhiGXTxSdJPr9vuLuhor8Go1Go1lO4jg+PDwMgkCihpYQYjgcSmshAEAIGQwGKlGgqzV6/U48imZyf+gM4D8d1eb4jqfhjDn91NmOc9jvwn/8E/jNP5xVjcgY9EdgU3Zjz5Re0CdJQilVWc2Px2NMMSl37v7+vmItUAAghCjqIhqNRqNZQpIk6fV6EotV9LhU2ToXQmAxB+krvHaPEcO+sy/imcX/0svw2Zfga6+eFWxxsk2CcxiG8Htfgd/+I2gPZvoxxqE/hk4fHGo4tpUxsKXW5JZloWurtC6CVg2J3Y00TW/fvn1wcKCjNjQajUZzIrgDbllWqVSaK8ZQCBGGocreNwYEqKy0VyrG4SAbx4J3yVodrBnEbw/gD/4SDAJcwDufAvckW8wJlxECOgP4/F/Bv//8OZEaOYxDbwjtAQxCaHEjikPbkqyejmoERnLKXQFzkM2uMAohsiwLw3Bvb29/f1+lcNck2klCo9FonkgGgwHnPMuyIAhm363AXNeEEJUoUCGESj6JwVh4FoxjMo6BC9hYmSlpRJzAF/4aGAeDwDufAvvY5DwtEFojfvcvzg/4zMky6I+hPYBhCJxD2csY2EkqCAHDIKYBXAAIIAQIgTQTeDBjwjAIZp3ImDAIMQzIMsE5YBQohj8QQjDkJneBxBk6P5h/DY4iJlDvo5Riksp8Rs8/4wd8JFmWjUajfr9/eHg4Go0WsiWB8miPS41Go3kiQY8HxlgQBPV63XEcSimmMDhtxoEj/7k0TRlj5IjJKSyf4/KDk7MeTk+2bY/DmFIbtZF89sznViGACzDePOEyBsQAg4BjE8syHUuMItIZACHQqs1UtWswhj99GQwDhIC37UDwZvXpmCYB8IW/hn/9+2ftiLzphgIMQmgPoD8G3BN45Y790j8kt/eirZY1HIu9drrVNH2Pfut2UvLIWoMe9Hh/lF1oUWqa1+/Eq3WjUbbu7mcZ4xdaNIrJ3TtZJf06AIRhaNs2pRSdXX3f55yHYeh5HiFkPB6bpum6bpqmSZKUSiXGGNqODg4OHjx4gLobhvCi2oH2BixcHkVRmqZxHOOOl2LY55vuiRCMMc557q4x2SEme8ZkV5s8ePY3T+ypk6ec+4sn/txCfvrcU47vHJ12nUd3o6Z+fUlu1Gk/PflMi7pRc13njJumcqOW4RktYWdezrf+xJ8u9kblv6tYHnKSMAyTJOl2u6VSyXVdx3Fc1xVCCCHQ6pC73ucxiXfv3t3a2orjOEkSjDFEG7xpmp7njcdjxpjjOJxzNMzbth3HsRACDe1pmlFvPVjfpha7cS9p1Um1bN19kHHON5tWGMPuQbq5agQ+vX439RxYb1jtPu8Os+2WSS3z+u2k5JO/uy6GoQcAGYNOH7iAi62Z2tsbwe/+ORCAjZXzNInX7sJXX4FkZl8MxiBOYRRB/rA4h//jdy0QYFNGTRgnDgjwHR6ldsbBtzkhRpS4BuGOxUaxwwUpuYxxM8ksy+SezcKbfwC3/7dGzR+NRnEcVyoVABgMBrgv1e12syxbWVlJkmQ0Gvm+7zhOp9MRQqysrGABz0ajAQBZlpGjymmcc8x2hVoFPrw8SUje+RYFaiq4H4YdevJ1Ov4OTL1LkwdPHAXOPmXq4OQp2KEf20+fK88Zp8x7o2DC0fUtd6OmTnmcN2rqm/M+1gJv1OP56dNulO7MM96TpbpRhBBKqaJT/yS4Ou12uzitmKZpmiYWW8AlK5a2JhPr2K985Sv9fn99fT2O436/j1rIwcEBALRarcFgMB6P6/W6YRidTodSWq/XO51OHMfNZpMTZ+D9MFv/J4Taw8jmnJQ9zjiNM2JTbpliFNkCIHB5nFoZI57NDELCxCGEuzYfxzZjhE+oVhkDxiBMwJvNH4Fx+MYtePUObK7A5C2c1hZ7I/j5fw1ffQXS2epOCAF3HsDBABYVqWAQCMZ/OHr5J3i8J3cF0zS3trakU4BpNBqN5knFNE3LshaoTMxFHMc3b94cjUZTM++MGAbdeP5/2Sv9q4xUFyVS4MGldXBn9kusBvC//gt4z1WgE8adab+P7gA8a1Y1AgAyBqYJIHNPTsY0hCCG4PJ7DbijodUIjUaj0UzBOU/TVKXUswpomZD+acuphuMYYKGzm4C5xFmpwDiGKZ/RaU3CMEDATP4XiEVBwPRFVWAcstEtw16VvoI4YmEyaTQajeaJQAiBJRGyLHv80wQhBJ325E5Poo4wHBNmi4aYDUpBiDmsAcMQsgymqmVPqwAVH+IUZs9ZwTkYBLLFBE4+vKRTexcbXZc+nzGG+1ILlEmj0Wg0TwxYB+vxKxOGYaAzvuTp1AusOCYbi5KHEEgzMI05rBxpBmVvOhB0WpPY675p8+NcBIBjgy+fu3MawzCizt+a/iXpK2Buq4UJpNFoNJonDtzmeMzKRJqmKgtd07R7keuI+4uSh5pQmbNMVqMK7eG0C8S0JrHRgDgGc+bdCtOAkgurlVmrmJ9LxohXf44nB9JXSNNUJXGHRqPRaJ54Jrc5HtuPYjCntO6SRJ1qwFKoL0QYi0LgQqMyhz8DALx2D9Yb00rCMZtEezpO9FxsC6olWK1AsAjLhEVFPHgNmGRNcDiySWg/CY1Go9GcDW5zPDYHTCwsJX267a/0R2CAqupDACwTKj6sNWaN/8y5ugXtwXkel5USpPz8YuRT2BSqJWiUwbdB0T+BcTAIMbwt6StgGgklITQajUbzbQBaJh7bNsdUHsx5YcnIdSwDxopiUAoVH5o1CObfTOgNwTIhebMyM60cCQEmzJGZKse2oFYGAGj3YSRvUAACggaXebQrf4Uj5IXQaDQazbcNWEQDAB5Dngklj0vTIXyUQVn61wkBakLJg2ZdchvBNME0p6t1TNskhiFQOt+uyUP5csuEms8EARK2/5q4a9JXMAwDk1fKC6HRaDSabxsem2VCMbSQs3icODZ0pAWgJlQCWG/IeyPYFIbhdMDmtCZxoQm98RxRoFM4FtTK0KyCL6tMMA5+8318fEvyfIA4jm3b1jYJjUaj0czIpDLx6H7FcRwVZYWxeKWURWRT7nTLhJIHa3X5CRoA9trQqk2XI5/WJF7fg7Ka46RNoRpAoyIpKzUh7n7DcCXvFAB4nqejQDUajUYzL7jN8egcMOM4VtlAsd3G4dC0xf68JxIAi0IlgFZtjsTYJ7KzBg86kJ5tk6iXIUrBVguitC2olWC1At78DpgZJ6ZTUfn1NE0n68FoNBqNRjMLQgjUJB7RNodlWVyhSFUSHga+KWDucqbUhLIHrRoErmpUxO19KPvTJTKmVYZxBDadVjcksC2olkEAtAcwmqeGhmlwIBaP7kn/NO5C6d0NjUaj0UiASatg0Q6YqKaoLHRtr5HGMSPB7KfkLpat2mJySLZqkGTn7W4IAAHTbpkSkInQUM+ZQwkSQLLxbTO4Iv3TnHPtcanRaDQaOYQQuM2xWMsEKiUqdTc4S7jh2+Jw1l88yhux3gB/zkxRp8rAgWXTAZ7TmkStBFk2HSoqjTOxzTEjnAm38V1sfEP6RznnRVWM1Wg0Gs0TQL7NsVifCcuyVC7IeebTYUyaM36fUih50KqD7yysfmhnCNXyuXU32uC504YLFTAD5uwOmKZphPt/rlILVPFRaTQajUYDAJhOO01TFeeGSdDjUvp003S6oW2L9ixfxpoazdrcWSzPZmMF2n1gb74f05rE5ioMw/mqlZ+LY0G9BCvogHnelxkHt/52wWXjUI/SkWqbhEaj0WgUYUcs5GoYBSo9PWXJsFEiGZTO/aZFoezDWh0CT9XFcor7h9CoTh+cVo4edCBwFlslHOAomgNmcMCkhkjjISFEWplRdI7VaDQajSYnd7xTX6MmSWLOW41iAsutDUaZUTorKIIQsEwo+dCqLqyy5iTrDegPpw9OaxKY3bLsQcaBc+AcKAUugPOHtb+EAMbByg+aIDhwAQBAzelTCAHDeHiK74BtgWkCHcAoBsYe+pRyBkyATYFx4AIIAYO3DavKk5kMOMdBNUIlt/kjJY8rwa75VtyFQfknPZDfcq2YasJbTn44En6yIW+5Vky9oW85+eGoCfmDeIs2AcV+AppgGAa+CItNBIBJq/CzojKhokYAQBIeVizLJBEzwDKBvXn2NMjD/1UCuNAE1wYuwCQAAFwAF2+euHGOBjCPTdyGAeRorrcpcAGMg2mAEMAF9IZA4OGRnGlNol6Gf/puWKlCxqBaApbBIALXBt+B7hCEgHoZwhjCBEoeUBN6IzAI1EvQG0OaQjUAIWAQgmNB4EJ3BIxDvQxJAuMYPAcEwD/cgsEIHAtGERAAz4WMQZICNcG2YDjOOrc3/+Rr8h6XQggV59hHBCHEcRzDMBzHoZSi4SSOY/w3SZLlnwkMw6CUUkqxCbZtY0o4xlgYhmgAXP4mmKZpmqbruvgvumdzzsMwzLJs+ZtACDFNk1KKTbAsC4c5zvl4PMYnUrSM54BNME3T8zxsAgBgE0ajEQDEcbzkTwEATNM0DCMIAkopTg+cc+xIABBF0fJbRgkhlFJ8Cgi6GUZRBG+RJgDAVBMIIYwxFD4MwwV2JMYYTisqyoSi0m/ZpWbQ/siH14cRGBOzp0XBpjCMwCCwUoELTTAM8BxwLeiNAADqZRiGEKdQ9sEg0B+BaUItgN4Y0gxqATAOg/DhXN8bAefQKMM4hjB+ONf3x0AI1EsAABfXp5NOTWsSFoUPfSf80/dAFINjAyEQJ0AIuBZkDNIMfBc4QBSDaYBFIU2BCQhcYBzCGBwLDAPiFECA6zw8xbNBAEQJGARsC/pjGEewWoU0g/YASi5YFgzGIAQ0ynDQjn/91776zc3Ne/ckU0pQShe1p7UQcNyvVqu1Wq1SqVBKhRDY4+M4xml4MBj0er3xeLycry7qEJVKpVKpVKtV27aFEDgBJEnCOY+iaDAYdLvd0Wi0VDc/BwfNcrlcLper1arjOIQQ27bhaN6Koqjf7/f7/eFwuJw5UgkhhmGUSqVqtYpPARVTIQRqD9iEXq+HTVjOyXiqCaZp4lPAe55lWb/fb7fbw+FwgW5ui8UwDN/3y+VyrVZzXdeyLNTnsiwzDCPLsuFw2O12e70eLhWKlvdkPM/zfb9er5dKJVzbAADn3DCMJElGoxH2pSiKlvONBgDXdX3fr9VqQRA4joNPAVeSSZKMx+Ner9fv96MoWtQbrb7NkWUZDv5yryeB5No2+8QPfvOpy8+0+1DywTahPwYB0ChDlMBg/LD0VT7hZhlkDAIPuIBxBBYF04Q0BS7Ad4BxiBJwbDAIRDjX25AySDMIHOACouSEud6cdrCEZcwF+Zu/+Zs/+ZM/Kd19DcPY3t52nEewQTQ/hJBqtdpqtRqNBi7op76AhrgkSQaDwe3bt8fjcZIkhYh6BtVqtV6vr62t5SPOJNiELMsGg8Hdu3eHwyGuaZYKnL02Nzcty8Kp6zhpmoZhuLe31+l0xmPVur0Lx3Xdcrm8s7PjOA4qc8fHsjRN4zg+PDw8ODgYDAaFyHkGlmVVKpWLFy86joM60PEmMMbiOO50Og8ePOj1eoXIeQamaZZKpaeeespxHM87OUIf8xq12218EI9ZwnMhhLiue/XqVdd1g+DkHEeYlefw8LDb7e7uyldmfnQ4jnPp0qVKpRIEwYkdCUtudjqdTqdz9+7dBf40GtKOj4SzwBj75je/qTK8fP/3f//nP/95lQCQR8FySQMA/X5/d3dXxa5g23aWZctQxAtNEc1ms16vn6bZoJC2bTcaDdu279692+l04lihLvtCwXGz1Wqtrq6e3QRKab1et237/v37h4eHaONdBnAF2Ww2W63WaUM/Yh1h2/b+/v5weMytqCAMw3Bdt9ForK+vl0oP3bZP7N55EyilhmEs1UyMnXxzc7NSqUxuzE9hmqbv+7hlYJpmuy3pL/UooJTWarWtra1qtXrG8IK2omaziRua+/v7y7NgMwyjXC5vb283Go2zm2AYRrPZ9H2fELK3t7dUxpVSqXThwoVms2kYBpzSkfBPjUYD9z7u3bu3KMuESgnyKIrkVBDEdd3Lly8fHBysr69LX+RRsHSahOu6tm1Xq9UHDx7IXQHrbixWKjmCIMA5eBYvG0JIuVxeX18Pw3B57Lq2ba+urqI1YpbvB0GwtraG6VyWZI+AEFKv19fX12c0U3me12w2syxLkmRJ7EOEkEajsbW15bozZbt1HGd1dZVzniRJFEVLMo15nre1tYWa0LlvKKodlFLcLFiS18H3/e3t7UqlMssIgwsJIUQcx4PBYEma4DjOzs5OvV6fpQm4kLhw4UKWZe12e0m2OWzb3t7ennFcxYXEzs5OmqYPHjxYSBNwJ0tum8M0Tc659O5GkiQHBwdLMi5Ncmy7o2iSJKlWq/1+X/oKS1J3Aw25jUZjLmfdSqWyvb29JJar3KYylzylUmlzc/Ps1f9jwzCMSqUyuxqBeJ63trbm+/6jE2x2CCGlUmltbc3zvNl7teM4KysrpVKp8BcBCYJgZ2enXC7PLo9t25VKpV6vK7q7LwrUhGZUIxDTNHEQUFmGLhDbtjc2NqrVKq7XZwHtKysrK0vyRlNKW61WrVabvVfgdLCyslIulxcoSV6CfC6dQBwh96Poqr/YhiyEpdMk0AxVr9dVLoI7ZIsSSQIc/ZvN5rwjCPqjraysLIMy4fv++vr6jOvgnNw1ZBlcVRzH2djYmHcQzB/fvG1/FNi2LSeJ7/urq6vL0ATTNBuNhoRmZts2ejU+CqnmAnt1vrU0O5ZlLck0jL26XC7PrkYguKI4zbvoMYMulvMOj6ZplstlDHdaoDAStTlyd3u5X0zTtNFoSBvsHx1Lp0lQSre3t+/fvy99hSzLLMsqdimGPk1yI6DjONVqtXBDIkYKyGkDQoh8L7xY0MNg3qETjpqwDAt6IUQQBHKL2kqlMpcZ4BFBCPF9X242LZVKy/AgCCGe5wVBICFJEATr6+vLYFkJgqBWq0m8Dq7rrq+vF25ZwXiruQwSObZtb25uLnaFNlmCfMZTFIs5EEJu3Lhx7do1udMfHUunSYRhuL+/32q1pK9g23bhIfWu69ZqNbkXD4fdRqOxcNjdQeAAACAASURBVKnmwrIs6RUtIcSyrLNduh4DlFLp5SCOWSsrKxLD7gJBrzeJpTBiWRYmPFisVHOBTh6VSkXudNM0gyAofEGMIdDSEwBqtIsVaV6CIJC2iuPrUPhmGW54yZ2LexyPQrHGbY4ZndviOFZZ6FJKr169ev36dbnTHx1Lp0mUy2Xf91U8SjBgd4EiSYArGOnTfd9H3+kFijQvQgjP86SHTjQkFt4ETLogd7pt2yqnLwqMwpA71zTNZdhjylN3SICeLoU/BXyj5SYA3FYo3HmLMaYyKOHSqNgmCCHK5bL08F4ulx9RTB8W+polr53jOCr25jiO9/b2qtVjdS+KZuk0CfTT7na70lfATG0LFGlecNxUyYPGOS/c3c/zPMuypEdwIUThKxjXdT3PU2mCyukLwXEcud2ZySsUu6DH3FOKyn2x+lCeFFXlIip6uTqoCans0MdxbNt2gREouGWskr84TVPXdR/RU8gtE2dcXwiRJIlKJm/XdSuVyjIsD6ZYOk2CUtrv9zc3N6WvgO6WxSoTmG1N+vQ8D+YCRZoXxayuhmFwzgv3G1VRZTCHf7FNYIxh2Jjc6ejsUuxSEi1DKuswzHFeoErHOVd5CnCUWrvYN1qxG6DwBbpK5CVypAclfAqPaBrGpPVonDhNQnwfVZQhzKOq4kf4iCg+QOA429vbKr6py1B3I45jxf7qeV6B3h6Ys1Jl6BFCuK5bbLLLLMtULENCCMdxis0Shsn7lIoHWlaxZSwIIZxzlRmIUlpshhVCSJqmKm80aqXFulGnaaqyu4HOT8UmicGnoDK2O47zSJMxnJtnAvOpq3hcPnjw4MKFC0pSPgKWzibBGLt582atVpO+AmazKXbo9H1fRQ/ASgrFGqWxupXKFcIwLNYK5ziOips0AERRVKyjHIaPS0+iQogwDIvtSLgWV+lL6KS2QJHmBfcrVXRKXEoWaFbBrQGVzLMY8VigWQU3aBT1gMfQlzBX+olzEA7sivdwZ2dnscm/F8LS2SQ8z9vY2FApGaDoHKsOVmVU6a9Y9KtA9V8IMR6PVWYgdFYvNohmNBqprGBw5CrWJhGGoWLhQfXBVxHcGFYZPbEJKrvLijDGkiRReaMxhX+Byxsss6ei2aPnb4FmFXW12DCMxxDZh8YnfGen+gwhRNHjMsuy1157Tdskzmc0Go3HYxUrnOM4xZrgsLuoyFB4eWtcwai8cjj4FrvHpBgEhAVCi/W49DwvyzKVDZooilR0EXWwUpfKFcIwLNYmkZc+l6bw5Q36B6jsEGEVgsLNKipWRvRjeDyeT6c5YMZxrOL36jjO1tbWEpaFWzpNIgiCJElUTMqMMdyVXKBUcyGEUEyyifIX69yEirOKxyUhpFh3RZyDFR3lCm8C+q7KnY5724UHHyquZXEZWqzTKBzVPZcDfU6LbQI6A0pfgVKKNccXKNVc4NaAyhXQMPZ4ngLe8OPbHOhNL33ZKIoWWCR9gSydJhGGYb1eV6xjW2zoNs5eKoZEdHcvsLugJVnRXREd5RYr2Lwo+vyje9QC5ZkXfBAqgaxQdPJ4QghGoEhfgR+xQKnmghCSJImKTolqRIFbA/jrKosT1AiLdQOHoyWK3BWwCY9zv/K0dNrS76Nt21EUbW9vL0K6RbJ0mgQA7O7uqkSB4gKo2ChQx3EUwxaiKCo8Zkxx1FCsn6uOuu+t4u64OqhDqNgkFANYFoLiJIoW6WJXw4qbfVj+scA3Ghcnih4zijE4iuDiRDHwAVNKLFawMzhumUC7jsoKrdVqLWGOy6XzuMQKsPfu3ZO+QpqmxQ6dQojRaKTSX3FTs0D1fyEel77vF+6uqGLbJ4QEQVBsIGuSJIo+/57nFVtYHJfjKgt63/ejKCrQJqHurui6Lm7SL1CquUB3RRX/M1TmirUyhmHouq70G43j6mN+oyejfy3LwjBU6fcxy7Lr169fvXp1cQIuhqWzSQyHw9dff10lw2PhbtLzRoEefzHQJlbsahjdFaVvI+cck+ItVqq5wKcg3QRUp4oNZMUZSGUSLbwJGMiqMokOh8PCc1wqLujDMFTxs1PHMAzFQKQ0TXF3YIFSzYvi4oQxVlREce6AqRjWZ9v21atXVVbaj4ils0l4nlculz3PG4/HcldAH2N8aTE5HWqF+CbjnjEexL/C0bIJ/RzzU3Iz1GmnwFFm7qnr4KWq1SpOA/g13OjFlVkeXD55kdwKjVsz7XY7zzI51YTJsyYP4u9OSjvjKflBmDC+pWlaKpV838+vhlmS8Puo6GDb89/FBuLV0CaROzyedsOn7u3xG36itGc/o/yUMAx933ddF62yU9/HgzjJoVSoc5imiZM3pTQMwzyn3lw/ffyGT97b2Z9RFEVBEKBijS5v+T2cvLH4/fwZYRNwU0AcgT1z3s6s/oyiKPI8D0vJ5C9C3oRJafFxiKPMcnmPopTevHkzb8LsnfnEt16iR6GZE2uhYRPyEIDJ/p834fgzchwHmwBHez3zdmbFtz5NU1QmHMc5Tdp8tMkPTvYoTISQ6+WzSyvRo04bmTnnQRBgDvuzX+H8GU0OXIwxzJaNQ+vCB5yz33pc34qjGFG5FU6apru7u4XnDj7O0gkUx7Hv+yoZVAghg8FgNBrls3U+keSPHL36KaX5gJsfzHshnoLJWHLfCxzNzz7Fdd1ms/n888+vrKxYljUcDk3TxEZlWYavwXA4tG3b8zysMxIEAWMMUznZtn1wcDAajb74xS/mvwJHE0nuNjX505MvXt5qlHZSRzlR2hNPQZGeeuqpZ555xjCM8Xhsmiaqd5xz3/c55xjb7TjOaDSCo6CbJEkcxzFNs9frcc6/8IUv5G/RifcWZ5cpafGGn93q0xo4ecrm5ubm5ubzzz8vjiLRbdtGDRVTiGKUkGmao9EInxH6RaMFdTgc3rhx46WXXsIqMJP6X/7Tkz1q8qfnveGnPaO1tbW1tbXv/d7vzbIME6dSSrFv59KiyRrXOp7njUajyWd0//79l19+GR/HaZ35eI+aUdpJRXnyOpOnrKysNJvND37wg1EUYZpF7FGUUuxRjDGUFh1r8h6FVrEkSbrd7quvvnrjxg3GmERnVn9G5XK50Wh86EMfQmnxhuPe2aS02KPyZzTZo8IwPDg4uH79epIkcp15rmd0vIGu6/q+/33f931opfN9nzGGWzaTPSqOY3xGhJDJZ8SPrGLf+MY38CZIdOazT8nf+tNGZiwL/v73vx/rAeXSYjGO4z0K33p8RvjW4xe+/vWv93o9uc6s3qPOrc1xNtgcrUmcj2VZDx48qNVq0jaJLMv6/T5+zlU/NFHkn/P1DSqJU988forx5rDS076JH3DSXVtbazabhJBmszkpHn4tL5u+srJy/K9BEHzpS18yTfPw8DCXdpafnpR26uDZpxz/67Vr1zY3N7e3t/FqeLvgSMWGo9XY1Il4EADW19dfffVV3/fv3r27EGnPfUbHb1Sz2VxbW9ve3sZXfVLafKkxdTBfEwNArtu12+0T+8kZP72oZ1SpVNbX11utFiYDmLrhU1c48RmhrtbtdvMtv7k6s/ozsiyr2WzW63Uc3I9Lmx88rUft7e0RQvr9fp72e97OPPmMJN56xlij0fA8b2tr68SnMNX/j19tMBh8/vOfH4/Hg8FArjMrPiPHcXASunz58hn9//gVjKMgZMbYSy+9lCRJp9N5FAPOuc8I3S0ty8LlzWn9Hw8eH6OQl19+Ocuybrcr15kX8oy4wmZlkiS+77fb7alppXCWTpMAgK2tLcV9oHygPP4h/zx55NxT2Em7vKedQintdruoRhw/68SDU381TXNlZWVyApOT9nirTztl6qBhGHt7e5ubm8eVX/PI/zz/MNmiyb9euHDhwYMHeRMUpZ2xCZNHHjx40Gw20VfDOLa/S05Ks2O+2bt+Y2NjNBpNPv2F96izG9jtdsvlMnrvHr/hp/Wl/JuGYTQajTiOJ/f45+rMc0l74kFc7wZBcJq0+fHTehQWlZ20U87VmSc/yz2jJEmGw2G9XicT8RcnPoUTm0AIsSzL9/1erzdXExbYoxhj7Xa70WhMSnjiSwHHyO2drVZrb29v3p9e1DNijB0eHjYajXxQOneAnXocWZZtbm7evn17LnnkpJ19HpkL0zTv3r177do1xessnKXzuEySZHd3d319vWhB5LFtu1arqaQhi+P4wYMHKo7WihBCFOuocc5v3bqlUj9FnZ2dnU6no3KFO3fuVCqV4wPuY2NtbW0wGKgsYnZ3d0ulUoHm0Gq1yhhT8flvt9u4j7ZAqebCdd0gCHAXQ47RaJRlWalUWqBUc2EYxurqKu7TyZGm6eHh4ZQN9XFCCNnY2MD1ldwVGGP37t3b2NhYrGCPE9M0r1y58q1vfatoQaZZOk2iXC7X63WVuhuFMxwOx+Oxyqjh+36pVFKZPxRhjN2/f79Wq0m/tJTS9fV1FX8Xde7evVupVKRvo2EYFy5cyHfKCuH+/fuVSkX6KRBCLly4gLvCixVsdg4PD1Ui9+Aky9BjZjgcZlmmEoi0srLCGCuwAAruSqgMSkEQVCoV6U1ndRhjd+/eVVmcOI7TbDYnLUNvOeI4vn37dr45vjwsnSaRlywqcCGoSLlcRgdp6SuMx2N0z1mgVHNhmmaz2VQZ+NDLrNgo0PX1dZWBj3N+eHgYBEGBKt36+rqKVi2E2NvbK5VKBU7Dq6urw+FQRZXZ3d3F+iMLlGouKpUKU0s1fXBwQCktUJNwXRczi0hfYTQahWFYYBMopc1mczweS2ulcRx3u90CX2d16vX6s88+W+DrfBpLN1t7nveRj3zkR3/0R+v1+ltUmcDKVSprWdd1sY7lAqWaCyFEHMcYAyl3BUopxhosVrC56Pf7GNgidzr6KpJCUxN2Oh1DoWgFIQRdNQvMTdLtdhUL2mGgTYGbff1+37IslUnUdd04jsvl8gKlmosoigghKlEDmPy+Xq8vVrDZybIMc1pIv9H4OhfYBEVs2/7ABz7wkY98pNgV2oks41S9trb2S7/0Sy+++KKiUbQoMMizUqlIXyFN01qtprjHr8hoNCqVStLKHLq7q3haqJNlmUrElBCiVCoNBoMCVwCmaZqmKT1wCCEcx8FgucUKNjuoyqjkmkP7XIHJRlEPUJyBSqWSiqeFIpZljUaj1dVV6RGVc76ysqLiaaGIaZphGDYaDelBiXNeq9Xa7fZiBXs8uK77gQ984GMf+9h3f/d3B0FQtDjTLKMmAQDNZvOTn/zkiy++WC6X34qWiVqtpmKT4Jx3u91Go7FAkeal1WopWgJ3d3fX1tYWKNK8NBqNwWCgshre29srcB0JAKVSSdGk3Ol0MOB+gVLNBZbBVJlEx+OxEKJAp1HDMFzXVZmB0jQdDofF+lA3Go39/X2Vi+zt7akskNRZWVnBcDC50wkhu7u7BTqNSmOa5oc+9KFPfOIT3/md37mcNpVljAJFLl++/Bu/8RsA8OlPf7pAXV6CKIq63e7q6qr0FdDttECbBOf8tdde29zclJ6BLMva2dkp1ibxrW99a319XXoGIoRcunSpWMvQjRs38kBWCdDjUjH6Q5Hd3d0gCFRWUa1WK0mSAs0qmMpCZQSvVqt5VrRCwHAwFU89TLhX4OvAGLtz587Gxoa0WYVSurOzc//+/cUK9hh44YUXPvnJT773ve8tdmFzBsu+3P/Zn/3Zn/iJn8BUu0XLMiuYZFrFDNjr9brdboHb86ZpXrx4UUUPQB/jAhdhAPDMM8+oxOJiIGulUilwi+3pp59WGbuFELdv365WqwX2pQsXLkwmSZTg/v37QRAU6OrRaDSw8JL0FdrtNho2FijVXHie12w2+/2+9IJ+NBopbtoqQind3t4+PDyUbkKSJHt7eyprvMdPEAQ//MM//PGPf/yd73xngVHE57Ls0/PVq1d/8Rd/8cUXX8S0MEWLMxPqS0A0Rxe4GcYYQy8z6YZYllUqlYrVJA4PD1V8/dA5K88XWQjYBOk5jBCyuroax3GBTUCPS5XCS6urq1EUFdiE0WiEPsjSV6hWq8U+hSRJFPU5LKNTYBMwM9VUhta5cBynQGVOAkIIbmq8733vW/IZcNk1CQCoVqu/8Au/8OM//uOYsb9occ4nCIIsy1TinpMkKZfLBdpC0dFPxRSE9SCKzSeBCpn0cjzPzlmgxyXWR1BxGo2iCL3uFyvY7GBldhVvc6wFWmCFetd1FauKj0YjLImyQKnmwrIsTDUtPRvhHShwd8M0TcuysLi53BWSJDEMQ8VO+TjxPO+FF174xCc+8d73vnf5IxmXWricCxcufOpTn3rxxRdrtdqS31AAwPJXKlsDlNJ2u12gLUsIEQQBJtiXu4Jpmg8ePCjWP8uyLCznI3c6IWQwGGCJr8UKNhdpmqqYVeI4xiF4sVLNDtaQVNEDMJS3QPtWHMfqekAYhgW+DljaVyWxh2EYWARgsYLNDlbyVLH4EkK63e7m5uZiBXsU2Lb9gz/4g+hiWazr/Yws+6ycc/HixV/5lV/5kR/5keU3T6Vp2ul0VHbjsO5Gsb5+9+7dU4kZA4Dt7e3d3d0FijQvWApOxed/c3Pz8PCwQJsE5iVUWdCvra31+/0CbRJhGKJ9S/oKjUYjSZIC7VtYp1RlQA+CwHXdYvOlHh4erq2tqbgrrq2tFbug393d3drakl5MYtbaYgelWaCUfvCDH/ypn/qp7/me76lWq0WLMxNvGU0CADzP+9SnPvXRj350yR0wHcep1+sqo0YURYPBoNg+tLOzo57ivtiCddgElSjQ27dvFxtztbGx0ev1VPSAO3fuFOvv3Wg0oihS0QN2d3cx7+0CpZqLIAhs21bJstzr9bBm+gKlmgvLslZXV1WiQOM4xjCcBUo1F4Zh7OzsqOgBWZa9/vrryxlFmeM4zgsvvPDxj3/8+eefL9amOxfLGwV6IlevXv3VX/1VxthnPvMZrAxbtEQnEEXRaDRSGTVKpRLuay5QqrkQQqDDvPQVbNvGKWSBUs2LYuQFIaTVamHm8qKiKG/fvq0YPIJNwIrMCxRsdrAjqewQra6upmlaoLcHWgdV3misA2eaZlFNwMVJEARiohD2XDiOU+zExhjb39/HMjRyTbAsCyOKFy7bAnnhhRd++qd/+ju+4zuq1eoyu1hOsbwr+9OwLOvnf/7nP/rRj3qet5w3GgVT0XKGwyEAFOifZRhGpVLBtN9yV0iSZDQaFeg0CgBra2toWpc7nXPe6/VUfMXV2dzcRD1A7nQhRKfTcRynwA2a9fV1RY/LTqfjeV6BKTEwhEdlXxUdbgpsguu6WAxIpWhFgSo1AFBKsa6s9BXSNI3jeDlnDQAolUo/9EM/9PGPf/zd7353rVZbWjlP5K2nSQDApUuXfu7nfu7FF19UyZz66EAnZxVzLroKFuhog69rHMcqRSuSJCk2dDtNU8659CoQ32TbtgvsYxj9KO2uSAhBd/0CE0Ri8IiKWuz7fpqmBW4NxHGsuLvhed54PC6wDE2WZaZpquSTcBxnOBwWuLvBOc+yDCNy5a5g23Ycx0uYahoAbNv+8Ic//LGPfey7vuu73hIullMs3TQ8IxsbG7/8y7/8Yz/2Y0vogEkpHQwGii4Cq6urBaa4Rz/tVqslPYkKIdbW1g4PDxcr2FwMh8NqtSo9Awkh6vV6GIYFLujjOMbVpNzpQgichgv0uMSSSyoel6ZpFlt3gxAyGo1UbPtCCM/zVMq6KmIYRr/fVzGYZ1mmnm9bBYylqlarKqHpKysr9+7dW6xg6jiOgzU1lj9vxGm8VTUJAGg0GlO1OXLbHSEkfxj55xMte6ecYgAxAIAQE4iZXweAAAAxTELMySNH33x4ikmtWq02+cqdqESfoVlnWba/v59HgeaCTUp7vAmTDTwuLbxZ2qMmPGzpm1ptmMQwNzc3VUYNIcSdO3dQuT5R2tmf0cQNn5TWPPcZra2t9Xo9lb2J+/fvVyoVLCF4trQnPqOJv05KO3HDz3hGhgnErNVqw+FQxcXh8PDQ932Mwj9b2vyUU3qUAeTN0sIbp6C0cFKP8n1fMa1Tv9+nlGJ2kDOknaFHvXFv5+pRpmkq6gFYRA1HqhmlPekZGScOOOf1qIc0Gg0Vswrn/ODgAOO5Zuz/+bkTB82TBxwyvQV5/BkJIVqtVrvdljaUovvX5ubm8SbI9aiz3/rTR+bpU37gB34A80aoZCEqlreYx+UUV65cwdocr7zyShiGmMgBywW5rovl7wghQRCkaRpFEQZ99Ho9y7J834/jOMsy9ELCjUzMjZ8Jp8vfRmil374OhldtXIqHdwb9w/ra24hI++0b1F0tVVrj3o1wHDY2nmNxt9+57Vd2HK806FznnPat7/GDMqUUV7RoOAnDkFKKQxIhxPf9LMuSJLEsy7bt4XBICCmVSmjQfvvb3/6Od7xDCIHDaBAEOBjh2m4wGGC+NsxbVyqVsNWe51mW1e/3DcMamu+IeKl/eMNy6qXKeji4OR4OGpvvZMmg377llS+4fmXYeS1jUG8+k4YP+t375cbTlJqD9nVCy6z6nmZzDR0/hRC4sk/T1DAMSil6LWFxJkydhNsZeBBt0e9+97u//OUvX7x4sd/v27aN6X0YYygtFjSybXswGGBCz+PPKHXe1huXe51bTmnDC2qj9o00Y/XWs0l4MOjeLdevWLbVP3yNmH6lsRMP7gwHh7W150DE/cMbtt8SK1caK+u2baNg6C6AZl7TNPODuAmCG/mYu8ayLNxPfe6557a2tjB+D+9t3qOyLAvDEKWdekZ5j3Ich9nbD/rVXudeqfaU7bj9znUAt7JyKRneH/T3a61nCbB++4blNkqVtXHvZjgeNjbeweJ+v/O6X942VlrVxgVMc0kIcV03SRKsEk4IwSbgjcU7L4TA/A2UUiwkfe3atY2Njfe+973j8djzPDRxU0rRVpEkSd6jbNtGI/xUjxJm9U632evtV1evmUT026+ZTq1c2QgHt0bD3srmu3gy7LdvuuUt16+Ouq+lqai1nsnGB/3evUrjquv7Tmk7CEqMZXn3OLdHTT6jy5cvr66uvutd78LuQQjBBKye52GPCoKAc573KHyVJnsUI5XXDyvDfq+++Q6ejfvtm26w7geNYfdGkqT1tbdl0WG/c6dcv0xtZ/Dwrb8YD+8O+gf11ttNg8XQrNXqnDNCCBrJsfNkWZZlGaU0v+FYOBR7FCEEO9LGxkar1bp27VqSJMcHHDhKZzcej33fn3xGSZIkSVIqlRIe3DrwwzCpr7+NRd1+53ZQu2S7/qB9nYNdW3kqHu0Oew8qzWdNg/cPX6NOrVTZDAc3x8N+Y/OdPB12Ilhf3+Cco7STTZh6hfM8YNijkiQxTbNWq21vb+/s7GxububdY1LaIAhQ2qkehWMgPqPrD+px5lSbV9Px3qC3W1l5xjRJv/2aaZXLtQvR4NZw0F3ZeCdPR/32Lae84QW1UedGmrJ661oatu/1h82NK+LITIVC4g0XQuT9nxDiOA6+FJMNDIJge3u71Wo1m02UFjc7CCFnTAq4rXN8Hpl8RlNvPe5uY1YefKz5yGya5uSNIoQ0m82f+Zmfec973vMWitQ4jpJj4JKwu7t7+/Zt27YPDg4Mw6hWq1EUDYfDWq1m2/b+/r7jOOVyGaPqMQTo8PCwVCoFQYDm91qtliQJWv8cx3np75Pf+pO1l2/4tgUEkiSziWE5ZphyI2PUtRjnacJtapoWiWJGuaAeTRjnCbNsSiwj/r73iH/5IllvgG3b2KvQwMs5H4/HOIIMh0PDMDzPw16Fo/xwOMQt7Zs3b3a73Xq9bprmwcEB1kDqdDpYGDfLsl6vV6lUPM87ODgwTbNSqYzH4zAMMYPCy98MP/3n6//lGxXX4sDThNkmpZYRJZnJOPWsN6Q1IE6YJYjlmlHGIOWWYwki4nddIf/zP7e++23EdW3LssIwxDGUMZYkieM4WOQXsx6lacoYcxyHEIL74oyx1157DZvAOe90OpVKxfd9fEaVSgUjXGq1mmVZBwcHruuWSqXJZ/TKzdFn/nLzc19reFbKOEuYZVHDJFGSWQIsl0YZh5RRxwIikpjZxLAcI0y5kTLqWZng2c6a+J9+GD7yPrsUOJTS8XiMFbox19OktLZtR1EkhEC3ONwXJ4Tcvn0bu8pUj7Jtu1KpDAaDJEnQN+rw8DAIglKphKGz1Wo1TdP7++EfvLzx23/WdGnCOCTMsikYEMfMJoQ6NMqYkTDqWhnw7OgZhUlGGaeulTDOGxX4Hz8kfuIFWq95hmGg9yXOZOgDiFksURlF1xwcOtM0xWd07949TLk9HA7jOK7VanmPQmmxRzHGut3uVI8Kw7Ddi/74v6792z9uWQbLOEkYnexRthEmjGaMulbK33hGcZJRAZZL44yD55Af+4D4xH9HWysP9WnLsizLygd6xliaprZtn9aj9vb2Op0OpRQDYvMeVS6XgyDY398nhGA66uNv/WAwGIXZf/nHtf/rc6sgeMrNlJmelXGeJcym1LRIlGSUAXVpzDikGbUtMCBJmA3Ecsww4wYQ8799H/9XP27srDvY/23bxnWCYRiTPQqfET4O7FGO4wgh2u02ZoXCfAy1Wi2O48FgcLxHYakwTMWYv/UZg6/fav3aH1QHYyPOKBPUpQnjPD16hR/2KDM6/oywRwGYH35v8i//e+PZSwFqP+gAhMubvEfhPtrxHoXp88MwjKLowYMHlNLJAQd7lO/75XK50+kwxvIelT8jwzD+8X7j134/uNv2ovRowOEkZdSxBPAkYbZhWrYRptxMGfWsFJ/RZI/6jqvhT/9z+qHv9pMkybsH9qgpaXGMQgcd0zRRFx+Px1mWDYfDe/fueZ5XLpfzHoXPaMYeNfWMJt+jfGR2Xffg4ABv1Gg0iqIIR+b9/X386W63m2VZvV6vVCqrq6tLHpt6Lm9tmwSyvr6OO/q4n43O9lgugRCCIZcbcAAAIABJREFUpjA8KISY/Cu6Ik8dJISIgP+ff2KMBRnFAABCAAEYkBoIEAAjdnQwe/gBAEZHnwkDAnC3m5gOrG9YpkEAYFLZzHvMiVH++E1c0OACC/+TEHKatJMNzA+WVvm/+bKRABlHbwgGANNNOPoAAEMAICDEw7++3mFewOsNalsEAE7c5z7Rdwk3ZTjnTz31VKlUwpE0v+GnPaPjDVzf4f/P18zMIAfRQ7HfJG36JmmnntGYAQAYXVappvWG7bvGadLmT+HEv+7s7Fy5cmWyCcdvOMaGnNiE4Zh/dc+0PXLQfyjtZBNICpPSHv21/rBHMQCApM8r9bTasColI7+3kx9goned2ITt7e2trS1MEHn2DT+xgVHCXxsb7kvGXuc8aU95RoNMOD4rVcxSiUxKfqK0Jx60bbvVauEC7vgrfO5bnzI+dM3SX5Cbew8FG58k7eioRxF+1MCjHgUEUhDlCpl6ZU/MQpv3qMm/BkEwGo1w+Xu2tCf2KMZF5VXjt75MbrQBTftvSDvZo8jJzwgPdhJWrUIQvGkD8cTHkTdh8q0PggB1zeeeew7ePKLCmWNU/oye7Rr//svQvk8yBgAwJMeGowyA1M54Rnd7VS9glk0n7+3Zr/DkwWq12m63Nzc33/a2t50r7Rlj1Nlv/dkj84mnSHt+LA9PgiYBAPgk8ng/MlFpZvLg8b/mH6ZOOejC5GacePh/gKM+Pflh6iAhME5MyxybhmTkG67S8j2zvAmnSXv8IAczjCFj50t7vI04hgKQjGW2rLsiWhRxW+dcaU9sYMoMw4AkO1/aqSP5QdsWoyj1ZX1yGWP4kuPep0QTMmFUSzAIT5AWTnoKx//qOaLbZ7WSvMclmqyNI0eiM6Q9sYFcGOUA+qOZpJ0+CAACPAe6Q96qyw81hBDck5o8MuPjIISIzHBs6J7bBDi1R1kmdIewsybdAsh3nU4chc7tUUIA5zAM3xiU5u1RhgFhQrZb2XGPhBnhnOebILm0+V9n6VG9EYxjyI7cl0+QFqZf4akGAgBw+UEJ3+jJJsw+ok42UOI9OvsUueYsFW95VehRcNCFi2tgyD5fAbDVSAehzZjkzhFWGVDxtx9FsFoFU/bxCoBawDNO41R+8ws3bqRPZxxcG2wFXde1uGXZo1A+An5y6Jc53YDeECoKQWeEiGrJ6vTlm5BvgsidTk047ENDYQNXCNGqm7uH8h0p3xmUO92icNiHloLxWHC4tA7X7ypcQQh0FJA73TCgN4JWTX5QAoDtVfGte0pLR/RCkz59HEGrJj8oAUDJ4wysjMuXDvE8r8CMf08wWpOYRgA8dwlevQuy3RUA4Bu37c1GbJqS771t2+hTJi3A5Q14/cEb6r8ENx6YNT91LMkmWJbV6XRU8hGt1+GwD5FCPrp7h5SSKPDks/QrpsPzHCh7cKAQzNsZ0v4orFckm0AIwepZ0vqQRWGtDncUQv/C2Lizl62vyM+BuNstbQEmABfX4Ft3pH8fuIC/+RZcVij8RCkdDocqiT6fvgD/cEt+UBIC/u4GubopPyJQSrvdrsqg9PZL8DfXgSmktrpzYPp2ZsmOq6ZpdrtdlUFJcxpak5iGAHztVdhZA+m1KAG4diHd68q/cnEcV6tVlXRyf38TtptK6v+VddYby69g4jheWVlRWcHc2IW1GjgK6YgutjIm5HMB4e4MbmfKXaE7hDiDukLVi2Y1q5Zd6Y4ghECLtHQThiEc9mBdIVNO2eM7azRK5BVz9B6Vfh3iDG7eh4sKexOmCe95hrQVkkGgS7X068A4/Ncb8PSWvAAGgfdc5fcPzwo+P5skSSqVisqC/qv/CM89BSqm/EvrrDs200y+CbVarcDcKk8wWpM4gWcvwjCU7/FcwG7H8B3CZFcQGCuhElbz7DZ0BvLKEAA86JLABemX1rKswWCg0oTLm9AegIJhCPb7pm3xMJYvjK6YW3e1AkIoLcL6Y4MzNookmzAZ3S5HNQDXhkTBHjyOyWDMQ/l0EmBZlopK6tnQKMNYQQDG4PaeULHw5aHIclATtlahM5R/o7mA6/cIlV3NA4Bi3l4AuLIBD9pKg9LdA6PkHfOcmBnHcTCKW14CzSloTeIE9jtgGvKGRINA4ArLTEzZXc3/v70z+5Ejye/7JyLPyso6u6oPNjmcITm8huRwhmQ3yeHOffGckbQrCfIutNhdrTySIBmw/xED9oOf/WD40YAtw5BgCPIBWbK0kGxZ6x2td+fg2Xd1V9eRmRF+yOom2azursqsbq6N/DwQBNmVFdEZxzd+8Tti4Z9mxH89j2snv90QgoKn250o8dITl1xK1YVHeC7dFOeHoqdWm5Gd1KoRn+ZJ8SIWVrEMGinKp/iuWmlqJ6k5NlZysbt4sifEvpaNtYQNAFxbN9u4KSzKcUaTxLcbrS7tLuspMmQaEiFSmcfCMJRSJr7dCCOWVtE6+SYqBfkcUiasfQV0u904EUXCFsC9BWwr+dlACCq+brWVnfTKNY7uTnPHlLEdmZLoQxRR8kkcmKMh56hGO6eSihHDMFzXTXMOMySujZV01scRKNK0wqROo3GEd5ou2BZCkEtRqSCMyHtOJ6ldfdPdMnmef5Nmm/EUaeu6oaiVrGYruU0CME0z8dWAabLeYSpF+ZRuKMarciVdNbo0Y8k06IapLmgixXhFLDSSPwFIU91XSqSkVkplkyjmWFpNXo5OCLGZQCwZBY9KMYUne9xwYSS+KYvzWWW3G3tBpiT6cHiS//0liS+nheDLObvstWXSSSOESFmXfLzC1/MESY3SQrDQkCaBZSY3KsRJ7hJ/vOCxuk4aq/h6W3Y67TiZRAK01mEYprkgMA3KBeZT7EChkgsrnUoheReklHHW1GRPkIJ6mfuLyT4NIODenJqspgiBMYw4v1DCz2smqtydT/z9SMlPvtJHU3hcxl1IUdOVepm788ltEkLw03vixKHk1qk4b16aRank8dWjVJd9Cw2Zt7uunXxdjfOGJW9BxjZkSqIPf/cFpw6n+LzmxHR3ac1MbJMIw9D3/TTOTV8+5MhUiitJzcFatNY1E/tJhGFYKpXSnGAWG4xXSHw3AdRKkcJe7yTP0m9ZVhpXjyBkvUUpee0q8k6Y9+yVteRt2MzqkQylWWgwXkr8AGxTj1flo6WEXYj1XN8cUAMiBA8WmE5RUE+gTx0WP3+Q/AlhGBYKheRRoIKv53hpKrmhVMArL+rP7yZf8MMwjDNXJn7Czx/y8jRmUkEoBC/Uo06Yyoe6VCplUaB7QaYk+vDKi4QRnpvQ6VJpfnLXrBRUYqdNx3EajUaaxGfHprEMil5CMaHhZw+NSj5KbIp0HGd5eTnNrerBOr6Dn0uuh76aM/NOkCZmLE3dKaCQ48QhXCd5F+ZXTBWFbtLFM06JE9e5SPYE1+b0YQwjeRdW1uXyaljwkp8j45IWaVJiXDyBEMnt6kEkPr+raynk1GbFlmQfF4KLxxEieTRWpPjxl2KyktwgYFnWyspKmkXpwnGUxjKTLkqaL+ak5wSJ8/RYlrW8vJz5SewFmZLow9wKxw9RK5JLdJaTgsmKajSFTLpwbBaJSfZxYKHBsYOMVyjkknxcCA7W1EpTJE6J0W63C4VCGo/L5TUOTzFZpZQ0s9P0WNRsGYkvaOLaBGlsEu0AKTlQSx4IWi9FSsvEWT3iNL0JvxuAICAIeWGcWimhMC7lVT5npPS4TDOQwoi5ZY5OMV5JuIdZBofqIvFhGogL9SUeS0rz9TzHDjBZTbgTG5IjUzqFQaEXyJpmOvzsPi9PM1nFtZOoOiGYrqnGOolPaHH5tJQzIqMvmZLoQzGPa1EpMFYgN/yBUmmUQmEm1s6xak5jhSvnQVPxqZUo5Iaet1qz3sYyZWJ3RdM04zpSyT4OFPOEIRWf8UpCB9hmW7iuTJzjMs6Nn2YPc2yCiKrPZIVqIcmBcr0rcq5cWk219qXZw2wLBCWfqWrCrKmdANvi0XLyHSiu6ZXcadTANvFcDowxUUliXY80kdIPUjiLWJZlGEaa2w3PwZBMjTFRSeJJrTVrLbGwmlwNbdYASvyEQh6tmagwXsYZfl3VmpU1aZlm4nUx9tvNlMRekCmJPpiSIMQwKBeoFfGGPE5JwXJTVr1W4gM90G6301jhIo0QRIqCR72MP+RVvYBOIE3ZdZI6Nyml4rCxZB8HugGOTbuL5zBepji8t4FCtNupPC5TVsoNAsp5FldxbcYrlIe/65dCLCx3S/nk8zS+3Uhs3woiijkeLmIajFcYGz5ttmmIBwtqrJh8LsT10xNPh0iRc5hbQgjGK9SHD6UxBPfmmUiTb1vrTqeTxuPSMllrEUXUSkxUeoGpgyMES03Gy8mNElEUdTqdVO6Kmm5IGFEt9CTdUCccAVqhVZh4Udosgprs4xk7kCmJPiys4uewDGyTkk+lOFwsooZD9XBxPbmjnVKqUCikcW5qtjENHAvTwM9RKw7pcCCol6IIN3FSDSFEyox4QUgY4ucwJJ5LvUzJH27p8Z3Qc73ETqPxDX1KPbHQoF5GCHI29TLV4nDGFctUE2NO4sxUgFIqzYEeeLjMdK2XUGG8TH1oy4R+YcJYWk3ehbhgd5rpMLfM5BiAKRkvM1UdzjKhNKcOizQ2iSiKUlZ8WF6jUkBKDEm9xIEatjmEmV9pjk6pewsi+Q2LUvl8Po2Vcb1DwcOQSMlYgekarjPEjNZQLqhOZCY2lGqtPc9LmQI/oy+ZkujDsQM8WOyldXIsKgXqpSHEhNb8ry+tiVLyVDi2bad0VzxUp9GkEwBYJgWPySr+wG4fWvN/7pt5u5vYSc00zYWFhTTyv15GadZaAKbEd5msUhjGZ+LekiV0O3EeGyllnOMy8QVHzmG8wtxy/DQ8h8nqcJaJ5TWjsdpJ4674ZC3QBNgmL9R7IZRCYFtMjQ1X0KvVlnfnwno5uU3Ctu00UaCG5PAk9za6YBpMVoezTESKH32uX5pK9v2w4UOdeEYLwaE6D5d6oelCMF5mojKEKtWav/xcHj+Y/LbOcZylpaU0NonpGnPLj9PljRWZqAznzPv394yxQpDYJmHbdspiQBnbkSmJPnx+l9oTC41tUsozVsQbbCeWgtMvBIuryeV/p9PxfT9VwNWDp240TIO8S61MYWBDyZED4dKaTOzq0el0KpVKmhPM/cWn/O2l7B3rSwPvxIdqwWrH7CYtZ5oyfhJotnm09Dg3ohDYJvUS1eKgq+dYMURYa0kzU8UGlTSStBPw5dzjYRPvxOMlxkuDniYLnirmzTQ2iW6363nJLXxhxM8fMPZEWqc4y9NUdVDjimXw8sFUGSliB+Q0HpdfPKRWfko6VAtMj2EP5oBpSM69pL94mPzCtN1uVyqVNMatnz2gXuZJQVjOc7A2hAPm8YPR8lqqYkDVajXNupqxHZmS6MNYkU73KfunbVH2GSuQs3eftxoeLhtSWomvBmzbThO5B1QLdIOnkjGYBgWP8fKg1xyPlqTnisRpZOIs/WncFYseYfRUlmVD4ju9aI5Blp65FbOQS179xDCMIAhSeVxauDbeE9YsQ5JzmKxSGcyHdGnNyDk6RZI0Ef+ZJoSylH8qUbQQODaTY4wVB9qJV9tCkLwLQOyrmHgPMyS10tacTpbJRJX6YEWug4iVZqpqDZZlBUGQxuNyokKn+9R1hmFQrzBewRpAHkSKR8vJk94ClmW12+00SuJgjWbrqS1HSqpFxis4A6yrwPyKcG3dSXo2iIvKpnR+yuhLpiT60O6iFFuUqxOLidJTG8P2CHSquhspj5LrHSxza90Ny8DPMT6AZUJAzqHdSZ7iPraop+lCq4PnbK27YRh4Ti+aY1cKOb22HuWchIM8iqI0ezDQDfFcWk9fyxoSx6JeoTJAF4qeXl3XxXzyKFCg2+0m1kNRhGVsre3es0wM5oCZd1jv6LFS8o1Ya51G0kWKUBFET4kJAYakXmZ8AD9Ky0ArfSBFyvAoiqIoSnzHpDRrbaTokyCyVmKyuvsdgZRYpqgVkx/HU1Y/ARYamCbBM02o+ExUsK3dtXXOIQiVnTSuO34FWQWvvSBTEn0IInJun2FtW5TzVAcIDS3no9WOE0W6E/QUSaSIVK96TRD1jmhh9PisFkU6PjzH/+u6bvpcbM8eVgZ0wNTgmEphdrpPdGGjhU/+fbMLWhNt1N8OIq21SF//sNPl2eJVcURcrbR7aKgQ2ratZkt1Qx09/Qt/srWb/xipx68jjLTSpFk3AVOyuNJHt8lNB8zdQkOVougbiw0VhL1dJNjoS29EPTFmNpv9ZBe01q7rJtZDhsHSap+UHj0HzAr18i7ei5FmrCzvzukg7FXFC8KNX3jEU61VT/UlLqOqNVrrNJkMDEmzRTHfZ8BbBhMVJndzwFQwOcaPv3y8kW924cnWhtEzHdx4R0IIz/PS2CTCiJzTp52xHjpQ3c0BU1P19U/umpsHpPCZKay0Vhsj6vGk2PgxKWWawugAAtvEfuZwYUjGikxVcXezTFiSbtirUK80YfTMFN4y/p+e9YZhpHTdzdiOFNau/0/RMF6m0eyfH96xiV3HFho71Sn+q8/tf/9nwX/66+jQhFxt8nBJzZ7Wtmncm+96LmXfWl5V7W5ULxsg7y8E1ZLwXHN+OdJK1SqmY4mi3Tp7InmG4JJHEPY8LrcQO2AKwaNlVte3fcLf37f+3Z8F//OnwaFJ8+GSWmqot1+NDEPOLa6XfNN1neVGV6moUnSCUC+vtitFy7TshaW2bVAsuuggb669fiZ5XkDXxjRp9vNbjd0+JioIWN6+TOX9RfNP/rrbWA/rZePuvOoG6uJxNCw12tWCadrW4nLHlBR9Z70TNde71aJlmOb8YttzpefZQTcoOKvnTyUv/RSHHcYel1uIrzkmqiBY3L4wx8q68Ud/oTW6Xtaff6UFaua0CALdaIb1irRM4/58kHNE2TdXmqrVjuoVQwh5b75bKUjfM1fWwprfPXNEOk7SNJmaA7X+LgKxmIjfwqN+fYzpdMWf/IiJki75/O3PVD7H+Zdpd1S7HdYrpmnIrx91SwXhe9biShSFUa1iBqGYXwrGytJ1zLnloOyFrx8L67WEPitac2CMrx72KVohBIZgoopgp9oiWvOf/0bMno5+9Ln825+F9bI4ekCurodCR7WKESn5aLE7VpKua84thlLoaslsdVhZDWtlaZvGvcWg6quzL7YPTiXKE0cvDcODhW2r+8bxQXfnUWrbYpt//mPx33/c/Zuf2n/3RXiwJg5PibVm13ejUtHudPRqs1MtmoZlLSy2HVv4eWdtPep0upWSLYQxt7heLsiXxtePvpg0yRrUiiw0tq1QXy0g4O4CQdi/vIiAr+bEf/kf3aU18fVc+EJdVktirdkp5VXBc5rtqN3ulou2IY25pVbBM1zXaawFURSWi3YYieWVVrVkTJaap14ePpQ5YzcyJbEVAV8+pOxjyP5iwrYo+WhgGzGhNesd/tm/sZTCNLRrU/CMP/4rVchF7cCOlMjZCmQ3MAypLVM3OzYaz1GRNsLIPFjTl0/rt8+Xw0iZSbPjPlzGc7Ct/lW5Y8uE1qBZbfV/QjfQ//KPTDSmoW1LFj3jT/9alPPhWqegNb4bhsruhtIxI8Og2S4ItOdEndCNlJweC189Kt9+rRaEkT3ILW4/ltcQAs/tXw/akHgOtTJ6o/J1X/7Vf7T/9Z9oz1ZSSi9n/OF/C0ueWuvkQftO1AndMBI5KxJSrnfyhtSuHa13ckqJqWp04pD5zmtjSic3SwQhCw2qxf5aQQpci3oJNMtr/avYK8V/+Evjj38kXEsLKfyc+Yd/rsp5HUSWAMdWncBSSriWQohOYBtSWaZa7zhaUyuqw5PGBxd8K01+ScXdeSarbBcDaZvUy2hYbPSfL0rzX/9W/sWPsS2ttMy7HKqrsi/DyJFC26ZqdR2l8WylkGFomlIZhm51bXremtaHlywrheer0nz5kOkaP73X/wdM2evC/Er/rVop/u4rfv+fypyjOoHp2rwwrkp5GbtwmIZe7ziAZ6tQmWEkbFNJSbtrCUHOVtKwPrzIzOkUZW3hi4fUK3w11/9/hWCsiIZHS3T77cRK8+Uj+Y/+uZ2zVTswHUu8OBGWfUtK27UiQ4pmJy+F9uxoPchFSubtUCPbQd6UyrbUWst//4I4fzxFCRn4eo6xIlL0H+pCUCmgBY+WevfLW9Cw3JT/4t86eVe1upZjcageFTzHMIRnh0LIVjdvCOVaaq3tKS38XBgpsxs6lhFZhlpr+2+e43s3ckolL1+SsR2ZkujDixOsNLeV9sShoT4S5lZod/v8ZKsr4ttxKcWkg+uw3jHWO709da3VZ3Nda0ugXODINDOnjZcPJS91Axyos9raqZxpLCakRC/RbPVZerqhiE8PUoi6Tc5hrWM1uz3Xu0Zrc+Q8HkLL6xbg5xivmJdOc/ZoKg+veoXNi5W+GBLfxajCNmKiE8SmUrHWkmNFXJNGy17b0CUrzV5flp+aBRbg2OQ9c+Y0M6dTlRDzXPwcne1veOLQ0KkxgKW1Pl2IFCDCiE4gykXyLt1QLqxuLITrvSGy2tpcGnt/sUwcW149w7sXnvKXHBbHYqzYi8XtS2yZmKqCZqHRZ5NQCoUII1pdUczHXTAWVzf/v9eFZntrFwyJaRk3zvKtt1IVlzcNJqo0mgi2ndSW2Ss7/mi5/6zRmmZHNDtG3sV16EbGyvpTrQXWnnkLQtAJjU+u8r3rg0Z+9UUIpqqsNJFy20ktJeNltObBEn3vRTW0urLVlTmbnEOgrEbvtT4e/4v0xspK86nV5+NZfu+Xh4j86suBMZZXEdu/BiEYK6A1DxbpBv2PB2ttudaWtoXr0AolbcQzrY15Yo0ygDfP8d0bTI5lMmJPyJREHx4skXd3qSq+aZlYbNDc5prDMqkVqRcZMNdltcC1c3x0iXNHUskI4NEinrOtLXSzeXnBeIl5aGxzzWEaVAvUK4MGmxXzXDrB9VlmT6WSEcD8MrbV/4JmE2MjNHSHaw5DUvIZr+BYA0V85F3OvsSNy7zzWioZATTbdIKdbsEAKbEt6pWdrjkMSSHPeJmcPVCsgWvz8jQ3LnPrSioZAXQC1lrbWqRjYgfMehlE/6scQEp8l1qJfG6gsR1v/9dn+I33UskIIIxYWkWLnc4GcQvjLjxc7L+HSUHOoVqklO9z2d/35ysFPrjIdz9OJSMApZlfwbV2ryo+VkQI7i889qF5EiFwbSo+ZX/QgeG5vHOeH95OKyOI19XcLm8Beoe0+4t0+okJIbBMyj7VAjlroNxcrs3lU3z/JtO1tOtqxnZkSqIPttVbHHfeiW2r54mmGrS7Wwe9FNTL1IoMGL4wXmH2FDcv88qLafdgwLGJFK691et+C7FlAoHWNNtbD5RSUCsyVhpURlR8zh/j9hVeP5F2DwZcm24XP7fTgRgwJHkXWUHD6vpW/Rev5mOlQWPW/RynDnPnDa6eGUEXYqfRWpG5lZ1+LPYhnagCrKxtvSMQgqLfy9o+oIw4MsXtq7x3gTR1s2IMSRRRK3JvYacfi7eoqSpCs7DapwuFHGNF/MFkROyCd/sKn16jmLR+2yZSYhiUPBZWdtqJBVgGUxXQfa45hCDnMFaglB9oegpB3uP6LL/+LmMpiohuti2+rJSCnTO8mEbPMjG3TDfYum3nbMoFKgPLCNPg/Qt8/wbTKeJWNqn4SANje7NKjCGpFlGaR8t91tV41R2qItIbZ/j+TY5MkRUB3TsyJdEH36XR3EVGxNgbDpjLTZqtXuqhUAHUSoyXBhq78W43e5Lrs7x2bDTGN9skUrvIiJieAyYsrNBoYQgMo3egqRSolweqPSgEBY/zx7hxhdlXBgpw3xUhcJ3+HpdbMCV5h4kKUrDSxBBIo3ctUvKplQeSEfFiffowNy/z5qsj2IMBralXWNzeJ3QTKchZjFeQgsVVDNlz1xfg56mXegWcdsU2OXKA6zN8NEM+3Tk4RmtqJeZ3VEIxm6GhQjK/gmEgIAgxJDmXWmlQGRHbBj68xK++PQIZAWhF0et/efRsF2InWSl4uIRpoCGMeoG7VZ+SP5C+FIKix7uv8ZsfJS8DuwXHptnu74nyLLVSzzJhGnGMA6bEsijnKfmDjm3H4uoZfudTaqPzUGx3CAaLSKsWEZJ78z3xpCIMA1Pie1QLg9p4LJPXX+Z3Ps2sEXtOpiT68GCJko8QAyw9YFtUCuSc3sk+DJFGr/ygHGDsCkG9zOxprs9y9qWR3eGtNDGN3c0qMaakkMMyGdcoRRj1iutY5qAljCsFzh/l5mUunhiNjAA6XTpxEa8dbwdieg4HVeplogilegdH08AZzBpR8DhxmJuX+cbZ0cgIQGvuL1DK7xSdsYkQ5CwmKlQLhAqte79Jw8CxBpIRnsPhCW5d5v2Lo5ERMXcXGCvuFNqwSZxOe6JC2ScI0WAaaN27hBpEVZsGxTzXZ/nmW6OREXGrHi4xVmRpdfcZzYYDZsGjG4DANFAKKfDcQZVQzubjGX7jvZHJCGB+hZKPYezkObRJnIwr79IJkKLnPC4FOXfQ6WnI3r3MCGXE8lrPojOImJCCqk/Opt1BSqQkipCSnIs9WBdMgzfP8Z0PMhmxH2RKog+HJ1gaYOnfxDIxNzLDKI0AIdAMdIdX8Jg5yc3LvP7y0GV2d2CyyvrAJxjijE/yiS6InnvaIC3yHM6+yO2rXDs7yi5UCqAZPCGFIXvx6Fqj6akHrQdqkmtzbJo7V/no0tAV2HfAsRkvszKATSJGyl5azARdsE2ma9x5g195a5RdMA0O1nk0gE0iRmwI0ARdMCTFPJ9e47dvjdIQLSWHJ7m/MJCMYMO44udQ7sZcfqIvu37Wsbh+md/9pQFT2A3apJcmebCAGjgVghTk3V4bhupCzDuv8QffHCh52uAcnebe/EBnmxgh8Bxce+i3EDNzkn94h4PjmYzYDzKP5pZIAAAMz0lEQVQl0YcvHlDyd/L0fpbHKf03/jLIgK+VuHqG67O8emyUezBwb56ihyGHm7cxQ3Wh4vP6cW5d4corI+7C3AqOjWXu4nT5JHEDYhn05L/sTMHjlRe5dYW3XxvlHgy02jTb+DlWmoN+JFkXPIej09y6zEczI+5CN2R+hbLPwsBiImbYLsSFtW7M8s23RnyfHUZ8PcdYaReHm2d5PBHEQHNBSso+H1zg2x+MUkYASvHzh9RKfPVouA+KIbsA5GzePs/3b45YRgA/+apP2vJdGfYtAJbZc7E8WMfMIjX2hUxJ9KFW7lnSBj8BJPmWElde4eZlzrw0+uFeK9EOhlMSCSjlee1lbl/lwonRC/9KgXYX0xhCSSTAczj5Qs+g4qZ2sdxCzkHrPffzsm0OT3LrCh9exE+Y+mhbHAvHHLaM+NBISaXAzct86+3haqUOQpzHLLaL7F3JBSFwLT6e4Tc/GiiJ+FBISTFPGA16u5GG9y7wu58OVyt1QKpFOsGgtxtp+MZZPvuUQ/XMGrF/ZEqiD2HU87TaI2IXy6tn+Ogi546MIFLjWVodrL3cgwX4HhdOcH2GSyfThhr2pdnCtQbyuExMzubsET6e5c1zaUMN+9IO8NyBnCQSY1u8PM3HM3x8ifyoZQTQDbAsHi2N/smbGJLxCh9e5NffHUGo4bOEEVKwPIDHZWKkoOTzzmv84CbFPeiC0kQRne7enm1yNt84x+/9ErXUwSZ9iVPv7OnZxrGYPcVv3+ZgJiP2l8z004fVFm6/FPejol7mjbNcn+FcutxNOxCESDkyz8FnqRS4eJybs8yc2hMZAaAJotEfsjcpeJx+kVtXeOvVPZERgBQsNhjfg+NdjOdwZIrbV/h4Zk9kBCAEi43RBAH2xTR6AZ+/9s6eyAhACBpNJiuD2saHRUp8jxuzfPejPZERgIB2l2J+D7Mq2SYfzvDD2yOIWd0Opcjv5bpqGnzjHN+7zgsTI/P7zhiQzCbRh8PjzC3viXYWUPKZOcWNWS6eGP3zN5mostYaKAo0Ab7HuSPcusJb5/fk+TElHymGvtseEM/h+EE+ucb12T15fkycOXGHmhRpsC1emODOVT55Y6/0KGBIDo1zf8dkEskfblAucOMy3/4gbe6mHRCC6Rp3F4Zwexrq4TmH9y7wvRt96pyNkMkqc9vkI0+PIbl2ls/u7JU1IqZWZrGxV1cbUvL6y/zwFi+MD5rCJ2OEZDaJPvz0HmOjC9/aREC9wpuvcusK54+N/vlP8tWjvTpnVwvMnuSTN5g9vSfP32R+hUjtyQ19Ic+5o3x6jTfPjf7hT9Lucn9xT/ZIz+HEQT55gw8v7aGMAIKILx6O3neBOItlmU+u8q2391BGAErx5UPqpRF7BANSUPS4McNvfri3MgL46hG14p7YJAzJu6/z2Sd7KyOArx9R261ybGKunOazT3hhIpMRz4fst96HOIRyuwpeiakUelks0yfD3pVaiU5n9M5NBY9Xj3L7CjOnRpACcmdKeSKFZRKN1LKSczh+iFtXePv8Ht7+xDgWBW/0YsgyOTjOravcmN0rvfj4uwzGSv1LLqXBkBQ9bl7h2x+MMvXFdt81MUa7O0ws1gD0Aj5n+e1RZJLe9bsO1FjbvnJvGj66xD/+tT1XQsChiZ0q96bhrVf5g29yYCzzjXhuZEqiD8trSGPEq2elwLVzfHiJs3vjYrmFlTVcd8Ru3kWPSyf5eIZLey8jgNUWntNLGDoqPJezR7g+ux8yAugGmKN2to9TX9yY5ebl/ehCEKGiEc8F02Ciwkcz/IP391xGAJGi2ULKUQoJKSgXeP8i37ux5zICUJrFBo61S57pYfFc3j7PZ3f2Q0YADxbI7VYMaFhcm8un+cFNpqqZjHieZLcbfYiT447wKDle5o2z3Jzl/NGBav+kx7Yf53kcCdUCrx/n1lVm987F8mlyNp1glJGZhRyvHObOFd46tx97MGCZNJqj9IWMa2rcucqHl/avC80OhdF1oedieZVvvbWH7rRPYhiEEZ47stuNODf8zVm+8/4os1jugBRI2cuANyoskw8u8Fs3e0VQ9wHbRIpRLoBScu0sP7jB0ensUuM5k/36+1DK02yPRjsLQbXA7Gmuz3BhL10st+BaRGo0UaBx+aVXj3HzMldf2fPUApvES+dIPC4F5BxOHubmZd55fZ/EHKA09dK25TGHxbE4MsX1y3w8O+LERzsQRYyXuDs/mqfFWZw/Gl1NjUFQilqZu3OjiQKNZcS7r/Gdj6jui4wAtKaYZ74xsgO9bW64WO5ZYNGz5HM0mrvUlR0cy+C143x2J0uG/QtBZpPow70FSqO43o6rAb1xlhuXOXd0FC0bmMVVXHsExgMhqBS4dJJbV7h0cv9kBNBsofVorN++x5kj3L7Cm+f2T0YAkWJuZTSObJ7D0QPcusJHF/dPRgBac3eBqbERPMo0qBa5McuvvrN/MgLQmq8fcWAUgaxxZPWHF/nux/snIwANDxZHVgJDCt6LXSz3UUYA88tUCqNZQwzJtXN8dofpemaN+IUgewl9OHKAhcYITjBFj5kT3Lw8sgqfg3Owzur6CE4wOYezL3HrClfP7KuMAMYrBOEIzCquzcvT3LnK+xf2++ziOVR8Gqkd5WyL6Tp33uDTa/vdBdtiaozF1bTPMSQFjztv8IMb++En9CSmwXR9oHKmOxO7WN6+yu//yujToe6MFEyPsbA6mjSd71/kn/wapT2Ix9mZ6RrzOxZ2H5zLr/C7nzCd1dT4hSFTEn348iElP62X2ViRN87y8QyvHt1vGQHcnSPvpo09KftcOM6Ny1zZx0uNTR4sYpppxZCf48xL3LzMu689h0Wn2aaxnvYt5ByOTXPzMjdmn0MXOgHzy2lNl3FNjeuz/Orb+y0jgDDiwSKuTSNF9Eacl/aDi3znw/2WEYDS3F8YQdqrnMPb5/mtW89BRgBfz1EpIIYqaPQMcRbL79/MZMQvFpmS6IOfQwr8HEoTKaIIxyJSRArTAI1SRBrbQqmNSEWF0o8L+JbyvYDPMy8+n+Hue2hN2acT9BoZdyFUWAZK904GlkGoiCJsi0ihFVIiBZEi7/LqUW5f5cLx59MFz0Vp6mVW11EKzcbveeMXHrfWkL0ubL4jS6LpdfnkYW5f5dqZ/Qg2eRbbxDCYHuPhMmqjtX1GFKj4H+2n3pHSWAYvTnD7Ku+9vrdJF7bDNHBtDtS4O99L7yHE0yMqwjJRGq1A9EbUk+/IkBR9bl7hl7+xT/6JW5CCYo5akZUmUYhponUvCMIyt7a2V8D6mXfk2lyf5dsf7HnShb4IqJZ6tT07IfbmggOG8UxrJYj+s/6Di/zw1v65WG5hoopt4Tm0ur2GqScWnM3WRhsjqs+sj/jGOX7rJocnMhnxi0WmJPpQLfDe6xw5gFIU8wQh6x1yNq7N8hpCUPJZb9MJ8F0Mg8Y6UlD2WWkShpTyuA6nD/Pq0ec23H2XDy72Et8W87Q7tAPyLqbBShNDUC7QaBJGFDyUZq2FbfaqVsbuXVJy4iAzJ5/PHkzsFHYGU4Cg7LPaIgx73v6r69hWr7WP31GbnItrsdxEQDlPqDh6gGvnyO1LmMOzCMHF49yd76UwWllHRRTzBBHrbXI2rsPKGhrKT4+ozXfU6vDCOO9d2I9oye04eZiZU1gGOZfGGgpKmyPKwTRpNHvjv9EiDCl4aFht9t7RaotaiTtX9ynU8Fmk5KUpLp3k0ilsk5U1hKDis9oiiEeUYHUdy6Tg0VgjUhvvqEXOwXVYbTJW4pNrlJ9TF4SgnOficU4dxpCsNDENih6NdcKIUp4oYq2Naz1+R+U87S6t7uMRVfH55tujr/A5FK8d48XJ3oLjmOQ3pnDZ77XWc7BNVppPvyMPAY0mZZ8PLnGwlvlG/MIh9N6Vtfl/lm6AEHQCOkEv80+7i5Q4Jt2QKCKfI1K0O5gmpkE3QGs8lzCkHeDaCLDM52DI3SRUaE27QxA+bq1hYJl0A5TGdwki2l0cCynpdBHg2IQRQYjnoMA09tU/cQvxoarVIVT4LmFEq4ttYsie80TOIQjphngOept3FAf0Pi+0RuteHJDnEER0AlynV0ZBChybICB8ckQZmBvvKO8SRpjGc+0CaE2zRaRwbMKQIMJz0JpWF0Nim3QDIt17R+0utol8+h1Z5j7FrO7AWqtnPgxCoi0jamMKx9kO4lkfv6PYNyKIsH8xuqA1hqQb9hacIKLT7S047QApcG2CgGBzRHUxZG/Wu/bz70KzDRoh6XRBkLMJQoIQz0XFrTWw4yncb9bbJq7zHG5aM3YlUxIZGRkZGRkZycnUXUZGRkZGRkZyMiWRkZGRkZGRkZxMSWRkZGRkZGQkJ1MSGRkZGRkZGcn5v6qrBlJ47fF9AAAAAElFTkSuQmCC;" parent="1" vertex="1">
          <mxGeometry x="60" y="180" width="77" height="77" as="geometry" />
        </mxCell>
        <mxCell id="VCr7q-Y5Y-EF6py8yG3E-5" value="LED Indicator" style="rounded=0;whiteSpace=wrap;html=1;" parent="1" vertex="1">
          <mxGeometry x="440" y="150" width="120" height="60" as="geometry" />
        </mxCell>
        <mxCell id="VCr7q-Y5Y-EF6py8yG3E-6" value="Vibration Motor" style="rounded=0;whiteSpace=wrap;html=1;" parent="1" vertex="1">
          <mxGeometry x="440" y="250" width="120" height="60" as="geometry" />
        </mxCell>
        <mxCell id="VCr7q-Y5Y-EF6py8yG3E-7" value="Buzzer" style="rounded=0;whiteSpace=wrap;html=1;" parent="1" vertex="1">
          <mxGeometry x="440" y="350" width="120" height="60" as="geometry" />
        </mxCell>
        <mxCell id="VCr7q-Y5Y-EF6py8yG3E-13" value="" style="endArrow=none;html=1;" parent="1" edge="1">
          <mxGeometry width="50" height="50" relative="1" as="geometry">
            <mxPoint x="40" y="300" as="sourcePoint" />
            <mxPoint x="40" y="120" as="targetPoint" />
          </mxGeometry>
        </mxCell>
        <mxCell id="VCr7q-Y5Y-EF6py8yG3E-14" value="" style="endArrow=none;html=1;" parent="1" edge="1">
          <mxGeometry width="50" height="50" relative="1" as="geometry">
            <mxPoint x="580" y="120" as="sourcePoint" />
            <mxPoint x="40" y="120" as="targetPoint" />
          </mxGeometry>
        </mxCell>
        <mxCell id="VCr7q-Y5Y-EF6py8yG3E-15" value="" style="endArrow=none;html=1;" parent="1" edge="1">
          <mxGeometry width="50" height="50" relative="1" as="geometry">
            <mxPoint x="580" y="430" as="sourcePoint" />
            <mxPoint x="580" y="120" as="targetPoint" />
          </mxGeometry>
        </mxCell>
        <mxCell id="VCr7q-Y5Y-EF6py8yG3E-16" value="" style="endArrow=none;html=1;" parent="1" edge="1">
          <mxGeometry width="50" height="50" relative="1" as="geometry">
            <mxPoint x="580" y="430" as="sourcePoint" />
            <mxPoint x="160" y="430" as="targetPoint" />
          </mxGeometry>
        </mxCell>
        <mxCell id="VCr7q-Y5Y-EF6py8yG3E-17" value="" style="endArrow=none;html=1;" parent="1" edge="1">
          <mxGeometry width="50" height="50" relative="1" as="geometry">
            <mxPoint x="160" y="430" as="sourcePoint" />
            <mxPoint x="160" y="300" as="targetPoint" />
          </mxGeometry>
        </mxCell>
        <mxCell id="VCr7q-Y5Y-EF6py8yG3E-18" value="" style="endArrow=none;html=1;" parent="1" edge="1">
          <mxGeometry width="50" height="50" relative="1" as="geometry">
            <mxPoint x="160" y="300" as="sourcePoint" />
            <mxPoint x="40" y="300" as="targetPoint" />
          </mxGeometry>
        </mxCell>
      </root>
    </mxGraphModel>
  </diagram>
</mxfile>
